<?xml version="1.0" encoding="UTF-8" standalone="no"?>
<!-- Created with Inkscape (http://www.inkscape.org/) -->

<svg
   xmlns:dc="http://purl.org/dc/elements/1.1/"
   xmlns:cc="http://creativecommons.org/ns#"
   xmlns:rdf="http://www.w3.org/1999/02/22-rdf-syntax-ns#"
   xmlns:svg="http://www.w3.org/2000/svg"
   xmlns="http://www.w3.org/2000/svg"
   xmlns:sodipodi="http://sodipodi.sourceforge.net/DTD/sodipodi-0.dtd"
   xmlns:inkscape="http://www.inkscape.org/namespaces/inkscape"
   width="21.724627"
   height="6.9596381"
   id="svg4459"
   version="1.1"
   inkscape:version="0.48.3.1 r9886"
   sodipodi:docname="fig9.svg">
  <defs
     id="defs4461">
    <marker
       inkscape:stockid="Arrow1Mend"
       orient="auto"
       refY="0"
       refX="0"
       id="Arrow1Mend"
       style="overflow:visible">
      <path
         id="path3880"
         d="M 0,0 5,-5 -12.5,0 5,5 0,0 z"
         style="fill-rule:evenodd;stroke:#000000;stroke-width:1pt"
         transform="matrix(-0.4,0,0,-0.4,-4,0)"
         inkscape:connector-curvature="0" />
    </marker>
    <marker
       inkscape:stockid="Arrow1Mend"
       orient="auto"
       refY="0"
       refX="0"
       id="Arrow1Mend-0"
       style="overflow:visible">
      <path
         inkscape:connector-curvature="0"
         id="path3880-5"
         d="M 0,0 5,-5 -12.5,0 5,5 0,0 z"
         style="fill-rule:evenodd;stroke:#000000;stroke-width:1pt"
         transform="matrix(-0.4,0,0,-0.4,-4,0)" />
    </marker>
    <marker
       inkscape:stockid="Arrow1Mend"
       orient="auto"
       refY="0"
       refX="0"
       id="marker5217"
       style="overflow:visible">
      <path
         inkscape:connector-curvature="0"
         id="path5219"
         d="M 0,0 5,-5 -12.5,0 5,5 0,0 z"
         style="fill-rule:evenodd;stroke:#000000;stroke-width:1pt"
         transform="matrix(-0.4,0,0,-0.4,-4,0)" />
    </marker>
    <marker
       inkscape:stockid="Arrow1Mend"
       orient="auto"
       refY="0"
       refX="0"
       id="Arrow1Mend-5"
       style="overflow:visible">
      <path
         inkscape:connector-curvature="0"
         id="path3880-7"
         d="M 0,0 5,-5 -12.5,0 5,5 0,0 z"
         style="fill-rule:evenodd;stroke:#000000;stroke-width:1pt"
         transform="matrix(-0.4,0,0,-0.4,-4,0)" />
    </marker>
    <marker
       inkscape:stockid="Arrow1Mend"
       orient="auto"
       refY="0"
       refX="0"
       id="Arrow1Mend-5-9"
       style="overflow:visible">
      <path
         inkscape:connector-curvature="0"
         id="path3880-7-4"
         d="M 0,0 5,-5 -12.5,0 5,5 0,0 z"
         style="fill-rule:evenodd;stroke:#000000;stroke-width:1pt"
         transform="matrix(-0.4,0,0,-0.4,-4,0)" />
    </marker>
  </defs>
  <sodipodi:namedview
     id="base"
     pagecolor="#ffffff"
     bordercolor="#666666"
     borderopacity="1.0"
     inkscape:pageopacity="0.0"
     inkscape:pageshadow="2"
     inkscape:zoom="15.836083"
     inkscape:cx="9.3712804"
     inkscape:cy="0.18253579"
     inkscape:current-layer="layer1"
     showgrid="true"
     inkscape:grid-bbox="true"
     inkscape:document-units="px"
     fit-margin-top="0"
     fit-margin-left="0"
     fit-margin-right="0"
     fit-margin-bottom="0"
     inkscape:window-width="1024"
     inkscape:window-height="554"
     inkscape:window-x="0"
     inkscape:window-y="0"
     inkscape:window-maximized="1"
     inkscape:snap-global="false">
    <inkscape:grid
       type="xygrid"
       id="grid5302"
       empspacing="5"
       visible="true"
       enabled="true"
       snapvisiblegridlinesonly="true"
       originx="11px"
       originy="-9.0403618px" />
  </sodipodi:namedview>
  <metadata
     id="metadata4464">
    <rdf:RDF>
      <cc:Work
         rdf:about="">
        <dc:format>image/svg+xml</dc:format>
        <dc:type
           rdf:resource="http://purl.org/dc/dcmitype/StillImage" />
        <dc:title></dc:title>
      </cc:Work>
    </rdf:RDF>
  </metadata>
  <g
     id="layer1"
     inkscape:label="Layer 1"
     inkscape:groupmode="layer"
     transform="translate(-0.562159,-1.8900879)">
    <path
       sodipodi:type="arc"
       style="fill:#00ff00;stroke-width:0.2;stroke-miterlimit:4;stroke-dasharray:none"
       id="path5304"
       sodipodi:cx="-10"
       sodipodi:cy="-0.086359024"
       sodipodi:rx="1"
       sodipodi:ry="1"
       d="m -9,-0.08635902 c 0,0.55228475 -0.4477153,1 -1,1 -0.552285,0 -1,-0.44771525 -1,-1 0,-0.55228475 0.447715,-0.99999998 1,-0.99999998 0.5522847,0 1,0.44771523 1,0.99999998 z"
       transform="translate(11.562159,2.9764469)" />
    <text
       xml:space="preserve"
       style="font-size:1.75834978px;font-style:normal;font-weight:normal;line-height:125%;letter-spacing:0px;word-spacing:0px;fill:#000000;fill-opacity:1;stroke:none;font-family:Sans"
       x="0.88534135"
       y="3.6730804"
       id="text5306"
       sodipodi:linespacing="125%"
       transform="scale(1.039686,0.96182887)"><tspan
         sodipodi:role="line"
         id="tspan5308"
         x="0.88534135"
         y="3.6730804">1</tspan></text>
    <path
       transform="translate(18.215372,3.0737722)"
       sodipodi:type="arc"
       style="fill:#00ff00;stroke-width:0.2;stroke-miterlimit:4;stroke-dasharray:none"
       id="path5304-3"
       sodipodi:cx="-10"
       sodipodi:cy="-0.086359024"
       sodipodi:rx="1"
       sodipodi:ry="1"
       d="m -9,-0.08635902 c 0,0.55228475 -0.4477153,1 -1,1 -0.552285,0 -1,-0.44771525 -1,-1 0,-0.55228475 0.447715,-0.99999998 1,-0.99999998 0.5522847,0 1,0.44771523 1,0.99999998 z" />
    <text
       xml:space="preserve"
       style="font-size:1.75834978px;font-style:normal;font-weight:normal;line-height:125%;letter-spacing:0px;word-spacing:0px;fill:#000000;fill-opacity:1;stroke:none;font-family:Sans"
       x="7.2845931"
       y="3.7742682"
       id="text5306-7"
       sodipodi:linespacing="125%"
       transform="scale(1.039686,0.96182886)"><tspan
         sodipodi:role="line"
         id="tspan5308-3"
         x="7.2845931"
         y="3.7742682">2</tspan></text>
    <path
       transform="translate(24.782652,3.200066)"
       sodipodi:type="arc"
       style="fill:#00ff00;stroke-width:0.2;stroke-miterlimit:4;stroke-dasharray:none"
       id="path5304-9"
       sodipodi:cx="-10"
       sodipodi:cy="-0.086359024"
       sodipodi:rx="1"
       sodipodi:ry="1"
       d="m -9,-0.08635902 c 0,0.55228475 -0.4477153,1 -1,1 -0.552285,0 -1,-0.44771525 -1,-1 0,-0.55228475 0.447715,-0.99999998 1,-0.99999998 0.5522847,0 1,0.44771523 1,0.99999998 z" />
    <text
       xml:space="preserve"
       style="font-size:1.75834978px;font-style:normal;font-weight:normal;line-height:125%;letter-spacing:0px;word-spacing:0px;fill:#000000;fill-opacity:1;stroke:none;font-family:Sans"
       x="13.601193"
       y="3.9055746"
       id="text5306-8"
       sodipodi:linespacing="125%"
       transform="scale(1.039686,0.96182886)"><tspan
         sodipodi:role="line"
         id="tspan5308-7"
         x="13.601193"
         y="3.9055746">3</tspan></text>
    <path
       transform="translate(31.286786,3.2000665)"
       sodipodi:type="arc"
       style="fill:#00ff00;stroke-width:0.2;stroke-miterlimit:4;stroke-dasharray:none"
       id="path5304-34"
       sodipodi:cx="-10"
       sodipodi:cy="-0.086359024"
       sodipodi:rx="1"
       sodipodi:ry="1"
       d="m -9,-0.08635902 c 0,0.55228475 -0.4477153,1 -1,1 -0.552285,0 -1,-0.44771525 -1,-1 0,-0.55228475 0.447715,-0.99999998 1,-0.99999998 0.5522847,0 1,0.44771523 1,0.99999998 z" />
    <text
       xml:space="preserve"
       style="font-size:1.75834978px;font-style:normal;font-weight:normal;line-height:125%;letter-spacing:0px;word-spacing:0px;fill:#000000;fill-opacity:1;stroke:none;font-family:Sans"
       x="19.857058"
       y="3.9055741"
       id="text5306-1"
       sodipodi:linespacing="125%"
       transform="scale(1.039686,0.96182886)"><tspan
         sodipodi:role="line"
         id="tspan5308-5"
         x="19.857058"
         y="3.9055741">4</tspan></text>
    <path
       transform="translate(11.584944,7.9360851)"
       sodipodi:type="arc"
       style="fill:#00ff00;stroke-width:0.2;stroke-miterlimit:4;stroke-dasharray:none"
       id="path5304-5"
       sodipodi:cx="-10"
       sodipodi:cy="-0.086359024"
       sodipodi:rx="1"
       sodipodi:ry="1"
       d="m -9,-0.08635902 c 0,0.55228475 -0.4477153,1 -1,1 -0.552285,0 -1,-0.44771525 -1,-1 0,-0.55228475 0.447715,-0.99999998 1,-0.99999998 0.5522847,0 1,0.44771523 1,0.99999998 z" />
    <text
       xml:space="preserve"
       style="font-size:1.75834978px;font-style:normal;font-weight:normal;line-height:125%;letter-spacing:0px;word-spacing:0px;fill:#000000;fill-opacity:1;stroke:none;font-family:Sans"
       x="0.90725696"
       y="8.8295469"
       id="text5306-81"
       sodipodi:linespacing="125%"
       transform="scale(1.039686,0.96182886)"><tspan
         sodipodi:role="line"
         id="tspan5308-32"
         x="0.90725696"
         y="8.8295469">5</tspan></text>
    <path
       transform="translate(18.266114,7.5587329)"
       sodipodi:type="arc"
       style="fill:#00ff00;stroke-width:0.2;stroke-miterlimit:4;stroke-dasharray:none"
       id="path5304-5-2"
       sodipodi:cx="-10"
       sodipodi:cy="-0.086359024"
       sodipodi:rx="1"
       sodipodi:ry="1"
       d="m -9,-0.08635902 c 0,0.55228475 -0.4477153,1 -1,1 -0.552285,0 -1,-0.44771525 -1,-1 0,-0.55228475 0.447715,-0.99999998 1,-0.99999998 0.5522847,0 1,0.44771523 1,0.99999998 z" />
    <text
       xml:space="preserve"
       style="font-size:1.75834978px;font-style:normal;font-weight:normal;line-height:125%;letter-spacing:0px;word-spacing:0px;fill:#000000;fill-opacity:1;stroke:none;font-family:Sans"
       x="7.3333988"
       y="8.4372196"
       id="text5306-81-4"
       sodipodi:linespacing="125%"
       transform="scale(1.039686,0.96182886)"><tspan
         sodipodi:role="line"
         id="tspan5308-32-7"
         x="7.3333988"
         y="8.4372196">6</tspan></text>
    <path
       transform="translate(24.896541,7.8744676)"
       sodipodi:type="arc"
       style="fill:#00ff00;stroke-width:0.2;stroke-miterlimit:4;stroke-dasharray:none"
       id="path5304-5-7"
       sodipodi:cx="-10"
       sodipodi:cy="-0.086359024"
       sodipodi:rx="1"
       sodipodi:ry="1"
       d="m -9,-0.08635902 c 0,0.55228475 -0.4477153,1 -1,1 -0.552285,0 -1,-0.44771525 -1,-1 0,-0.55228475 0.447715,-0.99999998 1,-0.99999998 0.5522847,0 1,0.44771523 1,0.99999998 z" />
    <text
       xml:space="preserve"
       style="font-size:1.75834978px;font-style:normal;font-weight:normal;line-height:125%;letter-spacing:0px;word-spacing:0px;fill:#000000;fill-opacity:1;stroke:none;font-family:Sans"
       x="13.710735"
       y="8.7654839"
       id="text5306-81-0"
       sodipodi:linespacing="125%"
       transform="scale(1.039686,0.96182886)"><tspan
         sodipodi:role="line"
         id="tspan5308-32-3"
         x="13.710735"
         y="8.7654839">7</tspan></text>
    <path
       transform="translate(31.08494,7.6218799)"
       sodipodi:type="arc"
       style="fill:#00ff00;stroke-width:0.2;stroke-miterlimit:4;stroke-dasharray:none"
       id="path5304-5-6"
       sodipodi:cx="-10"
       sodipodi:cy="-0.086359024"
       sodipodi:rx="1"
       sodipodi:ry="1"
       d="m -9,-0.08635902 c 0,0.55228475 -0.4477153,1 -1,1 -0.552285,0 -1,-0.44771525 -1,-1 0,-0.55228475 0.447715,-0.99999998 1,-0.99999998 0.5522847,0 1,0.44771523 1,0.99999998 z" />
    <text
       xml:space="preserve"
       style="font-size:1.75834978px;font-style:normal;font-weight:normal;line-height:125%;letter-spacing:0px;word-spacing:0px;fill:#000000;fill-opacity:1;stroke:none;font-family:Sans"
       x="19.662916"
       y="8.5028725"
       id="text5306-81-1"
       sodipodi:linespacing="125%"
       transform="scale(1.039686,0.96182886)"><tspan
         sodipodi:role="line"
         id="tspan5308-32-0"
         x="19.662916"
         y="8.5028725">8</tspan></text>
    <path
       style="fill:none;stroke:#000000;stroke-width:0.2;stroke-linecap:butt;stroke-linejoin:miter;stroke-miterlimit:4;stroke-opacity:1;stroke-dasharray:none"
       d="m 0.56832234,1.7934704 c -0.2661572,0.050625 -0.0151479,0.2197365 -0.0631469,0.3157346 -0.0133125,0.026625 -0.0498344,0.036522 -0.0631469,0.063147 -0.011418,0.022836 0,0.2718134 0,0.3157346 0,0.2104898 0,0.4209795 0,0.6314693 0,0.7367141 0,1.4734283 0,2.2101424"
       id="path5783"
       inkscape:connector-curvature="0"
       transform="translate(0.49904194,1.8900879)" />
    <path
       style="fill:#ff0000;stroke:#ff0000;stroke-width:0.2;stroke-linecap:butt;stroke-linejoin:miter;stroke-miterlimit:4;stroke-opacity:1;stroke-dasharray:none"
       d="m 2.0838486,1.0988542 c 0.084196,-0.042098 0.1632844,-0.096526 0.2525877,-0.12629384 0.034811,-0.0116038 0.3252921,0 0.3788815,0 0.3157347,0 0.6314693,0 0.9472039,0 0.9893019,0 1.9786037,0 2.9679056,0"
       id="path5785"
       inkscape:connector-curvature="0"
       transform="translate(0.49904194,1.8900879)" />
    <path
       style="fill:none;stroke:#ff0000;stroke-width:0.2;stroke-linecap:butt;stroke-linejoin:miter;stroke-miterlimit:4;stroke-opacity:1;stroke-dasharray:none"
       d="m 7.8302189,2.172352 0.063147,2.4627301"
       id="path5787"
       inkscape:connector-curvature="0"
       transform="translate(0.49904194,1.8900879)" />
    <path
       style="fill:none;stroke:#000000;stroke-width:0.2;stroke-linecap:butt;stroke-linejoin:miter;stroke-miterlimit:4;stroke-opacity:1;stroke-dasharray:none"
       d="M 8.9037167,5.0139637 13.387148,1.7934704"
       id="path5789"
       inkscape:connector-curvature="0"
       transform="translate(0.49904194,1.8900879)" />
    <path
       style="fill:none;stroke:#000000;stroke-width:0.2;stroke-linecap:butt;stroke-linejoin:miter;stroke-miterlimit:4;stroke-opacity:1;stroke-dasharray:none"
       d="m 8.8405697,6.0243145 4.3571383,0.063147"
       id="path5791"
       inkscape:connector-curvature="0"
       transform="translate(0.49904194,1.8900879)" />
    <path
       style="fill:none;stroke:#000000;stroke-width:0.2;stroke-linecap:butt;stroke-linejoin:miter;stroke-miterlimit:4;stroke-opacity:1;stroke-dasharray:none"
       d="m 14.334352,4.698229 0,-2.3364363"
       id="path5793"
       inkscape:connector-curvature="0"
       transform="translate(0.49904194,1.8900879)" />
    <path
       style="fill:none;stroke:#000000;stroke-width:0.2;stroke-linecap:butt;stroke-linejoin:miter;stroke-miterlimit:4;stroke-opacity:1;stroke-dasharray:none"
       d="m 15.597291,1.288295 3.978256,0"
       id="path5795"
       inkscape:connector-curvature="0"
       transform="translate(0.49904194,1.8900879)" />
    <path
       style="fill:none;stroke:#000000;stroke-width:0.2;stroke-linecap:butt;stroke-linejoin:miter;stroke-miterlimit:4;stroke-opacity:1;stroke-dasharray:none"
       d="m 20.775339,2.2354989 0,2.1469955"
       id="path5797"
       inkscape:connector-curvature="0"
       transform="translate(0.49904194,1.8900879)" />
    <path
       style="fill:none;stroke:#000000;stroke-width:0.21171254;stroke-linecap:butt;stroke-linejoin:miter;stroke-miterlimit:4;stroke-opacity:1;stroke-dasharray:none"
       d="M 19.942439,7.9202587 16.354777,8.0348399"
       id="path5799"
       inkscape:connector-curvature="0" />
  </g>
</svg>
