<?xml version="1.0" encoding="UTF-8" standalone="no"?>
<!-- Created with Inkscape (http://www.inkscape.org/) -->

<svg
   xmlns:dc="http://purl.org/dc/elements/1.1/"
   xmlns:cc="http://creativecommons.org/ns#"
   xmlns:rdf="http://www.w3.org/1999/02/22-rdf-syntax-ns#"
   xmlns:svg="http://www.w3.org/2000/svg"
   xmlns="http://www.w3.org/2000/svg"
   xmlns:sodipodi="http://sodipodi.sourceforge.net/DTD/sodipodi-0.dtd"
   xmlns:inkscape="http://www.inkscape.org/namespaces/inkscape"
   width="118.35885"
   height="42.065304"
   id="svg2985"
   version="1.1"
   inkscape:version="0.48.3.1 r9886"
   sodipodi:docname="Nouveau document 2">
  <defs
     id="defs2987" />
  <sodipodi:namedview
     id="base"
     pagecolor="#ffffff"
     bordercolor="#666666"
     borderopacity="1.0"
     inkscape:pageopacity="0.0"
     inkscape:pageshadow="2"
     inkscape:zoom="3.9590209"
     inkscape:cx="82.792473"
     inkscape:cy="12.885844"
     inkscape:current-layer="layer1"
     showgrid="true"
     inkscape:grid-bbox="true"
     inkscape:document-units="px"
     inkscape:snap-global="false"
     fit-margin-top="0"
     fit-margin-left="0"
     fit-margin-right="0"
     fit-margin-bottom="0"
     inkscape:window-width="1024"
     inkscape:window-height="554"
     inkscape:window-x="0"
     inkscape:window-y="0"
     inkscape:window-maximized="1">
    <inkscape:grid
       type="xygrid"
       id="grid2993"
       empspacing="5"
       visible="true"
       enabled="true"
       snapvisiblegridlinesonly="true"
       originx="13.845958px"
       originy="10.550263px" />
  </sodipodi:namedview>
  <metadata
     id="metadata2990">
    <rdf:RDF>
      <cc:Work
         rdf:about="">
        <dc:format>image/svg+xml</dc:format>
        <dc:type
           rdf:resource="http://purl.org/dc/dcmitype/StillImage" />
        <dc:title></dc:title>
      </cc:Work>
    </rdf:RDF>
  </metadata>
  <g
     id="layer1"
     inkscape:label="Layer 1"
     inkscape:groupmode="layer"
     transform="translate(13.845958,-0.4849574)">
    <path
       sodipodi:type="arc"
       style="fill:#ff0000;fill-opacity:1;stroke:#ff0000;stroke-width:0.2;stroke-miterlimit:4;stroke-opacity:1;stroke-dasharray:none"
       id="path2999"
       sodipodi:cx="9.5"
       sodipodi:cy="8.5"
       sodipodi:rx="2.5"
       sodipodi:ry="2.5"
       d="M 12,8.5 C 12,9.8807119 10.880712,11 9.5,11 8.1192881,11 7,9.8807119 7,8.5 7,7.1192881 8.1192881,6 9.5,6 10.880712,6 12,7.1192881 12,8.5 z"
       transform="translate(0.62512268,-3.7507361)" />
    <text
       xml:space="preserve"
       style="font-size:3.09682274px;font-style:normal;font-weight:normal;line-height:125%;letter-spacing:0px;word-spacing:0px;fill:#000000;fill-opacity:1;stroke:none;font-family:Sans"
       x="7.7308369"
       y="6.5650554"
       id="text2995"
       sodipodi:linespacing="125%"
       transform="scale(1.1526174,0.86759059)"><tspan
         sodipodi:role="line"
         id="tspan2997"
         x="7.7308369"
         y="6.5650554">0</tspan></text>
    <path
       transform="translate(-20.752208,11.622669)"
       sodipodi:type="arc"
       style="fill:#ff0000;fill-opacity:1;stroke:#ff0000;stroke-width:0.2;stroke-miterlimit:4;stroke-opacity:1;stroke-dasharray:none"
       id="path2999-2"
       sodipodi:cx="9.5"
       sodipodi:cy="8.5"
       sodipodi:rx="2.5"
       sodipodi:ry="2.5"
       d="M 12,8.5 C 12,9.8807119 10.880712,11 9.5,11 8.1192881,11 7,9.8807119 7,8.5 7,7.1192881 8.1192881,6 9.5,6 10.880712,6 12,7.1192881 12,8.5 z" />
    <text
       xml:space="preserve"
       style="font-size:3.09682274px;font-style:normal;font-weight:normal;line-height:125%;letter-spacing:0px;word-spacing:0px;fill:#000000;fill-opacity:1;stroke:none;font-family:Sans"
       x="-10.815934"
       y="24.28471"
       id="text2995-8"
       sodipodi:linespacing="125%"
       transform="scale(1.1526174,0.86759059)"><tspan
         sodipodi:role="line"
         id="tspan2997-7"
         x="-10.815934"
         y="24.28471">1</tspan></text>
    <path
       transform="translate(20.863101,10.908243)"
       sodipodi:type="arc"
       style="fill:#ff0000;fill-opacity:1;stroke:#ff0000;stroke-width:0.2;stroke-miterlimit:4;stroke-opacity:1;stroke-dasharray:none"
       id="path2999-3"
       sodipodi:cx="9.5"
       sodipodi:cy="8.5"
       sodipodi:rx="2.5"
       sodipodi:ry="2.5"
       d="M 12,8.5 C 12,9.8807119 10.880712,11 9.5,11 8.1192881,11 7,9.8807119 7,8.5 7,7.1192881 8.1192881,6 9.5,6 10.880712,6 12,7.1192881 12,8.5 z" />
    <text
       xml:space="preserve"
       style="font-size:3.09682274px;font-style:normal;font-weight:normal;line-height:125%;letter-spacing:0px;word-spacing:0px;fill:#000000;fill-opacity:1;stroke:none;font-family:Sans"
       x="25.289116"
       y="23.46125"
       id="text2995-9"
       sodipodi:linespacing="125%"
       transform="scale(1.1526174,0.86759059)"><tspan
         sodipodi:role="line"
         id="tspan2997-74"
         x="25.289116"
         y="23.46125">4</tspan></text>
    <path
       transform="translate(11.754171,30.019137)"
       sodipodi:type="arc"
       style="fill:#ff0000;fill-opacity:1;stroke:#ff0000;stroke-width:0.2;stroke-miterlimit:4;stroke-opacity:1;stroke-dasharray:none"
       id="path2999-6"
       sodipodi:cx="9.5"
       sodipodi:cy="8.5"
       sodipodi:rx="2.5"
       sodipodi:ry="2.5"
       d="M 12,8.5 C 12,9.8807119 10.880712,11 9.5,11 8.1192881,11 7,9.8807119 7,8.5 7,7.1192881 8.1192881,6 9.5,6 10.880712,6 12,7.1192881 12,8.5 z" />
    <text
       xml:space="preserve"
       style="font-size:3.09682274px;font-style:normal;font-weight:normal;line-height:125%;letter-spacing:0px;word-spacing:0px;fill:#000000;fill-opacity:1;stroke:none;font-family:Sans"
       x="17.386295"
       y="45.488796"
       id="text2995-6"
       sodipodi:linespacing="125%"
       transform="scale(1.1526174,0.86759059)"><tspan
         sodipodi:role="line"
         id="tspan2997-9"
         x="17.386295"
         y="45.488796">3</tspan></text>
    <path
       transform="translate(-4.0525024,31.269382)"
       sodipodi:type="arc"
       style="fill:#ff0000;fill-opacity:1;stroke:#ff0000;stroke-width:0.2;stroke-miterlimit:4;stroke-opacity:1;stroke-dasharray:none"
       id="path2999-0"
       sodipodi:cx="9.5"
       sodipodi:cy="8.5"
       sodipodi:rx="2.5"
       sodipodi:ry="2.5"
       d="M 12,8.5 C 12,9.8807119 10.880712,11 9.5,11 8.1192881,11 7,9.8807119 7,8.5 7,7.1192881 8.1192881,6 9.5,6 10.880712,6 12,7.1192881 12,8.5 z" />
    <text
       xml:space="preserve"
       style="font-size:3.09682274px;font-style:normal;font-weight:normal;line-height:125%;letter-spacing:0px;word-spacing:0px;fill:#000000;fill-opacity:1;stroke:none;font-family:Sans"
       x="3.6725733"
       y="46.929852"
       id="text2995-2"
       sodipodi:linespacing="125%"
       transform="scale(1.1526174,0.86759059)"><tspan
         sodipodi:role="line"
         id="tspan2997-0"
         x="3.6725733"
         y="46.929852">2</tspan></text>
    <path
       transform="translate(-5.3027477,20.552993)"
       sodipodi:type="arc"
       style="fill:#ff0000;fill-opacity:1;stroke:#ff0000;stroke-width:0.2;stroke-miterlimit:4;stroke-opacity:1;stroke-dasharray:none"
       id="path2999-5"
       sodipodi:cx="9.5"
       sodipodi:cy="8.5"
       sodipodi:rx="2.5"
       sodipodi:ry="2.5"
       d="M 12,8.5 C 12,9.8807119 10.880712,11 9.5,11 8.1192881,11 7,9.8807119 7,8.5 7,7.1192881 8.1192881,6 9.5,6 10.880712,6 12,7.1192881 12,8.5 z" />
    <text
       xml:space="preserve"
       style="font-size:3.09682274px;font-style:normal;font-weight:normal;line-height:125%;letter-spacing:0px;word-spacing:0px;fill:#000000;fill-opacity:1;stroke:none;font-family:Sans"
       x="2.5878723"
       y="34.577957"
       id="text2995-0"
       sodipodi:linespacing="125%"
       transform="scale(1.1526174,0.86759059)"><tspan
         sodipodi:role="line"
         id="tspan2997-8"
         x="2.5878723"
         y="34.577957">7</tspan></text>
    <path
       transform="translate(6.5745832,19.659961)"
       sodipodi:type="arc"
       style="fill:#ff0000;fill-opacity:1;stroke:#ff0000;stroke-width:0.2;stroke-miterlimit:4;stroke-opacity:1;stroke-dasharray:none"
       id="path2999-7"
       sodipodi:cx="9.5"
       sodipodi:cy="8.5"
       sodipodi:rx="2.5"
       sodipodi:ry="2.5"
       d="M 12,8.5 C 12,9.8807119 10.880712,11 9.5,11 8.1192881,11 7,9.8807119 7,8.5 7,7.1192881 8.1192881,6 9.5,6 10.880712,6 12,7.1192881 12,8.5 z" />
    <text
       xml:space="preserve"
       style="font-size:3.09682274px;font-style:normal;font-weight:normal;line-height:125%;letter-spacing:0px;word-spacing:0px;fill:#000000;fill-opacity:1;stroke:none;font-family:Sans"
       x="12.892532"
       y="33.54863"
       id="text2995-90"
       sodipodi:linespacing="125%"
       transform="scale(1.1526174,0.86759059)"><tspan
         sodipodi:role="line"
         id="tspan2997-93"
         x="12.892532"
         y="33.54863">8</tspan></text>
    <path
       transform="translate(-7.3567222,11.444063)"
       sodipodi:type="arc"
       style="fill:#ff0000;fill-opacity:1;stroke:#ff0000;stroke-width:0.2;stroke-miterlimit:4;stroke-opacity:1;stroke-dasharray:none"
       id="path2999-1"
       sodipodi:cx="9.5"
       sodipodi:cy="8.5"
       sodipodi:rx="2.5"
       sodipodi:ry="2.5"
       d="M 12,8.5 C 12,9.8807119 10.880712,11 9.5,11 8.1192881,11 7,9.8807119 7,8.5 7,7.1192881 8.1192881,6 9.5,6 10.880712,6 12,7.1192881 12,8.5 z" />
    <text
       xml:space="preserve"
       style="font-size:3.09682274px;font-style:normal;font-weight:normal;line-height:125%;letter-spacing:0px;word-spacing:0px;fill:#000000;fill-opacity:1;stroke:none;font-family:Sans"
       x="0.8058632"
       y="24.078844"
       id="text2995-1"
       sodipodi:linespacing="125%"
       transform="scale(1.1526174,0.86759059)"><tspan
         sodipodi:role="line"
         id="tspan2997-3"
         x="0.8058632"
         y="24.078844">6</tspan></text>
    <path
       transform="translate(7.8248286,11.265456)"
       sodipodi:type="arc"
       style="fill:#ff0000;fill-opacity:1;stroke:#ff0000;stroke-width:0.2;stroke-miterlimit:4;stroke-opacity:1;stroke-dasharray:none"
       id="path2999-4"
       sodipodi:cx="9.5"
       sodipodi:cy="8.5"
       sodipodi:rx="2.5"
       sodipodi:ry="2.5"
       d="M 12,8.5 C 12,9.8807119 10.880712,11 9.5,11 8.1192881,11 7,9.8807119 7,8.5 7,7.1192881 8.1192881,6 9.5,6 10.880712,6 12,7.1192881 12,8.5 z" />
    <text
       xml:space="preserve"
       style="font-size:3.09682274px;font-style:normal;font-weight:normal;line-height:125%;letter-spacing:0px;word-spacing:0px;fill:#000000;fill-opacity:1;stroke:none;font-family:Sans"
       x="13.977234"
       y="23.87298"
       id="text2995-28"
       sodipodi:linespacing="125%"
       transform="scale(1.1526174,0.86759059)"><tspan
         sodipodi:role="line"
         id="tspan2997-1"
         x="13.977234"
         y="23.87298">9</tspan></text>
    <path
       transform="translate(0.14474993,7.1575071)"
       sodipodi:type="arc"
       style="fill:#ff0000;fill-opacity:1;stroke:#ff0000;stroke-width:0.2;stroke-miterlimit:4;stroke-opacity:1;stroke-dasharray:none"
       id="path2999-09"
       sodipodi:cx="9.5"
       sodipodi:cy="8.5"
       sodipodi:rx="2.5"
       sodipodi:ry="2.5"
       d="M 12,8.5 C 12,9.8807119 10.880712,11 9.5,11 8.1192881,11 7,9.8807119 7,8.5 7,7.1192881 8.1192881,6 9.5,6 10.880712,6 12,7.1192881 12,8.5 z" />
    <text
       xml:space="preserve"
       style="font-size:3.09682274px;font-style:normal;font-weight:normal;line-height:125%;letter-spacing:0px;word-spacing:0px;fill:#000000;fill-opacity:1;stroke:none;font-family:Sans"
       x="7.3140697"
       y="19.138086"
       id="text2995-01"
       sodipodi:linespacing="125%"
       transform="scale(1.1526174,0.86759059)"><tspan
         sodipodi:role="line"
         id="tspan2997-5"
         x="7.3140697"
         y="19.138086">5</tspan></text>
    <path
       style="fill:none;stroke:#000000;stroke-width:1px;stroke-linecap:butt;stroke-linejoin:miter;stroke-opacity:1"
       d="m 9.7340532,13.157016 0,-6.6977427"
       id="path3113"
       inkscape:connector-curvature="0" />
    <path
       style="fill:none;stroke:#000000;stroke-width:1px;stroke-linecap:butt;stroke-linejoin:miter;stroke-opacity:1"
       d="M 8.6624143,17.175662 5.9833171,26.731109 15.270854,19.944063 3.8400393,20.301276 14.467125,27.177625 10.716389,17.175662"
       id="path3115"
       inkscape:connector-curvature="0" />
    <path
       style="fill:none;stroke:#000000;stroke-width:1px;stroke-linecap:butt;stroke-linejoin:miter;stroke-opacity:1"
       d="M 7.4121689,39.233562 19.378803,38.697743"
       id="path3117"
       inkscape:connector-curvature="0" />
    <path
       style="fill:none;stroke:#000000;stroke-width:1px;stroke-linecap:butt;stroke-linejoin:miter;stroke-opacity:1"
       d="M 23.040236,37.268891 29.291463,20.837095"
       id="path3119"
       inkscape:connector-curvature="0" />
    <path
       style="fill:none;stroke:#000000;stroke-width:1px;stroke-linecap:butt;stroke-linejoin:miter;stroke-opacity:1"
       d="M 29.827282,17.443572 11.341511,5.7448474"
       id="path3121"
       inkscape:connector-curvature="0" />
    <path
       style="fill:none;stroke:#000000;stroke-width:1px;stroke-linecap:butt;stroke-linejoin:miter;stroke-opacity:1"
       d="M 8.3052013,5.8341507 -9.6447499,18.604514"
       id="path3123"
       inkscape:connector-curvature="0" />
    <path
       style="fill:none;stroke:#000000;stroke-width:1px;stroke-linecap:butt;stroke-linejoin:miter;stroke-opacity:1"
       d="M -11.430815,22.265947 3.5721296,38.60844"
       id="path3125"
       inkscape:connector-curvature="0" />
    <path
       transform="translate(50.994756,-4.4109416)"
       sodipodi:type="arc"
       style="fill:#ff0000;fill-opacity:1;stroke:#ff0000;stroke-width:0.2;stroke-miterlimit:4;stroke-opacity:1;stroke-dasharray:none"
       id="path2999-09-0"
       sodipodi:cx="9.5"
       sodipodi:cy="8.5"
       sodipodi:rx="2.5"
       sodipodi:ry="2.5"
       d="M 12,8.5 C 12,9.8807119 10.880712,11 9.5,11 8.1192881,11 7,9.8807119 7,8.5 7,7.1192881 8.1192881,6 9.5,6 10.880712,6 12,7.1192881 12,8.5 z" />
    <text
       xml:space="preserve"
       style="font-size:3.09682274px;font-style:normal;font-weight:normal;line-height:125%;letter-spacing:0px;word-spacing:0px;fill:#000000;fill-opacity:1;stroke:none;font-family:Sans"
       x="51.431057"
       y="5.8040915"
       id="text2995-01-7"
       sodipodi:linespacing="125%"
       transform="scale(1.1526174,0.86759059)"><tspan
         sodipodi:role="line"
         id="tspan2997-5-9"
         x="51.431057"
         y="5.8040915">5</tspan></text>
    <path
       sodipodi:type="arc"
       style="fill:#ff0000;fill-opacity:1;stroke:#ff0000;stroke-width:0.2;stroke-miterlimit:4;stroke-opacity:1;stroke-dasharray:none"
       id="path2999-55"
       sodipodi:cx="9.5"
       sodipodi:cy="8.5"
       sodipodi:rx="2.5"
       sodipodi:ry="2.5"
       d="M 12,8.5 C 12,9.8807119 10.880712,11 9.5,11 8.1192881,11 7,9.8807119 7,8.5 7,7.1192881 8.1192881,6 9.5,6 10.880712,6 12,7.1192881 12,8.5 z"
       transform="translate(41.396423,4.1770405)" />
    <text
       xml:space="preserve"
       style="font-size:3.09682274px;font-style:normal;font-weight:normal;line-height:125%;letter-spacing:0px;word-spacing:0px;fill:#000000;fill-opacity:1;stroke:none;font-family:Sans"
       x="43.103634"
       y="15.702749"
       id="text2995-02"
       sodipodi:linespacing="125%"
       transform="scale(1.1526174,0.86759059)"><tspan
         sodipodi:role="line"
         id="tspan2997-97"
         x="43.103634"
         y="15.702749">0</tspan></text>
    <path
       transform="translate(51.499931,3.5455712)"
       sodipodi:type="arc"
       style="fill:#ff0000;fill-opacity:1;stroke:#ff0000;stroke-width:0.2;stroke-miterlimit:4;stroke-opacity:1;stroke-dasharray:none"
       id="path2999-5-2"
       sodipodi:cx="9.5"
       sodipodi:cy="8.5"
       sodipodi:rx="2.5"
       sodipodi:ry="2.5"
       d="M 12,8.5 C 12,9.8807119 10.880712,11 9.5,11 8.1192881,11 7,9.8807119 7,8.5 7,7.1192881 8.1192881,6 9.5,6 10.880712,6 12,7.1192881 12,8.5 z" />
    <text
       xml:space="preserve"
       style="font-size:3.09682274px;font-style:normal;font-weight:normal;line-height:125%;letter-spacing:0px;word-spacing:0px;fill:#000000;fill-opacity:1;stroke:none;font-family:Sans"
       x="51.869343"
       y="14.974907"
       id="text2995-0-0"
       sodipodi:linespacing="125%"
       transform="scale(1.1526174,0.86759059)"><tspan
         sodipodi:role="line"
         id="tspan2997-8-4"
         x="51.869343"
         y="14.974907">7</tspan></text>
    <path
       transform="translate(61.477146,3.7981589)"
       sodipodi:type="arc"
       style="fill:#ff0000;fill-opacity:1;stroke:#ff0000;stroke-width:0.2;stroke-miterlimit:4;stroke-opacity:1;stroke-dasharray:none"
       id="path2999-7-2"
       sodipodi:cx="9.5"
       sodipodi:cy="8.5"
       sodipodi:rx="2.5"
       sodipodi:ry="2.5"
       d="M 12,8.5 C 12,9.8807119 10.880712,11 9.5,11 8.1192881,11 7,9.8807119 7,8.5 7,7.1192881 8.1192881,6 9.5,6 10.880712,6 12,7.1192881 12,8.5 z" />
    <text
       xml:space="preserve"
       style="font-size:3.09682274px;font-style:normal;font-weight:normal;line-height:125%;letter-spacing:0px;word-spacing:0px;fill:#000000;fill-opacity:1;stroke:none;font-family:Sans"
       x="60.525478"
       y="15.266041"
       id="text2995-90-4"
       sodipodi:linespacing="125%"
       transform="scale(1.1526174,0.86759059)"><tspan
         sodipodi:role="line"
         id="tspan2997-93-6"
         x="60.525478"
         y="15.266041">8</tspan></text>
    <path
       transform="translate(36.092081,12.765022)"
       sodipodi:type="arc"
       style="fill:#ff0000;fill-opacity:1;stroke:#ff0000;stroke-width:0.2;stroke-miterlimit:4;stroke-opacity:1;stroke-dasharray:none"
       id="path2999-2-7"
       sodipodi:cx="9.5"
       sodipodi:cy="8.5"
       sodipodi:rx="2.5"
       sodipodi:ry="2.5"
       d="M 12,8.5 C 12,9.8807119 10.880712,11 9.5,11 8.1192881,11 7,9.8807119 7,8.5 7,7.1192881 8.1192881,6 9.5,6 10.880712,6 12,7.1192881 12,8.5 z" />
    <text
       xml:space="preserve"
       style="font-size:3.09682274px;font-style:normal;font-weight:normal;line-height:125%;letter-spacing:0px;word-spacing:0px;fill:#000000;fill-opacity:1;stroke:none;font-family:Sans"
       x="38.501637"
       y="25.601406"
       id="text2995-8-1"
       sodipodi:linespacing="125%"
       transform="scale(1.1526174,0.86759059)"><tspan
         sodipodi:role="line"
         id="tspan2997-7-0"
         x="38.501637"
         y="25.601406">1</tspan></text>
    <path
       transform="translate(44.932651,12.512435)"
       sodipodi:type="arc"
       style="fill:#ff0000;fill-opacity:1;stroke:#ff0000;stroke-width:0.2;stroke-miterlimit:4;stroke-opacity:1;stroke-dasharray:none"
       id="path2999-3-3"
       sodipodi:cx="9.5"
       sodipodi:cy="8.5"
       sodipodi:rx="2.5"
       sodipodi:ry="2.5"
       d="M 12,8.5 C 12,9.8807119 10.880712,11 9.5,11 8.1192881,11 7,9.8807119 7,8.5 7,7.1192881 8.1192881,6 9.5,6 10.880712,6 12,7.1192881 12,8.5 z" />
    <text
       xml:space="preserve"
       style="font-size:3.09682274px;font-style:normal;font-weight:normal;line-height:125%;letter-spacing:0px;word-spacing:0px;fill:#000000;fill-opacity:1;stroke:none;font-family:Sans"
       x="46.171631"
       y="25.31027"
       id="text2995-9-0"
       sodipodi:linespacing="125%"
       transform="scale(1.1526174,0.86759059)"><tspan
         sodipodi:role="line"
         id="tspan2997-74-6"
         x="46.171631"
         y="25.31027">4</tspan></text>
    <path
       transform="translate(34.450261,20.847829)"
       sodipodi:type="arc"
       style="fill:#ff0000;fill-opacity:1;stroke:#ff0000;stroke-width:0.2;stroke-miterlimit:4;stroke-opacity:1;stroke-dasharray:none"
       id="path2999-0-4"
       sodipodi:cx="9.5"
       sodipodi:cy="8.5"
       sodipodi:rx="2.5"
       sodipodi:ry="2.5"
       d="M 12,8.5 C 12,9.8807119 10.880712,11 9.5,11 8.1192881,11 7,9.8807119 7,8.5 7,7.1192881 8.1192881,6 9.5,6 10.880712,6 12,7.1192881 12,8.5 z" />
    <text
       xml:space="preserve"
       style="font-size:3.09682274px;font-style:normal;font-weight:normal;line-height:125%;letter-spacing:0px;word-spacing:0px;fill:#000000;fill-opacity:1;stroke:none;font-family:Sans"
       x="37.077209"
       y="34.917789"
       id="text2995-2-5"
       sodipodi:linespacing="125%"
       transform="scale(1.1526174,0.86759059)"><tspan
         sodipodi:role="line"
         id="tspan2997-0-6"
         x="37.077209"
         y="34.917789">2</tspan></text>
    <path
       transform="translate(44.174888,20.595241)"
       sodipodi:type="arc"
       style="fill:#ff0000;fill-opacity:1;stroke:#ff0000;stroke-width:0.2;stroke-miterlimit:4;stroke-opacity:1;stroke-dasharray:none"
       id="path2999-6-4"
       sodipodi:cx="9.5"
       sodipodi:cy="8.5"
       sodipodi:rx="2.5"
       sodipodi:ry="2.5"
       d="M 12,8.5 C 12,9.8807119 10.880712,11 9.5,11 8.1192881,11 7,9.8807119 7,8.5 7,7.1192881 8.1192881,6 9.5,6 10.880712,6 12,7.1192881 12,8.5 z" />
    <text
       xml:space="preserve"
       style="font-size:3.09682274px;font-style:normal;font-weight:normal;line-height:125%;letter-spacing:0px;word-spacing:0px;fill:#000000;fill-opacity:1;stroke:none;font-family:Sans"
       x="45.514202"
       y="34.626652"
       id="text2995-6-6"
       sodipodi:linespacing="125%"
       transform="scale(1.1526174,0.86759059)"><tspan
         sodipodi:role="line"
         id="tspan2997-9-3"
         x="45.514202"
         y="34.626652">3</tspan></text>
    <path
       transform="translate(52.1314,12.765022)"
       sodipodi:type="arc"
       style="fill:#ff0000;fill-opacity:1;stroke:#ff0000;stroke-width:0.2;stroke-miterlimit:4;stroke-opacity:1;stroke-dasharray:none"
       id="path2999-4-3"
       sodipodi:cx="9.5"
       sodipodi:cy="8.5"
       sodipodi:rx="2.5"
       sodipodi:ry="2.5"
       d="M 12,8.5 C 12,9.8807119 10.880712,11 9.5,11 8.1192881,11 7,9.8807119 7,8.5 7,7.1192881 8.1192881,6 9.5,6 10.880712,6 12,7.1192881 12,8.5 z" />
    <text
       xml:space="preserve"
       style="font-size:3.09682274px;font-style:normal;font-weight:normal;line-height:125%;letter-spacing:0px;word-spacing:0px;fill:#000000;fill-opacity:1;stroke:none;font-family:Sans"
       x="52.417198"
       y="25.601406"
       id="text2995-28-5"
       sodipodi:linespacing="125%"
       transform="scale(1.1526174,0.86759059)"><tspan
         sodipodi:role="line"
         id="tspan2997-1-3"
         x="52.417198"
         y="25.601406">9</tspan></text>
    <path
       transform="translate(61.729733,13.01761)"
       sodipodi:type="arc"
       style="fill:#ff0000;fill-opacity:1;stroke:#ff0000;stroke-width:0.2;stroke-miterlimit:4;stroke-opacity:1;stroke-dasharray:none"
       id="path2999-1-2"
       sodipodi:cx="9.5"
       sodipodi:cy="8.5"
       sodipodi:rx="2.5"
       sodipodi:ry="2.5"
       d="M 12,8.5 C 12,9.8807119 10.880712,11 9.5,11 8.1192881,11 7,9.8807119 7,8.5 7,7.1192881 8.1192881,6 9.5,6 10.880712,6 12,7.1192881 12,8.5 z" />
    <text
       xml:space="preserve"
       style="font-size:3.09682274px;font-style:normal;font-weight:normal;line-height:125%;letter-spacing:0px;word-spacing:0px;fill:#000000;fill-opacity:1;stroke:none;font-family:Sans"
       x="60.744621"
       y="25.892542"
       id="text2995-1-6"
       sodipodi:linespacing="125%"
       transform="scale(1.1526174,0.86759059)"><tspan
         sodipodi:role="line"
         id="tspan2997-3-5"
         x="60.744621"
         y="25.892542">6</tspan></text>
    <path
       transform="translate(92.292851,10.996909)"
       sodipodi:type="arc"
       style="fill:#ff0000;fill-opacity:1;stroke:#ff0000;stroke-width:0.2;stroke-miterlimit:4;stroke-opacity:1;stroke-dasharray:none"
       id="path2999-09-0-2"
       sodipodi:cx="9.5"
       sodipodi:cy="8.5"
       sodipodi:rx="2.5"
       sodipodi:ry="2.5"
       d="M 12,8.5 C 12,9.8807119 10.880712,11 9.5,11 8.1192881,11 7,9.8807119 7,8.5 7,7.1192881 8.1192881,6 9.5,6 10.880712,6 12,7.1192881 12,8.5 z" />
    <text
       xml:space="preserve"
       style="font-size:3.09682274px;font-style:normal;font-weight:normal;line-height:125%;letter-spacing:0px;word-spacing:0px;fill:#000000;fill-opacity:1;stroke:none;font-family:Sans"
       x="87.260902"
       y="23.563446"
       id="text2995-01-7-9"
       sodipodi:linespacing="125%"
       transform="scale(1.1526174,0.86759059)"><tspan
         sodipodi:role="line"
         id="tspan2997-5-9-3"
         x="87.260902"
         y="23.563446">5</tspan></text>
    <path
       sodipodi:type="arc"
       style="fill:#ff0000;fill-opacity:1;stroke:#ff0000;stroke-width:0.2;stroke-miterlimit:4;stroke-opacity:1;stroke-dasharray:none"
       id="path2999-55-1"
       sodipodi:cx="9.5"
       sodipodi:cy="8.5"
       sodipodi:rx="2.5"
       sodipodi:ry="2.5"
       d="M 12,8.5 C 12,9.8807119 10.880712,11 9.5,11 8.1192881,11 7,9.8807119 7,8.5 7,7.1192881 8.1192881,6 9.5,6 10.880712,6 12,7.1192881 12,8.5 z"
       transform="translate(86.862211,17.311601)" />
    <text
       xml:space="preserve"
       style="font-size:3.09682274px;font-style:normal;font-weight:normal;line-height:125%;letter-spacing:0px;word-spacing:0px;fill:#000000;fill-opacity:1;stroke:none;font-family:Sans"
       x="82.549324"
       y="30.841873"
       id="text2995-02-8"
       sodipodi:linespacing="125%"
       transform="scale(1.1526174,0.86759059)"><tspan
         sodipodi:role="line"
         id="tspan2997-97-0"
         x="82.549324"
         y="30.841873">0</tspan></text>
    <path
       transform="translate(92.419141,3.1666897)"
       sodipodi:type="arc"
       style="fill:#ff0000;fill-opacity:1;stroke:#ff0000;stroke-width:0.2;stroke-miterlimit:4;stroke-opacity:1;stroke-dasharray:none"
       id="path2999-5-2-4"
       sodipodi:cx="9.5"
       sodipodi:cy="8.5"
       sodipodi:rx="2.5"
       sodipodi:ry="2.5"
       d="M 12,8.5 C 12,9.8807119 10.880712,11 9.5,11 8.1192881,11 7,9.8807119 7,8.5 7,7.1192881 8.1192881,6 9.5,6 10.880712,6 12,7.1192881 12,8.5 z" />
    <text
       xml:space="preserve"
       style="font-size:3.09682274px;font-style:normal;font-weight:normal;line-height:125%;letter-spacing:0px;word-spacing:0px;fill:#000000;fill-opacity:1;stroke:none;font-family:Sans"
       x="87.370468"
       y="14.538203"
       id="text2995-0-0-0"
       sodipodi:linespacing="125%"
       transform="scale(1.1526174,0.86759059)"><tspan
         sodipodi:role="line"
         id="tspan2997-8-4-2"
         x="87.370468"
         y="14.538203">7</tspan></text>
    <path
       transform="translate(76.000936,10.996908)"
       sodipodi:type="arc"
       style="fill:#ff0000;fill-opacity:1;stroke:#ff0000;stroke-width:0.2;stroke-miterlimit:4;stroke-opacity:1;stroke-dasharray:none"
       id="path2999-7-2-8"
       sodipodi:cx="9.5"
       sodipodi:cy="8.5"
       sodipodi:rx="2.5"
       sodipodi:ry="2.5"
       d="M 12,8.5 C 12,9.8807119 10.880712,11 9.5,11 8.1192881,11 7,9.8807119 7,8.5 7,7.1192881 8.1192881,6 9.5,6 10.880712,6 12,7.1192881 12,8.5 z" />
    <text
       xml:space="preserve"
       style="font-size:3.09682274px;font-style:normal;font-weight:normal;line-height:125%;letter-spacing:0px;word-spacing:0px;fill:#000000;fill-opacity:1;stroke:none;font-family:Sans"
       x="73.12619"
       y="23.563442"
       id="text2995-90-4-0"
       sodipodi:linespacing="125%"
       transform="scale(1.1526174,0.86759059)"><tspan
         sodipodi:role="line"
         id="tspan2997-93-6-8"
         x="73.12619"
         y="23.563442">8</tspan></text>
    <path
       transform="translate(82.568221,23.878881)"
       sodipodi:type="arc"
       style="fill:#ff0000;fill-opacity:1;stroke:#ff0000;stroke-width:0.2;stroke-miterlimit:4;stroke-opacity:1;stroke-dasharray:none"
       id="path2999-2-7-1"
       sodipodi:cx="9.5"
       sodipodi:cy="8.5"
       sodipodi:rx="2.5"
       sodipodi:ry="2.5"
       d="M 12,8.5 C 12,9.8807119 10.880712,11 9.5,11 8.1192881,11 7,9.8807119 7,8.5 7,7.1192881 8.1192881,6 9.5,6 10.880712,6 12,7.1192881 12,8.5 z" />
    <text
       xml:space="preserve"
       style="font-size:3.09682274px;font-style:normal;font-weight:normal;line-height:125%;letter-spacing:0px;word-spacing:0px;fill:#000000;fill-opacity:1;stroke:none;font-family:Sans"
       x="78.823898"
       y="38.411438"
       id="text2995-8-1-1"
       sodipodi:linespacing="125%"
       transform="scale(1.1526174,0.86759059)"><tspan
         sodipodi:role="line"
         id="tspan2997-7-0-2"
         x="78.823898"
         y="38.411438">1</tspan></text>
    <path
       transform="translate(91.408791,23.626294)"
       sodipodi:type="arc"
       style="fill:#ff0000;fill-opacity:1;stroke:#ff0000;stroke-width:0.2;stroke-miterlimit:4;stroke-opacity:1;stroke-dasharray:none"
       id="path2999-3-3-6"
       sodipodi:cx="9.5"
       sodipodi:cy="8.5"
       sodipodi:rx="2.5"
       sodipodi:ry="2.5"
       d="M 12,8.5 C 12,9.8807119 10.880712,11 9.5,11 8.1192881,11 7,9.8807119 7,8.5 7,7.1192881 8.1192881,6 9.5,6 10.880712,6 12,7.1192881 12,8.5 z" />
    <text
       xml:space="preserve"
       style="font-size:3.09682274px;font-style:normal;font-weight:normal;line-height:125%;letter-spacing:0px;word-spacing:0px;fill:#000000;fill-opacity:1;stroke:none;font-family:Sans"
       x="86.493896"
       y="38.1203"
       id="text2995-9-0-8"
       sodipodi:linespacing="125%"
       transform="scale(1.1526174,0.86759059)"><tspan
         sodipodi:role="line"
         id="tspan2997-74-6-9"
         x="86.493896"
         y="38.1203">4</tspan></text>
    <path
       transform="translate(80.673811,31.203925)"
       sodipodi:type="arc"
       style="fill:#ff0000;fill-opacity:1;stroke:#ff0000;stroke-width:0.2;stroke-miterlimit:4;stroke-opacity:1;stroke-dasharray:none"
       id="path2999-0-4-3"
       sodipodi:cx="9.5"
       sodipodi:cy="8.5"
       sodipodi:rx="2.5"
       sodipodi:ry="2.5"
       d="M 12,8.5 C 12,9.8807119 10.880712,11 9.5,11 8.1192881,11 7,9.8807119 7,8.5 7,7.1192881 8.1192881,6 9.5,6 10.880712,6 12,7.1192881 12,8.5 z" />
    <text
       xml:space="preserve"
       style="font-size:3.09682274px;font-style:normal;font-weight:normal;line-height:125%;letter-spacing:0px;word-spacing:0px;fill:#000000;fill-opacity:1;stroke:none;font-family:Sans"
       x="77.180336"
       y="46.854404"
       id="text2995-2-5-4"
       sodipodi:linespacing="125%"
       transform="scale(1.1526174,0.86759059)"><tspan
         sodipodi:role="line"
         id="tspan2997-0-6-4"
         x="77.180336"
         y="46.854404">2</tspan></text>
    <path
       transform="translate(92.292851,31.456513)"
       sodipodi:type="arc"
       style="fill:#ff0000;fill-opacity:1;stroke:#ff0000;stroke-width:0.2;stroke-miterlimit:4;stroke-opacity:1;stroke-dasharray:none"
       id="path2999-6-4-2"
       sodipodi:cx="9.5"
       sodipodi:cy="8.5"
       sodipodi:rx="2.5"
       sodipodi:ry="2.5"
       d="M 12,8.5 C 12,9.8807119 10.880712,11 9.5,11 8.1192881,11 7,9.8807119 7,8.5 7,7.1192881 8.1192881,6 9.5,6 10.880712,6 12,7.1192881 12,8.5 z" />
    <text
       xml:space="preserve"
       style="font-size:3.09682274px;font-style:normal;font-weight:normal;line-height:125%;letter-spacing:0px;word-spacing:0px;fill:#000000;fill-opacity:1;stroke:none;font-family:Sans"
       x="87.260902"
       y="47.145538"
       id="text2995-6-6-9"
       sodipodi:linespacing="125%"
       transform="scale(1.1526174,0.86759059)"><tspan
         sodipodi:role="line"
         id="tspan2997-9-3-0"
         x="87.260902"
         y="47.145538">3</tspan></text>
    <path
       transform="translate(83.831161,-5.4212926)"
       sodipodi:type="arc"
       style="fill:#ff0000;fill-opacity:1;stroke:#ff0000;stroke-width:0.2;stroke-miterlimit:4;stroke-opacity:1;stroke-dasharray:none"
       id="path2999-4-3-6"
       sodipodi:cx="9.5"
       sodipodi:cy="8.5"
       sodipodi:rx="2.5"
       sodipodi:ry="2.5"
       d="M 12,8.5 C 12,9.8807119 10.880712,11 9.5,11 8.1192881,11 7,9.8807119 7,8.5 7,7.1192881 8.1192881,6 9.5,6 10.880712,6 12,7.1192881 12,8.5 z" />
    <text
       xml:space="preserve"
       style="font-size:3.09682274px;font-style:normal;font-weight:normal;line-height:125%;letter-spacing:0px;word-spacing:0px;fill:#000000;fill-opacity:1;stroke:none;font-family:Sans"
       x="79.919617"
       y="4.6395459"
       id="text2995-28-5-1"
       sodipodi:linespacing="125%"
       transform="scale(1.1526174,0.86759059)"><tspan
         sodipodi:role="line"
         id="tspan2997-1-3-7"
         x="79.919617"
         y="4.6395459">9</tspan></text>
    <path
       transform="translate(79.66346,3.6718651)"
       sodipodi:type="arc"
       style="fill:#ff0000;fill-opacity:1;stroke:#ff0000;stroke-width:0.2;stroke-miterlimit:4;stroke-opacity:1;stroke-dasharray:none"
       id="path2999-1-2-0"
       sodipodi:cx="9.5"
       sodipodi:cy="8.5"
       sodipodi:rx="2.5"
       sodipodi:ry="2.5"
       d="M 12,8.5 C 12,9.8807119 10.880712,11 9.5,11 8.1192881,11 7,9.8807119 7,8.5 7,7.1192881 8.1192881,6 9.5,6 10.880712,6 12,7.1192881 12,8.5 z" />
    <text
       xml:space="preserve"
       style="font-size:3.09682274px;font-style:normal;font-weight:normal;line-height:125%;letter-spacing:0px;word-spacing:0px;fill:#000000;fill-opacity:1;stroke:none;font-family:Sans"
       x="76.303764"
       y="15.120475"
       id="text2995-1-6-7"
       sodipodi:linespacing="125%"
       transform="scale(1.1526174,0.86759059)"><tspan
         sodipodi:role="line"
         id="tspan2997-3-5-4"
         x="76.303764"
         y="15.120475">6</tspan></text>
    <path
       style="fill:none;stroke:#000000;stroke-width:1px;stroke-linecap:butt;stroke-linejoin:miter;stroke-opacity:1"
       d="M 58.852936,5.0994093 51.401598,10.656339"
       id="path3472"
       inkscape:connector-curvature="0" />
    <path
       style="fill:none;stroke:#000000;stroke-width:1px;stroke-linecap:butt;stroke-linejoin:miter;stroke-opacity:1"
       d="m 60.62105,6.1097601 0,4.4202849"
       id="path3474"
       inkscape:connector-curvature="0" />
    <path
       style="fill:none;stroke:#000000;stroke-width:1px;stroke-linecap:butt;stroke-linejoin:miter;stroke-opacity:1"
       d="m 62.26287,4.7205277 7.703925,5.9358113"
       id="path3476"
       inkscape:connector-curvature="0" />
    <path
       style="fill:none;stroke:#000000;stroke-width:1px;stroke-linecap:butt;stroke-linejoin:miter;stroke-opacity:1"
       d="m 49.633484,14.445154 -3.788815,4.420285"
       id="path3478"
       inkscape:connector-curvature="0" />
    <path
       style="fill:none;stroke:#000000;stroke-width:1px;stroke-linecap:butt;stroke-linejoin:miter;stroke-opacity:1"
       d="m 51.906774,14.318861 1.768114,4.672872"
       id="path3480"
       inkscape:connector-curvature="0" />
    <path
       style="fill:none;stroke:#000000;stroke-width:1px;stroke-linecap:butt;stroke-linejoin:miter;stroke-opacity:1"
       d="m 61.126225,13.939979 0,5.051754"
       id="path3482"
       inkscape:connector-curvature="0" />
    <path
       style="fill:none;stroke:#000000;stroke-width:1px;stroke-linecap:butt;stroke-linejoin:miter;stroke-opacity:1"
       d="m 71.103439,14.445154 0,4.799167"
       id="path3484"
       inkscape:connector-curvature="0" />
    <path
       style="fill:none;stroke:#000000;stroke-width:1px;stroke-linecap:butt;stroke-linejoin:miter;stroke-opacity:1"
       d="m 44.960612,23.412018 -0.63147,3.915109"
       id="path3486"
       inkscape:connector-curvature="0" />
    <path
       style="fill:none;stroke:#000000;stroke-width:1px;stroke-linecap:butt;stroke-linejoin:miter;stroke-opacity:1"
       d="m 54.306357,22.906843 -0.126294,3.915109"
       id="path3488"
       inkscape:connector-curvature="0" />
    <path
       style="fill:none;stroke:#000000;stroke-width:1px;stroke-linecap:butt;stroke-linejoin:miter;stroke-opacity:1"
       d="m 92.320811,4.7205277 -2.27329,5.178048"
       id="path3490"
       inkscape:connector-curvature="0" />
    <path
       style="fill:none;stroke:#000000;stroke-width:1px;stroke-linecap:butt;stroke-linejoin:miter;stroke-opacity:1"
       d="m 94.846681,4.0890584 6.819869,5.8095173"
       id="path3492"
       inkscape:connector-curvature="0" />
    <path
       style="fill:none;stroke:#000000;stroke-width:1px;stroke-linecap:butt;stroke-linejoin:miter;stroke-opacity:1"
       d="m 88.026811,14.192566 -1.76811,3.91511"
       id="path3494"
       inkscape:connector-curvature="0" />
    <path
       style="fill:none;stroke:#000000;stroke-width:1px;stroke-linecap:butt;stroke-linejoin:miter;stroke-opacity:1"
       d="m 101.66655,13.687391 -0.12629,3.409934"
       id="path3496"
       inkscape:connector-curvature="0" />
    <path
       style="fill:none;stroke:#000000;stroke-width:1px;stroke-linecap:butt;stroke-linejoin:miter;stroke-opacity:1"
       d="m 100.40361,21.138728 -2.778459,2.525877"
       id="path3498"
       inkscape:connector-curvature="0" />
    <path
       style="fill:none;stroke:#000000;stroke-width:1px;stroke-linecap:butt;stroke-linejoin:miter;stroke-opacity:1"
       d="m 95.478151,27.453421 -2.14699,3.157346"
       id="path3500"
       inkscape:connector-curvature="0" />
    <path
       style="fill:none;stroke:#000000;stroke-width:1px;stroke-linecap:butt;stroke-linejoin:miter;stroke-opacity:1"
       d="m 97.877741,27.327127 3.283639,2.904759"
       id="path3502"
       inkscape:connector-curvature="0" />
    <path
       style="fill:none;stroke:#000000;stroke-width:1px;stroke-linecap:butt;stroke-linejoin:miter;stroke-opacity:1"
       d="m 90.805281,34.399583 -0.63147,2.904759"
       id="path3504"
       inkscape:connector-curvature="0" />
    <path
       style="fill:none;stroke:#000000;stroke-width:1px;stroke-linecap:butt;stroke-linejoin:miter;stroke-opacity:1"
       d="m 100.90879,34.146995 0.63147,3.662522"
       id="path3506"
       inkscape:connector-curvature="0" />
  </g>
</svg>
