<?xml version="1.0" encoding="UTF-8" standalone="no"?>
<!DOCTYPE svg PUBLIC "-//W3C//DTD SVG 1.0//EN" "http://www.w3.org/TR/2001/PR-SVG-20010719/DTD/svg10.dtd">
<svg width="26cm" height="23cm" viewBox="92 46 514 451" xmlns="http://www.w3.org/2000/svg" xmlns:xlink="http://www.w3.org/1999/xlink">
  <g>
    <ellipse style="fill: #ffffff" cx="350.536" cy="68.5086" rx="27.2995" ry="21.0529"/>
    <ellipse style="fill: none; fill-opacity:0; stroke-width: 2; stroke: #000000" cx="350.536" cy="68.5086" rx="27.2995" ry="21.0529"/>
    <text font-size="12.7998" style="fill: #000000;text-anchor:middle;font-family:sans-serif;font-style:normal;font-weight:normal" x="350.536" y="72.4086">
      <tspan x="350.536" y="72.4086">3;3</tspan>
    </text>
  </g>
  <g>
    <ellipse style="fill: #ffffff" cx="244.053" cy="169.851" rx="27.2995" ry="21.0529"/>
    <ellipse style="fill: none; fill-opacity:0; stroke-width: 2; stroke: #000000" cx="244.053" cy="169.851" rx="27.2995" ry="21.0529"/>
    <text font-size="12.7998" style="fill: #000000;text-anchor:middle;font-family:sans-serif;font-style:normal;font-weight:normal" x="244.053" y="173.751">
      <tspan x="244.053" y="173.751">3;2</tspan>
    </text>
  </g>
  <g>
    <ellipse style="fill: #ffffff" cx="457.093" cy="155.064" rx="27.2995" ry="21.0529"/>
    <ellipse style="fill: none; fill-opacity:0; stroke-width: 2; stroke: #000000" cx="457.093" cy="155.064" rx="27.2995" ry="21.0529"/>
    <text font-size="12.7998" style="fill: #000000;text-anchor:middle;font-family:sans-serif;font-style:normal;font-weight:normal" x="457.093" y="158.964">
      <tspan x="457.093" y="158.964">3;1</tspan>
    </text>
  </g>
  <g>
    <ellipse style="fill: #ffffff" cx="422.809" cy="347.166" rx="27.2995" ry="21.0529"/>
    <ellipse style="fill: none; fill-opacity:0; stroke-width: 2; stroke: #000000" cx="422.809" cy="347.166" rx="27.2995" ry="21.0529"/>
    <text font-size="12.7998" style="fill: #000000;text-anchor:middle;font-family:sans-serif;font-style:normal;font-weight:normal" x="422.809" y="351.066">
      <tspan x="422.809" y="351.066">2;0</tspan>
    </text>
  </g>
  <g>
    <ellipse style="fill: #ffffff" cx="256.771" cy="305.368" rx="27.2995" ry="23.4961"/>
    <ellipse style="fill: none; fill-opacity:0; stroke-width: 2; stroke: #000000" cx="256.771" cy="305.368" rx="27.2995" ry="23.4961"/>
    <text font-size="12.7998" style="fill: #000000;text-anchor:middle;font-family:sans-serif;font-style:normal;font-weight:normal" x="256.771" y="309.268">
      <tspan x="256.771" y="309.268">2;1</tspan>
    </text>
  </g>
  <g>
    <ellipse style="fill: #ffffff" cx="370.996" cy="283.222" rx="30.611" ry="19.5198"/>
    <ellipse style="fill: none; fill-opacity:0; stroke-width: 2; stroke: #000000" cx="370.996" cy="283.222" rx="30.611" ry="19.5198"/>
    <text font-size="12.7998" style="fill: #000000;text-anchor:middle;font-family:sans-serif;font-style:normal;font-weight:normal" x="370.996" y="287.122">
      <tspan x="370.996" y="287.122">2;2</tspan>
    </text>
  </g>
  <g>
    <ellipse style="fill: #ffffff" cx="577.4" cy="332.853" rx="27.2995" ry="21.0529"/>
    <ellipse style="fill: none; fill-opacity:0; stroke-width: 2; stroke: #000000" cx="577.4" cy="332.853" rx="27.2995" ry="21.0529"/>
    <text font-size="12.7998" style="fill: #000000;text-anchor:middle;font-family:sans-serif;font-style:normal;font-weight:normal" x="577.4" y="336.753">
      <tspan x="577.4" y="336.753">1;1</tspan>
    </text>
  </g>
  <g>
    <ellipse style="fill: #ffffff" cx="361.499" cy="403.653" rx="27.2995" ry="21.0529"/>
    <ellipse style="fill: none; fill-opacity:0; stroke-width: 2; stroke: #000000" cx="361.499" cy="403.653" rx="27.2995" ry="21.0529"/>
    <text font-size="12.7998" style="fill: #000000;text-anchor:middle;font-family:sans-serif;font-style:normal;font-weight:normal" x="361.499" y="407.553">
      <tspan x="361.499" y="407.553">1;0</tspan>
    </text>
  </g>
  <g>
    <ellipse style="fill: #ffffff" cx="120.771" cy="328.298" rx="27.2995" ry="21.0529"/>
    <ellipse style="fill: none; fill-opacity:0; stroke-width: 2; stroke: #000000" cx="120.771" cy="328.298" rx="27.2995" ry="21.0529"/>
    <text font-size="12.7998" style="fill: #000000;text-anchor:middle;font-family:sans-serif;font-style:normal;font-weight:normal" x="120.771" y="332.198">
      <tspan x="120.771" y="332.198">3;0</tspan>
    </text>
  </g>
  <g>
    <line style="fill: none; fill-opacity:0; stroke-width: 2; stroke-dasharray: 4; stroke: #000000" x1="332.637" y1="85.5433" x2="269.005" y2="146.104"/>
    <polygon style="fill: #000000" points="263.572,151.275 267.369,140.759 269.005,146.104 274.263,148.002 "/>
    <polygon style="fill: none; fill-opacity:0; stroke-width: 2; stroke: #000000" points="263.572,151.275 267.369,140.759 269.005,146.104 274.263,148.002 "/>
  </g>
  <g>
    <line style="fill: none; fill-opacity:0; stroke-width: 2; stroke: #0000ff" x1="370.106" y1="84.4049" x2="429.966" y2="133.029"/>
    <polygon style="fill: #0000ff" points="435.787,137.758 424.873,135.334 429.966,133.029 431.178,127.572 "/>
    <polygon style="fill: none; fill-opacity:0; stroke-width: 2; stroke: #0000ff" points="435.787,137.758 424.873,135.334 429.966,133.029 431.178,127.572 "/>
  </g>
  <g>
    <line style="fill: none; fill-opacity:0; stroke-width: 2; stroke-dasharray: 4; stroke: #000000" x1="272.328" y1="168.838" x2="422.141" y2="163.469"/>
    <polygon style="fill: #000000" points="429.636,163.201 419.822,168.555 422.141,163.469 419.464,158.562 "/>
    <polygon style="fill: none; fill-opacity:0; stroke-width: 2; stroke: #000000" points="429.636,163.201 419.822,168.555 422.141,163.469 419.464,158.562 "/>
  </g>
  <g>
    <line style="fill: none; fill-opacity:0; stroke-width: 2; stroke-dasharray: 4; stroke: #000000" x1="228.944" y1="188.464" x2="137.355" y2="301.289"/>
    <polygon style="fill: #000000" points="132.628,307.112 135.048,296.196 137.355,301.289 142.812,302.499 "/>
    <polygon style="fill: none; fill-opacity:0; stroke-width: 2; stroke: #000000" points="132.628,307.112 135.048,296.196 137.355,301.289 142.812,302.499 "/>
  </g>
  <g>
    <line style="fill: none; fill-opacity:0; stroke-width: 2; stroke-dasharray: 4; stroke: #000000" x1="246.117" y1="191.836" x2="253.573" y2="271.291"/>
    <polygon style="fill: #000000" points="254.273,278.758 248.361,269.269 253.573,271.291 258.317,268.335 "/>
    <polygon style="fill: none; fill-opacity:0; stroke-width: 2; stroke: #000000" points="254.273,278.758 248.361,269.269 253.573,271.291 258.317,268.335 "/>
  </g>
  <g>
    <line style="fill: none; fill-opacity:0; stroke-width: 2; stroke-dasharray: 4; stroke: #000000" x1="262.525" y1="186.347" x2="345.197" y2="260.181"/>
    <polygon style="fill: #000000" points="350.791,265.177 340.002,262.245 345.197,260.181 346.663,254.787 "/>
    <polygon style="fill: none; fill-opacity:0; stroke-width: 2; stroke: #000000" points="350.791,265.177 340.002,262.245 345.197,260.181 346.663,254.787 "/>
  </g>
  <g>
    <line style="fill: none; fill-opacity:0; stroke-width: 2; stroke: #0000ff" x1="433.507" y1="167.213" x2="153.013" y2="311.691"/>
    <polygon style="fill: #0000ff" points="146.345,315.125 152.946,306.101 153.013,311.691 157.525,314.991 "/>
    <polygon style="fill: none; fill-opacity:0; stroke-width: 2; stroke: #0000ff" points="146.345,315.125 152.946,306.101 153.013,311.691 157.525,314.991 "/>
  </g>
  <g>
    <line style="fill: none; fill-opacity:0; stroke-width: 2; stroke: #0000ff" x1="436.735" y1="170.338" x2="285.937" y2="283.484"/>
    <polygon style="fill: #0000ff" points="279.937,287.986 284.935,277.985 285.937,283.484 290.937,285.983 "/>
    <polygon style="fill: none; fill-opacity:0; stroke-width: 2; stroke: #0000ff" points="279.937,287.986 284.935,277.985 285.937,283.484 290.937,285.983 "/>
  </g>
  <g>
    <line style="fill: none; fill-opacity:0; stroke-width: 2; stroke: #0000ff" x1="470.284" y1="174.558" x2="558.751" y2="305.295"/>
    <polygon style="fill: #0000ff" points="562.955,311.506 553.209,306.027 558.751,305.295 561.491,300.422 "/>
    <polygon style="fill: none; fill-opacity:0; stroke-width: 2; stroke: #0000ff" points="562.955,311.506 553.209,306.027 558.751,305.295 561.491,300.422 "/>
  </g>
  <g>
    <line style="fill: none; fill-opacity:0; stroke-width: 2; stroke: #0000ff" x1="147.02" y1="336.515" x2="325.959" y2="392.528"/>
    <polygon style="fill: #0000ff" points="333.117,394.768 322.08,396.553 325.959,392.528 325.067,387.009 "/>
    <polygon style="fill: none; fill-opacity:0; stroke-width: 2; stroke: #0000ff" points="333.117,394.768 322.08,396.553 325.959,392.528 325.067,387.009 "/>
  </g>
  <g>
    <line style="fill: none; fill-opacity:0; stroke-width: 2; stroke-dasharray: 4; stroke: #000000" x1="340.739" y1="289.088" x2="293.944" y2="298.161"/>
    <polygon style="fill: #000000" points="286.581,299.588 295.446,292.776 293.944,298.161 297.35,302.594 "/>
    <polygon style="fill: none; fill-opacity:0; stroke-width: 2; stroke: #000000" points="286.581,299.588 295.446,292.776 293.944,298.161 297.35,302.594 "/>
  </g>
  <g>
    <line style="fill: none; fill-opacity:0; stroke-width: 2; stroke-dasharray: 4; stroke: #000000" x1="385.676" y1="301.339" x2="401.589" y2="320.977"/>
    <polygon style="fill: #000000" points="406.31,326.804 396.13,322.183 401.589,320.977 403.9,315.887 "/>
    <polygon style="fill: none; fill-opacity:0; stroke-width: 2; stroke: #000000" points="406.31,326.804 396.13,322.183 401.589,320.977 403.9,315.887 "/>
  </g>
  <g>
    <line style="fill: none; fill-opacity:0; stroke-width: 2; stroke: #0000ff" x1="275.953" y1="323.371" x2="336.342" y2="380.044"/>
    <polygon style="fill: #0000ff" points="341.811,385.176 331.098,381.979 336.342,380.044 337.941,374.687 "/>
    <polygon style="fill: none; fill-opacity:0; stroke-width: 2; stroke: #0000ff" points="341.811,385.176 331.098,381.979 336.342,380.044 337.941,374.687 "/>
  </g>
  <g>
    <line style="fill: none; fill-opacity:0; stroke-width: 2; stroke-dasharray: 4; stroke: #000000" x1="404.578" y1="363.963" x2="386.891" y2="380.259"/>
    <polygon style="fill: #000000" points="381.375,385.341 385.342,374.888 386.891,380.259 392.118,382.242 "/>
    <polygon style="fill: none; fill-opacity:0; stroke-width: 2; stroke: #000000" points="381.375,385.341 385.342,374.888 386.891,380.259 392.118,382.242 "/>
  </g>
  <g>
    <line style="fill: none; fill-opacity:0; stroke-width: 2; stroke: #0000ff" x1="551.334" y1="341.4" x2="396.816" y2="392.072"/>
    <polygon style="fill: #0000ff" points="389.689,394.409 397.633,386.542 396.816,392.072 400.749,396.044 "/>
    <polygon style="fill: none; fill-opacity:0; stroke-width: 2; stroke: #0000ff" points="389.689,394.409 397.633,386.542 396.816,392.072 400.749,396.044 "/>
  </g>
  <g>
    <ellipse style="fill: #ffffff" cx="359.664" cy="474.753" rx="27.2995" ry="21.0529"/>
    <ellipse style="fill: none; fill-opacity:0; stroke-width: 2; stroke: #000000" cx="359.664" cy="474.753" rx="27.2995" ry="21.0529"/>
    <text font-size="12.7998" style="fill: #000000;text-anchor:middle;font-family:sans-serif;font-style:normal;font-weight:normal" x="359.664" y="478.653">
      <tspan x="359.664" y="478.653">0;0</tspan>
    </text>
  </g>
  <g>
    <line style="fill: none; fill-opacity:0; stroke-width: 2; stroke: #0000ff" x1="360.93" y1="425.707" x2="360.485" y2="442.966"/>
    <polygon style="fill: #0000ff" points="360.291,450.464 355.551,440.338 360.485,442.966 365.548,440.596 "/>
    <polygon style="fill: none; fill-opacity:0; stroke-width: 2; stroke: #0000ff" points="360.291,450.464 355.551,440.338 360.485,442.966 365.548,440.596 "/>
  </g>
  <g>
    <line style="fill: none; fill-opacity:0; stroke-width: 2; stroke: #bfbfbf" x1="148.986" y1="330.061" x2="384.878" y2="344.796"/>
    <polygon style="fill: #bfbfbf" points="392.363,345.264 382.071,349.631 384.878,344.796 382.694,339.65 "/>
    <polygon style="fill: none; fill-opacity:0; stroke-width: 2; stroke: #bfbfbf" points="392.363,345.264 382.071,349.631 384.878,344.796 382.694,339.65 "/>
  </g>
  <g>
    <line style="fill: none; fill-opacity:0; stroke-width: 2; stroke: #bfbfbf" x1="283.94" y1="312.208" x2="386.441" y2="338.011"/>
    <polygon style="fill: #bfbfbf" points="393.714,339.842 382.796,342.249 386.441,338.011 385.237,332.552 "/>
    <polygon style="fill: none; fill-opacity:0; stroke-width: 2; stroke: #bfbfbf" points="393.714,339.842 382.796,342.249 386.441,338.011 385.237,332.552 "/>
  </g>
  <g>
    <line style="fill: none; fill-opacity:0; stroke-width: 2; stroke: #bfbfbf" x1="284.638" y1="307.757" x2="539.577" y2="329.611"/>
    <polygon style="fill: #bfbfbf" points="547.05,330.251 536.66,334.379 539.577,329.611 537.514,324.415 "/>
    <polygon style="fill: none; fill-opacity:0; stroke-width: 2; stroke: #bfbfbf" points="547.05,330.251 536.66,334.379 539.577,329.611 537.514,324.415 "/>
  </g>
</svg>
