<?xml version="1.0" encoding="UTF-8" standalone="no"?>
<!-- Created with Inkscape (http://www.inkscape.org/) -->

<svg
   xmlns:dc="http://purl.org/dc/elements/1.1/"
   xmlns:cc="http://creativecommons.org/ns#"
   xmlns:rdf="http://www.w3.org/1999/02/22-rdf-syntax-ns#"
   xmlns:svg="http://www.w3.org/2000/svg"
   xmlns="http://www.w3.org/2000/svg"
   xmlns:sodipodi="http://sodipodi.sourceforge.net/DTD/sodipodi-0.dtd"
   xmlns:inkscape="http://www.inkscape.org/namespaces/inkscape"
   width="48.716873"
   height="26.706314"
   id="svg6182"
   version="1.1"
   inkscape:version="0.48.3.1 r9886"
   sodipodi:docname="fig2.pdf">
  <defs
     id="defs6184">
    <marker
       inkscape:stockid="Arrow1Lend"
       orient="auto"
       refY="0"
       refX="0"
       id="Arrow1Lend"
       style="overflow:visible">
      <path
         id="path3802"
         d="M 0,0 5,-5 -12.5,0 5,5 0,0 z"
         style="fill-rule:evenodd;stroke:#000000;stroke-width:1pt"
         transform="matrix(-0.8,0,0,-0.8,-10,0)"
         inkscape:connector-curvature="0" />
    </marker>
  </defs>
  <sodipodi:namedview
     id="base"
     pagecolor="#ffffff"
     bordercolor="#666666"
     borderopacity="1.0"
     inkscape:pageopacity="0.0"
     inkscape:pageshadow="2"
     inkscape:zoom="9.8994949"
     inkscape:cx="30.409116"
     inkscape:cy="13.005455"
     inkscape:current-layer="layer1"
     showgrid="true"
     inkscape:grid-bbox="true"
     inkscape:document-units="px"
     inkscape:snap-global="false"
     fit-margin-top="0"
     fit-margin-left="0"
     fit-margin-right="0"
     fit-margin-bottom="0"
     inkscape:window-width="1024"
     inkscape:window-height="551"
     inkscape:window-x="0"
     inkscape:window-y="25"
     inkscape:window-maximized="1">
    <inkscape:grid
       type="xygrid"
       id="grid6209"
       empspacing="5"
       visible="true"
       enabled="true"
       snapvisiblegridlinesonly="true"
       originx="15.65625px"
       originy="-19.07274px" />
  </sodipodi:namedview>
  <metadata
     id="metadata6187">
    <rdf:RDF>
      <cc:Work
         rdf:about="">
        <dc:format>image/svg+xml</dc:format>
        <dc:type
           rdf:resource="http://purl.org/dc/dcmitype/StillImage" />
        <dc:title></dc:title>
      </cc:Work>
    </rdf:RDF>
  </metadata>
  <g
     id="layer1"
     inkscape:label="Layer 1"
     inkscape:groupmode="layer"
     transform="translate(15.65625,-2.2209459)">
    <path
       sodipodi:type="arc"
       style="fill:#0000ff;fill-opacity:1;stroke:#0000ff;stroke-width:0.5;stroke-miterlimit:4;stroke-opacity:1;stroke-dasharray:none;stroke-dashoffset:0"
       id="path6211"
       sodipodi:cx="5"
       sodipodi:cy="8"
       sodipodi:rx="1"
       sodipodi:ry="1"
       d="M 6,8 C 6,8.5522847 5.5522847,9 5,9 4.4477153,9 4,8.5522847 4,8 4,7.4477153 4.4477153,7 5,7 5.5522847,7 6,7.4477153 6,8 z" />
    <path
       transform="translate(0,15)"
       sodipodi:type="arc"
       style="fill:#0000ff;fill-opacity:1;stroke:#0000ff;stroke-width:0.5;stroke-miterlimit:4;stroke-opacity:1;stroke-dasharray:none;stroke-dashoffset:0"
       id="path6211-3"
       sodipodi:cx="5"
       sodipodi:cy="8"
       sodipodi:rx="1"
       sodipodi:ry="1"
       d="M 6,8 C 6,8.5522847 5.5522847,9 5,9 4.4477153,9 4,8.5522847 4,8 4,7.4477153 4.4477153,7 5,7 5.5522847,7 6,7.4477153 6,8 z" />
    <path
       transform="translate(15,0)"
       sodipodi:type="arc"
       style="fill:#0000ff;fill-opacity:1;stroke:#0000ff;stroke-width:0.5;stroke-miterlimit:4;stroke-opacity:1;stroke-dasharray:none;stroke-dashoffset:0"
       id="path6211-33"
       sodipodi:cx="5"
       sodipodi:cy="8"
       sodipodi:rx="1"
       sodipodi:ry="1"
       d="M 6,8 C 6,8.5522847 5.5522847,9 5,9 4.4477153,9 4,8.5522847 4,8 4,7.4477153 4.4477153,7 5,7 5.5522847,7 6,7.4477153 6,8 z" />
    <path
       transform="translate(15,15)"
       sodipodi:type="arc"
       style="fill:none;stroke:#0000ff;stroke-width:0.5;stroke-miterlimit:4;stroke-opacity:1;stroke-dasharray:none;stroke-dashoffset:0"
       id="path6211-2"
       sodipodi:cx="5"
       sodipodi:cy="8"
       sodipodi:rx="1"
       sodipodi:ry="1"
       d="M 6,8 C 6,8.5522847 5.5522847,9 5,9 4.4477153,9 4,8.5522847 4,8 4,7.4477153 4.4477153,7 5,7 5.5522847,7 6,7.4477153 6,8 z" />
    <path
       style="fill:none;stroke:#000000;stroke-width:0.2;stroke-linecap:butt;stroke-linejoin:miter;stroke-miterlimit:4;stroke-opacity:1;stroke-dasharray:none;marker-end:url(#Arrow1Lend)"
       d="m -15.556349,8.6040508 c 1.128099,-2.0574747 4.860801,-1.766145 5.403326,0.6123548 1.4601852,2.1634154 1.7309939,-2.1937115 6.3951021,0.9722124 2.3390573,-2.2695153 4.71706275,-0.9457868 7.0914243,-1.4835515"
       id="path6755"
       inkscape:connector-curvature="0"
       sodipodi:nodetypes="cccc" />
    <path
       style="fill:none;stroke:#000000;stroke-width:0.2;stroke-linecap:butt;stroke-linejoin:miter;stroke-miterlimit:4;stroke-opacity:1;stroke-dasharray:none;marker-end:url(#Arrow1Lend)"
       d="m -14.344166,23.150247 c 1.574678,-1.529669 4.5133081,-1.801796 5.9948914,-0.0014 1.9934145,0.03251 4.2831341,-2.64617 5.8294211,-0.188707 2.15925798,1.853355 1.97580854,-0.0027 5.9543722,-0.416011"
       id="path6757"
       inkscape:connector-curvature="0"
       sodipodi:nodetypes="cccc" />
    <path
       style="fill:none;stroke:#000000;stroke-width:0.2;stroke-linecap:butt;stroke-linejoin:miter;stroke-miterlimit:4;stroke-opacity:1;stroke-dasharray:none;marker-end:url(#Arrow1Lend)"
       d="m 4.4446712,10.018264 c -2.1723768,3.180478 -1.6551441,7.229273 0.085787,10.825963"
       id="path6759"
       inkscape:connector-curvature="0"
       sodipodi:nodetypes="cc" />
    <path
       style="fill:none;stroke:#000000;stroke-width:0.2;stroke-linecap:butt;stroke-linejoin:miter;stroke-miterlimit:4;stroke-opacity:1;stroke-dasharray:none;marker-end:url(#Arrow1Lend)"
       d="m 6.391445,22.544156 c 4.517651,-2.1913 5.6952,-2.309977 12.205514,0.369398"
       id="path6761"
       inkscape:connector-curvature="0"
       sodipodi:nodetypes="cc" />
    <path
       style="fill:none;stroke:#000000;stroke-width:0.2;stroke-linecap:butt;stroke-linejoin:miter;stroke-miterlimit:4;stroke-opacity:1;stroke-dasharray:none;marker-end:url(#Arrow1Lend)"
       d="m 19.394929,25.372583 c -2.108377,0.694046 -3.762588,1.455065 -6.19011,1.030684 C 10.434205,26.028448 8.3765684,25.58651 5.8588845,24.564466"
       id="path6763"
       inkscape:connector-curvature="0"
       sodipodi:nodetypes="ccc" />
    <path
       style="fill:none;stroke:#000000;stroke-width:0.2;stroke-linecap:butt;stroke-linejoin:miter;stroke-miterlimit:4;stroke-opacity:1;stroke-dasharray:none;marker-end:url(#Arrow1Lend)"
       d="m 21.213203,21.129942 c -0.996135,-2.29706 2.721353,-4.102269 4.195465,-2.314311 1.686225,1.951021 -0.423452,5.208424 -2.888653,4.639197 l -0.296657,0.09948"
       id="path6765"
       inkscape:connector-curvature="0"
       sodipodi:nodetypes="cccc" />
    <path
       style="fill:none;stroke:#000000;stroke-width:0.2;stroke-linecap:butt;stroke-linejoin:miter;stroke-miterlimit:4;stroke-opacity:1;stroke-dasharray:none;marker-end:url(#Arrow1Lend)"
       d="M 6.4649763,6.1796847 C 12.229418,3.425605 15.381611,5.0120174 18.660338,7.5571327"
       id="path6767"
       inkscape:connector-curvature="0"
       sodipodi:nodetypes="cc" />
    <path
       style="fill:none;stroke:#000000;stroke-width:0.2;stroke-linecap:butt;stroke-linejoin:miter;stroke-miterlimit:4;stroke-opacity:1;stroke-dasharray:none;marker-end:url(#Arrow1Lend)"
       d="M 19.79899,5.7756236 C 20.058537,3.4024574 23.382484,3.0075711 24.938071,4.3724533 26.954797,5.6046103 25.764996,9.531373 23.258813,8.739291 22.694998,8.6130628 22.165238,8.377182 21.617264,8.1999897"
       id="path6769"
       inkscape:connector-curvature="0"
       sodipodi:nodetypes="cccc" />
    <text
       xml:space="preserve"
       style="font-size:3.95075536px;font-style:normal;font-weight:normal;line-height:125%;letter-spacing:0px;word-spacing:0px;fill:#000000;fill-opacity:1;stroke:none;font-family:Sans"
       x="3.2957296"
       y="16.689056"
       id="text7051"
       sodipodi:linespacing="125%"
       transform="scale(1.1020141,0.90742939)"><tspan
         sodipodi:role="line"
         id="tspan7053"
         x="3.2957296"
         y="16.689056">a</tspan></text>
    <text
       xml:space="preserve"
       style="font-size:3.95075536px;font-style:normal;font-weight:normal;line-height:125%;letter-spacing:0px;word-spacing:0px;fill:#000000;fill-opacity:1;stroke:none;font-family:Sans"
       x="9.6666451"
       y="4.6601682"
       id="text7051-4"
       sodipodi:linespacing="125%"
       transform="scale(1.1020141,0.9074294)"><tspan
         sodipodi:role="line"
         id="tspan7053-3"
         x="9.6666451"
         y="4.6601682">a</tspan></text>
    <text
       xml:space="preserve"
       style="font-size:3.95075536px;font-style:normal;font-weight:normal;line-height:125%;letter-spacing:0px;word-spacing:0px;fill:#000000;fill-opacity:1;stroke:none;font-family:Sans"
       x="21.674658"
       y="19.6884"
       id="text7051-8"
       sodipodi:linespacing="125%"
       transform="scale(1.1020141,0.9074294)"><tspan
         sodipodi:role="line"
         id="tspan7053-35"
         x="21.674658"
         y="19.6884">b</tspan></text>
    <text
       xml:space="preserve"
       style="font-size:3.95075536px;font-style:normal;font-weight:normal;line-height:125%;letter-spacing:0px;word-spacing:0px;fill:#000000;fill-opacity:1;stroke:none;font-family:Sans"
       x="10.583287"
       y="31.822306"
       id="text7051-83"
       sodipodi:linespacing="125%"
       transform="scale(1.1020141,0.9074294)"><tspan
         sodipodi:role="line"
         id="tspan7053-2"
         x="10.583287"
         y="31.822306">e</tspan></text>
    <text
       xml:space="preserve"
       style="font-size:3.95075536px;font-style:normal;font-weight:normal;line-height:125%;letter-spacing:0px;word-spacing:0px;fill:#000000;fill-opacity:1;stroke:none;font-family:Sans"
       x="7.9250255"
       y="22.137445"
       id="text7051-1"
       sodipodi:linespacing="125%"
       transform="scale(1.1020141,0.9074294)"><tspan
         sodipodi:role="line"
         id="tspan7053-1"
         x="7.9250255"
         y="22.137445">a,b</tspan></text>
    <text
       xml:space="preserve"
       style="font-size:3.95075536px;font-style:normal;font-weight:normal;line-height:125%;letter-spacing:0px;word-spacing:0px;fill:#000000;fill-opacity:1;stroke:none;font-family:Sans"
       x="24.027752"
       y="7.6360822"
       id="text7051-1-5"
       sodipodi:linespacing="125%"
       transform="scale(1.1020141,0.9074294)"><tspan
         sodipodi:role="line"
         id="tspan7053-1-2"
         x="24.027752"
         y="7.6360822">a,b</tspan></text>
  </g>
</svg>
