<?xml version="1.0" encoding="UTF-8" standalone="no"?>
<!-- Created with Inkscape (http://www.inkscape.org/) -->

<svg
   xmlns:dc="http://purl.org/dc/elements/1.1/"
   xmlns:cc="http://creativecommons.org/ns#"
   xmlns:rdf="http://www.w3.org/1999/02/22-rdf-syntax-ns#"
   xmlns:svg="http://www.w3.org/2000/svg"
   xmlns="http://www.w3.org/2000/svg"
   version="1.1"
   width="80.199997"
   height="76.993881"
   id="svg2985">
  <defs
     id="defs2987">
    <marker
       refX="0"
       refY="0"
       orient="auto"
       id="Arrow1Mend"
       style="overflow:visible">
      <path
         d="M 0,0 5,-5 -12.5,0 5,5 0,0 z"
         transform="matrix(-0.4,0,0,-0.4,-4,0)"
         id="path3808"
         style="fill-rule:evenodd;stroke:#000000;stroke-width:1pt" />
    </marker>
    <marker
       refX="0"
       refY="0"
       orient="auto"
       id="Arrow1Send"
       style="overflow:visible">
      <path
         d="M 0,0 5,-5 -12.5,0 5,5 0,0 z"
         transform="matrix(-0.2,0,0,-0.2,-1.2,0)"
         id="path3814"
         style="fill-rule:evenodd;stroke:#000000;stroke-width:1pt" />
    </marker>
    <marker
       refX="0"
       refY="0"
       orient="auto"
       id="Arrow1Lend"
       style="overflow:visible">
      <path
         d="M 0,0 5,-5 -12.5,0 5,5 0,0 z"
         transform="matrix(-0.8,0,0,-0.8,-10,0)"
         id="path3802"
         style="fill-rule:evenodd;stroke:#000000;stroke-width:1pt" />
    </marker>
    <marker
       refX="0"
       refY="0"
       orient="auto"
       id="Arrow1Lend-0"
       style="overflow:visible">
      <path
         d="M 0,0 5,-5 -12.5,0 5,5 0,0 z"
         transform="matrix(-0.8,0,0,-0.8,-10,0)"
         id="path3802-0"
         style="fill-rule:evenodd;stroke:#000000;stroke-width:1pt" />
    </marker>
    <marker
       refX="0"
       refY="0"
       orient="auto"
       id="marker5493"
       style="overflow:visible">
      <path
         d="M 0,0 5,-5 -12.5,0 5,5 0,0 z"
         transform="matrix(-0.8,0,0,-0.8,-10,0)"
         id="path5495"
         style="fill-rule:evenodd;stroke:#000000;stroke-width:1pt" />
    </marker>
    <marker
       refX="0"
       refY="0"
       orient="auto"
       id="marker5497"
       style="overflow:visible">
      <path
         d="M 0,0 5,-5 -12.5,0 5,5 0,0 z"
         transform="matrix(-0.8,0,0,-0.8,-10,0)"
         id="path5499"
         style="fill-rule:evenodd;stroke:#000000;stroke-width:1pt" />
    </marker>
    <marker
       refX="0"
       refY="0"
       orient="auto"
       id="Arrow1Mend-4"
       style="overflow:visible">
      <path
         d="M 0,0 5,-5 -12.5,0 5,5 0,0 z"
         transform="matrix(-0.4,0,0,-0.4,-4,0)"
         id="path3808-0"
         style="fill-rule:evenodd;stroke:#000000;stroke-width:1pt" />
    </marker>
    <marker
       refX="0"
       refY="0"
       orient="auto"
       id="marker5577"
       style="overflow:visible">
      <path
         d="M 0,0 5,-5 -12.5,0 5,5 0,0 z"
         transform="matrix(-0.4,0,0,-0.4,-4,0)"
         id="path5579"
         style="fill-rule:evenodd;stroke:#000000;stroke-width:1pt" />
    </marker>
    <marker
       refX="0"
       refY="0"
       orient="auto"
       id="Arrow1Mend-41"
       style="overflow:visible">
      <path
         d="M 0,0 5,-5 -12.5,0 5,5 0,0 z"
         transform="matrix(-0.4,0,0,-0.4,-4,0)"
         id="path3808-7"
         style="fill-rule:evenodd;stroke:#000000;stroke-width:1pt" />
    </marker>
    <marker
       refX="0"
       refY="0"
       orient="auto"
       id="marker5609"
       style="overflow:visible">
      <path
         d="M 0,0 5,-5 -12.5,0 5,5 0,0 z"
         transform="matrix(-0.4,0,0,-0.4,-4,0)"
         id="path5611"
         style="fill-rule:evenodd;stroke:#000000;stroke-width:1pt" />
    </marker>
    <marker
       refX="0"
       refY="0"
       orient="auto"
       id="Arrow1Lend-9"
       style="overflow:visible">
      <path
         d="M 0,0 5,-5 -12.5,0 5,5 0,0 z"
         transform="matrix(-0.8,0,0,-0.8,-10,0)"
         id="path3802-2"
         style="fill-rule:evenodd;stroke:#000000;stroke-width:1pt" />
    </marker>
    <marker
       refX="0"
       refY="0"
       orient="auto"
       id="marker5615"
       style="overflow:visible">
      <path
         d="M 0,0 5,-5 -12.5,0 5,5 0,0 z"
         transform="matrix(-0.8,0,0,-0.8,-10,0)"
         id="path5617"
         style="fill-rule:evenodd;stroke:#000000;stroke-width:1pt" />
    </marker>
    <marker
       refX="0"
       refY="0"
       orient="auto"
       id="marker5619"
       style="overflow:visible">
      <path
         d="M 0,0 5,-5 -12.5,0 5,5 0,0 z"
         transform="matrix(-0.8,0,0,-0.8,-10,0)"
         id="path5621"
         style="fill-rule:evenodd;stroke:#000000;stroke-width:1pt" />
    </marker>
  </defs>
  <metadata
     id="metadata2990">
    <rdf:RDF>
      <cc:Work
         rdf:about="">
        <dc:format>image/svg+xml</dc:format>
        <dc:type
           rdf:resource="http://purl.org/dc/dcmitype/StillImage" />
        <dc:title></dc:title>
      </cc:Work>
    </rdf:RDF>
  </metadata>
  <g
     transform="translate(0.1,2.5142293)"
     id="layer1">
    <rect
       width="20"
       height="20"
       x="5"
       y="3"
       id="rect2995"
       style="fill:#00ffff;fill-opacity:0;stroke:#000000;stroke-width:0.30000001;stroke-miterlimit:4;stroke-opacity:1;stroke-dasharray:none;stroke-dashoffset:0" />
    <rect
       width="20"
       height="20"
       x="55"
       y="3"
       id="rect2995-8"
       style="fill:#00ffff;fill-opacity:0;stroke:#000000;stroke-width:0.30000001;stroke-miterlimit:4;stroke-opacity:1;stroke-dasharray:none;stroke-dashoffset:0" />
    <path
       d="M 0,8 10,8"
       id="path3783"
       style="fill:none;stroke:#000000;stroke-width:0.2;stroke-linecap:butt;stroke-linejoin:miter;stroke-miterlimit:4;stroke-opacity:1;stroke-dasharray:none;marker-end:url(#Arrow1Lend)" />
    <path
       d="M 20,8 30,8"
       id="path3785"
       style="fill:none;stroke:#000000;stroke-width:0.2;stroke-linecap:butt;stroke-linejoin:miter;stroke-miterlimit:4;stroke-opacity:1;stroke-dasharray:none;marker-end:url(#Arrow1Lend)" />
    <path
       d="M 50,8 60,8"
       id="path3787"
       style="fill:none;stroke:#000000;stroke-width:0.2;stroke-linecap:butt;stroke-linejoin:miter;stroke-miterlimit:4;stroke-opacity:1;stroke-dasharray:none;marker-end:url(#Arrow1Lend)" />
    <path
       d="M 70,8 80,8"
       id="path3789"
       style="fill:none;stroke:#000000;stroke-width:0.2;stroke-linecap:butt;stroke-linejoin:miter;stroke-miterlimit:4;stroke-opacity:1;stroke-dasharray:none;marker-end:url(#Arrow1Lend)" />
    <path
       d="m 20,13 10,0"
       id="path3791"
       style="fill:none;stroke:#000000;stroke-width:0.2;stroke-linecap:butt;stroke-linejoin:miter;stroke-miterlimit:4;stroke-opacity:1;stroke-dasharray:none;marker-end:url(#Arrow1Lend)" />
    <path
       d="m 70,13 10,0"
       id="path3793"
       style="fill:none;stroke:#000000;stroke-width:0.2;stroke-linecap:butt;stroke-linejoin:miter;stroke-miterlimit:4;stroke-opacity:1;stroke-dasharray:none;marker-end:url(#Arrow1Lend)" />
    <path
       d="m 30,8 c 1.902943,-2.754943 2.901856,-2.1729731 6.586282,-0.6751995 0.949259,0.598106 4.156393,0.4528591 7.517656,0.99655 C 46.051215,8.1175845 47.560243,8.3434256 50,8"
       id="path4239"
       style="fill:none;stroke:#0000ff;stroke-width:0.5;stroke-linecap:butt;stroke-linejoin:miter;stroke-miterlimit:4;stroke-opacity:1;stroke-dasharray:none;marker-start:none;marker-mid:url(#Arrow1Mend);marker-end:url(#Arrow1Mend)" />
    <text
       x="0.76362556"
       y="8.1799278"
       transform="scale(1.1315964,0.88370732)"
       id="text4252"
       xml:space="preserve"
       style="font-size:1.92152083px;font-style:normal;font-weight:normal;line-height:125%;letter-spacing:0px;word-spacing:0px;fill:#000000;fill-opacity:1;stroke:none;font-family:Sans"><tspan
         x="0.76362556"
         y="8.1799278"
         id="tspan4254">stdin</tspan></text>
    <text
       x="18.054512"
       y="8.0717249"
       transform="scale(1.1315964,0.88370731)"
       id="text4252-0"
       xml:space="preserve"
       style="font-size:1.92152083px;font-style:normal;font-weight:normal;line-height:125%;letter-spacing:0px;word-spacing:0px;fill:#000000;fill-opacity:1;stroke:none;font-family:Sans"><tspan
         x="18.054512"
         y="8.0717249"
         id="tspan4254-4">stdout</tspan></text>
    <text
       x="17.549536"
       y="13.891363"
       transform="scale(1.1315964,0.88370731)"
       id="text4252-9"
       xml:space="preserve"
       style="font-size:1.92152083px;font-style:normal;font-weight:normal;line-height:125%;letter-spacing:0px;word-spacing:0px;fill:#000000;fill-opacity:1;stroke:none;font-family:Sans"><tspan
         x="17.549536"
         y="13.891363"
         id="tspan4254-0">stderr</tspan></text>
    <text
       x="44.88134"
       y="8.2333813"
       transform="scale(1.1315964,0.88370731)"
       id="text4252-3"
       xml:space="preserve"
       style="font-size:1.92152083px;font-style:normal;font-weight:normal;line-height:125%;letter-spacing:0px;word-spacing:0px;fill:#000000;fill-opacity:1;stroke:none;font-family:Sans"><tspan
         x="44.88134"
         y="8.2333813"
         id="tspan4254-7">stdin</tspan></text>
    <text
       x="35.097439"
       y="7.3442698"
       transform="scale(1.1315964,0.88370731)"
       id="text4252-4"
       xml:space="preserve"
       style="font-size:1.92152083px;font-style:normal;font-weight:normal;line-height:125%;letter-spacing:0px;word-spacing:0px;fill:#000000;fill-opacity:1;stroke:none;font-family:Sans"><tspan
         x="35.097439"
         y="7.3442698"
         id="tspan4254-5">tube</tspan></text>
    <text
       x="62.492668"
       y="8.556695"
       transform="scale(1.1315964,0.88370731)"
       id="text4252-0-8"
       xml:space="preserve"
       style="font-size:1.92152083px;font-style:normal;font-weight:normal;line-height:125%;letter-spacing:0px;word-spacing:0px;fill:#000000;fill-opacity:1;stroke:none;font-family:Sans"><tspan
         x="62.492668"
         y="8.556695"
         id="tspan4254-4-2">stdout</tspan></text>
    <text
       x="61.987694"
       y="14.376333"
       transform="scale(1.1315964,0.88370731)"
       id="text4252-9-1"
       xml:space="preserve"
       style="font-size:1.92152083px;font-style:normal;font-weight:normal;line-height:125%;letter-spacing:0px;word-spacing:0px;fill:#000000;fill-opacity:1;stroke:none;font-family:Sans"><tspan
         x="61.987694"
         y="14.376333"
         id="tspan4254-0-0">stderr</tspan></text>
    <text
       x="30.564167"
       y="1.1471244"
       transform="scale(0.9888691,1.0112562)"
       id="text4252-0-4"
       xml:space="preserve"
       style="font-size:4.78222227px;font-style:normal;font-weight:normal;line-height:125%;letter-spacing:0px;word-spacing:0px;fill:#000000;fill-opacity:1;stroke:none;font-family:Sans"><tspan
         x="30.564167"
         y="1.1471244"
         id="tspan4254-4-5">Terminal</tspan></text>
    <text
       x="21.901491"
       y="33.426636"
       transform="scale(0.9888691,1.0112562)"
       id="text4252-0-4-5"
       xml:space="preserve"
       style="font-size:4.78222227px;font-style:normal;font-weight:normal;line-height:125%;letter-spacing:0px;word-spacing:0px;fill:#000000;fill-opacity:1;stroke:none;font-family:Sans"><tspan
         x="21.901491"
         y="33.426636"
         id="tspan4254-4-5-0">Pipe + fork</tspan></text>
    <rect
       width="20"
       height="20"
       x="5.1428571"
       y="38.285713"
       id="rect2995-3"
       style="fill:#00ffff;fill-opacity:0;stroke:#000000;stroke-width:0.30000001;stroke-miterlimit:4;stroke-opacity:1;stroke-dasharray:none;stroke-dashoffset:0" />
    <path
       d="m 0.14285713,43.285714 9.99999987,0"
       id="path3783-3"
       style="fill:none;stroke:#000000;stroke-width:0.2;stroke-linecap:butt;stroke-linejoin:miter;stroke-miterlimit:4;stroke-opacity:1;stroke-dasharray:none;marker-end:url(#Arrow1Lend)" />
    <path
       d="m 20.142857,43.285714 10,0"
       id="path3785-2"
       style="fill:none;stroke:#000000;stroke-width:0.2;stroke-linecap:butt;stroke-linejoin:miter;stroke-miterlimit:4;stroke-opacity:1;stroke-dasharray:none;marker-end:url(#Arrow1Lend)" />
    <path
       d="m 20.142857,48.285714 10,0"
       id="path3791-3"
       style="fill:none;stroke:#000000;stroke-width:0.2;stroke-linecap:butt;stroke-linejoin:miter;stroke-miterlimit:4;stroke-opacity:1;stroke-dasharray:none;marker-end:url(#Arrow1Lend)" />
    <text
       x="0.88986945"
       y="48.109116"
       transform="scale(1.1315964,0.88370731)"
       id="text4252-99"
       xml:space="preserve"
       style="font-size:1.92152083px;font-style:normal;font-weight:normal;line-height:125%;letter-spacing:0px;word-spacing:0px;fill:#000000;fill-opacity:1;stroke:none;font-family:Sans"><tspan
         x="0.88986945"
         y="48.109116"
         id="tspan4254-08">stdin</tspan></text>
    <text
       x="18.180758"
       y="48.000912"
       transform="scale(1.1315964,0.88370731)"
       id="text4252-0-9"
       xml:space="preserve"
       style="font-size:1.92152083px;font-style:normal;font-weight:normal;line-height:125%;letter-spacing:0px;word-spacing:0px;fill:#000000;fill-opacity:1;stroke:none;font-family:Sans"><tspan
         x="18.180758"
         y="48.000912"
         id="tspan4254-4-4">stdout</tspan></text>
    <text
       x="17.675781"
       y="53.820549"
       transform="scale(1.1315964,0.88370731)"
       id="text4252-9-3"
       xml:space="preserve"
       style="font-size:1.92152083px;font-style:normal;font-weight:normal;line-height:125%;letter-spacing:0px;word-spacing:0px;fill:#000000;fill-opacity:1;stroke:none;font-family:Sans"><tspan
         x="17.675781"
         y="53.820549"
         id="tspan4254-0-8">stderr</tspan></text>
    <path
       d="m 9.1006549,54.477427 c -0.8113428,4.530771 1.7589991,3.969884 2.0148531,6.467658 0.949259,0.598106 3.442108,2.452859 7.660513,0.710836 1.947277,-0.203766 1.87931,-2.686648 0.181777,-6.89278"
       id="path4239-9"
       style="fill:none;stroke:#0000ff;stroke-width:0.5;stroke-linecap:butt;stroke-linejoin:miter;stroke-miterlimit:4;stroke-opacity:1;stroke-dasharray:none;marker-start:none;marker-mid:url(#Arrow1Mend);marker-end:url(#Arrow1Mend)" />
    <rect
       width="20"
       height="20"
       x="40.285717"
       y="38.188854"
       id="rect2995-3-4"
       style="fill:#00ffff;fill-opacity:0;stroke:#000000;stroke-width:0.30000001;stroke-miterlimit:4;stroke-opacity:1;stroke-dasharray:none;stroke-dashoffset:0" />
    <path
       d="m 35.285715,43.188855 10,0"
       id="path3783-3-9"
       style="fill:none;stroke:#000000;stroke-width:0.2;stroke-linecap:butt;stroke-linejoin:miter;stroke-miterlimit:4;stroke-opacity:1;stroke-dasharray:none;marker-end:url(#Arrow1Lend)" />
    <path
       d="m 55.285715,43.188855 10,0"
       id="path3785-2-4"
       style="fill:none;stroke:#000000;stroke-width:0.2;stroke-linecap:butt;stroke-linejoin:miter;stroke-miterlimit:4;stroke-opacity:1;stroke-dasharray:none;marker-end:url(#Arrow1Lend)" />
    <path
       d="m 55.285715,48.188856 10,0"
       id="path3791-3-8"
       style="fill:none;stroke:#000000;stroke-width:0.2;stroke-linecap:butt;stroke-linejoin:miter;stroke-miterlimit:4;stroke-opacity:1;stroke-dasharray:none;marker-end:url(#Arrow1Lend)" />
    <text
       x="31.945869"
       y="47.999512"
       transform="scale(1.1315964,0.88370731)"
       id="text4252-99-5"
       xml:space="preserve"
       style="font-size:1.92152083px;font-style:normal;font-weight:normal;line-height:125%;letter-spacing:0px;word-spacing:0px;fill:#000000;fill-opacity:1;stroke:none;font-family:Sans"><tspan
         x="31.945869"
         y="47.999512"
         id="tspan4254-08-6">stdin</tspan></text>
    <text
       x="49.236755"
       y="47.891308"
       transform="scale(1.1315964,0.88370731)"
       id="text4252-0-9-5"
       xml:space="preserve"
       style="font-size:1.92152083px;font-style:normal;font-weight:normal;line-height:125%;letter-spacing:0px;word-spacing:0px;fill:#000000;fill-opacity:1;stroke:none;font-family:Sans"><tspan
         x="49.236755"
         y="47.891308"
         id="tspan4254-4-4-9">stdout</tspan></text>
    <text
       x="48.731781"
       y="53.710945"
       transform="scale(1.1315964,0.88370731)"
       id="text4252-9-3-5"
       xml:space="preserve"
       style="font-size:1.92152083px;font-style:normal;font-weight:normal;line-height:125%;letter-spacing:0px;word-spacing:0px;fill:#000000;fill-opacity:1;stroke:none;font-family:Sans"><tspan
         x="48.731781"
         y="53.710945"
         id="tspan4254-0-8-3">stderr</tspan></text>
    <path
       d="m 44.243513,54.380569 c -0.811343,4.530771 1.758999,3.969884 2.014853,6.467658 0.949259,0.598106 3.442108,2.452859 7.660513,0.710836 1.947277,-0.203766 1.87931,-2.686648 0.181777,-6.89278"
       id="path4239-9-7"
       style="fill:none;stroke:#0000ff;stroke-width:0.5;stroke-linecap:butt;stroke-linejoin:miter;stroke-miterlimit:4;stroke-opacity:1;stroke-dasharray:none;marker-start:none;marker-mid:url(#Arrow1Mend);marker-end:url(#Arrow1Mend)" />
    <path
       d="m 11,61 c 1.337106,4.160282 4.670736,7.577542 10.49269,9.619406 7.738416,3.167205 17.545357,5.841979 23.755168,0.806872 C 50.284646,67.173335 52.466182,68.37676 55.428572,61"
       id="path5681"
       style="fill:none;stroke:#0000ff;stroke-width:0.5;stroke-linecap:butt;stroke-linejoin:miter;stroke-miterlimit:4;stroke-opacity:1;stroke-dasharray:none;marker-mid:url(#marker5609);marker-end:url(#marker5609)" />
    <path
       d="m 46.142857,60.428571 c -5.756356,6.904882 -8.679493,7.287307 -16.118948,5.734984 -4.85987,-1.385192 -9.784365,-4.443811 -10.45248,-5.306412"
       id="path5683"
       style="fill:none;stroke:#0000ff;stroke-width:0.5;stroke-linecap:butt;stroke-linejoin:miter;stroke-miterlimit:4;stroke-opacity:1;stroke-dasharray:none;marker-mid:url(#marker5609);marker-end:url(#marker5609)" />
  </g>
</svg>
