<?xml version="1.0" encoding="UTF-8" standalone="no"?>
<!-- Created with Inkscape (http://www.inkscape.org/) -->

<svg
   xmlns:dc="http://purl.org/dc/elements/1.1/"
   xmlns:cc="http://creativecommons.org/ns#"
   xmlns:rdf="http://www.w3.org/1999/02/22-rdf-syntax-ns#"
   xmlns:svg="http://www.w3.org/2000/svg"
   xmlns="http://www.w3.org/2000/svg"
   xmlns:sodipodi="http://sodipodi.sourceforge.net/DTD/sodipodi-0.dtd"
   xmlns:inkscape="http://www.inkscape.org/namespaces/inkscape"
   width="39.941555"
   height="25.676891"
   id="svg2985"
   version="1.1"
   inkscape:version="0.48.4 r9939"
   sodipodi:docname="05_MIM.svg">
  <defs
     id="defs2987">
    <marker
       inkscape:stockid="Arrow1Lend"
       orient="auto"
       refY="0"
       refX="0"
       id="Arrow1Lend"
       style="overflow:visible">
      <path
         id="path3907"
         d="M 0,0 5,-5 -12.5,0 5,5 0,0 z"
         style="fill-rule:evenodd;stroke:#000000;stroke-width:1pt"
         transform="matrix(-0.8,0,0,-0.8,-10,0)"
         inkscape:connector-curvature="0" />
    </marker>
  </defs>
  <sodipodi:namedview
     id="base"
     pagecolor="#ffffff"
     bordercolor="#666666"
     borderopacity="1.0"
     inkscape:pageopacity="0.0"
     inkscape:pageshadow="2"
     inkscape:zoom="5.5"
     inkscape:cx="39.266192"
     inkscape:cy="-12.833"
     inkscape:current-layer="layer1"
     showgrid="true"
     inkscape:document-units="px"
     inkscape:grid-bbox="true"
     inkscape:snap-global="false"
     fit-margin-top="0"
     fit-margin-left="0"
     fit-margin-right="0"
     fit-margin-bottom="0"
     inkscape:window-width="1366"
     inkscape:window-height="720"
     inkscape:window-x="0"
     inkscape:window-y="0"
     inkscape:window-maximized="1">
    <inkscape:grid
       type="xygrid"
       id="grid2993"
       empspacing="5"
       visible="true"
       enabled="true"
       snapvisiblegridlinesonly="true"
       originx="-4.8428568px"
       originy="-37.66626px" />
  </sodipodi:namedview>
  <metadata
     id="metadata2990">
    <rdf:RDF>
      <cc:Work
         rdf:about="">
        <dc:format>image/svg+xml</dc:format>
        <dc:type
           rdf:resource="http://purl.org/dc/dcmitype/StillImage" />
        <dc:title></dc:title>
      </cc:Work>
    </rdf:RDF>
  </metadata>
  <g
     id="layer1"
     inkscape:label="Layer 1"
     inkscape:groupmode="layer"
     transform="translate(-4.8428568,-0.65684866)">
    <rect
       style="fill:#ffaaaa;stroke:#000000;stroke-width:0.08571383;stroke-linecap:round;stroke-linejoin:round;stroke-miterlimit:4;stroke-opacity:0.39215686;stroke-dasharray:none;stroke-dashoffset:0"
       id="rect2995-0-5"
       width="5.3870134"
       height="5.1142859"
       x="21.842859"
       y="21.156954" />
    <rect
       style="fill:none;stroke:#000000;stroke-width:0.2;stroke-linecap:round;stroke-linejoin:round;stroke-miterlimit:4;stroke-opacity:0.39215686;stroke-dasharray:none;stroke-dashoffset:0"
       id="rect2995"
       width="5.3870134"
       height="5.1142859"
       x="4.9428568"
       y="8.9428568" />
    <text
       xml:space="preserve"
       style="font-size:3.88649154px;font-style:normal;font-weight:normal;line-height:125%;letter-spacing:0px;word-spacing:0px;fill:#000000;fill-opacity:1;stroke:none;font-family:Sans"
       x="7.0302811"
       y="11.565059"
       id="text3765-53"
       sodipodi:linespacing="125%"
       transform="scale(0.9068671,1.1026974)"><tspan
         sodipodi:role="line"
         id="tspan3767-7"
         x="7.0302811"
         y="11.565059">A</tspan></text>
    <text
       xml:space="preserve"
       style="font-size:3.88649154px;font-style:normal;font-weight:normal;line-height:125%;letter-spacing:0px;word-spacing:0px;fill:#000000;fill-opacity:1;stroke:none;font-family:Sans"
       x="44.779926"
       y="12.608616"
       id="text3765-53-8"
       sodipodi:linespacing="125%"
       transform="scale(0.9068671,1.1026974)"><tspan
         sodipodi:role="line"
         id="tspan3767-7-0"
         x="44.779926"
         y="12.608616">B</tspan></text>
    <rect
       style="fill:none;stroke:#000000;stroke-width:0.2;stroke-linecap:round;stroke-linejoin:round;stroke-miterlimit:4;stroke-opacity:0.39215686;stroke-dasharray:none;stroke-dashoffset:0"
       id="rect2995-0"
       width="5.3870134"
       height="5.1142859"
       x="39.297398"
       y="9.7024078" />
    <text
       xml:space="preserve"
       style="font-size:3.88649154px;font-style:normal;font-weight:normal;line-height:125%;letter-spacing:0px;word-spacing:0px;fill:#000000;fill-opacity:1;stroke:none;font-family:Sans"
       x="25.53285"
       y="22.996367"
       id="text3765-53-8-1"
       sodipodi:linespacing="125%"
       transform="scale(0.9068671,1.1026974)"><tspan
         sodipodi:role="line"
         id="tspan3767-7-0-2"
         x="25.53285"
         y="22.996367">P</tspan></text>
    <path
       style="fill:none;stroke:#000000;stroke-width:0.2;stroke-linecap:butt;stroke-linejoin:miter;stroke-miterlimit:4;stroke-opacity:1;stroke-dasharray:none"
       d="M 10.9,12.441368 C 10.190065,11.287177 9.5065813,10.161053 9.8632185,8.7683545 10.054545,7.3293964 11.113316,6.1903565 12.268414,5.4399049 c 0.912583,-0.9188303 2.278876,-1.356757 3.598148,-1.3963521 1.502495,-0.2460481 2.771396,0.5151388 3.931707,1.3254068 0.617335,0.4700041 1.900584,1.1239001 1.451803,-0.2476895 0.07109,-1.6043825 1.122023,-2.9048571 2.430464,-3.7870931 0.963194,-0.91623216 2.56003,-0.46440062 3.797016,-0.47623015 1.362196,0.10274205 2.838348,0.37020175 3.922196,1.24699115 0.586854,1.0213618 0.09532,3.2197831 -0.06492,3.6771617 0.82053,-0.6036857 1.777689,-0.8777697 3.024455,-1.1754518 0.977474,0.1436494 2.189858,-0.211973 3.018957,0.1865726 0.94425,0.809757 2.520506,1.229674 2.228073,2.8292339 -0.06594,1.3275316 0.440444,2.9682856 -0.772917,3.9110656 -0.779811,0.35678 -1.382851,0.09177 -2.099296,0.676243 1.009619,0.55318 2.516164,0.80224 2.789697,2.14846 1.016124,1.084987 0.911934,2.940002 0.626013,4.25512 -1.112604,0.609467 -2.356632,1.008488 -3.541262,1.461299 -1.12268,0.335142 -2.271609,0.44831 -3.418303,0.147097 -0.754345,0.03507 -1.671544,-0.73661 -1.977668,-0.834015 -0.388583,1.251794 -1.347668,2.201697 -2.378742,3.095051 -1.160318,0.666285 -3.024017,0.805875 -4.001874,0.108002 -1.086306,-0.529956 -2.192512,-1.030403 -3.242156,-1.625139 -0.648935,-0.394537 -1.018391,-1.416329 -1.486914,-1.701086 -0.21296,1.549924 -2.073988,1.121089 -3.165585,1.454448 -1.193525,0.197472 -2.433184,0.353978 -3.637548,0.197114 C 11.933022,20.58893 11.689804,18.995503 11.809594,17.811046 11.911263,16.646147 11.516844,15.34484 12.19191,14.394921 12.632275,13.277167 11.538067,13.110653 10.9,12.441368 z"
       id="path3906"
       inkscape:connector-curvature="0" />
    <path
       style="fill:#0000ff;stroke:#000000;stroke-width:0.20000000000000001;stroke-linecap:butt;stroke-linejoin:miter;stroke-opacity:1;stroke-miterlimit:4;stroke-dasharray:none;marker-end:url(#Arrow1Lend)"
       d="m 6.1818182,12.7678 9.0909088,8.181819"
       id="path3948"
       inkscape:connector-curvature="0"
       transform="translate(4.8428568,0.65684866)" />
    <path
       style="fill:#0000ff;stroke:#000000;stroke-width:0.20000000000000001;stroke-linecap:butt;stroke-linejoin:miter;stroke-opacity:1;stroke-miterlimit:4;stroke-dasharray:none;marker-end:url(#Arrow1Lend)"
       d="M 23.454545,20.404164 33.636364,13.313255"
       id="path3950"
       inkscape:connector-curvature="0"
       transform="translate(4.8428568,0.65684866)" />
    <path
       style="fill:#0000ff;stroke:#000000;stroke-width:0.20000000000000001;stroke-linecap:butt;stroke-linejoin:miter;stroke-opacity:1;stroke-miterlimit:4;stroke-dasharray:none;marker-end:url(#Arrow1Lend)"
       d="M 35.636364,14.949619 24.727273,22.404164"
       id="path3952"
       inkscape:connector-curvature="0"
       transform="translate(4.8428568,0.65684866)" />
    <path
       style="fill:#0000ff;stroke:#000000;stroke-width:0.20000000000000001;stroke-linecap:butt;stroke-linejoin:miter;stroke-opacity:1;stroke-miterlimit:4;stroke-dasharray:none;marker-end:url(#Arrow1Lend)"
       d="m 14.363636,22.585982 -9.8181815,-8"
       id="path3954"
       inkscape:connector-curvature="0"
       transform="translate(4.8428568,0.65684866)" />
  </g>
</svg>
