<?xml version="1.0" encoding="UTF-8" standalone="no"?>
<!-- Created with Inkscape (http://www.inkscape.org/) -->

<svg
   xmlns:dc="http://purl.org/dc/elements/1.1/"
   xmlns:cc="http://creativecommons.org/ns#"
   xmlns:rdf="http://www.w3.org/1999/02/22-rdf-syntax-ns#"
   xmlns:svg="http://www.w3.org/2000/svg"
   xmlns="http://www.w3.org/2000/svg"
   xmlns:sodipodi="http://sodipodi.sourceforge.net/DTD/sodipodi-0.dtd"
   xmlns:inkscape="http://www.inkscape.org/namespaces/inkscape"
   width="21.942024"
   height="8.6149168"
   id="svg4459"
   version="1.1"
   inkscape:version="0.48.3.1 r9886"
   sodipodi:docname="fig11.svg">
  <defs
     id="defs4461">
    <marker
       inkscape:stockid="Arrow1Mend"
       orient="auto"
       refY="0"
       refX="0"
       id="Arrow1Mend"
       style="overflow:visible">
      <path
         id="path3880"
         d="M 0,0 5,-5 -12.5,0 5,5 0,0 z"
         style="fill-rule:evenodd;stroke:#000000;stroke-width:1pt"
         transform="matrix(-0.4,0,0,-0.4,-4,0)"
         inkscape:connector-curvature="0" />
    </marker>
    <marker
       inkscape:stockid="Arrow1Mend"
       orient="auto"
       refY="0"
       refX="0"
       id="Arrow1Mend-0"
       style="overflow:visible">
      <path
         inkscape:connector-curvature="0"
         id="path3880-5"
         d="M 0,0 5,-5 -12.5,0 5,5 0,0 z"
         style="fill-rule:evenodd;stroke:#000000;stroke-width:1pt"
         transform="matrix(-0.4,0,0,-0.4,-4,0)" />
    </marker>
    <marker
       inkscape:stockid="Arrow1Mend"
       orient="auto"
       refY="0"
       refX="0"
       id="marker5217"
       style="overflow:visible">
      <path
         inkscape:connector-curvature="0"
         id="path5219"
         d="M 0,0 5,-5 -12.5,0 5,5 0,0 z"
         style="fill-rule:evenodd;stroke:#000000;stroke-width:1pt"
         transform="matrix(-0.4,0,0,-0.4,-4,0)" />
    </marker>
    <marker
       inkscape:stockid="Arrow1Mend"
       orient="auto"
       refY="0"
       refX="0"
       id="Arrow1Mend-5"
       style="overflow:visible">
      <path
         inkscape:connector-curvature="0"
         id="path3880-7"
         d="M 0,0 5,-5 -12.5,0 5,5 0,0 z"
         style="fill-rule:evenodd;stroke:#000000;stroke-width:1pt"
         transform="matrix(-0.4,0,0,-0.4,-4,0)" />
    </marker>
    <marker
       inkscape:stockid="Arrow1Mend"
       orient="auto"
       refY="0"
       refX="0"
       id="Arrow1Mend-5-9"
       style="overflow:visible">
      <path
         inkscape:connector-curvature="0"
         id="path3880-7-4"
         d="M 0,0 5,-5 -12.5,0 5,5 0,0 z"
         style="fill-rule:evenodd;stroke:#000000;stroke-width:1pt"
         transform="matrix(-0.4,0,0,-0.4,-4,0)" />
    </marker>
    <marker
       inkscape:stockid="Arrow1Mend"
       orient="auto"
       refY="0"
       refX="0"
       id="Arrow1Mend-5-9-9"
       style="overflow:visible">
      <path
         inkscape:connector-curvature="0"
         id="path3880-7-4-7"
         d="M 0,0 5,-5 -12.5,0 5,5 0,0 z"
         style="fill-rule:evenodd;stroke:#000000;stroke-width:1pt"
         transform="matrix(-0.4,0,0,-0.4,-4,0)" />
    </marker>
    <marker
       inkscape:stockid="Arrow1Mend"
       orient="auto"
       refY="0"
       refX="0"
       id="Arrow1Mend-5-9-0"
       style="overflow:visible">
      <path
         inkscape:connector-curvature="0"
         id="path3880-7-4-4"
         d="M 0,0 5,-5 -12.5,0 5,5 0,0 z"
         style="fill-rule:evenodd;stroke:#000000;stroke-width:1pt"
         transform="matrix(-0.4,0,0,-0.4,-4,0)" />
    </marker>
  </defs>
  <sodipodi:namedview
     id="base"
     pagecolor="#ffffff"
     bordercolor="#666666"
     borderopacity="1.0"
     inkscape:pageopacity="0.0"
     inkscape:pageshadow="2"
     inkscape:zoom="15.836083"
     inkscape:cx="14.563101"
     inkscape:cy="0.18253584"
     inkscape:current-layer="layer1"
     showgrid="true"
     inkscape:grid-bbox="true"
     inkscape:document-units="px"
     fit-margin-top="0"
     fit-margin-left="0"
     fit-margin-right="0"
     fit-margin-bottom="0"
     inkscape:window-width="1024"
     inkscape:window-height="554"
     inkscape:window-x="0"
     inkscape:window-y="0"
     inkscape:window-maximized="1"
     inkscape:snap-global="false">
    <inkscape:grid
       type="xygrid"
       id="grid5302"
       empspacing="5"
       visible="true"
       enabled="true"
       snapvisiblegridlinesonly="true"
       originx="10.977215px"
       originy="-9.0403617px" />
  </sodipodi:namedview>
  <metadata
     id="metadata4464">
    <rdf:RDF>
      <cc:Work
         rdf:about="">
        <dc:format>image/svg+xml</dc:format>
        <dc:type
           rdf:resource="http://purl.org/dc/dcmitype/StillImage" />
        <dc:title></dc:title>
      </cc:Work>
    </rdf:RDF>
  </metadata>
  <g
     id="layer1"
     inkscape:label="Layer 1"
     inkscape:groupmode="layer"
     transform="translate(-0.584944,-0.23480897)">
    <path
       sodipodi:type="arc"
       style="fill:#00ff00;stroke-width:0.2;stroke-miterlimit:4;stroke-dasharray:none"
       id="path5304"
       sodipodi:cx="-10"
       sodipodi:cy="-0.086359024"
       sodipodi:rx="1"
       sodipodi:ry="1"
       d="m -9,-0.08635902 c 0,0.55228475 -0.4477153,1 -1,1 -0.552285,0 -1,-0.44771525 -1,-1 0,-0.55228475 0.447715,-0.99999998 1,-0.99999998 0.5522847,0 1,0.44771523 1,0.99999998 z"
       transform="translate(24.507279,2.7238592)" />
    <text
       xml:space="preserve"
       style="font-size:1.75834978px;font-style:normal;font-weight:normal;line-height:125%;letter-spacing:0px;word-spacing:0px;fill:#000000;fill-opacity:1;stroke:none;font-family:Sans"
       x="13.336331"
       y="3.4104686"
       id="text5306"
       sodipodi:linespacing="125%"
       transform="scale(1.039686,0.96182886)"><tspan
         sodipodi:role="line"
         id="tspan5308"
         x="13.336331"
         y="3.4104686">1</tspan></text>
    <path
       transform="translate(18.531106,2.8843315)"
       sodipodi:type="arc"
       style="fill:#00ff00;stroke-width:0.2;stroke-miterlimit:4;stroke-dasharray:none"
       id="path5304-3"
       sodipodi:cx="-10"
       sodipodi:cy="-0.086359024"
       sodipodi:rx="1"
       sodipodi:ry="1"
       d="m -9,-0.08635902 c 0,0.55228475 -0.4477153,1 -1,1 -0.552285,0 -1,-0.44771525 -1,-1 0,-0.55228475 0.447715,-0.99999998 1,-0.99999998 0.5522847,0 1,0.44771523 1,0.99999998 z" />
    <text
       xml:space="preserve"
       style="font-size:1.75834978px;font-style:normal;font-weight:normal;line-height:125%;letter-spacing:0px;word-spacing:0px;fill:#000000;fill-opacity:1;stroke:none;font-family:Sans"
       x="7.5882754"
       y="3.5773091"
       id="text5306-7"
       sodipodi:linespacing="125%"
       transform="scale(1.039686,0.96182886)"><tspan
         sodipodi:role="line"
         id="tspan5308-3"
         x="7.5882754"
         y="3.5773091">2</tspan></text>
    <path
       transform="translate(11.584944,2.7580375)"
       sodipodi:type="arc"
       style="fill:#00ff00;stroke-width:0.2;stroke-miterlimit:4;stroke-dasharray:none"
       id="path5304-9"
       sodipodi:cx="-10"
       sodipodi:cy="-0.086359024"
       sodipodi:rx="1"
       sodipodi:ry="1"
       d="m -9,-0.08635902 c 0,0.55228475 -0.4477153,1 -1,1 -0.552285,0 -1,-0.44771525 -1,-1 0,-0.55228475 0.447715,-0.99999998 1,-0.99999998 0.5522847,0 1,0.44771523 1,0.99999998 z" />
    <text
       xml:space="preserve"
       style="font-size:1.75834978px;font-style:normal;font-weight:normal;line-height:125%;letter-spacing:0px;word-spacing:0px;fill:#000000;fill-opacity:1;stroke:none;font-family:Sans"
       x="0.90725726"
       y="3.4460037"
       id="text5306-8"
       sodipodi:linespacing="125%"
       transform="scale(1.039686,0.96182886)"><tspan
         sodipodi:role="line"
         id="tspan5308-7"
         x="0.90725726"
         y="3.4460037">3</tspan></text>
    <path
       transform="translate(11.711239,7.7466455)"
       sodipodi:type="arc"
       style="fill:#00ff00;stroke-width:0.2;stroke-miterlimit:4;stroke-dasharray:none"
       id="path5304-34"
       sodipodi:cx="-10"
       sodipodi:cy="-0.086359024"
       sodipodi:rx="1"
       sodipodi:ry="1"
       d="m -9,-0.08635902 c 0,0.55228475 -0.4477153,1 -1,1 -0.552285,0 -1,-0.44771525 -1,-1 0,-0.55228475 0.447715,-0.99999998 1,-0.99999998 0.5522847,0 1,0.44771523 1,0.99999998 z" />
    <text
       xml:space="preserve"
       style="font-size:1.75834978px;font-style:normal;font-weight:normal;line-height:125%;letter-spacing:0px;word-spacing:0px;fill:#000000;fill-opacity:1;stroke:none;font-family:Sans"
       x="1.0287322"
       y="8.6325884"
       id="text5306-1"
       sodipodi:linespacing="125%"
       transform="scale(1.039686,0.96182886)"><tspan
         sodipodi:role="line"
         id="tspan5308-5"
         x="1.0287322"
         y="8.6325884">4</tspan></text>
    <path
       transform="translate(18.215371,7.9360851)"
       sodipodi:type="arc"
       style="fill:#00ff00;stroke-width:0.2;stroke-miterlimit:4;stroke-dasharray:none"
       id="path5304-5"
       sodipodi:cx="-10"
       sodipodi:cy="-0.086359024"
       sodipodi:rx="1"
       sodipodi:ry="1"
       d="m -9,-0.08635902 c 0,0.55228475 -0.4477153,1 -1,1 -0.552285,0 -1,-0.44771525 -1,-1 0,-0.55228475 0.447715,-0.99999998 1,-0.99999998 0.5522847,0 1,0.44771523 1,0.99999998 z" />
    <text
       xml:space="preserve"
       style="font-size:1.75834978px;font-style:normal;font-weight:normal;line-height:125%;letter-spacing:0px;word-spacing:0px;fill:#000000;fill-opacity:1;stroke:none;font-family:Sans"
       x="7.2845931"
       y="8.8295469"
       id="text5306-81"
       sodipodi:linespacing="125%"
       transform="scale(1.039686,0.96182886)"><tspan
         sodipodi:role="line"
         id="tspan5308-32"
         x="7.2845931"
         y="8.8295469">5</tspan></text>
    <path
       transform="translate(24.896541,7.5587329)"
       sodipodi:type="arc"
       style="fill:#00ff00;stroke-width:0.2;stroke-miterlimit:4;stroke-dasharray:none"
       id="path5304-5-2"
       sodipodi:cx="-10"
       sodipodi:cy="-0.086359024"
       sodipodi:rx="1"
       sodipodi:ry="1"
       d="m -9,-0.08635902 c 0,0.55228475 -0.4477153,1 -1,1 -0.552285,0 -1,-0.44771525 -1,-1 0,-0.55228475 0.447715,-0.99999998 1,-0.99999998 0.5522847,0 1,0.44771523 1,0.99999998 z" />
    <text
       xml:space="preserve"
       style="font-size:1.75834978px;font-style:normal;font-weight:normal;line-height:125%;letter-spacing:0px;word-spacing:0px;fill:#000000;fill-opacity:1;stroke:none;font-family:Sans"
       x="13.710735"
       y="8.4372196"
       id="text5306-81-4"
       sodipodi:linespacing="125%"
       transform="scale(1.039686,0.96182886)"><tspan
         sodipodi:role="line"
         id="tspan5308-32-7"
         x="13.710735"
         y="8.4372196">6</tspan></text>
    <path
       transform="translate(31.526968,7.8744676)"
       sodipodi:type="arc"
       style="fill:#00ff00;stroke-width:0.2;stroke-miterlimit:4;stroke-dasharray:none"
       id="path5304-5-7"
       sodipodi:cx="-10"
       sodipodi:cy="-0.086359024"
       sodipodi:rx="1"
       sodipodi:ry="1"
       d="m -9,-0.08635902 c 0,0.55228475 -0.4477153,1 -1,1 -0.552285,0 -1,-0.44771525 -1,-1 0,-0.55228475 0.447715,-0.99999998 1,-0.99999998 0.5522847,0 1,0.44771523 1,0.99999998 z" />
    <text
       xml:space="preserve"
       style="font-size:1.75834978px;font-style:normal;font-weight:normal;line-height:125%;letter-spacing:0px;word-spacing:0px;fill:#000000;fill-opacity:1;stroke:none;font-family:Sans"
       x="20.088072"
       y="8.7654839"
       id="text5306-81-0"
       sodipodi:linespacing="125%"
       transform="scale(1.039686,0.96182886)"><tspan
         sodipodi:role="line"
         id="tspan5308-32-3"
         x="20.088072"
         y="8.7654839">7</tspan></text>
    <path
       transform="translate(31.148087,3.0753012)"
       sodipodi:type="arc"
       style="fill:#00ff00;stroke-width:0.2;stroke-miterlimit:4;stroke-dasharray:none"
       id="path5304-5-6"
       sodipodi:cx="-10"
       sodipodi:cy="-0.086359024"
       sodipodi:rx="1"
       sodipodi:ry="1"
       d="m -9,-0.08635902 c 0,0.55228475 -0.4477153,1 -1,1 -0.552285,0 -1,-0.44771525 -1,-1 0,-0.55228475 0.447715,-0.99999998 1,-0.99999998 0.5522847,0 1,0.44771523 1,0.99999998 z" />
    <text
       xml:space="preserve"
       style="font-size:1.75834978px;font-style:normal;font-weight:normal;line-height:125%;letter-spacing:0px;word-spacing:0px;fill:#000000;fill-opacity:1;stroke:none;font-family:Sans"
       x="19.723652"
       y="3.7758582"
       id="text5306-81-1"
       sodipodi:linespacing="125%"
       transform="scale(1.039686,0.96182886)"><tspan
         sodipodi:role="line"
         id="tspan5308-32-0"
         x="19.723652"
         y="3.7758582">8</tspan></text>
    <path
       style="fill:none;stroke:#ff0000;stroke-width:0.2;stroke-linecap:butt;stroke-linejoin:miter;stroke-miterlimit:4;stroke-opacity:1;stroke-dasharray:none;marker-end:url(#Arrow1Mend-5-9)"
       d="m 0.9472039,1.907884 0,2.7784648"
       id="path5858"
       inkscape:connector-curvature="0"
       transform="translate(0.562159,1.8900879)" />
    <path
       style="fill:none;stroke:#ff0000;stroke-width:0.2;stroke-linecap:butt;stroke-linejoin:miter;stroke-miterlimit:4;stroke-opacity:1;stroke-dasharray:none;marker-end:url(#Arrow1Mend-5-9)"
       d="M 6.7567212,0.83438624 2.0838486,0.70809238"
       id="path5860"
       inkscape:connector-curvature="0"
       transform="translate(0.562159,1.8900879)" />
    <path
       style="fill:none;stroke:#000000;stroke-width:0.2;stroke-linecap:butt;stroke-linejoin:miter;stroke-miterlimit:4;stroke-opacity:1;stroke-dasharray:none;marker-end:url(#Arrow1Mend-5-9)"
       d="M 2.2732894,5.2546711 7.2618966,1.6552963"
       id="path5862"
       inkscape:connector-curvature="0"
       transform="translate(0.562159,1.8900879)" />
    <path
       style="fill:none;stroke:#ff0000;stroke-width:0.2;stroke-linecap:butt;stroke-linejoin:miter;stroke-miterlimit:4;stroke-opacity:1;stroke-dasharray:none;marker-end:url(#Arrow1Mend-5-9)"
       d="M 8.3353943,1.9710309 8.2091005,5.0652303"
       id="path5864"
       inkscape:connector-curvature="0"
       transform="translate(0.562159,1.8900879)" />
    <path
       style="fill:none;stroke:#000000;stroke-width:0.2;stroke-linecap:butt;stroke-linejoin:miter;stroke-miterlimit:4;stroke-opacity:1;stroke-dasharray:none;marker-end:url(#Arrow1Mend-5-9)"
       d="m 6.3778396,6.0124342 -4.0414033,0"
       id="path5866"
       inkscape:connector-curvature="0"
       transform="translate(0.562159,1.8900879)" />
    <path
       style="fill:none;stroke:#ff0000;stroke-width:0.2;stroke-linecap:butt;stroke-linejoin:miter;stroke-miterlimit:4;stroke-opacity:1;stroke-dasharray:none;marker-end:url(#Arrow1Mend-5-9)"
       d="M 13.134561,0.77123931 9.0300105,0.89753316"
       id="path5868"
       inkscape:connector-curvature="0"
       transform="translate(0.562159,1.8900879)" />
    <path
       style="fill:none;stroke:#000000;stroke-width:0.2;stroke-linecap:butt;stroke-linejoin:miter;stroke-miterlimit:4;stroke-opacity:1;stroke-dasharray:none;marker-end:url(#Arrow1Mend-5-9)"
       d="M 8.6511289,5.380965 13.071414,1.5290024"
       id="path5870"
       inkscape:connector-curvature="0"
       transform="translate(0.562159,1.8900879)" />
    <path
       style="fill:none;stroke:#000000;stroke-width:0.2;stroke-linecap:butt;stroke-linejoin:miter;stroke-miterlimit:4;stroke-opacity:1;stroke-dasharray:none;marker-end:url(#Arrow1Mend-5-9)"
       d="M 14.208058,1.5290024 9.2825982,5.9492873"
       id="path5872"
       inkscape:connector-curvature="0"
       transform="translate(0.562159,1.8900879)" />
    <path
       style="fill:none;stroke:#000000;stroke-width:0.2;stroke-linecap:butt;stroke-linejoin:miter;stroke-miterlimit:4;stroke-opacity:1;stroke-dasharray:none;marker-end:url(#Arrow1Mend-5-9)"
       d="m 12.94512,6.0124342 -3.9782564,0"
       id="path5874"
       inkscape:connector-curvature="0"
       transform="translate(0.562159,1.8900879)" />
    <path
       style="fill:none;stroke:#000000;stroke-width:0.2;stroke-linecap:butt;stroke-linejoin:miter;stroke-miterlimit:4;stroke-opacity:1;stroke-dasharray:none;marker-end:url(#Arrow1Mend-5-9)"
       d="M 14.523793,4.2443203 14.208058,1.5921494"
       id="path5876"
       inkscape:connector-curvature="0"
       transform="translate(0.562159,1.8900879)" />
    <path
       style="fill:none;stroke:#000000;stroke-width:0.2;stroke-linecap:butt;stroke-linejoin:miter;stroke-miterlimit:4;stroke-opacity:1;stroke-dasharray:none;marker-end:url(#Arrow1Mend-5-9)"
       d="m 15.028969,0.70809237 4.609725,0.18944078"
       id="path5878"
       inkscape:connector-curvature="0"
       transform="translate(0.562159,1.8900879)"
       sodipodi:nodetypes="cc" />
    <path
       style="fill:none;stroke:#ff0000;stroke-width:0.2;stroke-linecap:butt;stroke-linejoin:miter;stroke-miterlimit:4;stroke-opacity:1;stroke-dasharray:none;marker-end:url(#Arrow1Mend-5-9)"
       d="m 19.764988,2.0973248 0.252588,2.7784647"
       id="path5880"
       inkscape:connector-curvature="0"
       transform="translate(0.562159,1.8900879)" />
    <path
       style="fill:none;stroke:#000000;stroke-width:0.2;stroke-linecap:butt;stroke-linejoin:miter;stroke-miterlimit:4;stroke-opacity:1;stroke-dasharray:none;marker-end:url(#Arrow1Mend-5-9)"
       d="M 21.406808,4.7494957 21.15422,2.3499125"
       id="path5882"
       inkscape:connector-curvature="0"
       transform="translate(0.562159,1.8900879)" />
    <path
       style="fill:none;stroke:#000000;stroke-width:0.2;stroke-linecap:butt;stroke-linejoin:miter;stroke-miterlimit:4;stroke-opacity:1;stroke-dasharray:none;marker-end:url(#Arrow1Mend-5-9)"
       d="M 20.642882,8.0919629 16.033156,7.9025222"
       id="path5884"
       inkscape:connector-curvature="0" />
    <path
       style="fill:none;stroke:#ff0000;stroke-width:0.2;stroke-linecap:butt;stroke-linejoin:miter;stroke-miterlimit:4;stroke-opacity:1;stroke-dasharray:none;marker-end:url(#Arrow1Mend-5-9)"
       d="M 8.9742553,1.5739561 C 12.718103,-0.5809331 17.920087,0.43729495 21.161611,1.8896907"
       id="path5878-8"
       inkscape:connector-curvature="0"
       sodipodi:nodetypes="cc" />
    <path
       style="fill:none;stroke:#ff0000;stroke-width:0.2;stroke-linecap:butt;stroke-linejoin:miter;stroke-miterlimit:4;stroke-opacity:1;stroke-dasharray:none;marker-end:url(#Arrow1Mend-5-9)"
       d="M 19.835526,3.5946577 15.983563,6.8782978"
       id="path5878-6"
       inkscape:connector-curvature="0"
       sodipodi:nodetypes="cc" />
  </g>
</svg>
