<?xml version="1.0" encoding="UTF-8" standalone="no"?>
<!-- Created with Inkscape (http://www.inkscape.org/) -->

<svg
   xmlns:dc="http://purl.org/dc/elements/1.1/"
   xmlns:cc="http://creativecommons.org/ns#"
   xmlns:rdf="http://www.w3.org/1999/02/22-rdf-syntax-ns#"
   xmlns:svg="http://www.w3.org/2000/svg"
   xmlns="http://www.w3.org/2000/svg"
   xmlns:sodipodi="http://sodipodi.sourceforge.net/DTD/sodipodi-0.dtd"
   xmlns:inkscape="http://www.inkscape.org/namespaces/inkscape"
   width="131.3125"
   height="35.3125"
   id="svg4187"
   version="1.1"
   inkscape:version="0.48.3.1 r9886"
   sodipodi:docname="fig21.svg">
  <defs
     id="defs4189" />
  <sodipodi:namedview
     id="base"
     pagecolor="#ffffff"
     bordercolor="#666666"
     borderopacity="1.0"
     inkscape:pageopacity="0.0"
     inkscape:pageshadow="2"
     inkscape:zoom="3.9590209"
     inkscape:cx="58.475926"
     inkscape:cy="21.130538"
     inkscape:current-layer="layer1"
     showgrid="true"
     inkscape:grid-bbox="true"
     inkscape:document-units="px"
     fit-margin-top="0"
     fit-margin-left="0"
     fit-margin-right="0"
     fit-margin-bottom="0"
     inkscape:window-width="1024"
     inkscape:window-height="744"
     inkscape:window-x="0"
     inkscape:window-y="0"
     inkscape:window-maximized="1">
    <inkscape:grid
       type="xygrid"
       id="grid4195"
       empspacing="5"
       visible="true"
       enabled="true"
       snapvisiblegridlinesonly="true"
       originx="69.15625px"
       originy="32.156253px" />
  </sodipodi:namedview>
  <metadata
     id="metadata4192">
    <rdf:RDF>
      <cc:Work
         rdf:about="">
        <dc:format>image/svg+xml</dc:format>
        <dc:type
           rdf:resource="http://purl.org/dc/dcmitype/StillImage" />
        <dc:title />
      </cc:Work>
    </rdf:RDF>
  </metadata>
  <g
     id="layer1"
     inkscape:label="Layer 1"
     inkscape:groupmode="layer"
     transform="translate(69.15625,-28.84375)">
    <rect
       style="fill:#ffffff;fill-opacity:1;stroke:#000000;stroke-width:0.30000001;stroke-miterlimit:4;stroke-opacity:1;stroke-dasharray:none"
       id="rect4231"
       width="16"
       height="14"
       x="-69"
       y="28.999996" />
    <path
       sodipodi:type="arc"
       style="fill:#ff0000;fill-opacity:1;stroke:#000000;stroke-width:0.30000001;stroke-miterlimit:4;stroke-opacity:1;stroke-dasharray:none"
       id="path4197"
       sodipodi:cx="5"
       sodipodi:cy="2"
       sodipodi:rx="1"
       sodipodi:ry="1"
       d="M 6,2 C 6,2.5522847 5.5522847,3 5,3 4.4477153,3 4,2.5522847 4,2 4,1.4477153 4.4477153,1 5,1 5.5522847,1 6,1.4477153 6,2 z"
       transform="translate(-71,28.999997)" />
    <path
       transform="translate(-61,28.999997)"
       sodipodi:type="arc"
       style="fill:#ff0000;fill-opacity:1;stroke:#000000;stroke-width:0.30000001;stroke-miterlimit:4;stroke-opacity:1;stroke-dasharray:none"
       id="path4197-5"
       sodipodi:cx="5"
       sodipodi:cy="2"
       sodipodi:rx="1"
       sodipodi:ry="1"
       d="M 6,2 C 6,2.5522847 5.5522847,3 5,3 4.4477153,3 4,2.5522847 4,2 4,1.4477153 4.4477153,1 5,1 5.5522847,1 6,1.4477153 6,2 z" />
    <path
       transform="translate(-71,38.999997)"
       sodipodi:type="arc"
       style="fill:#ff0000;fill-opacity:1;stroke:#000000;stroke-width:0.30000001;stroke-miterlimit:4;stroke-opacity:1;stroke-dasharray:none"
       id="path4197-0"
       sodipodi:cx="5"
       sodipodi:cy="2"
       sodipodi:rx="1"
       sodipodi:ry="1"
       d="M 6,2 C 6,2.5522847 5.5522847,3 5,3 4.4477153,3 4,2.5522847 4,2 4,1.4477153 4.4477153,1 5,1 5.5522847,1 6,1.4477153 6,2 z" />
    <path
       transform="translate(-61,38.999997)"
       sodipodi:type="arc"
       style="fill:#ff0000;fill-opacity:1;stroke:#000000;stroke-width:0.30000001;stroke-miterlimit:4;stroke-opacity:1;stroke-dasharray:none"
       id="path4197-8"
       sodipodi:cx="5"
       sodipodi:cy="2"
       sodipodi:rx="1"
       sodipodi:ry="1"
       d="M 6,2 C 6,2.5522847 5.5522847,3 5,3 4.4477153,3 4,2.5522847 4,2 4,1.4477153 4.4477153,1 5,1 5.5522847,1 6,1.4477153 6,2 z" />
    <rect
       style="fill:#ffffff;fill-opacity:1;stroke:#000000;stroke-width:0.30000001;stroke-miterlimit:4;stroke-opacity:1;stroke-dasharray:none"
       id="rect4231-1"
       width="16"
       height="14"
       x="-45"
       y="28.999996" />
    <path
       transform="translate(-47,28.999997)"
       sodipodi:type="arc"
       style="fill:#ff0000;fill-opacity:1;stroke:#000000;stroke-width:0.30000001;stroke-miterlimit:4;stroke-opacity:1;stroke-dasharray:none"
       id="path4197-3"
       sodipodi:cx="5"
       sodipodi:cy="2"
       sodipodi:rx="1"
       sodipodi:ry="1"
       d="M 6,2 C 6,2.5522847 5.5522847,3 5,3 4.4477153,3 4,2.5522847 4,2 4,1.4477153 4.4477153,1 5,1 5.5522847,1 6,1.4477153 6,2 z" />
    <path
       transform="translate(-37,28.999997)"
       sodipodi:type="arc"
       style="fill:#ff0000;fill-opacity:1;stroke:#000000;stroke-width:0.30000001;stroke-miterlimit:4;stroke-opacity:1;stroke-dasharray:none"
       id="path4197-5-5"
       sodipodi:cx="5"
       sodipodi:cy="2"
       sodipodi:rx="1"
       sodipodi:ry="1"
       d="M 6,2 C 6,2.5522847 5.5522847,3 5,3 4.4477153,3 4,2.5522847 4,2 4,1.4477153 4.4477153,1 5,1 5.5522847,1 6,1.4477153 6,2 z" />
    <path
       transform="translate(-47,38.999997)"
       sodipodi:type="arc"
       style="fill:#ff0000;fill-opacity:1;stroke:#000000;stroke-width:0.30000001;stroke-miterlimit:4;stroke-opacity:1;stroke-dasharray:none"
       id="path4197-0-8"
       sodipodi:cx="5"
       sodipodi:cy="2"
       sodipodi:rx="1"
       sodipodi:ry="1"
       d="M 6,2 C 6,2.5522847 5.5522847,3 5,3 4.4477153,3 4,2.5522847 4,2 4,1.4477153 4.4477153,1 5,1 5.5522847,1 6,1.4477153 6,2 z" />
    <path
       transform="translate(-37,38.999997)"
       sodipodi:type="arc"
       style="fill:#ff0000;fill-opacity:1;stroke:#000000;stroke-width:0.30000001;stroke-miterlimit:4;stroke-opacity:1;stroke-dasharray:none"
       id="path4197-8-3"
       sodipodi:cx="5"
       sodipodi:cy="2"
       sodipodi:rx="1"
       sodipodi:ry="1"
       d="M 6,2 C 6,2.5522847 5.5522847,3 5,3 4.4477153,3 4,2.5522847 4,2 4,1.4477153 4.4477153,1 5,1 5.5522847,1 6,1.4477153 6,2 z" />
    <rect
       style="fill:#ffffff;fill-opacity:1;stroke:#000000;stroke-width:0.30000001;stroke-miterlimit:4;stroke-opacity:1;stroke-dasharray:none"
       id="rect4231-6"
       width="16"
       height="14"
       x="46"
       y="49.999992" />
    <path
       transform="translate(44,49.999997)"
       sodipodi:type="arc"
       style="fill:#ff0000;fill-opacity:1;stroke:#000000;stroke-width:0.30000001;stroke-miterlimit:4;stroke-opacity:1;stroke-dasharray:none"
       id="path4197-1"
       sodipodi:cx="5"
       sodipodi:cy="2"
       sodipodi:rx="1"
       sodipodi:ry="1"
       d="M 6,2 C 6,2.5522847 5.5522847,3 5,3 4.4477153,3 4,2.5522847 4,2 4,1.4477153 4.4477153,1 5,1 5.5522847,1 6,1.4477153 6,2 z" />
    <path
       transform="translate(54,49.999997)"
       sodipodi:type="arc"
       style="fill:#ff0000;fill-opacity:1;stroke:#000000;stroke-width:0.30000001;stroke-miterlimit:4;stroke-opacity:1;stroke-dasharray:none"
       id="path4197-5-1"
       sodipodi:cx="5"
       sodipodi:cy="2"
       sodipodi:rx="1"
       sodipodi:ry="1"
       d="M 6,2 C 6,2.5522847 5.5522847,3 5,3 4.4477153,3 4,2.5522847 4,2 4,1.4477153 4.4477153,1 5,1 5.5522847,1 6,1.4477153 6,2 z" />
    <path
       transform="translate(44,59.999997)"
       sodipodi:type="arc"
       style="fill:#ff0000;fill-opacity:1;stroke:#000000;stroke-width:0.30000001;stroke-miterlimit:4;stroke-opacity:1;stroke-dasharray:none"
       id="path4197-0-3"
       sodipodi:cx="5"
       sodipodi:cy="2"
       sodipodi:rx="1"
       sodipodi:ry="1"
       d="M 6,2 C 6,2.5522847 5.5522847,3 5,3 4.4477153,3 4,2.5522847 4,2 4,1.4477153 4.4477153,1 5,1 5.5522847,1 6,1.4477153 6,2 z" />
    <path
       transform="translate(54,59.999997)"
       sodipodi:type="arc"
       style="fill:#ff0000;fill-opacity:1;stroke:#000000;stroke-width:0.30000001;stroke-miterlimit:4;stroke-opacity:1;stroke-dasharray:none"
       id="path4197-8-0"
       sodipodi:cx="5"
       sodipodi:cy="2"
       sodipodi:rx="1"
       sodipodi:ry="1"
       d="M 6,2 C 6,2.5522847 5.5522847,3 5,3 4.4477153,3 4,2.5522847 4,2 4,1.4477153 4.4477153,1 5,1 5.5522847,1 6,1.4477153 6,2 z" />
    <rect
       style="fill:#ffffff;fill-opacity:1;stroke:#000000;stroke-width:0.30000001;stroke-miterlimit:4;stroke-opacity:1;stroke-dasharray:none"
       id="rect4231-9"
       width="16"
       height="14"
       x="-2"
       y="28.999996" />
    <path
       transform="translate(-4,28.999997)"
       sodipodi:type="arc"
       style="fill:#ff0000;fill-opacity:1;stroke:#000000;stroke-width:0.30000001;stroke-miterlimit:4;stroke-opacity:1;stroke-dasharray:none"
       id="path4197-00"
       sodipodi:cx="5"
       sodipodi:cy="2"
       sodipodi:rx="1"
       sodipodi:ry="1"
       d="M 6,2 C 6,2.5522847 5.5522847,3 5,3 4.4477153,3 4,2.5522847 4,2 4,1.4477153 4.4477153,1 5,1 5.5522847,1 6,1.4477153 6,2 z" />
    <path
       transform="translate(6,28.999997)"
       sodipodi:type="arc"
       style="fill:#ff0000;fill-opacity:1;stroke:#000000;stroke-width:0.30000001;stroke-miterlimit:4;stroke-opacity:1;stroke-dasharray:none"
       id="path4197-5-6"
       sodipodi:cx="5"
       sodipodi:cy="2"
       sodipodi:rx="1"
       sodipodi:ry="1"
       d="M 6,2 C 6,2.5522847 5.5522847,3 5,3 4.4477153,3 4,2.5522847 4,2 4,1.4477153 4.4477153,1 5,1 5.5522847,1 6,1.4477153 6,2 z" />
    <path
       transform="translate(-4,38.999997)"
       sodipodi:type="arc"
       style="fill:#ff0000;fill-opacity:1;stroke:#000000;stroke-width:0.30000001;stroke-miterlimit:4;stroke-opacity:1;stroke-dasharray:none"
       id="path4197-0-1"
       sodipodi:cx="5"
       sodipodi:cy="2"
       sodipodi:rx="1"
       sodipodi:ry="1"
       d="M 6,2 C 6,2.5522847 5.5522847,3 5,3 4.4477153,3 4,2.5522847 4,2 4,1.4477153 4.4477153,1 5,1 5.5522847,1 6,1.4477153 6,2 z" />
    <path
       transform="translate(6,38.999997)"
       sodipodi:type="arc"
       style="fill:#ff0000;fill-opacity:1;stroke:#000000;stroke-width:0.30000001;stroke-miterlimit:4;stroke-opacity:1;stroke-dasharray:none"
       id="path4197-8-6"
       sodipodi:cx="5"
       sodipodi:cy="2"
       sodipodi:rx="1"
       sodipodi:ry="1"
       d="M 6,2 C 6,2.5522847 5.5522847,3 5,3 4.4477153,3 4,2.5522847 4,2 4,1.4477153 4.4477153,1 5,1 5.5522847,1 6,1.4477153 6,2 z" />
    <path
       style="fill:none;stroke:#000000;stroke-width:0.30000001;stroke-linecap:butt;stroke-linejoin:miter;stroke-miterlimit:4;stroke-opacity:1;stroke-dasharray:none"
       d="m -42,30.999997 9,0"
       id="path5061"
       inkscape:connector-curvature="0" />
    <path
       style="fill:none;stroke:#000000;stroke-width:0.30000001;stroke-linecap:butt;stroke-linejoin:miter;stroke-miterlimit:4;stroke-opacity:1;stroke-dasharray:none"
       d="m 50,51.999997 8,0"
       id="path5063"
       inkscape:connector-curvature="0" />
    <path
       style="fill:none;stroke:#000000;stroke-width:0.30000001;stroke-linecap:butt;stroke-linejoin:miter;stroke-miterlimit:4;stroke-opacity:1;stroke-dasharray:none"
       d="m 50,61.999997 8,0"
       id="path5065"
       inkscape:connector-curvature="0" />
    <path
       style="fill:none;stroke:#000000;stroke-width:0.30000001;stroke-linecap:butt;stroke-linejoin:miter;stroke-miterlimit:4;stroke-opacity:1;stroke-dasharray:none"
       d="m 1,31.999997 0,8"
       id="path5067"
       inkscape:connector-curvature="0" />
    <path
       style="fill:none;stroke:#000000;stroke-width:0.30000001;stroke-linecap:butt;stroke-linejoin:miter;stroke-miterlimit:4;stroke-opacity:1;stroke-dasharray:none"
       d="m 2,30.999997 8,0"
       id="path5069"
       inkscape:connector-curvature="0" />
    <path
       style="fill:none;stroke:#000000;stroke-width:0.30000001;stroke-linecap:butt;stroke-linejoin:miter;stroke-miterlimit:4;stroke-opacity:1;stroke-dasharray:none"
       d="m 11,31.999997 0,8"
       id="path5071"
       inkscape:connector-curvature="0" />
    <rect
       style="fill:#ffffff;fill-opacity:1;stroke:#000000;stroke-width:0.30000001;stroke-miterlimit:4;stroke-opacity:1;stroke-dasharray:none"
       id="rect4231-96"
       width="16"
       height="14"
       x="-25"
       y="28.999998" />
    <path
       transform="translate(-27,28.999997)"
       sodipodi:type="arc"
       style="fill:#ff0000;fill-opacity:1;stroke:#000000;stroke-width:0.30000001;stroke-miterlimit:4;stroke-opacity:1;stroke-dasharray:none"
       id="path4197-50"
       sodipodi:cx="5"
       sodipodi:cy="2"
       sodipodi:rx="1"
       sodipodi:ry="1"
       d="M 6,2 C 6,2.5522847 5.5522847,3 5,3 4.4477153,3 4,2.5522847 4,2 4,1.4477153 4.4477153,1 5,1 5.5522847,1 6,1.4477153 6,2 z" />
    <path
       transform="translate(-17,28.999997)"
       sodipodi:type="arc"
       style="fill:#ff0000;fill-opacity:1;stroke:#000000;stroke-width:0.30000001;stroke-miterlimit:4;stroke-opacity:1;stroke-dasharray:none"
       id="path4197-5-3"
       sodipodi:cx="5"
       sodipodi:cy="2"
       sodipodi:rx="1"
       sodipodi:ry="1"
       d="M 6,2 C 6,2.5522847 5.5522847,3 5,3 4.4477153,3 4,2.5522847 4,2 4,1.4477153 4.4477153,1 5,1 5.5522847,1 6,1.4477153 6,2 z" />
    <path
       transform="translate(-27,38.999997)"
       sodipodi:type="arc"
       style="fill:#ff0000;fill-opacity:1;stroke:#000000;stroke-width:0.30000001;stroke-miterlimit:4;stroke-opacity:1;stroke-dasharray:none"
       id="path4197-0-2"
       sodipodi:cx="5"
       sodipodi:cy="2"
       sodipodi:rx="1"
       sodipodi:ry="1"
       d="M 6,2 C 6,2.5522847 5.5522847,3 5,3 4.4477153,3 4,2.5522847 4,2 4,1.4477153 4.4477153,1 5,1 5.5522847,1 6,1.4477153 6,2 z" />
    <path
       transform="translate(-17,38.999997)"
       sodipodi:type="arc"
       style="fill:#ff0000;fill-opacity:1;stroke:#000000;stroke-width:0.30000001;stroke-miterlimit:4;stroke-opacity:1;stroke-dasharray:none"
       id="path4197-8-1"
       sodipodi:cx="5"
       sodipodi:cy="2"
       sodipodi:rx="1"
       sodipodi:ry="1"
       d="M 6,2 C 6,2.5522847 5.5522847,3 5,3 4.4477153,3 4,2.5522847 4,2 4,1.4477153 4.4477153,1 5,1 5.5522847,1 6,1.4477153 6,2 z" />
    <path
       style="fill:none;stroke:#000000;stroke-width:0.30000001;stroke-linecap:butt;stroke-linejoin:miter;stroke-miterlimit:4;stroke-opacity:1;stroke-dasharray:none"
       d="m -21,30.999997 8,0"
       id="path5088"
       inkscape:connector-curvature="0" />
    <path
       style="fill:none;stroke:#000000;stroke-width:0.30000001;stroke-linecap:butt;stroke-linejoin:miter;stroke-miterlimit:4;stroke-opacity:1;stroke-dasharray:none"
       d="m -13,31.999997 -8,8"
       id="path5090"
       inkscape:connector-curvature="0" />
    <path
       style="fill:none;stroke:#000000;stroke-width:0.30000001;stroke-linecap:butt;stroke-linejoin:miter;stroke-miterlimit:4;stroke-opacity:1;stroke-dasharray:none"
       d="m -22,39.999997 0,-8"
       id="path5092"
       inkscape:connector-curvature="0" />
    <rect
       style="fill:#ffffff;fill-opacity:1;stroke:#000000;stroke-width:0.30000001;stroke-miterlimit:4;stroke-opacity:1;stroke-dasharray:none"
       id="rect4231-5"
       width="16"
       height="14"
       x="46"
       y="28.999996" />
    <path
       transform="translate(44,28.999997)"
       sodipodi:type="arc"
       style="fill:#ff0000;fill-opacity:1;stroke:#000000;stroke-width:0.30000001;stroke-miterlimit:4;stroke-opacity:1;stroke-dasharray:none"
       id="path4197-4"
       sodipodi:cx="5"
       sodipodi:cy="2"
       sodipodi:rx="1"
       sodipodi:ry="1"
       d="M 6,2 C 6,2.5522847 5.5522847,3 5,3 4.4477153,3 4,2.5522847 4,2 4,1.4477153 4.4477153,1 5,1 5.5522847,1 6,1.4477153 6,2 z" />
    <path
       transform="translate(54,28.999997)"
       sodipodi:type="arc"
       style="fill:#ff0000;fill-opacity:1;stroke:#000000;stroke-width:0.30000001;stroke-miterlimit:4;stroke-opacity:1;stroke-dasharray:none"
       id="path4197-5-8"
       sodipodi:cx="5"
       sodipodi:cy="2"
       sodipodi:rx="1"
       sodipodi:ry="1"
       d="M 6,2 C 6,2.5522847 5.5522847,3 5,3 4.4477153,3 4,2.5522847 4,2 4,1.4477153 4.4477153,1 5,1 5.5522847,1 6,1.4477153 6,2 z" />
    <path
       transform="translate(44,38.999997)"
       sodipodi:type="arc"
       style="fill:#ff0000;fill-opacity:1;stroke:#000000;stroke-width:0.30000001;stroke-miterlimit:4;stroke-opacity:1;stroke-dasharray:none"
       id="path4197-0-0"
       sodipodi:cx="5"
       sodipodi:cy="2"
       sodipodi:rx="1"
       sodipodi:ry="1"
       d="M 6,2 C 6,2.5522847 5.5522847,3 5,3 4.4477153,3 4,2.5522847 4,2 4,1.4477153 4.4477153,1 5,1 5.5522847,1 6,1.4477153 6,2 z" />
    <path
       transform="translate(54,38.999997)"
       sodipodi:type="arc"
       style="fill:#ff0000;fill-opacity:1;stroke:#000000;stroke-width:0.30000001;stroke-miterlimit:4;stroke-opacity:1;stroke-dasharray:none"
       id="path4197-8-8"
       sodipodi:cx="5"
       sodipodi:cy="2"
       sodipodi:rx="1"
       sodipodi:ry="1"
       d="M 6,2 C 6,2.5522847 5.5522847,3 5,3 4.4477153,3 4,2.5522847 4,2 4,1.4477153 4.4477153,1 5,1 5.5522847,1 6,1.4477153 6,2 z" />
    <path
       style="fill:none;stroke:#000000;stroke-width:0.30000001;stroke-linecap:butt;stroke-linejoin:miter;stroke-miterlimit:4;stroke-opacity:1;stroke-dasharray:none"
       d="m 49,39.999997 0,-8"
       id="path5109"
       inkscape:connector-curvature="0" />
    <path
       style="fill:none;stroke:#000000;stroke-width:0.30000001;stroke-linecap:butt;stroke-linejoin:miter;stroke-miterlimit:4;stroke-opacity:1;stroke-dasharray:none"
       d="m 50,30.999997 8,0"
       id="path5111"
       inkscape:connector-curvature="0" />
    <path
       style="fill:none;stroke:#000000;stroke-width:0.30000001;stroke-linecap:butt;stroke-linejoin:miter;stroke-miterlimit:4;stroke-opacity:1;stroke-dasharray:none"
       d="m 59,31.999997 0,8"
       id="path5113"
       inkscape:connector-curvature="0" />
    <path
       style="fill:none;stroke:#000000;stroke-width:0.30000001;stroke-linecap:butt;stroke-linejoin:miter;stroke-miterlimit:4;stroke-opacity:1;stroke-dasharray:none"
       d="m 58,40.999997 -8,0"
       id="path5115"
       inkscape:connector-curvature="0" />
    <rect
       style="fill:#ffffff;fill-opacity:1;stroke:#000000;stroke-width:0.30000001;stroke-miterlimit:4;stroke-opacity:1;stroke-dasharray:none"
       id="rect4231-2"
       width="16"
       height="14"
       x="-45"
       y="50" />
    <path
       transform="translate(-47,49.999997)"
       sodipodi:type="arc"
       style="fill:#ff0000;fill-opacity:1;stroke:#000000;stroke-width:0.30000001;stroke-miterlimit:4;stroke-opacity:1;stroke-dasharray:none"
       id="path4197-2"
       sodipodi:cx="5"
       sodipodi:cy="2"
       sodipodi:rx="1"
       sodipodi:ry="1"
       d="M 6,2 C 6,2.5522847 5.5522847,3 5,3 4.4477153,3 4,2.5522847 4,2 4,1.4477153 4.4477153,1 5,1 5.5522847,1 6,1.4477153 6,2 z" />
    <path
       transform="translate(-37,49.999997)"
       sodipodi:type="arc"
       style="fill:#ff0000;fill-opacity:1;stroke:#000000;stroke-width:0.30000001;stroke-miterlimit:4;stroke-opacity:1;stroke-dasharray:none"
       id="path4197-5-87"
       sodipodi:cx="5"
       sodipodi:cy="2"
       sodipodi:rx="1"
       sodipodi:ry="1"
       d="M 6,2 C 6,2.5522847 5.5522847,3 5,3 4.4477153,3 4,2.5522847 4,2 4,1.4477153 4.4477153,1 5,1 5.5522847,1 6,1.4477153 6,2 z" />
    <path
       transform="translate(-47,59.999997)"
       sodipodi:type="arc"
       style="fill:#ff0000;fill-opacity:1;stroke:#000000;stroke-width:0.30000001;stroke-miterlimit:4;stroke-opacity:1;stroke-dasharray:none"
       id="path4197-0-21"
       sodipodi:cx="5"
       sodipodi:cy="2"
       sodipodi:rx="1"
       sodipodi:ry="1"
       d="M 6,2 C 6,2.5522847 5.5522847,3 5,3 4.4477153,3 4,2.5522847 4,2 4,1.4477153 4.4477153,1 5,1 5.5522847,1 6,1.4477153 6,2 z" />
    <path
       transform="translate(-37,59.999997)"
       sodipodi:type="arc"
       style="fill:#ff0000;fill-opacity:1;stroke:#000000;stroke-width:0.30000001;stroke-miterlimit:4;stroke-opacity:1;stroke-dasharray:none"
       id="path4197-8-5"
       sodipodi:cx="5"
       sodipodi:cy="2"
       sodipodi:rx="1"
       sodipodi:ry="1"
       d="M 6,2 C 6,2.5522847 5.5522847,3 5,3 4.4477153,3 4,2.5522847 4,2 4,1.4477153 4.4477153,1 5,1 5.5522847,1 6,1.4477153 6,2 z" />
    <rect
       style="fill:#ffffff;fill-opacity:1;stroke:#000000;stroke-width:0.30000001;stroke-miterlimit:4;stroke-opacity:1;stroke-dasharray:none"
       id="rect4231-4"
       width="16"
       height="14"
       x="-69"
       y="49.999996" />
    <path
       transform="translate(-71,49.999997)"
       sodipodi:type="arc"
       style="fill:#ff0000;fill-opacity:1;stroke:#000000;stroke-width:0.30000001;stroke-miterlimit:4;stroke-opacity:1;stroke-dasharray:none"
       id="path4197-9"
       sodipodi:cx="5"
       sodipodi:cy="2"
       sodipodi:rx="1"
       sodipodi:ry="1"
       d="M 6,2 C 6,2.5522847 5.5522847,3 5,3 4.4477153,3 4,2.5522847 4,2 4,1.4477153 4.4477153,1 5,1 5.5522847,1 6,1.4477153 6,2 z" />
    <path
       transform="translate(-61,49.999997)"
       sodipodi:type="arc"
       style="fill:#ff0000;fill-opacity:1;stroke:#000000;stroke-width:0.30000001;stroke-miterlimit:4;stroke-opacity:1;stroke-dasharray:none"
       id="path4197-5-9"
       sodipodi:cx="5"
       sodipodi:cy="2"
       sodipodi:rx="1"
       sodipodi:ry="1"
       d="M 6,2 C 6,2.5522847 5.5522847,3 5,3 4.4477153,3 4,2.5522847 4,2 4,1.4477153 4.4477153,1 5,1 5.5522847,1 6,1.4477153 6,2 z" />
    <path
       transform="translate(-71,59.999997)"
       sodipodi:type="arc"
       style="fill:#ff0000;fill-opacity:1;stroke:#000000;stroke-width:0.30000001;stroke-miterlimit:4;stroke-opacity:1;stroke-dasharray:none"
       id="path4197-0-5"
       sodipodi:cx="5"
       sodipodi:cy="2"
       sodipodi:rx="1"
       sodipodi:ry="1"
       d="M 6,2 C 6,2.5522847 5.5522847,3 5,3 4.4477153,3 4,2.5522847 4,2 4,1.4477153 4.4477153,1 5,1 5.5522847,1 6,1.4477153 6,2 z" />
    <path
       transform="translate(-61,59.999997)"
       sodipodi:type="arc"
       style="fill:#ff0000;fill-opacity:1;stroke:#000000;stroke-width:0.30000001;stroke-miterlimit:4;stroke-opacity:1;stroke-dasharray:none"
       id="path4197-8-60"
       sodipodi:cx="5"
       sodipodi:cy="2"
       sodipodi:rx="1"
       sodipodi:ry="1"
       d="M 6,2 C 6,2.5522847 5.5522847,3 5,3 4.4477153,3 4,2.5522847 4,2 4,1.4477153 4.4477153,1 5,1 5.5522847,1 6,1.4477153 6,2 z" />
    <path
       style="fill:none;stroke:#000000;stroke-width:0.30000001;stroke-linecap:butt;stroke-linejoin:miter;stroke-miterlimit:4;stroke-opacity:1;stroke-dasharray:none"
       d="m -42,52.999997 0,8"
       id="path5147"
       inkscape:connector-curvature="0" />
    <path
       style="fill:none;stroke:#000000;stroke-width:0.30000001;stroke-linecap:butt;stroke-linejoin:miter;stroke-miterlimit:4;stroke-opacity:1;stroke-dasharray:none"
       d="m -41,61.999997 8,0"
       id="path5149"
       inkscape:connector-curvature="0" />
    <path
       style="fill:none;stroke:#000000;stroke-width:0.30000001;stroke-linecap:butt;stroke-linejoin:miter;stroke-miterlimit:4;stroke-opacity:1;stroke-dasharray:none"
       d="m -32,60.999997 0,-8"
       id="path5151"
       inkscape:connector-curvature="0" />
    <path
       style="fill:none;stroke:#000000;stroke-width:0.30000001;stroke-linecap:butt;stroke-linejoin:miter;stroke-miterlimit:4;stroke-opacity:1;stroke-dasharray:none"
       d="m -33,51.999997 -8,0"
       id="path5153"
       inkscape:connector-curvature="0" />
    <path
       style="fill:none;stroke:#000000;stroke-width:0.30000001;stroke-linecap:butt;stroke-linejoin:miter;stroke-miterlimit:4;stroke-opacity:1;stroke-dasharray:none"
       d="m -41,52.999997 8,8"
       id="path5155"
       inkscape:connector-curvature="0" />
    <path
       style="fill:none;stroke:#000000;stroke-width:0.30000001;stroke-linecap:butt;stroke-linejoin:miter;stroke-miterlimit:4;stroke-opacity:1;stroke-dasharray:none"
       d="m -65,51.999997 8,0"
       id="path5157"
       inkscape:connector-curvature="0" />
    <path
       style="fill:none;stroke:#000000;stroke-width:0.30000001;stroke-linecap:butt;stroke-linejoin:miter;stroke-miterlimit:4;stroke-opacity:1;stroke-dasharray:none"
       d="m -56,52.999997 0,8"
       id="path5159"
       inkscape:connector-curvature="0" />
    <path
       style="fill:none;stroke:#000000;stroke-width:0.30000001;stroke-linecap:butt;stroke-linejoin:miter;stroke-miterlimit:4;stroke-opacity:1;stroke-dasharray:none"
       d="m -57,61.999997 -8,0"
       id="path5161"
       inkscape:connector-curvature="0" />
    <path
       style="fill:none;stroke:#000000;stroke-width:0.30000001;stroke-linecap:butt;stroke-linejoin:miter;stroke-miterlimit:4;stroke-opacity:1;stroke-dasharray:none"
       d="m -66,60.999997 0,-8"
       id="path5163"
       inkscape:connector-curvature="0" />
    <path
       style="fill:none;stroke:#000000;stroke-width:0.30000001;stroke-linecap:butt;stroke-linejoin:miter;stroke-miterlimit:4;stroke-opacity:1;stroke-dasharray:none"
       d="m -65,52.999997 8,8"
       id="path5165"
       inkscape:connector-curvature="0" />
    <path
       style="fill:none;stroke:#000000;stroke-width:0.30000001;stroke-linecap:butt;stroke-linejoin:miter;stroke-miterlimit:4;stroke-opacity:1;stroke-dasharray:none"
       d="m -57,52.999997 -8,8"
       id="path5167"
       inkscape:connector-curvature="0" />
    <rect
       style="fill:#ffffff;fill-opacity:1;stroke:#000000;stroke-width:0.30000001;stroke-miterlimit:4;stroke-opacity:1;stroke-dasharray:none"
       id="rect4231-8"
       width="16"
       height="14"
       x="23"
       y="28.999996" />
    <path
       transform="translate(21,28.999997)"
       sodipodi:type="arc"
       style="fill:#ff0000;fill-opacity:1;stroke:#000000;stroke-width:0.30000001;stroke-miterlimit:4;stroke-opacity:1;stroke-dasharray:none"
       id="path4197-99"
       sodipodi:cx="5"
       sodipodi:cy="2"
       sodipodi:rx="1"
       sodipodi:ry="1"
       d="M 6,2 C 6,2.5522847 5.5522847,3 5,3 4.4477153,3 4,2.5522847 4,2 4,1.4477153 4.4477153,1 5,1 5.5522847,1 6,1.4477153 6,2 z" />
    <path
       transform="translate(31,28.999997)"
       sodipodi:type="arc"
       style="fill:#ff0000;fill-opacity:1;stroke:#000000;stroke-width:0.30000001;stroke-miterlimit:4;stroke-opacity:1;stroke-dasharray:none"
       id="path4197-5-35"
       sodipodi:cx="5"
       sodipodi:cy="2"
       sodipodi:rx="1"
       sodipodi:ry="1"
       d="M 6,2 C 6,2.5522847 5.5522847,3 5,3 4.4477153,3 4,2.5522847 4,2 4,1.4477153 4.4477153,1 5,1 5.5522847,1 6,1.4477153 6,2 z" />
    <path
       transform="translate(21,38.999997)"
       sodipodi:type="arc"
       style="fill:#ff0000;fill-opacity:1;stroke:#000000;stroke-width:0.30000001;stroke-miterlimit:4;stroke-opacity:1;stroke-dasharray:none"
       id="path4197-0-53"
       sodipodi:cx="5"
       sodipodi:cy="2"
       sodipodi:rx="1"
       sodipodi:ry="1"
       d="M 6,2 C 6,2.5522847 5.5522847,3 5,3 4.4477153,3 4,2.5522847 4,2 4,1.4477153 4.4477153,1 5,1 5.5522847,1 6,1.4477153 6,2 z" />
    <path
       transform="translate(31,38.999997)"
       sodipodi:type="arc"
       style="fill:#ff0000;fill-opacity:1;stroke:#000000;stroke-width:0.30000001;stroke-miterlimit:4;stroke-opacity:1;stroke-dasharray:none"
       id="path4197-8-61"
       sodipodi:cx="5"
       sodipodi:cy="2"
       sodipodi:rx="1"
       sodipodi:ry="1"
       d="M 6,2 C 6,2.5522847 5.5522847,3 5,3 4.4477153,3 4,2.5522847 4,2 4,1.4477153 4.4477153,1 5,1 5.5522847,1 6,1.4477153 6,2 z" />
    <path
       style="fill:none;stroke:#000000;stroke-width:0.30000001;stroke-linecap:butt;stroke-linejoin:miter;stroke-miterlimit:4;stroke-opacity:1;stroke-dasharray:none"
       d="m 35,30.999997 -8,0"
       id="path5184"
       inkscape:connector-curvature="0" />
    <path
       style="fill:none;stroke:#000000;stroke-width:0.30000001;stroke-linecap:butt;stroke-linejoin:miter;stroke-miterlimit:4;stroke-opacity:1;stroke-dasharray:none"
       d="m 26,31.999997 0,8"
       id="path5186"
       inkscape:connector-curvature="0" />
    <path
       style="fill:none;stroke:#000000;stroke-width:0.30000001;stroke-linecap:butt;stroke-linejoin:miter;stroke-miterlimit:4;stroke-opacity:1;stroke-dasharray:none"
       d="m 36,31.999997 0,8"
       id="path5188"
       inkscape:connector-curvature="0" />
    <path
       style="fill:none;stroke:#000000;stroke-width:0.30000001;stroke-linecap:butt;stroke-linejoin:miter;stroke-miterlimit:4;stroke-opacity:1;stroke-dasharray:none"
       d="m 35,39.999997 -8,-8"
       id="path5190"
       inkscape:connector-curvature="0"
       sodipodi:nodetypes="cc" />
    <rect
       style="fill:#ffffff;fill-opacity:1;stroke:#000000;stroke-width:0.30000001;stroke-miterlimit:4;stroke-opacity:1;stroke-dasharray:none"
       id="rect4231-43"
       width="16"
       height="14"
       x="-25"
       y="49.999996" />
    <path
       transform="translate(-27,49.999997)"
       sodipodi:type="arc"
       style="fill:#ff0000;fill-opacity:1;stroke:#000000;stroke-width:0.30000001;stroke-miterlimit:4;stroke-opacity:1;stroke-dasharray:none"
       id="path4197-01"
       sodipodi:cx="5"
       sodipodi:cy="2"
       sodipodi:rx="1"
       sodipodi:ry="1"
       d="M 6,2 C 6,2.5522847 5.5522847,3 5,3 4.4477153,3 4,2.5522847 4,2 4,1.4477153 4.4477153,1 5,1 5.5522847,1 6,1.4477153 6,2 z" />
    <path
       transform="translate(-17,49.999997)"
       sodipodi:type="arc"
       style="fill:#ff0000;fill-opacity:1;stroke:#000000;stroke-width:0.30000001;stroke-miterlimit:4;stroke-opacity:1;stroke-dasharray:none"
       id="path4197-5-54"
       sodipodi:cx="5"
       sodipodi:cy="2"
       sodipodi:rx="1"
       sodipodi:ry="1"
       d="M 6,2 C 6,2.5522847 5.5522847,3 5,3 4.4477153,3 4,2.5522847 4,2 4,1.4477153 4.4477153,1 5,1 5.5522847,1 6,1.4477153 6,2 z" />
    <path
       transform="translate(-27,59.999997)"
       sodipodi:type="arc"
       style="fill:#ff0000;fill-opacity:1;stroke:#000000;stroke-width:0.30000001;stroke-miterlimit:4;stroke-opacity:1;stroke-dasharray:none"
       id="path4197-0-54"
       sodipodi:cx="5"
       sodipodi:cy="2"
       sodipodi:rx="1"
       sodipodi:ry="1"
       d="M 6,2 C 6,2.5522847 5.5522847,3 5,3 4.4477153,3 4,2.5522847 4,2 4,1.4477153 4.4477153,1 5,1 5.5522847,1 6,1.4477153 6,2 z" />
    <path
       transform="translate(-17,59.999997)"
       sodipodi:type="arc"
       style="fill:#ff0000;fill-opacity:1;stroke:#000000;stroke-width:0.30000001;stroke-miterlimit:4;stroke-opacity:1;stroke-dasharray:none"
       id="path4197-8-03"
       sodipodi:cx="5"
       sodipodi:cy="2"
       sodipodi:rx="1"
       sodipodi:ry="1"
       d="M 6,2 C 6,2.5522847 5.5522847,3 5,3 4.4477153,3 4,2.5522847 4,2 4,1.4477153 4.4477153,1 5,1 5.5522847,1 6,1.4477153 6,2 z" />
    <path
       style="fill:none;stroke:#000000;stroke-width:0.30000001;stroke-linecap:butt;stroke-linejoin:miter;stroke-miterlimit:4;stroke-opacity:1;stroke-dasharray:none"
       d="m -22,52.999997 0,8"
       id="path5285"
       inkscape:connector-curvature="0" />
    <path
       style="fill:none;stroke:#000000;stroke-width:0.30000001;stroke-linecap:butt;stroke-linejoin:miter;stroke-miterlimit:4;stroke-opacity:1;stroke-dasharray:none"
       d="m -21,51.999997 8,0"
       id="path5287"
       inkscape:connector-curvature="0" />
    <path
       style="fill:none;stroke:#000000;stroke-width:0.30000001;stroke-linecap:butt;stroke-linejoin:miter;stroke-miterlimit:4;stroke-opacity:1;stroke-dasharray:none"
       d="m -21,52.999997 8,8"
       id="path5289"
       inkscape:connector-curvature="0" />
    <rect
       style="fill:#ffffff;fill-opacity:1;stroke:#000000;stroke-width:0.30000001;stroke-miterlimit:4;stroke-opacity:1;stroke-dasharray:none"
       id="rect4231-3"
       width="16"
       height="14"
       x="23"
       y="49.999996" />
    <path
       transform="translate(21,49.999997)"
       sodipodi:type="arc"
       style="fill:#ff0000;fill-opacity:1;stroke:#000000;stroke-width:0.30000001;stroke-miterlimit:4;stroke-opacity:1;stroke-dasharray:none"
       id="path4197-29"
       sodipodi:cx="5"
       sodipodi:cy="2"
       sodipodi:rx="1"
       sodipodi:ry="1"
       d="M 6,2 C 6,2.5522847 5.5522847,3 5,3 4.4477153,3 4,2.5522847 4,2 4,1.4477153 4.4477153,1 5,1 5.5522847,1 6,1.4477153 6,2 z" />
    <path
       transform="translate(31,49.999997)"
       sodipodi:type="arc"
       style="fill:#ff0000;fill-opacity:1;stroke:#000000;stroke-width:0.30000001;stroke-miterlimit:4;stroke-opacity:1;stroke-dasharray:none"
       id="path4197-5-4"
       sodipodi:cx="5"
       sodipodi:cy="2"
       sodipodi:rx="1"
       sodipodi:ry="1"
       d="M 6,2 C 6,2.5522847 5.5522847,3 5,3 4.4477153,3 4,2.5522847 4,2 4,1.4477153 4.4477153,1 5,1 5.5522847,1 6,1.4477153 6,2 z" />
    <path
       transform="translate(21,59.999997)"
       sodipodi:type="arc"
       style="fill:#ff0000;fill-opacity:1;stroke:#000000;stroke-width:0.30000001;stroke-miterlimit:4;stroke-opacity:1;stroke-dasharray:none"
       id="path4197-0-7"
       sodipodi:cx="5"
       sodipodi:cy="2"
       sodipodi:rx="1"
       sodipodi:ry="1"
       d="M 6,2 C 6,2.5522847 5.5522847,3 5,3 4.4477153,3 4,2.5522847 4,2 4,1.4477153 4.4477153,1 5,1 5.5522847,1 6,1.4477153 6,2 z" />
    <path
       transform="translate(31,59.999997)"
       sodipodi:type="arc"
       style="fill:#ff0000;fill-opacity:1;stroke:#000000;stroke-width:0.30000001;stroke-miterlimit:4;stroke-opacity:1;stroke-dasharray:none"
       id="path4197-8-9"
       sodipodi:cx="5"
       sodipodi:cy="2"
       sodipodi:rx="1"
       sodipodi:ry="1"
       d="M 6,2 C 6,2.5522847 5.5522847,3 5,3 4.4477153,3 4,2.5522847 4,2 4,1.4477153 4.4477153,1 5,1 5.5522847,1 6,1.4477153 6,2 z" />
    <path
       style="fill:none;stroke:#000000;stroke-width:0.30000001;stroke-linecap:butt;stroke-linejoin:miter;stroke-miterlimit:4;stroke-opacity:1;stroke-dasharray:none"
       d="m 26,52.999997 0,8"
       id="path5306"
       inkscape:connector-curvature="0" />
    <path
       style="fill:none;stroke:#000000;stroke-width:0.30000001;stroke-linecap:butt;stroke-linejoin:miter;stroke-miterlimit:4;stroke-opacity:1;stroke-dasharray:none"
       d="m 27,51.999997 8,0"
       id="path5308"
       inkscape:connector-curvature="0" />
    <path
       style="fill:none;stroke:#000000;stroke-width:0.30000001;stroke-linecap:butt;stroke-linejoin:miter;stroke-miterlimit:4;stroke-opacity:1;stroke-dasharray:none"
       d="m -61.9,43.099997 0,7"
       id="path5490"
       inkscape:connector-curvature="0"
       transform="translate(1.9,-0.1)" />
    <path
       style="fill:none;stroke:#000000;stroke-width:0.30000001;stroke-linecap:butt;stroke-linejoin:miter;stroke-miterlimit:4;stroke-opacity:1;stroke-dasharray:none"
       d="m -37.9,43.099997 0,7"
       id="path5492"
       inkscape:connector-curvature="0"
       transform="translate(1.9,-0.1)" />
    <path
       style="fill:none;stroke:#000000;stroke-width:0.30000001;stroke-linecap:butt;stroke-linejoin:miter;stroke-miterlimit:4;stroke-opacity:1;stroke-dasharray:none"
       d="m -17,42.999997 0,7"
       id="path5496"
       inkscape:connector-curvature="0" />
    <path
       style="fill:none;stroke:#000000;stroke-width:0.30000001;stroke-linecap:butt;stroke-linejoin:miter;stroke-miterlimit:4;stroke-opacity:1;stroke-dasharray:none"
       d="m 3,42.999997 0,3 5,0 0,-3"
       id="path5498"
       inkscape:connector-curvature="0" />
    <path
       style="fill:none;stroke:#000000;stroke-width:0.30000001;stroke-linecap:butt;stroke-linejoin:miter;stroke-miterlimit:4;stroke-opacity:1;stroke-dasharray:none"
       d="m 31,42.999997 0,7"
       id="path5500"
       inkscape:connector-curvature="0" />
    <path
       style="fill:none;stroke:#000000;stroke-width:0.30000001;stroke-linecap:butt;stroke-linejoin:miter;stroke-miterlimit:4;stroke-opacity:1;stroke-dasharray:none"
       d="m 54,42.999997 0,7"
       id="path5502"
       inkscape:connector-curvature="0" />
  </g>
</svg>
