<?xml version="1.0" encoding="UTF-8" standalone="no"?>
<!-- Created with Inkscape (http://www.inkscape.org/) -->

<svg
   xmlns:dc="http://purl.org/dc/elements/1.1/"
   xmlns:cc="http://creativecommons.org/ns#"
   xmlns:rdf="http://www.w3.org/1999/02/22-rdf-syntax-ns#"
   xmlns:svg="http://www.w3.org/2000/svg"
   xmlns="http://www.w3.org/2000/svg"
   xmlns:sodipodi="http://sodipodi.sourceforge.net/DTD/sodipodi-0.dtd"
   xmlns:inkscape="http://www.inkscape.org/namespaces/inkscape"
   width="29.269258"
   height="30.26926"
   id="svg4187"
   version="1.1"
   inkscape:version="0.48.3.1 r9886"
   sodipodi:docname="fig23.svg">
  <defs
     id="defs4189" />
  <sodipodi:namedview
     id="base"
     pagecolor="#ffffff"
     bordercolor="#666666"
     borderopacity="1.0"
     inkscape:pageopacity="0.0"
     inkscape:pageshadow="2"
     inkscape:zoom="15.836083"
     inkscape:cx="19.012455"
     inkscape:cy="10.712158"
     inkscape:current-layer="layer1"
     showgrid="true"
     inkscape:grid-bbox="true"
     inkscape:document-units="px"
     fit-margin-top="0"
     fit-margin-left="0"
     fit-margin-right="0"
     fit-margin-bottom="0"
     inkscape:window-width="1024"
     inkscape:window-height="554"
     inkscape:window-x="0"
     inkscape:window-y="0"
     inkscape:window-maximized="1">
    <inkscape:grid
       type="xygrid"
       id="grid4195"
       empspacing="5"
       visible="true"
       enabled="true"
       snapvisiblegridlinesonly="true"
       originx="69.134629px"
       originy="27.134632px" />
  </sodipodi:namedview>
  <metadata
     id="metadata4192">
    <rdf:RDF>
      <cc:Work
         rdf:about="">
        <dc:format>image/svg+xml</dc:format>
        <dc:type
           rdf:resource="http://purl.org/dc/dcmitype/StillImage" />
        <dc:title></dc:title>
      </cc:Work>
    </rdf:RDF>
  </metadata>
  <g
     id="layer1"
     inkscape:label="Layer 1"
     inkscape:groupmode="layer"
     transform="translate(69.134629,-28.865369)">
    <rect
       style="fill:#ffffff;fill-opacity:1;stroke:#000000;stroke-width:0.26925823;stroke-miterlimit:4;stroke-opacity:1;stroke-dasharray:none"
       id="rect4231"
       width="29"
       height="14"
       x="-69"
       y="28.999998" />
    <path
       sodipodi:type="arc"
       style="fill:#ff0000;fill-opacity:1;stroke:#000000;stroke-width:0.2;stroke-miterlimit:4;stroke-opacity:1;stroke-dasharray:none"
       id="path4197"
       sodipodi:cx="5"
       sodipodi:cy="2"
       sodipodi:rx="1"
       sodipodi:ry="1"
       d="M 6,2 C 6,2.5522847 5.5522847,3 5,3 4.4477153,3 4,2.5522847 4,2 4,1.4477153 4.4477153,1 5,1 5.5522847,1 6,1.4477153 6,2 z"
       transform="translate(-71,28.999997)" />
    <path
       transform="translate(-61,28.999997)"
       sodipodi:type="arc"
       style="fill:#ff0000;fill-opacity:1;stroke:#000000;stroke-width:0.2;stroke-miterlimit:4;stroke-opacity:1;stroke-dasharray:none"
       id="path4197-5"
       sodipodi:cx="5"
       sodipodi:cy="2"
       sodipodi:rx="1"
       sodipodi:ry="1"
       d="M 6,2 C 6,2.5522847 5.5522847,3 5,3 4.4477153,3 4,2.5522847 4,2 4,1.4477153 4.4477153,1 5,1 5.5522847,1 6,1.4477153 6,2 z" />
    <path
       transform="translate(-71,38.999997)"
       sodipodi:type="arc"
       style="fill:#ff0000;fill-opacity:1;stroke:#000000;stroke-width:0.2;stroke-miterlimit:4;stroke-opacity:1;stroke-dasharray:none"
       id="path4197-0"
       sodipodi:cx="5"
       sodipodi:cy="2"
       sodipodi:rx="1"
       sodipodi:ry="1"
       d="M 6,2 C 6,2.5522847 5.5522847,3 5,3 4.4477153,3 4,2.5522847 4,2 4,1.4477153 4.4477153,1 5,1 5.5522847,1 6,1.4477153 6,2 z" />
    <path
       transform="translate(-61,38.999997)"
       sodipodi:type="arc"
       style="fill:#ff0000;fill-opacity:1;stroke:#000000;stroke-width:0.2;stroke-miterlimit:4;stroke-opacity:1;stroke-dasharray:none"
       id="path4197-8"
       sodipodi:cx="5"
       sodipodi:cy="2"
       sodipodi:rx="1"
       sodipodi:ry="1"
       d="M 6,2 C 6,2.5522847 5.5522847,3 5,3 4.4477153,3 4,2.5522847 4,2 4,1.4477153 4.4477153,1 5,1 5.5522847,1 6,1.4477153 6,2 z" />
    <path
       transform="translate(-50,28.999997)"
       sodipodi:type="arc"
       style="fill:#ff0000;fill-opacity:1;stroke:#000000;stroke-width:0.2;stroke-miterlimit:4;stroke-opacity:1;stroke-dasharray:none"
       id="path4197-5-5"
       sodipodi:cx="5"
       sodipodi:cy="2"
       sodipodi:rx="1"
       sodipodi:ry="1"
       d="M 6,2 C 6,2.5522847 5.5522847,3 5,3 4.4477153,3 4,2.5522847 4,2 4,1.4477153 4.4477153,1 5,1 5.5522847,1 6,1.4477153 6,2 z" />
    <rect
       style="fill:#ffffff;fill-opacity:1;stroke:#000000;stroke-width:0.26925823;stroke-miterlimit:4;stroke-opacity:1;stroke-dasharray:none"
       id="rect4231-1"
       width="29"
       height="14"
       x="-69"
       y="45" />
    <path
       sodipodi:type="arc"
       style="fill:#ff0000;fill-opacity:1;stroke:#000000;stroke-width:0.2;stroke-miterlimit:4;stroke-opacity:1;stroke-dasharray:none"
       id="path4197-4"
       sodipodi:cx="5"
       sodipodi:cy="2"
       sodipodi:rx="1"
       sodipodi:ry="1"
       d="M 6,2 C 6,2.5522847 5.5522847,3 5,3 4.4477153,3 4,2.5522847 4,2 4,1.4477153 4.4477153,1 5,1 5.5522847,1 6,1.4477153 6,2 z"
       transform="translate(-71,44.999997)" />
    <path
       transform="translate(-61,44.999997)"
       sodipodi:type="arc"
       style="fill:#ff0000;fill-opacity:1;stroke:#000000;stroke-width:0.2;stroke-miterlimit:4;stroke-opacity:1;stroke-dasharray:none"
       id="path4197-5-6"
       sodipodi:cx="5"
       sodipodi:cy="2"
       sodipodi:rx="1"
       sodipodi:ry="1"
       d="M 6,2 C 6,2.5522847 5.5522847,3 5,3 4.4477153,3 4,2.5522847 4,2 4,1.4477153 4.4477153,1 5,1 5.5522847,1 6,1.4477153 6,2 z" />
    <path
       transform="translate(-71,54.999997)"
       sodipodi:type="arc"
       style="fill:#ff0000;fill-opacity:1;stroke:#000000;stroke-width:0.2;stroke-miterlimit:4;stroke-opacity:1;stroke-dasharray:none"
       id="path4197-0-8"
       sodipodi:cx="5"
       sodipodi:cy="2"
       sodipodi:rx="1"
       sodipodi:ry="1"
       d="M 6,2 C 6,2.5522847 5.5522847,3 5,3 4.4477153,3 4,2.5522847 4,2 4,1.4477153 4.4477153,1 5,1 5.5522847,1 6,1.4477153 6,2 z" />
    <path
       transform="translate(-61,54.999997)"
       sodipodi:type="arc"
       style="fill:#ff0000;fill-opacity:1;stroke:#000000;stroke-width:0.2;stroke-miterlimit:4;stroke-opacity:1;stroke-dasharray:none"
       id="path4197-8-1"
       sodipodi:cx="5"
       sodipodi:cy="2"
       sodipodi:rx="1"
       sodipodi:ry="1"
       d="M 6,2 C 6,2.5522847 5.5522847,3 5,3 4.4477153,3 4,2.5522847 4,2 4,1.4477153 4.4477153,1 5,1 5.5522847,1 6,1.4477153 6,2 z" />
    <path
       transform="translate(-50,44.999997)"
       sodipodi:type="arc"
       style="fill:#ff0000;fill-opacity:1;stroke:#000000;stroke-width:0.2;stroke-miterlimit:4;stroke-opacity:1;stroke-dasharray:none"
       id="path4197-5-5-6"
       sodipodi:cx="5"
       sodipodi:cy="2"
       sodipodi:rx="1"
       sodipodi:ry="1"
       d="M 6,2 C 6,2.5522847 5.5522847,3 5,3 4.4477153,3 4,2.5522847 4,2 4,1.4477153 4.4477153,1 5,1 5.5522847,1 6,1.4477153 6,2 z" />
    <path
       style="fill:none;stroke:#000000;stroke-width:1px;stroke-linecap:butt;stroke-linejoin:miter;stroke-opacity:1"
       d="m 4.134629,3.0742361 8,0"
       id="path5691"
       inkscape:connector-curvature="0"
       transform="translate(-69.134629,27.925761)" />
    <path
       style="fill:none;stroke:#000000;stroke-width:1px;stroke-linecap:butt;stroke-linejoin:miter;stroke-opacity:1"
       d="m 3.134629,4.0742361 0,7.9999999"
       id="path5693"
       inkscape:connector-curvature="0"
       transform="translate(-69.134629,27.925761)" />
    <path
       style="fill:none;stroke:#000000;stroke-width:1px;stroke-linecap:butt;stroke-linejoin:miter;stroke-opacity:1"
       d="m 4.134629,4.0742361 8,7.9999999"
       id="path5695"
       inkscape:connector-curvature="0"
       transform="translate(-69.134629,27.925761)"
       sodipodi:nodetypes="cc" />
    <path
       style="fill:none;stroke:#000000;stroke-width:1px;stroke-linecap:butt;stroke-linejoin:miter;stroke-opacity:1"
       d="m 14.134629,3.0742361 9,0"
       id="path5697"
       inkscape:connector-curvature="0"
       transform="translate(-69.134629,27.925761)" />
    <path
       style="fill:none;stroke:#000000;stroke-width:1px;stroke-linecap:butt;stroke-linejoin:miter;stroke-opacity:1"
       d="m 24.134629,4.0742361 -10,7.9999999"
       id="path5699"
       inkscape:connector-curvature="0"
       transform="translate(-69.134629,27.925761)" />
    <path
       style="fill:none;stroke:#000000;stroke-width:1px;stroke-linecap:butt;stroke-linejoin:miter;stroke-opacity:1"
       d="m 4.134629,19.074236 8,0"
       id="path5701"
       inkscape:connector-curvature="0"
       transform="translate(-69.134629,27.925761)" />
    <path
       style="fill:none;stroke:#000000;stroke-width:1px;stroke-linecap:butt;stroke-linejoin:miter;stroke-opacity:1"
       d="m 3.134629,20.074236 0,8"
       id="path5703"
       inkscape:connector-curvature="0"
       transform="translate(-69.134629,27.925761)" />
    <path
       style="fill:none;stroke:#000000;stroke-width:1px;stroke-linecap:butt;stroke-linejoin:miter;stroke-opacity:1"
       d="m 4.134629,20.074236 9,8"
       id="path5705"
       inkscape:connector-curvature="0"
       transform="translate(-69.134629,27.925761)" />
    <path
       style="fill:none;stroke:#000000;stroke-width:1px;stroke-linecap:butt;stroke-linejoin:miter;stroke-opacity:1"
       d="m 23.134629,20.074236 -9,8"
       id="path5707"
       inkscape:connector-curvature="0"
       transform="translate(-69.134629,27.925761)" />
    <path
       style="fill:none;stroke:#000000;stroke-width:1px;stroke-linecap:butt;stroke-linejoin:miter;stroke-opacity:1"
       d="m 4.134629,28.074236 9,-8"
       id="path5709"
       inkscape:connector-curvature="0"
       transform="translate(-69.134629,27.925761)" />
  </g>
</svg>
