<?xml version="1.0" encoding="UTF-8" standalone="no"?>
<!-- Created with Inkscape (http://www.inkscape.org/) -->

<svg
   xmlns:dc="http://purl.org/dc/elements/1.1/"
   xmlns:cc="http://creativecommons.org/ns#"
   xmlns:rdf="http://www.w3.org/1999/02/22-rdf-syntax-ns#"
   xmlns:svg="http://www.w3.org/2000/svg"
   xmlns="http://www.w3.org/2000/svg"
   xmlns:sodipodi="http://sodipodi.sourceforge.net/DTD/sodipodi-0.dtd"
   xmlns:inkscape="http://www.inkscape.org/namespaces/inkscape"
   width="60.200001"
   height="66.199997"
   id="svg4187"
   version="1.1"
   inkscape:version="0.48.3.1 r9886"
   sodipodi:docname="fig20.svg">
  <defs
     id="defs4189" />
  <sodipodi:namedview
     id="base"
     pagecolor="#ffffff"
     bordercolor="#666666"
     borderopacity="1.0"
     inkscape:pageopacity="0.0"
     inkscape:pageshadow="2"
     inkscape:zoom="5.598901"
     inkscape:cx="37.385431"
     inkscape:cy="31.72641"
     inkscape:current-layer="layer1"
     showgrid="true"
     inkscape:grid-bbox="true"
     inkscape:document-units="px"
     fit-margin-top="0"
     fit-margin-left="0"
     fit-margin-right="0"
     fit-margin-bottom="0"
     inkscape:window-width="1024"
     inkscape:window-height="744"
     inkscape:window-x="0"
     inkscape:window-y="0"
     inkscape:window-maximized="1">
    <inkscape:grid
       type="xygrid"
       id="grid4195"
       empspacing="5"
       visible="true"
       enabled="true"
       snapvisiblegridlinesonly="true"
       originx="-1.9px"
       originy="34.1px" />
  </sodipodi:namedview>
  <metadata
     id="metadata4192">
    <rdf:RDF>
      <cc:Work
         rdf:about="">
        <dc:format>image/svg+xml</dc:format>
        <dc:type
           rdf:resource="http://purl.org/dc/dcmitype/StillImage" />
        <dc:title />
      </cc:Work>
    </rdf:RDF>
  </metadata>
  <g
     id="layer1"
     inkscape:label="Layer 1"
     inkscape:groupmode="layer"
     transform="translate(-1.9,0.1)">
    <rect
       style="fill:#ffffff;fill-opacity:1;stroke:#000000;stroke-width:0.45;stroke-miterlimit:4;stroke-opacity:1;stroke-dasharray:none"
       id="rect4231"
       width="16"
       height="14"
       x="2"
       y="0" />
    <path
       sodipodi:type="arc"
       style="fill:#ff0000;fill-opacity:1;stroke:#000000;stroke-width:0.45;stroke-miterlimit:4;stroke-opacity:1;stroke-dasharray:none"
       id="path4197"
       sodipodi:cx="5"
       sodipodi:cy="2"
       sodipodi:rx="1"
       sodipodi:ry="1"
       d="M 6,2 C 6,2.5522847 5.5522847,3 5,3 4.4477153,3 4,2.5522847 4,2 4,1.4477153 4.4477153,1 5,1 5.5522847,1 6,1.4477153 6,2 z" />
    <path
       transform="translate(10,0)"
       sodipodi:type="arc"
       style="fill:#ff0000;fill-opacity:1;stroke:#000000;stroke-width:0.45;stroke-miterlimit:4;stroke-opacity:1;stroke-dasharray:none"
       id="path4197-5"
       sodipodi:cx="5"
       sodipodi:cy="2"
       sodipodi:rx="1"
       sodipodi:ry="1"
       d="M 6,2 C 6,2.5522847 5.5522847,3 5,3 4.4477153,3 4,2.5522847 4,2 4,1.4477153 4.4477153,1 5,1 5.5522847,1 6,1.4477153 6,2 z" />
    <path
       transform="translate(0,10)"
       sodipodi:type="arc"
       style="fill:#ff0000;fill-opacity:1;stroke:#000000;stroke-width:0.45;stroke-miterlimit:4;stroke-opacity:1;stroke-dasharray:none"
       id="path4197-0"
       sodipodi:cx="5"
       sodipodi:cy="2"
       sodipodi:rx="1"
       sodipodi:ry="1"
       d="M 6,2 C 6,2.5522847 5.5522847,3 5,3 4.4477153,3 4,2.5522847 4,2 4,1.4477153 4.4477153,1 5,1 5.5522847,1 6,1.4477153 6,2 z" />
    <path
       transform="translate(10,10)"
       sodipodi:type="arc"
       style="fill:#ff0000;fill-opacity:1;stroke:#000000;stroke-width:0.45;stroke-miterlimit:4;stroke-opacity:1;stroke-dasharray:none"
       id="path4197-8"
       sodipodi:cx="5"
       sodipodi:cy="2"
       sodipodi:rx="1"
       sodipodi:ry="1"
       d="M 6,2 C 6,2.5522847 5.5522847,3 5,3 4.4477153,3 4,2.5522847 4,2 4,1.4477153 4.4477153,1 5,1 5.5522847,1 6,1.4477153 6,2 z" />
    <rect
       style="fill:#ffffff;fill-opacity:1;stroke:#000000;stroke-width:0.45;stroke-miterlimit:4;stroke-opacity:1;stroke-dasharray:none"
       id="rect4231-1"
       width="16"
       height="14"
       x="25"
       y="1.4901147e-09" />
    <path
       transform="translate(23,0)"
       sodipodi:type="arc"
       style="fill:#ff0000;fill-opacity:1;stroke:#000000;stroke-width:0.45;stroke-miterlimit:4;stroke-opacity:1;stroke-dasharray:none"
       id="path4197-3"
       sodipodi:cx="5"
       sodipodi:cy="2"
       sodipodi:rx="1"
       sodipodi:ry="1"
       d="M 6,2 C 6,2.5522847 5.5522847,3 5,3 4.4477153,3 4,2.5522847 4,2 4,1.4477153 4.4477153,1 5,1 5.5522847,1 6,1.4477153 6,2 z" />
    <path
       transform="translate(33,0)"
       sodipodi:type="arc"
       style="fill:#ff0000;fill-opacity:1;stroke:#000000;stroke-width:0.45;stroke-miterlimit:4;stroke-opacity:1;stroke-dasharray:none"
       id="path4197-5-5"
       sodipodi:cx="5"
       sodipodi:cy="2"
       sodipodi:rx="1"
       sodipodi:ry="1"
       d="M 6,2 C 6,2.5522847 5.5522847,3 5,3 4.4477153,3 4,2.5522847 4,2 4,1.4477153 4.4477153,1 5,1 5.5522847,1 6,1.4477153 6,2 z" />
    <path
       transform="translate(23,10)"
       sodipodi:type="arc"
       style="fill:#ff0000;fill-opacity:1;stroke:#000000;stroke-width:0.45;stroke-miterlimit:4;stroke-opacity:1;stroke-dasharray:none"
       id="path4197-0-8"
       sodipodi:cx="5"
       sodipodi:cy="2"
       sodipodi:rx="1"
       sodipodi:ry="1"
       d="M 6,2 C 6,2.5522847 5.5522847,3 5,3 4.4477153,3 4,2.5522847 4,2 4,1.4477153 4.4477153,1 5,1 5.5522847,1 6,1.4477153 6,2 z" />
    <path
       transform="translate(33,10)"
       sodipodi:type="arc"
       style="fill:#ff0000;fill-opacity:1;stroke:#000000;stroke-width:0.45;stroke-miterlimit:4;stroke-opacity:1;stroke-dasharray:none"
       id="path4197-8-3"
       sodipodi:cx="5"
       sodipodi:cy="2"
       sodipodi:rx="1"
       sodipodi:ry="1"
       d="M 6,2 C 6,2.5522847 5.5522847,3 5,3 4.4477153,3 4,2.5522847 4,2 4,1.4477153 4.4477153,1 5,1 5.5522847,1 6,1.4477153 6,2 z" />
    <rect
       style="fill:#ffffff;fill-opacity:1;stroke:#000000;stroke-width:0.45;stroke-miterlimit:4;stroke-opacity:1;stroke-dasharray:none"
       id="rect4231-6"
       width="16"
       height="14"
       x="2"
       y="17" />
    <path
       transform="translate(0,17)"
       sodipodi:type="arc"
       style="fill:#ff0000;fill-opacity:1;stroke:#000000;stroke-width:0.45;stroke-miterlimit:4;stroke-opacity:1;stroke-dasharray:none"
       id="path4197-1"
       sodipodi:cx="5"
       sodipodi:cy="2"
       sodipodi:rx="1"
       sodipodi:ry="1"
       d="M 6,2 C 6,2.5522847 5.5522847,3 5,3 4.4477153,3 4,2.5522847 4,2 4,1.4477153 4.4477153,1 5,1 5.5522847,1 6,1.4477153 6,2 z" />
    <path
       transform="translate(10,17)"
       sodipodi:type="arc"
       style="fill:#ff0000;fill-opacity:1;stroke:#000000;stroke-width:0.45;stroke-miterlimit:4;stroke-opacity:1;stroke-dasharray:none"
       id="path4197-5-1"
       sodipodi:cx="5"
       sodipodi:cy="2"
       sodipodi:rx="1"
       sodipodi:ry="1"
       d="M 6,2 C 6,2.5522847 5.5522847,3 5,3 4.4477153,3 4,2.5522847 4,2 4,1.4477153 4.4477153,1 5,1 5.5522847,1 6,1.4477153 6,2 z" />
    <path
       transform="translate(0,27)"
       sodipodi:type="arc"
       style="fill:#ff0000;fill-opacity:1;stroke:#000000;stroke-width:0.45;stroke-miterlimit:4;stroke-opacity:1;stroke-dasharray:none"
       id="path4197-0-3"
       sodipodi:cx="5"
       sodipodi:cy="2"
       sodipodi:rx="1"
       sodipodi:ry="1"
       d="M 6,2 C 6,2.5522847 5.5522847,3 5,3 4.4477153,3 4,2.5522847 4,2 4,1.4477153 4.4477153,1 5,1 5.5522847,1 6,1.4477153 6,2 z" />
    <path
       transform="translate(10,27)"
       sodipodi:type="arc"
       style="fill:#ff0000;fill-opacity:1;stroke:#000000;stroke-width:0.45;stroke-miterlimit:4;stroke-opacity:1;stroke-dasharray:none"
       id="path4197-8-0"
       sodipodi:cx="5"
       sodipodi:cy="2"
       sodipodi:rx="1"
       sodipodi:ry="1"
       d="M 6,2 C 6,2.5522847 5.5522847,3 5,3 4.4477153,3 4,2.5522847 4,2 4,1.4477153 4.4477153,1 5,1 5.5522847,1 6,1.4477153 6,2 z" />
    <rect
       style="fill:#ffffff;fill-opacity:1;stroke:#000000;stroke-width:0.45;stroke-miterlimit:4;stroke-opacity:1;stroke-dasharray:none"
       id="rect4231-9"
       width="16"
       height="14"
       x="25"
       y="17" />
    <path
       transform="translate(23,17)"
       sodipodi:type="arc"
       style="fill:#ff0000;fill-opacity:1;stroke:#000000;stroke-width:0.45;stroke-miterlimit:4;stroke-opacity:1;stroke-dasharray:none"
       id="path4197-00"
       sodipodi:cx="5"
       sodipodi:cy="2"
       sodipodi:rx="1"
       sodipodi:ry="1"
       d="M 6,2 C 6,2.5522847 5.5522847,3 5,3 4.4477153,3 4,2.5522847 4,2 4,1.4477153 4.4477153,1 5,1 5.5522847,1 6,1.4477153 6,2 z" />
    <path
       transform="translate(33,17)"
       sodipodi:type="arc"
       style="fill:#ff0000;fill-opacity:1;stroke:#000000;stroke-width:0.45;stroke-miterlimit:4;stroke-opacity:1;stroke-dasharray:none"
       id="path4197-5-6"
       sodipodi:cx="5"
       sodipodi:cy="2"
       sodipodi:rx="1"
       sodipodi:ry="1"
       d="M 6,2 C 6,2.5522847 5.5522847,3 5,3 4.4477153,3 4,2.5522847 4,2 4,1.4477153 4.4477153,1 5,1 5.5522847,1 6,1.4477153 6,2 z" />
    <path
       transform="translate(23,27)"
       sodipodi:type="arc"
       style="fill:#ff0000;fill-opacity:1;stroke:#000000;stroke-width:0.45;stroke-miterlimit:4;stroke-opacity:1;stroke-dasharray:none"
       id="path4197-0-1"
       sodipodi:cx="5"
       sodipodi:cy="2"
       sodipodi:rx="1"
       sodipodi:ry="1"
       d="M 6,2 C 6,2.5522847 5.5522847,3 5,3 4.4477153,3 4,2.5522847 4,2 4,1.4477153 4.4477153,1 5,1 5.5522847,1 6,1.4477153 6,2 z" />
    <path
       transform="translate(33,27)"
       sodipodi:type="arc"
       style="fill:#ff0000;fill-opacity:1;stroke:#000000;stroke-width:0.45;stroke-miterlimit:4;stroke-opacity:1;stroke-dasharray:none"
       id="path4197-8-6"
       sodipodi:cx="5"
       sodipodi:cy="2"
       sodipodi:rx="1"
       sodipodi:ry="1"
       d="M 6,2 C 6,2.5522847 5.5522847,3 5,3 4.4477153,3 4,2.5522847 4,2 4,1.4477153 4.4477153,1 5,1 5.5522847,1 6,1.4477153 6,2 z" />
    <path
       style="fill:none;stroke:#000000;stroke-width:0.45;stroke-linecap:butt;stroke-linejoin:miter;stroke-opacity:1;stroke-miterlimit:4;stroke-dasharray:none"
       d="m 28,2 9,0"
       id="path5061"
       inkscape:connector-curvature="0" />
    <path
       style="fill:none;stroke:#000000;stroke-width:0.45;stroke-linecap:butt;stroke-linejoin:miter;stroke-opacity:1;stroke-miterlimit:4;stroke-dasharray:none"
       d="m 6,19 8,0"
       id="path5063"
       inkscape:connector-curvature="0" />
    <path
       style="fill:none;stroke:#000000;stroke-width:0.45;stroke-linecap:butt;stroke-linejoin:miter;stroke-opacity:1;stroke-miterlimit:4;stroke-dasharray:none"
       d="m 6,29 8,0"
       id="path5065"
       inkscape:connector-curvature="0" />
    <path
       style="fill:none;stroke:#000000;stroke-width:0.45;stroke-linecap:butt;stroke-linejoin:miter;stroke-opacity:1;stroke-miterlimit:4;stroke-dasharray:none"
       d="m 28,20 0,8"
       id="path5067"
       inkscape:connector-curvature="0" />
    <path
       style="fill:none;stroke:#000000;stroke-width:0.45;stroke-linecap:butt;stroke-linejoin:miter;stroke-opacity:1;stroke-miterlimit:4;stroke-dasharray:none"
       d="m 29,19 8,0"
       id="path5069"
       inkscape:connector-curvature="0" />
    <path
       style="fill:none;stroke:#000000;stroke-width:0.45;stroke-linecap:butt;stroke-linejoin:miter;stroke-opacity:1;stroke-miterlimit:4;stroke-dasharray:none"
       d="m 38,20 0,8"
       id="path5071"
       inkscape:connector-curvature="0" />
    <rect
       style="fill:#ffffff;fill-opacity:1;stroke:#000000;stroke-width:0.45;stroke-miterlimit:4;stroke-opacity:1;stroke-dasharray:none"
       id="rect4231-96"
       width="16"
       height="14"
       x="2"
       y="35" />
    <path
       transform="translate(0,35)"
       sodipodi:type="arc"
       style="fill:#ff0000;fill-opacity:1;stroke:#000000;stroke-width:0.45;stroke-miterlimit:4;stroke-opacity:1;stroke-dasharray:none"
       id="path4197-50"
       sodipodi:cx="5"
       sodipodi:cy="2"
       sodipodi:rx="1"
       sodipodi:ry="1"
       d="M 6,2 C 6,2.5522847 5.5522847,3 5,3 4.4477153,3 4,2.5522847 4,2 4,1.4477153 4.4477153,1 5,1 5.5522847,1 6,1.4477153 6,2 z" />
    <path
       transform="translate(10,35)"
       sodipodi:type="arc"
       style="fill:#ff0000;fill-opacity:1;stroke:#000000;stroke-width:0.45;stroke-miterlimit:4;stroke-opacity:1;stroke-dasharray:none"
       id="path4197-5-3"
       sodipodi:cx="5"
       sodipodi:cy="2"
       sodipodi:rx="1"
       sodipodi:ry="1"
       d="M 6,2 C 6,2.5522847 5.5522847,3 5,3 4.4477153,3 4,2.5522847 4,2 4,1.4477153 4.4477153,1 5,1 5.5522847,1 6,1.4477153 6,2 z" />
    <path
       transform="translate(0,45)"
       sodipodi:type="arc"
       style="fill:#ff0000;fill-opacity:1;stroke:#000000;stroke-width:0.45;stroke-miterlimit:4;stroke-opacity:1;stroke-dasharray:none"
       id="path4197-0-2"
       sodipodi:cx="5"
       sodipodi:cy="2"
       sodipodi:rx="1"
       sodipodi:ry="1"
       d="M 6,2 C 6,2.5522847 5.5522847,3 5,3 4.4477153,3 4,2.5522847 4,2 4,1.4477153 4.4477153,1 5,1 5.5522847,1 6,1.4477153 6,2 z" />
    <path
       transform="translate(10,45)"
       sodipodi:type="arc"
       style="fill:#ff0000;fill-opacity:1;stroke:#000000;stroke-width:0.45;stroke-miterlimit:4;stroke-opacity:1;stroke-dasharray:none"
       id="path4197-8-1"
       sodipodi:cx="5"
       sodipodi:cy="2"
       sodipodi:rx="1"
       sodipodi:ry="1"
       d="M 6,2 C 6,2.5522847 5.5522847,3 5,3 4.4477153,3 4,2.5522847 4,2 4,1.4477153 4.4477153,1 5,1 5.5522847,1 6,1.4477153 6,2 z" />
    <path
       style="fill:none;stroke:#000000;stroke-width:0.45;stroke-linecap:butt;stroke-linejoin:miter;stroke-opacity:1;stroke-miterlimit:4;stroke-dasharray:none"
       d="m 6,37 8,0"
       id="path5088"
       inkscape:connector-curvature="0" />
    <path
       style="fill:none;stroke:#000000;stroke-width:0.45;stroke-linecap:butt;stroke-linejoin:miter;stroke-opacity:1;stroke-miterlimit:4;stroke-dasharray:none"
       d="M 14,38 6,46"
       id="path5090"
       inkscape:connector-curvature="0" />
    <path
       style="fill:none;stroke:#000000;stroke-width:0.45;stroke-linecap:butt;stroke-linejoin:miter;stroke-opacity:1;stroke-miterlimit:4;stroke-dasharray:none"
       d="M 5,46 5,38"
       id="path5092"
       inkscape:connector-curvature="0" />
    <rect
       style="fill:#ffffff;fill-opacity:1;stroke:#000000;stroke-width:0.45;stroke-miterlimit:4;stroke-opacity:1;stroke-dasharray:none"
       id="rect4231-5"
       width="16"
       height="14"
       x="25"
       y="35" />
    <path
       transform="translate(23,35)"
       sodipodi:type="arc"
       style="fill:#ff0000;fill-opacity:1;stroke:#000000;stroke-width:0.45;stroke-miterlimit:4;stroke-opacity:1;stroke-dasharray:none"
       id="path4197-4"
       sodipodi:cx="5"
       sodipodi:cy="2"
       sodipodi:rx="1"
       sodipodi:ry="1"
       d="M 6,2 C 6,2.5522847 5.5522847,3 5,3 4.4477153,3 4,2.5522847 4,2 4,1.4477153 4.4477153,1 5,1 5.5522847,1 6,1.4477153 6,2 z" />
    <path
       transform="translate(33,35)"
       sodipodi:type="arc"
       style="fill:#ff0000;fill-opacity:1;stroke:#000000;stroke-width:0.45;stroke-miterlimit:4;stroke-opacity:1;stroke-dasharray:none"
       id="path4197-5-8"
       sodipodi:cx="5"
       sodipodi:cy="2"
       sodipodi:rx="1"
       sodipodi:ry="1"
       d="M 6,2 C 6,2.5522847 5.5522847,3 5,3 4.4477153,3 4,2.5522847 4,2 4,1.4477153 4.4477153,1 5,1 5.5522847,1 6,1.4477153 6,2 z" />
    <path
       transform="translate(23,45)"
       sodipodi:type="arc"
       style="fill:#ff0000;fill-opacity:1;stroke:#000000;stroke-width:0.45;stroke-miterlimit:4;stroke-opacity:1;stroke-dasharray:none"
       id="path4197-0-0"
       sodipodi:cx="5"
       sodipodi:cy="2"
       sodipodi:rx="1"
       sodipodi:ry="1"
       d="M 6,2 C 6,2.5522847 5.5522847,3 5,3 4.4477153,3 4,2.5522847 4,2 4,1.4477153 4.4477153,1 5,1 5.5522847,1 6,1.4477153 6,2 z" />
    <path
       transform="translate(33,45)"
       sodipodi:type="arc"
       style="fill:#ff0000;fill-opacity:1;stroke:#000000;stroke-width:0.45;stroke-miterlimit:4;stroke-opacity:1;stroke-dasharray:none"
       id="path4197-8-8"
       sodipodi:cx="5"
       sodipodi:cy="2"
       sodipodi:rx="1"
       sodipodi:ry="1"
       d="M 6,2 C 6,2.5522847 5.5522847,3 5,3 4.4477153,3 4,2.5522847 4,2 4,1.4477153 4.4477153,1 5,1 5.5522847,1 6,1.4477153 6,2 z" />
    <path
       style="fill:none;stroke:#000000;stroke-width:0.45;stroke-linecap:butt;stroke-linejoin:miter;stroke-opacity:1;stroke-miterlimit:4;stroke-dasharray:none"
       d="m 28,46 0,-8"
       id="path5109"
       inkscape:connector-curvature="0" />
    <path
       style="fill:none;stroke:#000000;stroke-width:0.45;stroke-linecap:butt;stroke-linejoin:miter;stroke-opacity:1;stroke-miterlimit:4;stroke-dasharray:none"
       d="m 29,37 8,0"
       id="path5111"
       inkscape:connector-curvature="0" />
    <path
       style="fill:none;stroke:#000000;stroke-width:0.45;stroke-linecap:butt;stroke-linejoin:miter;stroke-opacity:1;stroke-miterlimit:4;stroke-dasharray:none"
       d="m 38,38 0,8"
       id="path5113"
       inkscape:connector-curvature="0" />
    <path
       style="fill:none;stroke:#000000;stroke-width:0.45;stroke-linecap:butt;stroke-linejoin:miter;stroke-opacity:1;stroke-miterlimit:4;stroke-dasharray:none"
       d="m 37,47 -8,0"
       id="path5115"
       inkscape:connector-curvature="0" />
    <rect
       style="fill:#ffffff;fill-opacity:1;stroke:#000000;stroke-width:0.45;stroke-miterlimit:4;stroke-opacity:1;stroke-dasharray:none"
       id="rect4231-2"
       width="16"
       height="14"
       x="46"
       y="1.4901147e-09" />
    <path
       transform="translate(44,0)"
       sodipodi:type="arc"
       style="fill:#ff0000;fill-opacity:1;stroke:#000000;stroke-width:0.45;stroke-miterlimit:4;stroke-opacity:1;stroke-dasharray:none"
       id="path4197-2"
       sodipodi:cx="5"
       sodipodi:cy="2"
       sodipodi:rx="1"
       sodipodi:ry="1"
       d="M 6,2 C 6,2.5522847 5.5522847,3 5,3 4.4477153,3 4,2.5522847 4,2 4,1.4477153 4.4477153,1 5,1 5.5522847,1 6,1.4477153 6,2 z" />
    <path
       transform="translate(54,0)"
       sodipodi:type="arc"
       style="fill:#ff0000;fill-opacity:1;stroke:#000000;stroke-width:0.45;stroke-miterlimit:4;stroke-opacity:1;stroke-dasharray:none"
       id="path4197-5-87"
       sodipodi:cx="5"
       sodipodi:cy="2"
       sodipodi:rx="1"
       sodipodi:ry="1"
       d="M 6,2 C 6,2.5522847 5.5522847,3 5,3 4.4477153,3 4,2.5522847 4,2 4,1.4477153 4.4477153,1 5,1 5.5522847,1 6,1.4477153 6,2 z" />
    <path
       transform="translate(44,10)"
       sodipodi:type="arc"
       style="fill:#ff0000;fill-opacity:1;stroke:#000000;stroke-width:0.45;stroke-miterlimit:4;stroke-opacity:1;stroke-dasharray:none"
       id="path4197-0-21"
       sodipodi:cx="5"
       sodipodi:cy="2"
       sodipodi:rx="1"
       sodipodi:ry="1"
       d="M 6,2 C 6,2.5522847 5.5522847,3 5,3 4.4477153,3 4,2.5522847 4,2 4,1.4477153 4.4477153,1 5,1 5.5522847,1 6,1.4477153 6,2 z" />
    <path
       transform="translate(54,10)"
       sodipodi:type="arc"
       style="fill:#ff0000;fill-opacity:1;stroke:#000000;stroke-width:0.45;stroke-miterlimit:4;stroke-opacity:1;stroke-dasharray:none"
       id="path4197-8-5"
       sodipodi:cx="5"
       sodipodi:cy="2"
       sodipodi:rx="1"
       sodipodi:ry="1"
       d="M 6,2 C 6,2.5522847 5.5522847,3 5,3 4.4477153,3 4,2.5522847 4,2 4,1.4477153 4.4477153,1 5,1 5.5522847,1 6,1.4477153 6,2 z" />
    <rect
       style="fill:#ffffff;fill-opacity:1;stroke:#000000;stroke-width:0.45;stroke-miterlimit:4;stroke-opacity:1;stroke-dasharray:none"
       id="rect4231-4"
       width="16"
       height="14"
       x="46"
       y="17" />
    <path
       transform="translate(44,17)"
       sodipodi:type="arc"
       style="fill:#ff0000;fill-opacity:1;stroke:#000000;stroke-width:0.45;stroke-miterlimit:4;stroke-opacity:1;stroke-dasharray:none"
       id="path4197-9"
       sodipodi:cx="5"
       sodipodi:cy="2"
       sodipodi:rx="1"
       sodipodi:ry="1"
       d="M 6,2 C 6,2.5522847 5.5522847,3 5,3 4.4477153,3 4,2.5522847 4,2 4,1.4477153 4.4477153,1 5,1 5.5522847,1 6,1.4477153 6,2 z" />
    <path
       transform="translate(54,17)"
       sodipodi:type="arc"
       style="fill:#ff0000;fill-opacity:1;stroke:#000000;stroke-width:0.45;stroke-miterlimit:4;stroke-opacity:1;stroke-dasharray:none"
       id="path4197-5-9"
       sodipodi:cx="5"
       sodipodi:cy="2"
       sodipodi:rx="1"
       sodipodi:ry="1"
       d="M 6,2 C 6,2.5522847 5.5522847,3 5,3 4.4477153,3 4,2.5522847 4,2 4,1.4477153 4.4477153,1 5,1 5.5522847,1 6,1.4477153 6,2 z" />
    <path
       transform="translate(44,27)"
       sodipodi:type="arc"
       style="fill:#ff0000;fill-opacity:1;stroke:#000000;stroke-width:0.45;stroke-miterlimit:4;stroke-opacity:1;stroke-dasharray:none"
       id="path4197-0-5"
       sodipodi:cx="5"
       sodipodi:cy="2"
       sodipodi:rx="1"
       sodipodi:ry="1"
       d="M 6,2 C 6,2.5522847 5.5522847,3 5,3 4.4477153,3 4,2.5522847 4,2 4,1.4477153 4.4477153,1 5,1 5.5522847,1 6,1.4477153 6,2 z" />
    <path
       transform="translate(54,27)"
       sodipodi:type="arc"
       style="fill:#ff0000;fill-opacity:1;stroke:#000000;stroke-width:0.45;stroke-miterlimit:4;stroke-opacity:1;stroke-dasharray:none"
       id="path4197-8-60"
       sodipodi:cx="5"
       sodipodi:cy="2"
       sodipodi:rx="1"
       sodipodi:ry="1"
       d="M 6,2 C 6,2.5522847 5.5522847,3 5,3 4.4477153,3 4,2.5522847 4,2 4,1.4477153 4.4477153,1 5,1 5.5522847,1 6,1.4477153 6,2 z" />
    <path
       style="fill:none;stroke:#000000;stroke-width:0.45;stroke-linecap:butt;stroke-linejoin:miter;stroke-opacity:1;stroke-miterlimit:4;stroke-dasharray:none"
       d="m 49,3 0,8"
       id="path5147"
       inkscape:connector-curvature="0" />
    <path
       style="fill:none;stroke:#000000;stroke-width:0.45;stroke-linecap:butt;stroke-linejoin:miter;stroke-opacity:1;stroke-miterlimit:4;stroke-dasharray:none"
       d="m 50,12 8,0"
       id="path5149"
       inkscape:connector-curvature="0" />
    <path
       style="fill:none;stroke:#000000;stroke-width:0.45;stroke-linecap:butt;stroke-linejoin:miter;stroke-opacity:1;stroke-miterlimit:4;stroke-dasharray:none"
       d="M 59,11 59,3"
       id="path5151"
       inkscape:connector-curvature="0" />
    <path
       style="fill:none;stroke:#000000;stroke-width:0.45;stroke-linecap:butt;stroke-linejoin:miter;stroke-opacity:1;stroke-miterlimit:4;stroke-dasharray:none"
       d="M 58,2 50,2"
       id="path5153"
       inkscape:connector-curvature="0" />
    <path
       style="fill:none;stroke:#000000;stroke-width:0.45;stroke-linecap:butt;stroke-linejoin:miter;stroke-opacity:1;stroke-miterlimit:4;stroke-dasharray:none"
       d="m 50,3 8,8"
       id="path5155"
       inkscape:connector-curvature="0" />
    <path
       style="fill:none;stroke:#000000;stroke-width:0.45;stroke-linecap:butt;stroke-linejoin:miter;stroke-opacity:1;stroke-miterlimit:4;stroke-dasharray:none"
       d="m 50,19 8,0"
       id="path5157"
       inkscape:connector-curvature="0" />
    <path
       style="fill:none;stroke:#000000;stroke-width:0.45;stroke-linecap:butt;stroke-linejoin:miter;stroke-opacity:1;stroke-miterlimit:4;stroke-dasharray:none"
       d="m 59,20 0,8"
       id="path5159"
       inkscape:connector-curvature="0" />
    <path
       style="fill:none;stroke:#000000;stroke-width:0.45;stroke-linecap:butt;stroke-linejoin:miter;stroke-opacity:1;stroke-miterlimit:4;stroke-dasharray:none"
       d="m 58,29 -8,0"
       id="path5161"
       inkscape:connector-curvature="0" />
    <path
       style="fill:none;stroke:#000000;stroke-width:0.45;stroke-linecap:butt;stroke-linejoin:miter;stroke-opacity:1;stroke-miterlimit:4;stroke-dasharray:none"
       d="m 49,28 0,-8"
       id="path5163"
       inkscape:connector-curvature="0" />
    <path
       style="fill:none;stroke:#000000;stroke-width:0.45;stroke-linecap:butt;stroke-linejoin:miter;stroke-opacity:1;stroke-miterlimit:4;stroke-dasharray:none"
       d="m 50,20 8,8"
       id="path5165"
       inkscape:connector-curvature="0" />
    <path
       style="fill:none;stroke:#000000;stroke-width:0.45;stroke-linecap:butt;stroke-linejoin:miter;stroke-opacity:1;stroke-miterlimit:4;stroke-dasharray:none"
       d="m 58,20 -8,8"
       id="path5167"
       inkscape:connector-curvature="0" />
    <rect
       style="fill:#ffffff;fill-opacity:1;stroke:#000000;stroke-width:0.45;stroke-miterlimit:4;stroke-opacity:1;stroke-dasharray:none"
       id="rect4231-8"
       width="16"
       height="14"
       x="46"
       y="35" />
    <path
       transform="translate(44,35)"
       sodipodi:type="arc"
       style="fill:#ff0000;fill-opacity:1;stroke:#000000;stroke-width:0.45;stroke-miterlimit:4;stroke-opacity:1;stroke-dasharray:none"
       id="path4197-99"
       sodipodi:cx="5"
       sodipodi:cy="2"
       sodipodi:rx="1"
       sodipodi:ry="1"
       d="M 6,2 C 6,2.5522847 5.5522847,3 5,3 4.4477153,3 4,2.5522847 4,2 4,1.4477153 4.4477153,1 5,1 5.5522847,1 6,1.4477153 6,2 z" />
    <path
       transform="translate(54,35)"
       sodipodi:type="arc"
       style="fill:#ff0000;fill-opacity:1;stroke:#000000;stroke-width:0.45;stroke-miterlimit:4;stroke-opacity:1;stroke-dasharray:none"
       id="path4197-5-35"
       sodipodi:cx="5"
       sodipodi:cy="2"
       sodipodi:rx="1"
       sodipodi:ry="1"
       d="M 6,2 C 6,2.5522847 5.5522847,3 5,3 4.4477153,3 4,2.5522847 4,2 4,1.4477153 4.4477153,1 5,1 5.5522847,1 6,1.4477153 6,2 z" />
    <path
       transform="translate(44,45)"
       sodipodi:type="arc"
       style="fill:#ff0000;fill-opacity:1;stroke:#000000;stroke-width:0.45;stroke-miterlimit:4;stroke-opacity:1;stroke-dasharray:none"
       id="path4197-0-53"
       sodipodi:cx="5"
       sodipodi:cy="2"
       sodipodi:rx="1"
       sodipodi:ry="1"
       d="M 6,2 C 6,2.5522847 5.5522847,3 5,3 4.4477153,3 4,2.5522847 4,2 4,1.4477153 4.4477153,1 5,1 5.5522847,1 6,1.4477153 6,2 z" />
    <path
       transform="translate(54,45)"
       sodipodi:type="arc"
       style="fill:#ff0000;fill-opacity:1;stroke:#000000;stroke-width:0.45;stroke-miterlimit:4;stroke-opacity:1;stroke-dasharray:none"
       id="path4197-8-61"
       sodipodi:cx="5"
       sodipodi:cy="2"
       sodipodi:rx="1"
       sodipodi:ry="1"
       d="M 6,2 C 6,2.5522847 5.5522847,3 5,3 4.4477153,3 4,2.5522847 4,2 4,1.4477153 4.4477153,1 5,1 5.5522847,1 6,1.4477153 6,2 z" />
    <path
       style="fill:none;stroke:#000000;stroke-width:0.45;stroke-linecap:butt;stroke-linejoin:miter;stroke-opacity:1;stroke-miterlimit:4;stroke-dasharray:none"
       d="m 58,37 -8,0"
       id="path5184"
       inkscape:connector-curvature="0" />
    <path
       style="fill:none;stroke:#000000;stroke-width:0.45;stroke-linecap:butt;stroke-linejoin:miter;stroke-opacity:1;stroke-miterlimit:4;stroke-dasharray:none"
       d="m 49,38 0,8"
       id="path5186"
       inkscape:connector-curvature="0" />
    <path
       style="fill:none;stroke:#000000;stroke-width:0.45;stroke-linecap:butt;stroke-linejoin:miter;stroke-opacity:1;stroke-miterlimit:4;stroke-dasharray:none"
       d="m 59,38 0,8"
       id="path5188"
       inkscape:connector-curvature="0" />
    <path
       style="fill:none;stroke:#000000;stroke-width:0.45;stroke-linecap:butt;stroke-linejoin:miter;stroke-opacity:1;stroke-miterlimit:4;stroke-dasharray:none"
       d="M 58,46 50,38"
       id="path5190"
       inkscape:connector-curvature="0"
       sodipodi:nodetypes="cc" />
    <rect
       style="fill:#ffffff;fill-opacity:1;stroke:#000000;stroke-width:0.45;stroke-miterlimit:4;stroke-opacity:1;stroke-dasharray:none"
       id="rect4231-43"
       width="16"
       height="14"
       x="2"
       y="52" />
    <path
       transform="translate(0,52)"
       sodipodi:type="arc"
       style="fill:#ff0000;fill-opacity:1;stroke:#000000;stroke-width:0.45;stroke-miterlimit:4;stroke-opacity:1;stroke-dasharray:none"
       id="path4197-01"
       sodipodi:cx="5"
       sodipodi:cy="2"
       sodipodi:rx="1"
       sodipodi:ry="1"
       d="M 6,2 C 6,2.5522847 5.5522847,3 5,3 4.4477153,3 4,2.5522847 4,2 4,1.4477153 4.4477153,1 5,1 5.5522847,1 6,1.4477153 6,2 z" />
    <path
       transform="translate(10,52)"
       sodipodi:type="arc"
       style="fill:#ff0000;fill-opacity:1;stroke:#000000;stroke-width:0.45;stroke-miterlimit:4;stroke-opacity:1;stroke-dasharray:none"
       id="path4197-5-54"
       sodipodi:cx="5"
       sodipodi:cy="2"
       sodipodi:rx="1"
       sodipodi:ry="1"
       d="M 6,2 C 6,2.5522847 5.5522847,3 5,3 4.4477153,3 4,2.5522847 4,2 4,1.4477153 4.4477153,1 5,1 5.5522847,1 6,1.4477153 6,2 z" />
    <path
       transform="translate(0,62)"
       sodipodi:type="arc"
       style="fill:#ff0000;fill-opacity:1;stroke:#000000;stroke-width:0.45;stroke-miterlimit:4;stroke-opacity:1;stroke-dasharray:none"
       id="path4197-0-54"
       sodipodi:cx="5"
       sodipodi:cy="2"
       sodipodi:rx="1"
       sodipodi:ry="1"
       d="M 6,2 C 6,2.5522847 5.5522847,3 5,3 4.4477153,3 4,2.5522847 4,2 4,1.4477153 4.4477153,1 5,1 5.5522847,1 6,1.4477153 6,2 z" />
    <path
       transform="translate(10,62)"
       sodipodi:type="arc"
       style="fill:#ff0000;fill-opacity:1;stroke:#000000;stroke-width:0.45;stroke-miterlimit:4;stroke-opacity:1;stroke-dasharray:none"
       id="path4197-8-03"
       sodipodi:cx="5"
       sodipodi:cy="2"
       sodipodi:rx="1"
       sodipodi:ry="1"
       d="M 6,2 C 6,2.5522847 5.5522847,3 5,3 4.4477153,3 4,2.5522847 4,2 4,1.4477153 4.4477153,1 5,1 5.5522847,1 6,1.4477153 6,2 z" />
    <path
       style="fill:none;stroke:#000000;stroke-width:0.45;stroke-linecap:butt;stroke-linejoin:miter;stroke-opacity:1;stroke-miterlimit:4;stroke-dasharray:none"
       d="m 5,55 0,8"
       id="path5285"
       inkscape:connector-curvature="0" />
    <path
       style="fill:none;stroke:#000000;stroke-width:0.45;stroke-linecap:butt;stroke-linejoin:miter;stroke-opacity:1;stroke-miterlimit:4;stroke-dasharray:none"
       d="m 6,54 8,0"
       id="path5287"
       inkscape:connector-curvature="0" />
    <path
       style="fill:none;stroke:#000000;stroke-width:0.45;stroke-linecap:butt;stroke-linejoin:miter;stroke-opacity:1;stroke-miterlimit:4;stroke-dasharray:none"
       d="m 6,55 8,8"
       id="path5289"
       inkscape:connector-curvature="0" />
    <rect
       style="fill:#ffffff;fill-opacity:1;stroke:#000000;stroke-width:0.45;stroke-miterlimit:4;stroke-opacity:1;stroke-dasharray:none"
       id="rect4231-3"
       width="16"
       height="14"
       x="46"
       y="52" />
    <path
       transform="translate(44,52)"
       sodipodi:type="arc"
       style="fill:#ff0000;fill-opacity:1;stroke:#000000;stroke-width:0.45;stroke-miterlimit:4;stroke-opacity:1;stroke-dasharray:none"
       id="path4197-29"
       sodipodi:cx="5"
       sodipodi:cy="2"
       sodipodi:rx="1"
       sodipodi:ry="1"
       d="M 6,2 C 6,2.5522847 5.5522847,3 5,3 4.4477153,3 4,2.5522847 4,2 4,1.4477153 4.4477153,1 5,1 5.5522847,1 6,1.4477153 6,2 z" />
    <path
       transform="translate(54,52)"
       sodipodi:type="arc"
       style="fill:#ff0000;fill-opacity:1;stroke:#000000;stroke-width:0.45;stroke-miterlimit:4;stroke-opacity:1;stroke-dasharray:none"
       id="path4197-5-4"
       sodipodi:cx="5"
       sodipodi:cy="2"
       sodipodi:rx="1"
       sodipodi:ry="1"
       d="M 6,2 C 6,2.5522847 5.5522847,3 5,3 4.4477153,3 4,2.5522847 4,2 4,1.4477153 4.4477153,1 5,1 5.5522847,1 6,1.4477153 6,2 z" />
    <path
       transform="translate(44,62)"
       sodipodi:type="arc"
       style="fill:#ff0000;fill-opacity:1;stroke:#000000;stroke-width:0.45;stroke-miterlimit:4;stroke-opacity:1;stroke-dasharray:none"
       id="path4197-0-7"
       sodipodi:cx="5"
       sodipodi:cy="2"
       sodipodi:rx="1"
       sodipodi:ry="1"
       d="M 6,2 C 6,2.5522847 5.5522847,3 5,3 4.4477153,3 4,2.5522847 4,2 4,1.4477153 4.4477153,1 5,1 5.5522847,1 6,1.4477153 6,2 z" />
    <path
       transform="translate(54,62)"
       sodipodi:type="arc"
       style="fill:#ff0000;fill-opacity:1;stroke:#000000;stroke-width:0.45;stroke-miterlimit:4;stroke-opacity:1;stroke-dasharray:none"
       id="path4197-8-9"
       sodipodi:cx="5"
       sodipodi:cy="2"
       sodipodi:rx="1"
       sodipodi:ry="1"
       d="M 6,2 C 6,2.5522847 5.5522847,3 5,3 4.4477153,3 4,2.5522847 4,2 4,1.4477153 4.4477153,1 5,1 5.5522847,1 6,1.4477153 6,2 z" />
    <path
       style="fill:none;stroke:#000000;stroke-width:0.45;stroke-linecap:butt;stroke-linejoin:miter;stroke-opacity:1;stroke-miterlimit:4;stroke-dasharray:none"
       d="m 49,55 0,8"
       id="path5306"
       inkscape:connector-curvature="0" />
    <path
       style="fill:none;stroke:#000000;stroke-width:0.45;stroke-linecap:butt;stroke-linejoin:miter;stroke-opacity:1;stroke-miterlimit:4;stroke-dasharray:none"
       d="m 50,54 8,0"
       id="path5308"
       inkscape:connector-curvature="0" />
  </g>
</svg>
