<?xml version="1.0" encoding="UTF-8" standalone="no"?>
<!DOCTYPE svg PUBLIC "-//W3C//DTD SVG 1.0//EN" "http://www.w3.org/TR/2001/PR-SVG-20010719/DTD/svg10.dtd">
<svg width="36cm" height="39cm" viewBox="-35 -263 718 778" xmlns="http://www.w3.org/2000/svg" xmlns:xlink="http://www.w3.org/1999/xlink">
  <g>
    <ellipse style="fill: #ffffff" cx="24.6061" cy="62.2384" rx="29.1124" ry="25.5133"/>
    <ellipse style="fill: none; fill-opacity:0; stroke-width: 2; stroke: #00ff00" cx="24.6061" cy="62.2384" rx="29.1124" ry="25.5133"/>
    <text font-size="12.7998" style="fill: #000000;text-anchor:middle;font-family:sans-serif;font-style:normal;font-weight:normal" x="24.6061" y="66.1384">
      <tspan x="24.6061" y="66.1384">0 / 0</tspan>
    </text>
  </g>
  <g>
    <ellipse style="fill: #ffffff" cx="87.8075" cy="-100.244" rx="29.1124" ry="25.5133"/>
    <ellipse style="fill: none; fill-opacity:0; stroke-width: 2; stroke: #00ff00" cx="87.8075" cy="-100.244" rx="29.1124" ry="25.5133"/>
    <text font-size="12.7998" style="fill: #000000;text-anchor:middle;font-family:sans-serif;font-style:normal;font-weight:normal" x="87.8075" y="-96.344">
      <tspan x="87.8075" y="-96.344">0 / 5</tspan>
    </text>
  </g>
  <g>
    <ellipse style="fill: #ffffff" cx="-4.34075" cy="238.09" rx="29.1124" ry="25.5133"/>
    <ellipse style="fill: none; fill-opacity:0; stroke-width: 2; stroke: #00ff00" cx="-4.34075" cy="238.09" rx="29.1124" ry="25.5133"/>
    <text font-size="12.7998" style="fill: #000000;text-anchor:middle;font-family:sans-serif;font-style:normal;font-weight:normal" x="-4.34075" y="241.99">
      <tspan x="-4.34075" y="241.99">3 / 0</tspan>
    </text>
  </g>
  <g>
    <ellipse style="fill: #ffffff" cx="163.268" cy="-189.829" rx="29.1124" ry="25.5133"/>
    <ellipse style="fill: none; fill-opacity:0; stroke-width: 2; stroke: #00ff00" cx="163.268" cy="-189.829" rx="29.1124" ry="25.5133"/>
    <text font-size="12.7998" style="fill: #000000;text-anchor:middle;font-family:sans-serif;font-style:normal;font-weight:normal" x="163.268" y="-185.929">
      <tspan x="163.268" y="-185.929">3 / 2</tspan>
    </text>
  </g>
  <g>
    <ellipse style="fill: #ffffff" cx="133.987" cy="330.609" rx="29.1124" ry="25.5133"/>
    <ellipse style="fill: none; fill-opacity:0; stroke-width: 2; stroke: #00ff00" cx="133.987" cy="330.609" rx="29.1124" ry="25.5133"/>
    <text font-size="12.7998" style="fill: #000000;text-anchor:middle;font-family:sans-serif;font-style:normal;font-weight:normal" x="133.987" y="334.509">
      <tspan x="133.987" y="334.509">0 / 3</tspan>
    </text>
  </g>
  <g>
    <ellipse style="fill: #ffffff" cx="427.854" cy="55.2794" rx="29.1124" ry="25.5133"/>
    <ellipse style="fill: none; fill-opacity:0; stroke-width: 2; stroke: #00ff00" cx="427.854" cy="55.2794" rx="29.1124" ry="25.5133"/>
    <text font-size="12.7998" style="fill: #000000;text-anchor:middle;font-family:sans-serif;font-style:normal;font-weight:normal" x="427.854" y="59.1794">
      <tspan x="427.854" y="59.1794">3 / 5</tspan>
    </text>
  </g>
  <g>
    <ellipse style="fill: #ffffff" cx="264.709" cy="-236.359" rx="29.1124" ry="25.5133"/>
    <ellipse style="fill: none; fill-opacity:0; stroke-width: 2; stroke: #00ff00" cx="264.709" cy="-236.359" rx="29.1124" ry="25.5133"/>
    <text font-size="12.7998" style="fill: #000000;text-anchor:middle;font-family:sans-serif;font-style:normal;font-weight:normal" x="264.709" y="-232.459">
      <tspan x="264.709" y="-232.459">0 / 2</tspan>
    </text>
  </g>
  <g>
    <ellipse style="fill: #ffffff" cx="283.558" cy="323.945" rx="29.1124" ry="25.5133"/>
    <ellipse style="fill: none; fill-opacity:0; stroke-width: 2; stroke: #00ff00" cx="283.558" cy="323.945" rx="29.1124" ry="25.5133"/>
    <text font-size="12.7998" style="fill: #000000;text-anchor:middle;font-family:sans-serif;font-style:normal;font-weight:normal" x="283.558" y="327.845">
      <tspan x="283.558" y="327.845">3 / 3</tspan>
    </text>
  </g>
  <g>
    <ellipse style="fill: #ffffff" cx="378.427" cy="-216.428" rx="29.1124" ry="25.5133"/>
    <ellipse style="fill: none; fill-opacity:0; stroke-width: 2; stroke: #00ff00" cx="378.427" cy="-216.428" rx="29.1124" ry="25.5133"/>
    <text font-size="12.7998" style="fill: #000000;text-anchor:middle;font-family:sans-serif;font-style:normal;font-weight:normal" x="378.427" y="-212.528">
      <tspan x="378.427" y="-212.528">2 / 0</tspan>
    </text>
  </g>
  <g>
    <ellipse style="fill: #ffffff" cx="483.743" cy="-177.449" rx="29.1124" ry="25.5133"/>
    <ellipse style="fill: none; fill-opacity:0; stroke-width: 2; stroke: #00ff00" cx="483.743" cy="-177.449" rx="29.1124" ry="25.5133"/>
    <text font-size="12.7998" style="fill: #000000;text-anchor:middle;font-family:sans-serif;font-style:normal;font-weight:normal" x="483.743" y="-173.549">
      <tspan x="483.743" y="-173.549">2 / 5</tspan>
    </text>
  </g>
  <g>
    <ellipse style="fill: #ffffff" cx="605.661" cy="213.96" rx="29.1124" ry="25.5133"/>
    <ellipse style="fill: none; fill-opacity:0; stroke-width: 2; stroke: #00ff00" cx="605.661" cy="213.96" rx="29.1124" ry="25.5133"/>
    <text font-size="12.7998" style="fill: #000000;text-anchor:middle;font-family:sans-serif;font-style:normal;font-weight:normal" x="605.661" y="217.86">
      <tspan x="605.661" y="217.86">0 / 1</tspan>
    </text>
  </g>
  <g>
    <ellipse style="fill: #ffffff" cx="653.298" cy="-26.6705" rx="29.1124" ry="25.5133"/>
    <ellipse style="fill: none; fill-opacity:0; stroke-width: 2; stroke: #00ff00" cx="653.298" cy="-26.6705" rx="29.1124" ry="25.5133"/>
    <text font-size="12.7998" style="fill: #000000;text-anchor:middle;font-family:sans-serif;font-style:normal;font-weight:normal" x="653.298" y="-22.7705">
      <tspan x="653.298" y="-22.7705">0 / 4</tspan>
    </text>
  </g>
  <g>
    <ellipse style="fill: #ffffff" cx="511.292" cy="268.778" rx="29.1124" ry="25.5133"/>
    <ellipse style="fill: none; fill-opacity:0; stroke-width: 2; stroke: #00ff00" cx="511.292" cy="268.778" rx="29.1124" ry="25.5133"/>
    <text font-size="12.7998" style="fill: #000000;text-anchor:middle;font-family:sans-serif;font-style:normal;font-weight:normal" x="511.292" y="272.678">
      <tspan x="511.292" y="272.678">1 / 0</tspan>
    </text>
  </g>
  <g>
    <ellipse style="fill: #ffffff" cx="252.523" cy="394.849" rx="29.1124" ry="25.5133"/>
    <ellipse style="fill: none; fill-opacity:0; stroke-width: 2; stroke: #000000" cx="252.523" cy="394.849" rx="29.1124" ry="25.5133"/>
    <text font-size="12.7998" style="fill: #000000;text-anchor:middle;font-family:sans-serif;font-style:normal;font-weight:normal" x="252.523" y="398.749">
      <tspan x="252.523" y="398.749">1 / 2</tspan>
    </text>
  </g>
  <g>
    <ellipse style="fill: #ffffff" cx="278.641" cy="488.042" rx="29.1124" ry="25.5133"/>
    <ellipse style="fill: none; fill-opacity:0; stroke-width: 2; stroke: #000000" cx="278.641" cy="488.042" rx="29.1124" ry="25.5133"/>
    <text font-size="12.7998" style="fill: #000000;text-anchor:middle;font-family:sans-serif;font-style:normal;font-weight:normal" x="278.641" y="491.942">
      <tspan x="278.641" y="491.942">1 / 3</tspan>
    </text>
  </g>
  <g>
    <ellipse style="fill: #ffffff" cx="486.263" cy="375.983" rx="29.1124" ry="25.5133"/>
    <ellipse style="fill: none; fill-opacity:0; stroke-width: 2; stroke: #000000" cx="486.263" cy="375.983" rx="29.1124" ry="25.5133"/>
    <text font-size="12.7998" style="fill: #000000;text-anchor:middle;font-family:sans-serif;font-style:normal;font-weight:normal" x="486.263" y="379.883">
      <tspan x="486.263" y="379.883">1 / 4</tspan>
    </text>
  </g>
  <g>
    <ellipse style="fill: #ffffff" cx="410.723" cy="307.477" rx="29.1124" ry="25.5133"/>
    <ellipse style="fill: none; fill-opacity:0; stroke-width: 2; stroke: #00ff00" cx="410.723" cy="307.477" rx="29.1124" ry="25.5133"/>
    <text font-size="12.7998" style="fill: #000000;text-anchor:middle;font-family:sans-serif;font-style:normal;font-weight:normal" x="410.723" y="311.377">
      <tspan x="410.723" y="311.377">1 / 5</tspan>
    </text>
  </g>
  <g>
    <ellipse style="fill: #ffffff" cx="38.9609" cy="379.5" rx="29.1124" ry="25.5133"/>
    <ellipse style="fill: none; fill-opacity:0; stroke-width: 2; stroke: #000000" cx="38.9609" cy="379.5" rx="29.1124" ry="25.5133"/>
    <text font-size="12.7998" style="fill: #000000;text-anchor:middle;font-family:sans-serif;font-style:normal;font-weight:normal" x="38.9609" y="383.4">
      <tspan x="38.9609" y="383.4">1 / 1</tspan>
    </text>
  </g>
  <g>
    <ellipse style="fill: #ffffff" cx="153.411" cy="395.011" rx="29.1124" ry="25.5133"/>
    <ellipse style="fill: none; fill-opacity:0; stroke-width: 2; stroke: #000000" cx="153.411" cy="395.011" rx="29.1124" ry="25.5133"/>
    <text font-size="12.7998" style="fill: #000000;text-anchor:middle;font-family:sans-serif;font-style:normal;font-weight:normal" x="153.411" y="398.911">
      <tspan x="153.411" y="398.911">2 / 1</tspan>
    </text>
  </g>
  <g>
    <ellipse style="fill: #ffffff" cx="373.938" cy="409.531" rx="29.1124" ry="25.5133"/>
    <ellipse style="fill: none; fill-opacity:0; stroke-width: 2; stroke: #000000" cx="373.938" cy="409.531" rx="29.1124" ry="25.5133"/>
    <text font-size="12.7998" style="fill: #000000;text-anchor:middle;font-family:sans-serif;font-style:normal;font-weight:normal" x="373.938" y="413.431">
      <tspan x="373.938" y="413.431">2 / 2</tspan>
    </text>
  </g>
  <g>
    <ellipse style="fill: #ffffff" cx="108.92" cy="478.735" rx="29.1124" ry="25.5133"/>
    <ellipse style="fill: none; fill-opacity:0; stroke-width: 2; stroke: #000000" cx="108.92" cy="478.735" rx="29.1124" ry="25.5133"/>
    <text font-size="12.7998" style="fill: #000000;text-anchor:middle;font-family:sans-serif;font-style:normal;font-weight:normal" x="108.92" y="482.635">
      <tspan x="108.92" y="482.635">2 / 3</tspan>
    </text>
  </g>
  <g>
    <ellipse style="fill: #ffffff" cx="439.404" cy="480.826" rx="29.1124" ry="25.5133"/>
    <ellipse style="fill: none; fill-opacity:0; stroke-width: 2; stroke: #000000" cx="439.404" cy="480.826" rx="29.1124" ry="25.5133"/>
    <text font-size="12.7998" style="fill: #000000;text-anchor:middle;font-family:sans-serif;font-style:normal;font-weight:normal" x="439.404" y="484.726">
      <tspan x="439.404" y="484.726">2 / 4</tspan>
    </text>
  </g>
  <g>
    <ellipse style="fill: #ffffff" cx="594.052" cy="-133.91" rx="29.1124" ry="25.5133"/>
    <ellipse style="fill: none; fill-opacity:0; stroke-width: 2; stroke: #00ff00" cx="594.052" cy="-133.91" rx="29.1124" ry="25.5133"/>
    <text font-size="12.7998" style="fill: #000000;text-anchor:middle;font-family:sans-serif;font-style:normal;font-weight:normal" x="594.052" y="-130.01">
      <tspan x="594.052" y="-130.01">3 / 4</tspan>
    </text>
  </g>
  <g>
    <ellipse style="fill: #ffffff" cx="629.24" cy="94.8205" rx="29.1124" ry="25.5133"/>
    <ellipse style="fill: none; fill-opacity:0; stroke-width: 2; stroke: #00ff00" cx="629.24" cy="94.8205" rx="29.1124" ry="25.5133"/>
    <text font-size="12.7998" style="fill: #000000;text-anchor:middle;font-family:sans-serif;font-style:normal;font-weight:normal" x="629.24" y="98.7205">
      <tspan x="629.24" y="98.7205">3 / 1</tspan>
    </text>
  </g>
  <g>
    <line style="fill: none; fill-opacity:0; stroke-width: 2; stroke: #000000" x1="34.3617" y1="37.158" x2="74.5224" y2="-66.0897"/>
    <polygon style="fill: #000000" points="77.2413,-73.0796 78.276,-61.9472 74.5224,-66.0897 68.9562,-65.5724 "/>
    <polygon style="fill: none; fill-opacity:0; stroke-width: 2; stroke: #000000" points="77.2413,-73.0796 78.276,-61.9472 74.5224,-66.0897 68.9562,-65.5724 "/>
  </g>
  <g>
    <line style="fill: none; fill-opacity:0; stroke-width: 2; stroke: #000000" x1="20.2863" y1="88.481" x2="1.56037" y2="202.241"/>
    <polygon style="fill: #000000" points="0.342197,209.641 -2.96718,198.962 1.56037,202.241 6.90004,200.586 "/>
    <polygon style="fill: none; fill-opacity:0; stroke-width: 2; stroke: #000000" points="0.342197,209.641 -2.96718,198.962 1.56037,202.241 6.90004,200.586 "/>
  </g>
  <g>
    <line style="fill: none; fill-opacity:0; stroke-width: 2; stroke: #bfbfbf" x1="114.457" y1="-88.0557" x2="392.351" y2="39.0417"/>
    <polygon style="fill: #bfbfbf" points="399.172,42.1612 387.998,42.5489 392.351,39.0417 392.157,33.4549 "/>
    <polygon style="fill: none; fill-opacity:0; stroke-width: 2; stroke: #bfbfbf" points="399.172,42.1612 387.998,42.5489 392.351,39.0417 392.157,33.4549 "/>
  </g>
  <g>
    <line style="fill: none; fill-opacity:0; stroke-width: 2; stroke: #000000" x1="105.733" y1="-121.525" x2="139.07" y2="-161.102"/>
    <polygon style="fill: #000000" points="143.902,-166.838 141.284,-155.968 139.07,-161.102 133.636,-162.411 "/>
    <polygon style="fill: none; fill-opacity:0; stroke-width: 2; stroke: #000000" points="143.902,-166.838 141.284,-155.968 139.07,-161.102 133.636,-162.411 "/>
  </g>
  <g>
    <line style="fill: none; fill-opacity:0; stroke-width: 2; stroke: #bfbfbf" x1="22.7902" y1="226.614" x2="391.757" y2="70.5482"/>
    <polygon style="fill: #bfbfbf" points="398.664,67.6264 391.402,76.1271 391.757,70.5482 387.506,66.9171 "/>
    <polygon style="fill: none; fill-opacity:0; stroke-width: 2; stroke: #bfbfbf" points="398.664,67.6264 391.402,76.1271 391.757,70.5482 387.506,66.9171 "/>
  </g>
  <g>
    <line style="fill: none; fill-opacity:0; stroke-width: 2; stroke: #000000" x1="19.6032" y1="254.105" x2="101.95" y2="309.182"/>
    <polygon style="fill: #000000" points="108.184,313.351 97.0924,311.948 101.95,309.182 102.652,303.636 "/>
    <polygon style="fill: none; fill-opacity:0; stroke-width: 2; stroke: #000000" points="108.184,313.351 97.0924,311.948 101.95,309.182 102.652,303.636 "/>
  </g>
  <g>
    <line style="fill: none; fill-opacity:0; stroke-width: 2; stroke: #000000" x1="189.972" y1="-202.078" x2="229.156" y2="-220.051"/>
    <polygon style="fill: #000000" points="235.973,-223.178 228.968,-214.464 229.156,-220.051 224.799,-223.554 "/>
    <polygon style="fill: none; fill-opacity:0; stroke-width: 2; stroke: #000000" points="235.973,-223.178 228.968,-214.464 229.156,-220.051 224.799,-223.554 "/>
  </g>
  <g>
    <line style="fill: none; fill-opacity:0; stroke-width: 2; stroke: #000000" x1="163.93" y1="329.275" x2="243.888" y2="325.713"/>
    <polygon style="fill: #000000" points="251.381,325.379 241.614,330.819 243.888,325.713 241.168,320.829 "/>
    <polygon style="fill: none; fill-opacity:0; stroke-width: 2; stroke: #000000" points="251.381,325.379 241.614,330.819 243.888,325.713 241.168,320.829 "/>
  </g>
  <g>
    <line style="fill: none; fill-opacity:0; stroke-width: 2; stroke: #000000" x1="253.615" y1="325.279" x2="173.657" y2="328.842"/>
    <polygon style="fill: #000000" points="166.164,329.175 175.932,323.735 173.657,328.842 176.377,333.725 "/>
    <polygon style="fill: none; fill-opacity:0; stroke-width: 2; stroke: #000000" points="166.164,329.175 175.932,323.735 173.657,328.842 176.377,333.725 "/>
  </g>
  <g>
    <line style="fill: none; fill-opacity:0; stroke-width: 2; stroke: #000000" x1="312.369" y1="320.214" x2="372.257" y2="312.459"/>
    <polygon style="fill: #000000" points="379.695,311.495 370.42,317.738 372.257,312.459 369.135,307.821 "/>
    <polygon style="fill: none; fill-opacity:0; stroke-width: 2; stroke: #000000" points="379.695,311.495 370.42,317.738 372.257,312.459 369.135,307.821 "/>
  </g>
  <g>
    <line style="fill: none; fill-opacity:0; stroke-width: 2; stroke: #000000" x1="238.005" y1="-224.11" x2="198.822" y2="-206.137"/>
    <polygon style="fill: #000000" points="192.004,-203.01 199.009,-211.724 198.822,-206.137 203.178,-202.635 "/>
    <polygon style="fill: none; fill-opacity:0; stroke-width: 2; stroke: #000000" points="192.004,-203.01 199.009,-211.724 198.822,-206.137 203.178,-202.635 "/>
  </g>
  <g>
    <line style="fill: none; fill-opacity:0; stroke-width: 2; stroke: #000000" x1="294.138" y1="-231.201" x2="339.408" y2="-223.267"/>
    <polygon style="fill: #000000" points="346.796,-221.972 336.083,-218.773 339.408,-223.267 337.809,-228.623 "/>
    <polygon style="fill: none; fill-opacity:0; stroke-width: 2; stroke: #000000" points="346.796,-221.972 336.083,-218.773 339.408,-223.267 337.809,-228.623 "/>
  </g>
  <g>
    <line style="fill: none; fill-opacity:0; stroke-width: 2; stroke: #000000" x1="406.093" y1="-206.188" x2="446.947" y2="-191.068"/>
    <polygon style="fill: #000000" points="453.98,-188.465 442.866,-187.247 446.947,-191.068 446.337,-196.625 "/>
    <polygon style="fill: none; fill-opacity:0; stroke-width: 2; stroke: #000000" points="453.98,-188.465 442.866,-187.247 446.947,-191.068 446.337,-196.625 "/>
  </g>
  <g>
    <line style="fill: none; fill-opacity:0; stroke-width: 2; stroke: #000000" x1="348.998" y1="-221.586" x2="303.728" y2="-229.52"/>
    <polygon style="fill: #000000" points="296.341,-230.815 307.054,-234.014 303.728,-229.52 305.327,-224.164 "/>
    <polygon style="fill: none; fill-opacity:0; stroke-width: 2; stroke: #000000" points="296.341,-230.815 307.054,-234.014 303.728,-229.52 305.327,-224.164 "/>
  </g>
  <g>
    <line style="fill: none; fill-opacity:0; stroke-width: 2; stroke: #000000" x1="438.271" y1="296.877" x2="474.657" y2="282.875"/>
    <polygon style="fill: #000000" points="481.657,280.182 474.119,288.44 474.657,282.875 470.528,279.107 "/>
    <polygon style="fill: none; fill-opacity:0; stroke-width: 2; stroke: #000000" points="481.657,280.182 474.119,288.44 474.657,282.875 470.528,279.107 "/>
  </g>
  <g>
    <line style="fill: none; fill-opacity:0; stroke-width: 2; stroke: #000000" x1="381.912" y1="311.208" x2="322.025" y2="318.964"/>
    <polygon style="fill: #000000" points="314.587,319.927 323.862,313.684 322.025,318.964 325.146,323.601 "/>
    <polygon style="fill: none; fill-opacity:0; stroke-width: 2; stroke: #000000" points="314.587,319.927 323.862,313.684 322.025,318.964 325.146,323.601 "/>
  </g>
  <g>
    <line style="fill: none; fill-opacity:0; stroke-width: 2; stroke: #000000" x1="456.077" y1="-187.689" x2="415.224" y2="-202.809"/>
    <polygon style="fill: #000000" points="408.19,-205.412 419.304,-206.63 415.224,-202.809 415.833,-197.252 "/>
    <polygon style="fill: none; fill-opacity:0; stroke-width: 2; stroke: #000000" points="408.19,-205.412 419.304,-206.63 415.224,-202.809 415.833,-197.252 "/>
  </g>
  <g>
    <line style="fill: none; fill-opacity:0; stroke-width: 2; stroke: #000000" x1="511.22" y1="-166.604" x2="557.52" y2="-148.33"/>
    <polygon style="fill: #000000" points="564.496,-145.576 553.359,-144.597 557.52,-148.33 557.03,-153.898 "/>
    <polygon style="fill: none; fill-opacity:0; stroke-width: 2; stroke: #000000" points="564.496,-145.576 553.359,-144.597 557.52,-148.33 557.03,-153.898 "/>
  </g>
  <g>
    <line style="fill: none; fill-opacity:0; stroke-width: 2; stroke: #000000" x1="483.743" y1="279.379" x2="447.358" y2="293.38"/>
    <polygon style="fill: #000000" points="440.358,296.074 447.896,287.816 447.358,293.38 451.487,297.149 "/>
    <polygon style="fill: none; fill-opacity:0; stroke-width: 2; stroke: #000000" points="440.358,296.074 447.896,287.816 447.358,293.38 451.487,297.149 "/>
  </g>
  <g>
    <line style="fill: none; fill-opacity:0; stroke-width: 2; stroke: #000000" x1="536.416" y1="254.183" x2="572.118" y2="233.445"/>
    <polygon style="fill: #000000" points="578.603,229.677 572.467,239.024 572.118,233.445 567.444,230.377 "/>
    <polygon style="fill: none; fill-opacity:0; stroke-width: 2; stroke: #000000" points="578.603,229.677 572.467,239.024 572.118,233.445 567.444,230.377 "/>
  </g>
  <g>
    <line style="fill: none; fill-opacity:0; stroke-width: 2; stroke: #000000" x1="610.824" y1="187.869" x2="622.186" y2="130.462"/>
    <polygon style="fill: #000000" points="623.642,123.105 626.606,133.885 622.186,130.462 616.796,131.944 "/>
    <polygon style="fill: none; fill-opacity:0; stroke-width: 2; stroke: #000000" points="623.642,123.105 626.606,133.885 622.186,130.462 616.796,131.944 "/>
  </g>
  <g>
    <line style="fill: none; fill-opacity:0; stroke-width: 2; stroke: #000000" x1="580.536" y1="228.554" x2="544.835" y2="249.293"/>
    <polygon style="fill: #000000" points="538.35,253.06 544.485,243.714 544.835,249.293 549.508,252.361 "/>
    <polygon style="fill: none; fill-opacity:0; stroke-width: 2; stroke: #000000" points="538.35,253.06 544.485,243.714 544.835,249.293 549.508,252.361 "/>
  </g>
  <g>
    <line style="fill: none; fill-opacity:0; stroke-width: 2; stroke: #000000" x1="607.222" y1="-110.072" x2="635.42" y2="-59.0309"/>
    <polygon style="fill: #000000" points="639.047,-52.4661 629.835,-58.8013 635.42,-59.0309 638.588,-63.637 "/>
    <polygon style="fill: none; fill-opacity:0; stroke-width: 2; stroke: #000000" points="639.047,-52.4661 629.835,-58.8013 635.42,-59.0309 638.588,-63.637 "/>
  </g>
  <g>
    <line style="fill: none; fill-opacity:0; stroke-width: 2; stroke: #000000" x1="566.576" y1="-144.755" x2="520.276" y2="-163.03"/>
    <polygon style="fill: #000000" points="513.299,-165.783 524.437,-166.763 520.276,-163.03 520.765,-157.461 "/>
    <polygon style="fill: none; fill-opacity:0; stroke-width: 2; stroke: #000000" points="513.299,-165.783 524.437,-166.763 520.276,-163.03 520.765,-157.461 "/>
  </g>
  <g>
    <line style="fill: none; fill-opacity:0; stroke-width: 2; stroke: #000000" x1="624.076" y1="120.911" x2="612.715" y2="178.318"/>
    <polygon style="fill: #000000" points="611.259,185.675 608.295,174.895 612.715,178.318 618.105,176.836 "/>
    <polygon style="fill: none; fill-opacity:0; stroke-width: 2; stroke: #000000" points="611.259,185.675 608.295,174.895 612.715,178.318 618.105,176.836 "/>
  </g>
  <g>
    <line style="fill: none; fill-opacity:0; stroke-width: 2; stroke: #000000" x1="634.412" y1="68.7041" x2="646.235" y2="8.99651"/>
    <polygon style="fill: #000000" points="647.692,1.63937 650.655,12.4202 646.235,8.99651 640.845,10.4776 "/>
    <polygon style="fill: none; fill-opacity:0; stroke-width: 2; stroke: #000000" points="647.692,1.63937 650.655,12.4202 646.235,8.99651 640.845,10.4776 "/>
  </g>
  <g>
    <line style="fill: none; fill-opacity:0; stroke-width: 2; stroke: #000000" x1="640.129" y1="-50.5089" x2="611.93" y2="-101.55"/>
    <polygon style="fill: #000000" points="608.303,-108.115 617.515,-101.78 611.93,-101.55 608.762,-96.9439 "/>
    <polygon style="fill: none; fill-opacity:0; stroke-width: 2; stroke: #000000" points="608.303,-108.115 617.515,-101.78 611.93,-101.55 608.762,-96.9439 "/>
  </g>
  <g>
    <line style="fill: none; fill-opacity:0; stroke-width: 2; stroke: #000000" x1="648.127" y1="-0.5541" x2="636.303" y2="59.1534"/>
    <polygon style="fill: #000000" points="634.846,66.5106 631.884,55.7298 636.303,59.1534 641.693,57.6723 "/>
    <polygon style="fill: none; fill-opacity:0; stroke-width: 2; stroke: #000000" points="634.846,66.5106 631.884,55.7298 636.303,59.1534 641.693,57.6723 "/>
  </g>
  <g>
    <line style="fill: none; fill-opacity:0; stroke-width: 2; stroke: #bfbfbf" x1="184.012" y1="-170.613" x2="399.969" y2="29.4465"/>
    <polygon style="fill: #bfbfbf" points="405.471,34.5434 394.737,31.4155 399.969,29.4465 401.533,24.0795 "/>
    <polygon style="fill: none; fill-opacity:0; stroke-width: 2; stroke: #bfbfbf" points="405.471,34.5434 394.737,31.4155 399.969,29.4465 401.533,24.0795 "/>
  </g>
  <g>
    <line style="fill: none; fill-opacity:0; stroke-width: 2; stroke: #bfbfbf" x1="242.057" y1="-218.93" x2="118.176" y2="-123.611"/>
    <polygon style="fill: #bfbfbf" points="112.232,-119.037 117.109,-129.098 118.176,-123.611 123.207,-121.173 "/>
    <polygon style="fill: none; fill-opacity:0; stroke-width: 2; stroke: #bfbfbf" points="112.232,-119.037 117.109,-129.098 118.176,-123.611 123.207,-121.173 "/>
  </g>
  <g>
    <line style="fill: none; fill-opacity:0; stroke-width: 2; stroke: #bfbfbf" x1="360.225" y1="-195.32" x2="13.1583" y2="207.146"/>
    <polygon style="fill: #bfbfbf" points="8.26036,212.826 11.0045,201.987 13.1583,207.146 18.5775,208.518 "/>
    <polygon style="fill: none; fill-opacity:0; stroke-width: 2; stroke: #bfbfbf" points="8.26036,212.826 11.0045,201.987 13.1583,207.146 18.5775,208.518 "/>
  </g>
  <g>
    <line style="fill: none; fill-opacity:0; stroke-width: 2; stroke: #bfbfbf" x1="477.513" y1="-151.505" x2="436.358" y2="19.8677"/>
    <polygon style="fill: #bfbfbf" points="434.607,27.1604 432.08,16.2693 436.358,19.8677 441.804,18.6044 "/>
    <polygon style="fill: none; fill-opacity:0; stroke-width: 2; stroke: #bfbfbf" points="434.607,27.1604 432.08,16.2693 436.358,19.8677 441.804,18.6044 "/>
  </g>
  <g>
    <line style="fill: none; fill-opacity:0; stroke-width: 2; stroke: #bfbfbf" x1="247.31" y1="-214.722" x2="48.1059" y2="33.0135"/>
    <polygon style="fill: #bfbfbf" points="43.4061,38.8583 45.776,27.932 48.1059,33.0135 53.5691,34.1984 "/>
    <polygon style="fill: none; fill-opacity:0; stroke-width: 2; stroke: #bfbfbf" points="43.4061,38.8583 45.776,27.932 48.1059,33.0135 53.5691,34.1984 "/>
  </g>
  <g>
    <line style="fill: none; fill-opacity:0; stroke-width: 2; stroke: #bfbfbf" x1="355.984" y1="-198.752" x2="54.6979" y2="38.5384"/>
    <polygon style="fill: #bfbfbf" points="48.8059,43.1789 53.5682,33.0636 54.6979,38.5384 59.7555,40.9196 "/>
    <polygon style="fill: none; fill-opacity:0; stroke-width: 2; stroke: #bfbfbf" points="48.8059,43.1789 53.5682,33.0636 54.6979,38.5384 59.7555,40.9196 "/>
  </g>
  <g>
    <line style="fill: none; fill-opacity:0; stroke-width: 2; stroke: #bfbfbf" x1="454.345" y1="-171.717" x2="126.762" y2="-107.84"/>
    <polygon style="fill: #bfbfbf" points="119.4,-106.404 128.258,-113.226 126.762,-107.84 130.172,-103.411 "/>
    <polygon style="fill: none; fill-opacity:0; stroke-width: 2; stroke: #bfbfbf" points="119.4,-106.404 128.258,-113.226 126.762,-107.84 130.172,-103.411 "/>
  </g>
  <g>
    <line style="fill: none; fill-opacity:0; stroke-width: 2; stroke: #bfbfbf" x1="575.671" y1="-112.987" x2="452.661" y2="27.0413"/>
    <polygon style="fill: #bfbfbf" points="447.711,32.6759 450.554,21.8632 452.661,27.0413 458.067,28.463 "/>
    <polygon style="fill: none; fill-opacity:0; stroke-width: 2; stroke: #bfbfbf" points="447.711,32.6759 450.554,21.8632 452.661,27.0413 458.067,28.463 "/>
  </g>
  <g>
    <line style="fill: none; fill-opacity:0; stroke-width: 2; stroke: #bfbfbf" x1="569.463" y1="-118.624" x2="28.5169" y2="217.664"/>
    <polygon style="fill: #bfbfbf" points="22.1474,221.624 28.0002,212.098 28.5169,217.664 33.2799,220.59 "/>
    <polygon style="fill: none; fill-opacity:0; stroke-width: 2; stroke: #bfbfbf" points="22.1474,221.624 28.0002,212.098 28.5169,217.664 33.2799,220.59 "/>
  </g>
  <g>
    <line style="fill: none; fill-opacity:0; stroke-width: 2; stroke: #bfbfbf" x1="623.503" y1="-30.547" x2="127.257" y2="-95.1114"/>
    <polygon style="fill: #bfbfbf" points="119.82,-96.079 130.381,-99.747 127.257,-95.1114 129.091,-89.8306 "/>
    <polygon style="fill: none; fill-opacity:0; stroke-width: 2; stroke: #bfbfbf" points="119.82,-96.079 130.381,-99.747 127.257,-95.1114 129.091,-89.8306 "/>
  </g>
  <g>
    <line style="fill: none; fill-opacity:0; stroke-width: 2; stroke: #bfbfbf" x1="623.579" y1="-22.4676" x2="63.9656" y2="56.6723"/>
    <polygon style="fill: #bfbfbf" points="56.5395,57.7224 65.7408,51.3715 63.9656,56.6723 67.1411,61.2729 "/>
    <polygon style="fill: none; fill-opacity:0; stroke-width: 2; stroke: #bfbfbf" points="56.5395,57.7224 65.7408,51.3715 63.9656,56.6723 67.1411,61.2729 "/>
  </g>
  <g>
    <line style="fill: none; fill-opacity:0; stroke-width: 2; stroke: #bfbfbf" x1="600.073" y1="101.416" x2="34.3229" y2="229.347"/>
    <polygon style="fill: #bfbfbf" points="27.0076,231.002 35.6586,223.919 34.3229,229.347 37.8642,233.673 "/>
    <polygon style="fill: none; fill-opacity:0; stroke-width: 2; stroke: #bfbfbf" points="27.0076,231.002 35.6586,223.919 34.3229,229.347 37.8642,233.673 "/>
  </g>
  <g>
    <line style="fill: none; fill-opacity:0; stroke-width: 2; stroke: #bfbfbf" x1="599.888" y1="89.0573" x2="466.76" y2="62.9184"/>
    <polygon style="fill: #bfbfbf" points="459.401,61.4734 470.177,58.4938 466.76,62.9184 468.25,68.3064 "/>
    <polygon style="fill: none; fill-opacity:0; stroke-width: 2; stroke: #bfbfbf" points="459.401,61.4734 470.177,58.4938 466.76,62.9184 468.25,68.3064 "/>
  </g>
  <g>
    <line style="fill: none; fill-opacity:0; stroke-width: 2; stroke: #bfbfbf" x1="576.828" y1="206.431" x2="62.8591" y2="72.2268"/>
    <polygon style="fill: #bfbfbf" points="55.6024,70.332 66.5412,68.0206 62.8591,72.2268 64.0148,77.6962 "/>
    <polygon style="fill: none; fill-opacity:0; stroke-width: 2; stroke: #bfbfbf" points="55.6024,70.332 66.5412,68.0206 62.8591,72.2268 64.0148,77.6962 "/>
  </g>
  <g>
    <line style="fill: none; fill-opacity:0; stroke-width: 2; stroke: #bfbfbf" x1="580.873" y1="198.92" x2="120.919" y2="-80.1537"/>
    <polygon style="fill: #bfbfbf" points="114.507,-84.0441 125.65,-83.1315 120.919,-80.1537 120.463,-74.5822 "/>
    <polygon style="fill: none; fill-opacity:0; stroke-width: 2; stroke: #bfbfbf" points="114.507,-84.0441 125.65,-83.1315 120.919,-80.1537 120.463,-74.5822 "/>
  </g>
  <g>
    <line style="fill: none; fill-opacity:0; stroke-width: 2; stroke: #bfbfbf" x1="484.164" y1="257.266" x2="60.6965" y2="77.5545"/>
    <polygon style="fill: #bfbfbf" points="53.7925,74.6246 64.9511,73.9285 60.6965,77.5545 61.0445,83.1338 "/>
    <polygon style="fill: none; fill-opacity:0; stroke-width: 2; stroke: #bfbfbf" points="53.7925,74.6246 64.9511,73.9285 60.6965,77.5545 61.0445,83.1338 "/>
  </g>
  <g>
    <line style="fill: none; fill-opacity:0; stroke-width: 2; stroke: #bfbfbf" x1="481.252" y1="266.99" x2="35.4179" y2="240.457"/>
    <polygon style="fill: #bfbfbf" points="27.9311,240.011 38.2105,235.614 35.4179,240.457 37.6164,245.596 "/>
    <polygon style="fill: none; fill-opacity:0; stroke-width: 2; stroke: #bfbfbf" points="27.9311,240.011 38.2105,235.614 35.4179,240.457 37.6164,245.596 "/>
  </g>
  <g>
    <line style="fill: none; fill-opacity:0; stroke-width: 2; stroke: #bfbfbf" x1="393.517" y1="285.752" x2="111.058" y2="-70.8868"/>
    <polygon style="fill: #bfbfbf" points="106.402,-76.7662 116.53,-72.0313 111.058,-70.8868 108.691,-65.8227 "/>
    <polygon style="fill: none; fill-opacity:0; stroke-width: 2; stroke: #bfbfbf" points="106.402,-76.7662 116.53,-72.0313 111.058,-70.8868 108.691,-65.8227 "/>
  </g>
  <g>
    <line style="fill: none; fill-opacity:0; stroke-width: 2; stroke: #bfbfbf" x1="412.517" y1="281.063" x2="425.4" y2="91.4074"/>
    <polygon style="fill: #bfbfbf" points="425.909,83.9246 430.219,94.2405 425.4,91.4074 420.242,93.5628 "/>
    <polygon style="fill: none; fill-opacity:0; stroke-width: 2; stroke: #bfbfbf" points="425.909,83.9246 430.219,94.2405 425.4,91.4074 420.242,93.5628 "/>
  </g>
  <g>
    <line style="fill: none; fill-opacity:0; stroke-width: 2; stroke: #bfbfbf" x1="255.092" y1="315.456" x2="33.4559" y2="249.362"/>
    <polygon style="fill: #bfbfbf" points="26.2687,247.218 37.2805,245.285 33.4559,249.362 34.4227,254.868 "/>
    <polygon style="fill: none; fill-opacity:0; stroke-width: 2; stroke: #bfbfbf" points="26.2687,247.218 37.2805,245.285 33.4559,249.362 34.4227,254.868 "/>
  </g>
  <g>
    <line style="fill: none; fill-opacity:0; stroke-width: 2; stroke: #bfbfbf" x1="296.426" y1="299.988" x2="410.381" y2="87.8142"/>
    <polygon style="fill: #bfbfbf" points="413.929,81.2069 413.602,92.3825 410.381,87.8142 404.793,87.6509 "/>
    <polygon style="fill: none; fill-opacity:0; stroke-width: 2; stroke: #bfbfbf" points="413.929,81.2069 413.602,92.3825 410.381,87.8142 404.793,87.6509 "/>
  </g>
  <g>
    <line style="fill: none; fill-opacity:0; stroke-width: 2; stroke: #bfbfbf" x1="123.826" y1="305.679" x2="38.4417" y2="96.1848"/>
    <polygon style="fill: #bfbfbf" points="35.611,89.2395 44.0155,96.6128 38.4417,96.1848 34.7551,100.387 "/>
    <polygon style="fill: none; fill-opacity:0; stroke-width: 2; stroke: #bfbfbf" points="35.611,89.2395 44.0155,96.6128 38.4417,96.1848 34.7551,100.387 "/>
  </g>
  <g>
    <line style="fill: none; fill-opacity:0; stroke-width: 2; stroke: #bfbfbf" x1="131.163" y1="304.259" x2="91.6693" y2="-64.2136"/>
    <polygon style="fill: #bfbfbf" points="90.87,-71.6709 96.9073,-62.2607 91.6693,-64.2136 86.9642,-61.1949 "/>
    <polygon style="fill: none; fill-opacity:0; stroke-width: 2; stroke: #bfbfbf" points="90.87,-71.6709 96.9073,-62.2607 91.6693,-64.2136 86.9642,-61.1949 "/>
  </g>
  <g>
    <line style="fill: none; fill-opacity:0; stroke-width: 2; stroke: #000000" x1="78.0519" y1="-75.1635" x2="37.8912" y2="28.0842"/>
    <polygon style="fill: #000000" points="35.1723,35.074 34.1376,23.9417 37.8912,28.0842 43.4574,27.5668 "/>
    <polygon style="fill: none; fill-opacity:0; stroke-width: 2; stroke: #000000" points="35.1723,35.074 34.1376,23.9417 37.8912,28.0842 43.4574,27.5668 "/>
  </g>
  <g>
    <line style="fill: none; fill-opacity:0; stroke-width: 2; stroke: #bfbfbf" x1="401.205" y1="43.0912" x2="123.311" y2="-84.0063"/>
    <polygon style="fill: #bfbfbf" points="116.49,-87.1257 127.664,-87.5135 123.311,-84.0063 123.505,-78.4195 "/>
    <polygon style="fill: none; fill-opacity:0; stroke-width: 2; stroke: #bfbfbf" points="116.49,-87.1257 127.664,-87.5135 123.311,-84.0063 123.505,-78.4195 "/>
  </g>
  <g>
    <line style="fill: none; fill-opacity:0; stroke-width: 2; stroke: #000000" x1="-0.0209922" y1="211.848" x2="18.7049" y2="98.0878"/>
    <polygon style="fill: #000000" points="19.9231,90.6874 23.2325,101.367 18.7049,98.0878 13.3653,99.7424 "/>
    <polygon style="fill: none; fill-opacity:0; stroke-width: 2; stroke: #000000" points="19.9231,90.6874 23.2325,101.367 18.7049,98.0878 13.3653,99.7424 "/>
  </g>
  <g>
    <line style="fill: none; fill-opacity:0; stroke-width: 2; stroke: #bfbfbf" x1="400.724" y1="66.7553" x2="31.7571" y2="222.822"/>
    <polygon style="fill: #bfbfbf" points="24.8496,225.743 32.1117,217.243 31.7571,222.822 36.0074,226.453 "/>
    <polygon style="fill: none; fill-opacity:0; stroke-width: 2; stroke: #bfbfbf" points="24.8496,225.743 32.1117,217.243 31.7571,222.822 36.0074,226.453 "/>
  </g>
</svg>
