<?xml version="1.0" encoding="UTF-8" standalone="no"?>
<!-- Created with Inkscape (http://www.inkscape.org/) -->

<svg
   xmlns:dc="http://purl.org/dc/elements/1.1/"
   xmlns:cc="http://creativecommons.org/ns#"
   xmlns:rdf="http://www.w3.org/1999/02/22-rdf-syntax-ns#"
   xmlns:svg="http://www.w3.org/2000/svg"
   xmlns="http://www.w3.org/2000/svg"
   xmlns:sodipodi="http://sodipodi.sourceforge.net/DTD/sodipodi-0.dtd"
   xmlns:inkscape="http://www.inkscape.org/namespaces/inkscape"
   width="29.269258"
   height="15.944311"
   id="svg4187"
   version="1.1"
   inkscape:version="0.48.3.1 r9886"
   sodipodi:docname="fig22.pdf">
  <defs
     id="defs4189" />
  <sodipodi:namedview
     id="base"
     pagecolor="#ffffff"
     bordercolor="#666666"
     borderopacity="1.0"
     inkscape:pageopacity="0.0"
     inkscape:pageshadow="2"
     inkscape:zoom="15.836083"
     inkscape:cx="19.012455"
     inkscape:cy="8.0769862"
     inkscape:current-layer="layer1"
     showgrid="true"
     inkscape:grid-bbox="true"
     inkscape:document-units="px"
     fit-margin-top="0"
     fit-margin-left="0"
     fit-margin-right="0"
     fit-margin-bottom="0"
     inkscape:window-width="1024"
     inkscape:window-height="554"
     inkscape:window-x="0"
     inkscape:window-y="0"
     inkscape:window-maximized="1">
    <inkscape:grid
       type="xygrid"
       id="grid4195"
       empspacing="5"
       visible="true"
       enabled="true"
       snapvisiblegridlinesonly="true"
       originx="69.134629px"
       originy="11.870075px" />
  </sodipodi:namedview>
  <metadata
     id="metadata4192">
    <rdf:RDF>
      <cc:Work
         rdf:about="">
        <dc:format>image/svg+xml</dc:format>
        <dc:type
           rdf:resource="http://purl.org/dc/dcmitype/StillImage" />
        <dc:title></dc:title>
      </cc:Work>
    </rdf:RDF>
  </metadata>
  <g
     id="layer1"
     inkscape:label="Layer 1"
     inkscape:groupmode="layer"
     transform="translate(69.134629,-27.925761)">
    <rect
       style="fill:#ffffff;fill-opacity:1;stroke:#000000;stroke-width:0.26925823;stroke-miterlimit:4;stroke-opacity:1;stroke-dasharray:none"
       id="rect4231"
       width="29"
       height="14"
       x="-69"
       y="28.999996" />
    <path
       sodipodi:type="arc"
       style="fill:#ff0000;fill-opacity:1;stroke:#000000;stroke-width:0.2;stroke-miterlimit:4;stroke-opacity:1;stroke-dasharray:none"
       id="path4197"
       sodipodi:cx="5"
       sodipodi:cy="2"
       sodipodi:rx="1"
       sodipodi:ry="1"
       d="M 6,2 C 6,2.5522847 5.5522847,3 5,3 4.4477153,3 4,2.5522847 4,2 4,1.4477153 4.4477153,1 5,1 5.5522847,1 6,1.4477153 6,2 z"
       transform="translate(-71,28.999997)" />
    <path
       transform="translate(-61,28.999997)"
       sodipodi:type="arc"
       style="fill:#ff0000;fill-opacity:1;stroke:#000000;stroke-width:0.2;stroke-miterlimit:4;stroke-opacity:1;stroke-dasharray:none"
       id="path4197-5"
       sodipodi:cx="5"
       sodipodi:cy="2"
       sodipodi:rx="1"
       sodipodi:ry="1"
       d="M 6,2 C 6,2.5522847 5.5522847,3 5,3 4.4477153,3 4,2.5522847 4,2 4,1.4477153 4.4477153,1 5,1 5.5522847,1 6,1.4477153 6,2 z" />
    <path
       transform="translate(-71,38.999997)"
       sodipodi:type="arc"
       style="fill:#ff0000;fill-opacity:1;stroke:#000000;stroke-width:0.2;stroke-miterlimit:4;stroke-opacity:1;stroke-dasharray:none"
       id="path4197-0"
       sodipodi:cx="5"
       sodipodi:cy="2"
       sodipodi:rx="1"
       sodipodi:ry="1"
       d="M 6,2 C 6,2.5522847 5.5522847,3 5,3 4.4477153,3 4,2.5522847 4,2 4,1.4477153 4.4477153,1 5,1 5.5522847,1 6,1.4477153 6,2 z" />
    <path
       transform="translate(-61,38.999997)"
       sodipodi:type="arc"
       style="fill:#ff0000;fill-opacity:1;stroke:#000000;stroke-width:0.2;stroke-miterlimit:4;stroke-opacity:1;stroke-dasharray:none"
       id="path4197-8"
       sodipodi:cx="5"
       sodipodi:cy="2"
       sodipodi:rx="1"
       sodipodi:ry="1"
       d="M 6,2 C 6,2.5522847 5.5522847,3 5,3 4.4477153,3 4,2.5522847 4,2 4,1.4477153 4.4477153,1 5,1 5.5522847,1 6,1.4477153 6,2 z" />
    <path
       transform="translate(-50,28.999997)"
       sodipodi:type="arc"
       style="fill:#ff0000;fill-opacity:1;stroke:#000000;stroke-width:0.2;stroke-miterlimit:4;stroke-opacity:1;stroke-dasharray:none"
       id="path4197-5-5"
       sodipodi:cx="5"
       sodipodi:cy="2"
       sodipodi:rx="1"
       sodipodi:ry="1"
       d="M 6,2 C 6,2.5522847 5.5522847,3 5,3 4.4477153,3 4,2.5522847 4,2 4,1.4477153 4.4477153,1 5,1 5.5522847,1 6,1.4477153 6,2 z" />
    <path
       transform="translate(-50,38.999997)"
       sodipodi:type="arc"
       style="fill:#ff0000;fill-opacity:1;stroke:#000000;stroke-width:0.2;stroke-miterlimit:4;stroke-opacity:1;stroke-dasharray:none"
       id="path4197-8-8"
       sodipodi:cx="5"
       sodipodi:cy="2"
       sodipodi:rx="1"
       sodipodi:ry="1"
       d="M 6,2 C 6,2.5522847 5.5522847,3 5,3 4.4477153,3 4,2.5522847 4,2 4,1.4477153 4.4477153,1 5,1 5.5522847,1 6,1.4477153 6,2 z" />
    <path
       style="fill:none;stroke:#000000;stroke-width:1px;stroke-linecap:butt;stroke-linejoin:miter;stroke-opacity:1"
       d="m 4.09375,3.093747 9,7 0,-7"
       id="path5544"
       inkscape:connector-curvature="0"
       transform="translate(-69.09375,28.90625)"
       sodipodi:nodetypes="ccc" />
    <path
       style="fill:none;stroke:#000000;stroke-width:1px;stroke-linecap:butt;stroke-linejoin:miter;stroke-opacity:1"
       d="m 14.09375,2.093747 8,0 -8,9"
       id="path5546"
       inkscape:connector-curvature="0"
       transform="translate(-69.09375,28.90625)"
       sodipodi:nodetypes="ccc" />
    <path
       style="fill:none;stroke:#000000;stroke-width:1px;stroke-linecap:butt;stroke-linejoin:miter;stroke-opacity:1"
       d="m 14.09375,11.093747 10,0 0,-8"
       id="path5548"
       inkscape:connector-curvature="0"
       transform="translate(-69.09375,28.90625)" />
    <path
       style="fill:none;stroke:#00b200;stroke-width:0.5;stroke-linecap:butt;stroke-linejoin:miter;stroke-miterlimit:4;stroke-opacity:1;stroke-dasharray:none"
       d="m -57.828005,30.609036 c -1.012346,2.810207 -1.635847,5.810354 -1.378716,8.808102 -0.03177,1.364175 0.226361,2.977747 1.471209,3.771008 2.06333,0.297896 5.410271,-1.495506 6.126063,-2.923777 0.669893,-2.338245 2.144231,-4.432166 4.124661,-5.84441 0.918053,-0.835039 3.921815,-1.304992 4.484788,-2.419962 0.710043,-0.423481 0.184611,-1.781838 -0.919049,-2.666901 C -47,27.999997 -51.331616,28.020023 -54.966384,28.399684 c -1.231847,0.526622 -2.300158,0.986074 -2.861621,2.209352 z"
       id="path5550"
       inkscape:connector-curvature="0"
       sodipodi:nodetypes="ccccccccc" />
    <path
       style="fill:none;stroke:#0000b2;stroke-width:0.5;stroke-linecap:butt;stroke-linejoin:miter;stroke-miterlimit:4;stroke-opacity:1;stroke-dasharray:none"
       d="m -42,29.999997 c -1.325697,-0.930961 -2.121361,-1.440862 -3.345597,-0.572667 -4.547521,2.516136 -12.014583,6.828145 -12.980563,11.789706 -0.09748,1.615769 2.861033,1.474393 4.32616,1.782961 3.47722,0.637344 9,1 10.326699,-0.0076 0.938614,-1.081164 0.673301,-1.9924 0.673301,-3.9924 0,-3 2.14335,-6.463694 1,-9 z"
       id="path5577"
       inkscape:connector-curvature="0"
       sodipodi:nodetypes="ccccccc" />
  </g>
</svg>
