<?xml version="1.0" encoding="UTF-8" standalone="no"?>
<!DOCTYPE svg PUBLIC "-//W3C//DTD SVG 1.0//EN" "http://www.w3.org/TR/2001/PR-SVG-20010719/DTD/svg10.dtd">
<svg width="24cm" height="9cm" viewBox="59 156 472 167" xmlns="http://www.w3.org/2000/svg" xmlns:xlink="http://www.w3.org/1999/xlink">
  <g>
    <rect style="fill: #ffffff" x="457.666" y="158.811" width="62.95" height="38"/>
    <rect style="fill: none; fill-opacity:0; stroke-width: 2; stroke: #000000" x="457.666" y="158.811" width="62.95" height="38"/>
    <text font-size="12.7998" style="fill: #000000;text-anchor:middle;font-family:sans-serif;font-style:normal;font-weight:normal" x="489.141" y="181.711">
      <tspan x="489.141" y="181.711">PCBL /</tspan>
    </text>
  </g>
  <g>
    <rect style="fill: #ffffff" x="157.928" y="160.268" width="67" height="38"/>
    <rect style="fill: none; fill-opacity:0; stroke-width: 2; stroke: #000000" x="157.928" y="160.268" width="67" height="38"/>
    <text font-size="12.7998" style="fill: #000000;text-anchor:middle;font-family:sans-serif;font-style:normal;font-weight:normal" x="191.428" y="183.168">
      <tspan x="191.428" y="183.168">PBL / C</tspan>
    </text>
  </g>
  <g>
    <rect style="fill: #ffffff" x="356.527" y="157.695" width="67" height="38"/>
    <rect style="fill: none; fill-opacity:0; stroke-width: 2; stroke: #000000" x="356.527" y="157.695" width="67" height="38"/>
    <text font-size="12.7998" style="fill: #000000;text-anchor:middle;font-family:sans-serif;font-style:normal;font-weight:normal" x="390.027" y="180.595">
      <tspan x="390.027" y="180.595">PCL / B</tspan>
    </text>
  </g>
  <g>
    <rect style="fill: #ffffff" x="258.183" y="159.173" width="67" height="38"/>
    <rect style="fill: none; fill-opacity:0; stroke-width: 2; stroke: #000000" x="258.183" y="159.173" width="67" height="38"/>
    <text font-size="12.7998" style="fill: #000000;text-anchor:middle;font-family:sans-serif;font-style:normal;font-weight:normal" x="291.683" y="182.073">
      <tspan x="291.683" y="182.073">PCB / L</tspan>
    </text>
  </g>
  <g>
    <rect style="fill: #ffffff" x="64.148" y="160.657" width="67" height="38"/>
    <rect style="fill: none; fill-opacity:0; stroke-width: 2; stroke: #000000" x="64.148" y="160.657" width="67" height="38"/>
    <text font-size="12.7998" style="fill: #000000;text-anchor:middle;font-family:sans-serif;font-style:normal;font-weight:normal" x="97.648" y="183.557">
      <tspan x="97.648" y="183.557">PB / CL</tspan>
    </text>
  </g>
  <g>
    <rect style="fill: #ffffff" x="60.6876" y="283.768" width="71.35" height="38"/>
    <rect style="fill: none; fill-opacity:0; stroke-width: 2; stroke: #000000" x="60.6876" y="283.768" width="71.35" height="38"/>
    <text font-size="12.7998" style="fill: #000000;text-anchor:middle;font-family:sans-serif;font-style:normal;font-weight:normal" x="96.3626" y="306.668">
      <tspan x="96.3626" y="306.668">/ PCBL</tspan>
    </text>
  </g>
  <g>
    <rect style="fill: #ffffff" x="252.747" y="284.036" width="67" height="38"/>
    <rect style="fill: none; fill-opacity:0; stroke-width: 2; stroke: #000000" x="252.747" y="284.036" width="67" height="38"/>
    <text font-size="12.7998" style="fill: #000000;text-anchor:middle;font-family:sans-serif;font-style:normal;font-weight:normal" x="286.247" y="306.936">
      <tspan x="286.247" y="306.936">C / PBL</tspan>
    </text>
  </g>
  <g>
    <rect style="fill: #ffffff" x="154.123" y="284.436" width="67" height="38"/>
    <rect style="fill: none; fill-opacity:0; stroke-width: 2; stroke: #000000" x="154.123" y="284.436" width="67" height="38"/>
    <text font-size="12.7998" style="fill: #000000;text-anchor:middle;font-family:sans-serif;font-style:normal;font-weight:normal" x="187.623" y="307.336">
      <tspan x="187.623" y="307.336">B / PCL</tspan>
    </text>
  </g>
  <g>
    <rect style="fill: #ffffff" x="355.947" y="283.536" width="67" height="38"/>
    <rect style="fill: none; fill-opacity:0; stroke-width: 2; stroke: #000000" x="355.947" y="283.536" width="67" height="38"/>
    <text font-size="12.7998" style="fill: #000000;text-anchor:middle;font-family:sans-serif;font-style:normal;font-weight:normal" x="389.447" y="306.436">
      <tspan x="389.447" y="306.436">L / PCB</tspan>
    </text>
  </g>
  <g>
    <rect style="fill: #ffffff" x="463.373" y="283.236" width="67" height="38"/>
    <rect style="fill: none; fill-opacity:0; stroke-width: 2; stroke: #000000" x="463.373" y="283.236" width="67" height="38"/>
    <text font-size="12.7998" style="fill: #000000;text-anchor:middle;font-family:sans-serif;font-style:normal;font-weight:normal" x="496.873" y="306.136">
      <tspan x="496.873" y="306.136">CL / PB</tspan>
    </text>
  </g>
  <line style="fill: none; fill-opacity:0; stroke-width: 2; stroke: #0000ff" x1="490.384" y1="197.814" x2="495.63" y2="282.233"/>
  <line style="fill: none; fill-opacity:0; stroke-width: 2; stroke: #000000" x1="373.596" y1="196.698" x2="302.678" y2="283.033"/>
  <line style="fill: none; fill-opacity:0; stroke-width: 2; stroke: #0000ff" x1="389.935" y1="196.68" x2="389.539" y2="282.551"/>
  <line style="fill: none; fill-opacity:0; stroke-width: 2; stroke: #0000ff" x1="190.817" y1="199.215" x2="188.234" y2="283.489"/>
  <line style="fill: none; fill-opacity:0; stroke-width: 2; stroke: #0000ff" x1="223.553" y1="199.266" x2="357.322" y2="282.538"/>
  <line style="fill: none; fill-opacity:0; stroke-width: 2; stroke: #000000" x1="275.093" y1="198.143" x2="204.212" y2="283.466"/>
  <line style="fill: none; fill-opacity:0; stroke-width: 2; stroke: #000000" x1="290.812" y1="198.179" x2="287.118" y2="283.031"/>
  <line style="fill: none; fill-opacity:0; stroke-width: 2; stroke: #0000ff" x1="97.4393" y1="199.645" x2="96.5713" y2="282.781"/>
  <line style="fill: none; fill-opacity:0; stroke-width: 2; stroke: #0000ff" x1="407.048" y1="196.694" x2="479.852" y2="282.237"/>
  <line style="fill: none; fill-opacity:0; stroke-width: 2; stroke: #0000ff" x1="112.168" y1="199.632" x2="173.103" y2="283.461"/>
</svg>
