<?xml version="1.0" encoding="UTF-8" standalone="no"?>
<!-- Created with Inkscape (http://www.inkscape.org/) -->

<svg
   xmlns:dc="http://purl.org/dc/elements/1.1/"
   xmlns:cc="http://creativecommons.org/ns#"
   xmlns:rdf="http://www.w3.org/1999/02/22-rdf-syntax-ns#"
   xmlns:svg="http://www.w3.org/2000/svg"
   xmlns="http://www.w3.org/2000/svg"
   xmlns:sodipodi="http://sodipodi.sourceforge.net/DTD/sodipodi-0.dtd"
   xmlns:inkscape="http://www.inkscape.org/namespaces/inkscape"
   width="73"
   height="46.375"
   id="svg5050"
   version="1.1"
   inkscape:version="0.48.3.1 r9886"
   sodipodi:docname="Nouveau document 21">
  <defs
     id="defs5052">
    <marker
       inkscape:stockid="Arrow1Mend"
       orient="auto"
       refY="0"
       refX="0"
       id="Arrow1Mend"
       style="overflow:visible">
      <path
         id="path4115"
         d="M 0,0 5,-5 -12.5,0 5,5 0,0 z"
         style="fill-rule:evenodd;stroke:#000000;stroke-width:1pt"
         transform="matrix(-0.4,0,0,-0.4,-4,0)"
         inkscape:connector-curvature="0" />
    </marker>
  </defs>
  <sodipodi:namedview
     id="base"
     pagecolor="#ffffff"
     bordercolor="#666666"
     borderopacity="1.0"
     inkscape:pageopacity="0.0"
     inkscape:pageshadow="2"
     inkscape:zoom="7"
     inkscape:cx="34.25"
     inkscape:cy="28.450334"
     inkscape:current-layer="layer1"
     showgrid="true"
     inkscape:grid-bbox="true"
     inkscape:document-units="px"
     inkscape:snap-global="false"
     fit-margin-top="0"
     fit-margin-left="0"
     fit-margin-right="0"
     fit-margin-bottom="0"
     inkscape:window-width="1024"
     inkscape:window-height="578"
     inkscape:window-x="0"
     inkscape:window-y="0"
     inkscape:window-maximized="1">
    <inkscape:grid
       type="xygrid"
       id="grid5058"
       empspacing="5"
       visible="true"
       enabled="true"
       snapvisiblegridlinesonly="true"
       originx="10.25px"
       originy="0.25px" />
  </sodipodi:namedview>
  <metadata
     id="metadata5055">
    <rdf:RDF>
      <cc:Work
         rdf:about="">
        <dc:format>image/svg+xml</dc:format>
        <dc:type
           rdf:resource="http://purl.org/dc/dcmitype/StillImage" />
        <dc:title></dc:title>
      </cc:Work>
    </rdf:RDF>
  </metadata>
  <g
     id="layer1"
     inkscape:label="Layer 1"
     inkscape:groupmode="layer"
     transform="translate(10.25,-1.875)">
    <path
       sodipodi:type="arc"
       style="fill:#ffffff;fill-opacity:1;stroke:#170218;stroke-width:0.5;stroke-miterlimit:4;stroke-opacity:1;stroke-dasharray:none;stroke-dashoffset:0;marker-mid:none;marker-end:none"
       id="path5060"
       sodipodi:cx="7.5"
       sodipodi:cy="5.5"
       sodipodi:rx="2.5"
       sodipodi:ry="2.5"
       d="M 10,5.5 C 10,6.8807119 8.8807119,8 7.5,8 6.1192881,8 5,6.8807119 5,5.5 5,4.1192881 6.1192881,3 7.5,3 8.8807119,3 10,4.1192881 10,5.5 z" />
    <path
       transform="translate(0,10)"
       sodipodi:type="arc"
       style="fill:#ffffff;fill-opacity:1;stroke:#170218;stroke-width:0.5;stroke-miterlimit:4;stroke-opacity:1;stroke-dasharray:none;stroke-dashoffset:0;marker-mid:none;marker-end:none"
       id="path5060-1"
       sodipodi:cx="7.5"
       sodipodi:cy="5.5"
       sodipodi:rx="2.5"
       sodipodi:ry="2.5"
       d="M 10,5.5 C 10,6.8807119 8.8807119,8 7.5,8 6.1192881,8 5,6.8807119 5,5.5 5,4.1192881 6.1192881,3 7.5,3 8.8807119,3 10,4.1192881 10,5.5 z" />
    <path
       transform="translate(0,20)"
       sodipodi:type="arc"
       style="fill:#ffffff;fill-opacity:1;stroke:#170218;stroke-width:0.5;stroke-miterlimit:4;stroke-opacity:1;stroke-dasharray:none;stroke-dashoffset:0;marker-mid:none;marker-end:none"
       id="path5060-8"
       sodipodi:cx="7.5"
       sodipodi:cy="5.5"
       sodipodi:rx="2.5"
       sodipodi:ry="2.5"
       d="M 10,5.5 C 10,6.8807119 8.8807119,8 7.5,8 6.1192881,8 5,6.8807119 5,5.5 5,4.1192881 6.1192881,3 7.5,3 8.8807119,3 10,4.1192881 10,5.5 z" />
    <path
       transform="translate(0,30)"
       sodipodi:type="arc"
       style="fill:#ffffff;fill-opacity:1;stroke:#170218;stroke-width:0.5;stroke-miterlimit:4;stroke-opacity:1;stroke-dasharray:none;stroke-dashoffset:0;marker-mid:none;marker-end:none"
       id="path5060-2"
       sodipodi:cx="7.5"
       sodipodi:cy="5.5"
       sodipodi:rx="2.5"
       sodipodi:ry="2.5"
       d="M 10,5.5 C 10,6.8807119 8.8807119,8 7.5,8 6.1192881,8 5,6.8807119 5,5.5 5,4.1192881 6.1192881,3 7.5,3 8.8807119,3 10,4.1192881 10,5.5 z" />
    <path
       transform="translate(35,0)"
       sodipodi:type="arc"
       style="fill:#ffffff;fill-opacity:1;stroke:#170218;stroke-width:0.5;stroke-miterlimit:4;stroke-opacity:1;stroke-dasharray:none;stroke-dashoffset:0;marker-mid:none;marker-end:none"
       id="path5060-28"
       sodipodi:cx="7.5"
       sodipodi:cy="5.5"
       sodipodi:rx="2.5"
       sodipodi:ry="2.5"
       d="M 10,5.5 C 10,6.8807119 8.8807119,8 7.5,8 6.1192881,8 5,6.8807119 5,5.5 5,4.1192881 6.1192881,3 7.5,3 8.8807119,3 10,4.1192881 10,5.5 z" />
    <path
       transform="translate(35,10)"
       sodipodi:type="arc"
       style="fill:#ffffff;fill-opacity:1;stroke:#170218;stroke-width:0.5;stroke-miterlimit:4;stroke-opacity:1;stroke-dasharray:none;stroke-dashoffset:0;marker-mid:none;marker-end:none"
       id="path5060-82"
       sodipodi:cx="7.5"
       sodipodi:cy="5.5"
       sodipodi:rx="2.5"
       sodipodi:ry="2.5"
       d="M 10,5.5 C 10,6.8807119 8.8807119,8 7.5,8 6.1192881,8 5,6.8807119 5,5.5 5,4.1192881 6.1192881,3 7.5,3 8.8807119,3 10,4.1192881 10,5.5 z" />
    <path
       transform="translate(35,20)"
       sodipodi:type="arc"
       style="fill:#ffffff;fill-opacity:1;stroke:#170218;stroke-width:0.5;stroke-miterlimit:4;stroke-opacity:1;stroke-dasharray:none;stroke-dashoffset:0;marker-mid:none;marker-end:none"
       id="path5060-86"
       sodipodi:cx="7.5"
       sodipodi:cy="5.5"
       sodipodi:rx="2.5"
       sodipodi:ry="2.5"
       d="M 10,5.5 C 10,6.8807119 8.8807119,8 7.5,8 6.1192881,8 5,6.8807119 5,5.5 5,4.1192881 6.1192881,3 7.5,3 8.8807119,3 10,4.1192881 10,5.5 z" />
    <path
       transform="translate(35,30)"
       sodipodi:type="arc"
       style="fill:#ffffff;fill-opacity:1;stroke:#170218;stroke-width:0.5;stroke-miterlimit:4;stroke-opacity:1;stroke-dasharray:none;stroke-dashoffset:0;marker-mid:none;marker-end:none"
       id="path5060-0"
       sodipodi:cx="7.5"
       sodipodi:cy="5.5"
       sodipodi:rx="2.5"
       sodipodi:ry="2.5"
       d="M 10,5.5 C 10,6.8807119 8.8807119,8 7.5,8 6.1192881,8 5,6.8807119 5,5.5 5,4.1192881 6.1192881,3 7.5,3 8.8807119,3 10,4.1192881 10,5.5 z" />
    <path
       transform="translate(35,40)"
       sodipodi:type="arc"
       style="fill:#ffffff;fill-opacity:1;stroke:#170218;stroke-width:0.5;stroke-miterlimit:4;stroke-opacity:1;stroke-dasharray:none;stroke-dashoffset:0;marker-mid:none;marker-end:none"
       id="path5060-10"
       sodipodi:cx="7.5"
       sodipodi:cy="5.5"
       sodipodi:rx="2.5"
       sodipodi:ry="2.5"
       d="M 10,5.5 C 10,6.8807119 8.8807119,8 7.5,8 6.1192881,8 5,6.8807119 5,5.5 5,4.1192881 6.1192881,3 7.5,3 8.8807119,3 10,4.1192881 10,5.5 z" />
    <path
       transform="translate(-15,15)"
       sodipodi:type="arc"
       style="fill:#ffffff;fill-opacity:1;stroke:#170218;stroke-width:0.5;stroke-miterlimit:4;stroke-opacity:1;stroke-dasharray:none;stroke-dashoffset:0;marker-mid:none;marker-end:none"
       id="path5060-00"
       sodipodi:cx="7.5"
       sodipodi:cy="5.5"
       sodipodi:rx="2.5"
       sodipodi:ry="2.5"
       d="M 10,5.5 C 10,6.8807119 8.8807119,8 7.5,8 6.1192881,8 5,6.8807119 5,5.5 5,4.1192881 6.1192881,3 7.5,3 8.8807119,3 10,4.1192881 10,5.5 z" />
    <path
       transform="translate(52.5,20)"
       sodipodi:type="arc"
       style="fill:#ffffff;fill-opacity:1;stroke:#170218;stroke-width:0.5;stroke-miterlimit:4;stroke-opacity:1;stroke-dasharray:none;stroke-dashoffset:0;marker-end:none"
       id="path5060-05"
       sodipodi:cx="7.5"
       sodipodi:cy="5.5"
       sodipodi:rx="2.5"
       sodipodi:ry="2.5"
       d="M 10,5.5 C 10,6.8807119 8.8807119,8 7.5,8 6.1192881,8 5,6.8807119 5,5.5 5,4.1192881 6.1192881,3 7.5,3 8.8807119,3 10,4.1192881 10,5.5 z" />
    <path
       style="fill:none;stroke:#130313;stroke-width:0.5;stroke-linecap:butt;stroke-linejoin:miter;stroke-miterlimit:4;stroke-opacity:1;stroke-dasharray:none;marker-mid:none;marker-end:url(#Arrow1Mend)"
       d="M -5,18 5,8"
       id="path5143"
       inkscape:connector-curvature="0" />
    <path
       style="fill:none;stroke:#130313;stroke-width:0.5;stroke-linecap:butt;stroke-linejoin:miter;stroke-miterlimit:4;stroke-opacity:1;stroke-dasharray:none;marker-mid:none;marker-end:url(#Arrow1Mend)"
       d="M -5,23 5,18"
       id="path5145"
       inkscape:connector-curvature="0" />
    <path
       style="fill:none;stroke:#130313;stroke-width:0.5;stroke-linecap:butt;stroke-linejoin:miter;stroke-miterlimit:4;stroke-opacity:1;stroke-dasharray:none;marker-mid:none;marker-end:url(#Arrow1Mend)"
       d="M -5,23 5,28"
       id="path5147"
       inkscape:connector-curvature="0" />
    <path
       style="fill:none;stroke:#130313;stroke-width:0.5;stroke-linecap:butt;stroke-linejoin:miter;stroke-miterlimit:4;stroke-opacity:1;stroke-dasharray:none;marker-mid:none;marker-end:url(#Arrow1Mend)"
       d="M -5,23 5,33"
       id="path5149"
       inkscape:connector-curvature="0" />
    <path
       style="fill:none;stroke:#130313;stroke-width:0.5;stroke-linecap:butt;stroke-linejoin:miter;stroke-miterlimit:4;stroke-opacity:1;stroke-dasharray:none;marker-mid:none;marker-end:url(#Arrow1Mend)"
       d="M 10,3 20,3"
       id="path5151"
       inkscape:connector-curvature="0" />
    <path
       style="fill:none;stroke:#130313;stroke-width:0.5;stroke-linecap:butt;stroke-linejoin:miter;stroke-miterlimit:4;stroke-opacity:1;stroke-dasharray:none;marker-mid:none;marker-end:url(#Arrow1Mend)"
       d="m 10.857143,6.7142857 9.428571,0"
       id="path5153"
       inkscape:connector-curvature="0" />
    <path
       style="fill:none;stroke:#130313;stroke-width:0.5;stroke-linecap:butt;stroke-linejoin:miter;stroke-miterlimit:4;stroke-opacity:1;stroke-dasharray:none;marker-mid:none;marker-end:url(#Arrow1Mend)"
       d="m 11.142857,15.857143 8,-1.428572"
       id="path5155"
       inkscape:connector-curvature="0" />
    <path
       style="fill:none;stroke:#130313;stroke-width:0.5;stroke-linecap:butt;stroke-linejoin:miter;stroke-miterlimit:4;stroke-opacity:1;stroke-dasharray:none;marker-mid:none;marker-end:url(#Arrow1Mend)"
       d="M 10.571429,24.142857 21.714286,23.285714"
       id="path5157"
       inkscape:connector-curvature="0" />
    <path
       style="fill:none;stroke:#130313;stroke-width:0.5;stroke-linecap:butt;stroke-linejoin:miter;stroke-miterlimit:4;stroke-opacity:1;stroke-dasharray:none;marker-mid:none;marker-end:url(#Arrow1Mend)"
       d="M 9.8571429,26.428571 18.285714,25.714286"
       id="path5159"
       inkscape:connector-curvature="0" />
    <path
       style="fill:none;stroke:#130313;stroke-width:0.5;stroke-linecap:butt;stroke-linejoin:miter;stroke-miterlimit:4;stroke-opacity:1;stroke-dasharray:none;marker-mid:none;marker-end:url(#Arrow1Mend)"
       d="m 10.142857,27.285714 11.142857,2"
       id="path5161"
       inkscape:connector-curvature="0" />
    <path
       style="fill:none;stroke:#130313;stroke-width:0.5;stroke-linecap:butt;stroke-linejoin:miter;stroke-miterlimit:4;stroke-opacity:1;stroke-dasharray:none;marker-mid:none;marker-end:url(#Arrow1Mend)"
       d="m 10.857143,35 8,-1.142857"
       id="path5163"
       inkscape:connector-curvature="0" />
    <path
       style="fill:none;stroke:#130313;stroke-width:0.5;stroke-linecap:butt;stroke-linejoin:miter;stroke-miterlimit:4;stroke-opacity:1;stroke-dasharray:none;marker-mid:none;marker-end:url(#Arrow1Mend)"
       d="m 11.142857,36.428571 7.714286,1.857143"
       id="path5165"
       inkscape:connector-curvature="0" />
    <path
       style="fill:none;stroke:#130313;stroke-width:0.5;stroke-linecap:butt;stroke-linejoin:miter;stroke-miterlimit:4;stroke-opacity:1;stroke-dasharray:none;marker-mid:none;marker-end:url(#Arrow1Mend)"
       d="m 32.142857,4.5714286 7.714286,0.5714285"
       id="path5167"
       inkscape:connector-curvature="0" />
    <path
       style="fill:none;stroke:#130313;stroke-width:0.5;stroke-linecap:butt;stroke-linejoin:miter;stroke-miterlimit:4;stroke-opacity:1;stroke-dasharray:none;marker-mid:none;marker-end:url(#Arrow1Mend)"
       d="m 31.714286,15.285714 7.571428,-1.142857"
       id="path5169"
       inkscape:connector-curvature="0" />
    <path
       style="fill:none;stroke:#130313;stroke-width:0.5;stroke-linecap:butt;stroke-linejoin:miter;stroke-miterlimit:4;stroke-opacity:1;stroke-dasharray:none;marker-mid:none;marker-end:url(#Arrow1Mend)"
       d="M 31.428571,25.142857 39,24.571429"
       id="path5171"
       inkscape:connector-curvature="0" />
    <path
       style="fill:none;stroke:#130313;stroke-width:0.5;stroke-linecap:butt;stroke-linejoin:miter;stroke-miterlimit:4;stroke-opacity:1;stroke-dasharray:none;marker-mid:none;marker-end:url(#Arrow1Mend)"
       d="m 32.428571,28.285714 6.285715,-1.714285"
       id="path5173"
       inkscape:connector-curvature="0" />
    <path
       style="fill:none;stroke:#130313;stroke-width:0.5;stroke-linecap:butt;stroke-linejoin:miter;stroke-miterlimit:4;stroke-opacity:1;stroke-dasharray:none;marker-mid:none;marker-end:url(#Arrow1Mend)"
       d="m 33.142857,33.714286 5.714286,0.428571"
       id="path5177"
       inkscape:connector-curvature="0" />
    <path
       style="fill:none;stroke:#130313;stroke-width:0.5;stroke-linecap:butt;stroke-linejoin:miter;stroke-miterlimit:4;stroke-opacity:1;stroke-dasharray:none;marker-mid:none;marker-end:url(#Arrow1Mend)"
       d="M 33.571429,37.285714 38.714286,36"
       id="path5179"
       inkscape:connector-curvature="0" />
    <path
       style="fill:none;stroke:#130313;stroke-width:0.5;stroke-linecap:butt;stroke-linejoin:miter;stroke-miterlimit:4;stroke-opacity:1;stroke-dasharray:none;marker-mid:none;marker-end:url(#Arrow1Mend)"
       d="M 32.285714,45.142857 39,44.714286"
       id="path5181"
       inkscape:connector-curvature="0" />
    <path
       style="fill:none;stroke:#130313;stroke-width:0.5;stroke-linecap:butt;stroke-linejoin:miter;stroke-miterlimit:4;stroke-opacity:1;stroke-dasharray:none;marker-mid:none;marker-end:url(#Arrow1Mend)"
       d="M 45.142857,5.8571429 57.428571,23.857143"
       id="path5183"
       inkscape:connector-curvature="0" />
    <path
       style="fill:none;stroke:#130313;stroke-width:0.5;stroke-linecap:butt;stroke-linejoin:miter;stroke-miterlimit:4;stroke-opacity:1;stroke-dasharray:none;marker-mid:none;marker-end:url(#Arrow1Mend)"
       d="M 45,15.142857 56.714286,25.285714"
       id="path5185"
       inkscape:connector-curvature="0" />
    <path
       style="fill:none;stroke:#130313;stroke-width:0.5;stroke-linecap:butt;stroke-linejoin:miter;stroke-miterlimit:4;stroke-opacity:1;stroke-dasharray:none;marker-mid:none;marker-end:url(#Arrow1Mend)"
       d="m 45,25 11.428571,1.285714"
       id="path5187"
       inkscape:connector-curvature="0" />
    <path
       style="fill:none;stroke:#130313;stroke-width:0.5;stroke-linecap:butt;stroke-linejoin:miter;stroke-miterlimit:4;stroke-opacity:1;stroke-dasharray:none;marker-mid:none;marker-end:url(#Arrow1Mend)"
       d="M 45.857143,34.571429 55.857143,28"
       id="path5189"
       inkscape:connector-curvature="0" />
    <path
       style="fill:none;stroke:#130313;stroke-width:0.5;stroke-linecap:butt;stroke-linejoin:miter;stroke-miterlimit:4;stroke-opacity:1;stroke-dasharray:none;marker-mid:none;marker-end:url(#Arrow1Mend)"
       d="m 46,45.285714 10.571429,-17"
       id="path5191"
       inkscape:connector-curvature="0" />
    <text
       xml:space="preserve"
       style="font-size:6.93759871px;font-style:normal;font-weight:normal;line-height:125%;letter-spacing:0px;word-spacing:0px;fill:#000000;fill-opacity:1;stroke:none;font-family:Sans"
       x="9.6453896"
       y="4.0809975"
       id="text6247"
       sodipodi:linespacing="125%"
       transform="matrix(0,0.9472195,-1.0557215,0,0,0)"><tspan
         sodipodi:role="line"
         id="tspan6249"
         x="9.6453896"
         y="4.0809975">8</tspan></text>
    <text
       xml:space="preserve"
       style="font-size:6.93759871px;font-style:normal;font-weight:normal;line-height:125%;letter-spacing:0px;word-spacing:0px;fill:#000000;fill-opacity:1;stroke:none;font-family:Sans"
       x="18.155081"
       y="2.2547467"
       id="text6247-2"
       sodipodi:linespacing="125%"
       transform="matrix(0,0.9472195,-1.0557215,0,0,0)"><tspan
         sodipodi:role="line"
         id="tspan6249-8"
         x="18.155081"
         y="2.2547467">8</tspan></text>
    <text
       xml:space="preserve"
       style="font-size:6.93759871px;font-style:normal;font-weight:normal;line-height:125%;letter-spacing:0px;word-spacing:0px;fill:#000000;fill-opacity:1;stroke:none;font-family:Sans"
       x="24.036959"
       y="1.4428442"
       id="text6247-0"
       sodipodi:linespacing="125%"
       transform="matrix(0,0.9472195,-1.0557215,0,0,0)"><tspan
         sodipodi:role="line"
         id="tspan6249-4"
         x="24.036959"
         y="1.4428442">8</tspan></text>
    <text
       xml:space="preserve"
       style="font-size:6.93759871px;font-style:normal;font-weight:normal;line-height:125%;letter-spacing:0px;word-spacing:0px;fill:#000000;fill-opacity:1;stroke:none;font-family:Sans"
       x="27.95821"
       y="3.066649"
       id="text6247-5"
       sodipodi:linespacing="125%"
       transform="matrix(0,0.9472195,-1.0557215,0,0,0)"><tspan
         sodipodi:role="line"
         id="tspan6249-2"
         x="27.95821"
         y="3.066649">8</tspan></text>
    <text
       xml:space="preserve"
       style="font-size:6.93759871px;font-style:normal;font-weight:normal;line-height:125%;letter-spacing:0px;word-spacing:0px;fill:#000000;fill-opacity:1;stroke:none;font-family:Sans"
       x="12.122387"
       y="-45.782814"
       id="text6247-7"
       sodipodi:linespacing="125%"
       transform="matrix(0,0.9472195,-1.0557215,0,0,0)"><tspan
         sodipodi:role="line"
         id="tspan6249-26"
         x="12.122387"
         y="-45.782814">8</tspan></text>
    <text
       xml:space="preserve"
       style="font-size:6.93759871px;font-style:normal;font-weight:normal;line-height:125%;letter-spacing:0px;word-spacing:0px;fill:#000000;fill-opacity:1;stroke:none;font-family:Sans"
       x="17.09936"
       y="-43.482422"
       id="text6247-3"
       sodipodi:linespacing="125%"
       transform="matrix(0,0.9472195,-1.0557215,0,0,0)"><tspan
         sodipodi:role="line"
         id="tspan6249-3"
         x="17.09936"
         y="-43.482422">8</tspan></text>
    <text
       xml:space="preserve"
       style="font-size:6.93759871px;font-style:normal;font-weight:normal;line-height:125%;letter-spacing:0px;word-spacing:0px;fill:#000000;fill-opacity:1;stroke:none;font-family:Sans"
       x="25.545132"
       y="-43.211788"
       id="text6247-70"
       sodipodi:linespacing="125%"
       transform="matrix(0,0.9472195,-1.0557215,0,0,0)"><tspan
         sodipodi:role="line"
         id="tspan6249-7"
         x="25.545132"
         y="-43.211788">8</tspan></text>
    <text
       xml:space="preserve"
       style="font-size:6.93759871px;font-style:normal;font-weight:normal;line-height:125%;letter-spacing:0px;word-spacing:0px;fill:#000000;fill-opacity:1;stroke:none;font-family:Sans"
       x="32.482731"
       y="-44.700279"
       id="text6247-9"
       sodipodi:linespacing="125%"
       transform="matrix(0,0.9472195,-1.0557215,0,0,0)"><tspan
         sodipodi:role="line"
         id="tspan6249-80"
         x="32.482731"
         y="-44.700279">8</tspan></text>
    <text
       xml:space="preserve"
       style="font-size:6.93759871px;font-style:normal;font-weight:normal;line-height:125%;letter-spacing:0px;word-spacing:0px;fill:#000000;fill-opacity:1;stroke:none;font-family:Sans"
       x="39.721962"
       y="-46.730034"
       id="text6247-30"
       sodipodi:linespacing="125%"
       transform="matrix(0,0.9472195,-1.0557215,0,0,0)"><tspan
         sodipodi:role="line"
         id="tspan6249-20"
         x="39.721962"
         y="-46.730034">8</tspan></text>
  </g>
</svg>
