<?xml version="1.0" encoding="UTF-8" standalone="no"?>
<!-- Created with Inkscape (http://www.inkscape.org/) -->

<svg
   xmlns:dc="http://purl.org/dc/elements/1.1/"
   xmlns:cc="http://creativecommons.org/ns#"
   xmlns:rdf="http://www.w3.org/1999/02/22-rdf-syntax-ns#"
   xmlns:svg="http://www.w3.org/2000/svg"
   xmlns="http://www.w3.org/2000/svg"
   xmlns:sodipodi="http://sodipodi.sourceforge.net/DTD/sodipodi-0.dtd"
   xmlns:inkscape="http://www.inkscape.org/namespaces/inkscape"
   width="40.392857"
   height="52.901096"
   id="svg5050"
   version="1.1"
   inkscape:version="0.48.3.1 r9886"
   sodipodi:docname="fig38.pdf">
  <defs
     id="defs5052">
    <marker
       inkscape:stockid="Arrow1Mend"
       orient="auto"
       refY="0"
       refX="0"
       id="Arrow1Mend"
       style="overflow:visible">
      <path
         id="path4115"
         d="M 0,0 5,-5 -12.5,0 5,5 0,0 z"
         style="fill-rule:evenodd;stroke:#000000;stroke-width:1pt"
         transform="matrix(-0.4,0,0,-0.4,-4,0)"
         inkscape:connector-curvature="0" />
    </marker>
    <marker
       inkscape:stockid="Arrow1Mend"
       orient="auto"
       refY="0"
       refX="0"
       id="Arrow1Mend-0"
       style="overflow:visible">
      <path
         id="path4115-3"
         d="M 0,0 5,-5 -12.5,0 5,5 0,0 z"
         style="fill-rule:evenodd;stroke:#000000;stroke-width:1pt"
         transform="matrix(-0.4,0,0,-0.4,-4,0)"
         inkscape:connector-curvature="0" />
    </marker>
    <marker
       inkscape:stockid="Arrow1Mend"
       orient="auto"
       refY="0"
       refX="0"
       id="marker6419"
       style="overflow:visible">
      <path
         id="path6421"
         d="M 0,0 5,-5 -12.5,0 5,5 0,0 z"
         style="fill-rule:evenodd;stroke:#000000;stroke-width:1pt"
         transform="matrix(-0.4,0,0,-0.4,-4,0)"
         inkscape:connector-curvature="0" />
    </marker>
    <marker
       inkscape:stockid="Arrow1Mend"
       orient="auto"
       refY="0"
       refX="0"
       id="Arrow1Mend-4"
       style="overflow:visible">
      <path
         id="path4115-6"
         d="M 0,0 5,-5 -12.5,0 5,5 0,0 z"
         style="fill-rule:evenodd;stroke:#000000;stroke-width:1pt"
         transform="matrix(-0.4,0,0,-0.4,-4,0)"
         inkscape:connector-curvature="0" />
    </marker>
    <marker
       inkscape:stockid="Arrow1Mend"
       orient="auto"
       refY="0"
       refX="0"
       id="Arrow1Mend-1"
       style="overflow:visible">
      <path
         id="path4115-9"
         d="M 0,0 5,-5 -12.5,0 5,5 0,0 z"
         style="fill-rule:evenodd;stroke:#000000;stroke-width:1pt"
         transform="matrix(-0.4,0,0,-0.4,-4,0)"
         inkscape:connector-curvature="0" />
    </marker>
    <marker
       inkscape:stockid="Arrow1Mend"
       orient="auto"
       refY="0"
       refX="0"
       id="Arrow1Mend-04"
       style="overflow:visible">
      <path
         id="path4115-68"
         d="M 0,0 5,-5 -12.5,0 5,5 0,0 z"
         style="fill-rule:evenodd;stroke:#000000;stroke-width:1pt"
         transform="matrix(-0.4,0,0,-0.4,-4,0)"
         inkscape:connector-curvature="0" />
    </marker>
    <marker
       inkscape:stockid="Arrow1Mend"
       orient="auto"
       refY="0"
       refX="0"
       id="Arrow1Mend-5"
       style="overflow:visible">
      <path
         id="path4115-95"
         d="M 0,0 5,-5 -12.5,0 5,5 0,0 z"
         style="fill-rule:evenodd;stroke:#000000;stroke-width:1pt"
         transform="matrix(-0.4,0,0,-0.4,-4,0)"
         inkscape:connector-curvature="0" />
    </marker>
    <marker
       inkscape:stockid="Arrow1Mend"
       orient="auto"
       refY="0"
       refX="0"
       id="marker6741"
       style="overflow:visible">
      <path
         id="path6743"
         d="M 0,0 5,-5 -12.5,0 5,5 0,0 z"
         style="fill-rule:evenodd;stroke:#000000;stroke-width:1pt"
         transform="matrix(-0.4,0,0,-0.4,-4,0)"
         inkscape:connector-curvature="0" />
    </marker>
    <marker
       inkscape:stockid="Arrow1Mend"
       orient="auto"
       refY="0"
       refX="0"
       id="marker6745"
       style="overflow:visible">
      <path
         id="path6747"
         d="M 0,0 5,-5 -12.5,0 5,5 0,0 z"
         style="fill-rule:evenodd;stroke:#000000;stroke-width:1pt"
         transform="matrix(-0.4,0,0,-0.4,-4,0)"
         inkscape:connector-curvature="0" />
    </marker>
    <marker
       inkscape:stockid="Arrow1Mend"
       orient="auto"
       refY="0"
       refX="0"
       id="marker6749"
       style="overflow:visible">
      <path
         id="path6751"
         d="M 0,0 5,-5 -12.5,0 5,5 0,0 z"
         style="fill-rule:evenodd;stroke:#000000;stroke-width:1pt"
         transform="matrix(-0.4,0,0,-0.4,-4,0)"
         inkscape:connector-curvature="0" />
    </marker>
    <marker
       inkscape:stockid="Arrow1Mend"
       orient="auto"
       refY="0"
       refX="0"
       id="marker6753"
       style="overflow:visible">
      <path
         id="path6755"
         d="M 0,0 5,-5 -12.5,0 5,5 0,0 z"
         style="fill-rule:evenodd;stroke:#000000;stroke-width:1pt"
         transform="matrix(-0.4,0,0,-0.4,-4,0)"
         inkscape:connector-curvature="0" />
    </marker>
    <marker
       inkscape:stockid="Arrow1Mend"
       orient="auto"
       refY="0"
       refX="0"
       id="Arrow1Mend-56"
       style="overflow:visible">
      <path
         id="path4115-8"
         d="M 0,0 5,-5 -12.5,0 5,5 0,0 z"
         style="fill-rule:evenodd;stroke:#000000;stroke-width:1pt"
         transform="matrix(-0.4,0,0,-0.4,-4,0)"
         inkscape:connector-curvature="0" />
    </marker>
    <marker
       inkscape:stockid="Arrow1Mend"
       orient="auto"
       refY="0"
       refX="0"
       id="Arrow1Mend-3"
       style="overflow:visible">
      <path
         id="path4115-38"
         d="M 0,0 5,-5 -12.5,0 5,5 0,0 z"
         style="fill-rule:evenodd;stroke:#000000;stroke-width:1pt"
         transform="matrix(-0.4,0,0,-0.4,-4,0)"
         inkscape:connector-curvature="0" />
    </marker>
    <marker
       inkscape:stockid="Arrow1Mend"
       orient="auto"
       refY="0"
       refX="0"
       id="Arrow1Mend-2"
       style="overflow:visible">
      <path
         id="path4115-33"
         d="M 0,0 5,-5 -12.5,0 5,5 0,0 z"
         style="fill-rule:evenodd;stroke:#000000;stroke-width:1pt"
         transform="matrix(-0.4,0,0,-0.4,-4,0)"
         inkscape:connector-curvature="0" />
    </marker>
    <marker
       inkscape:stockid="Arrow1Mend"
       orient="auto"
       refY="0"
       refX="0"
       id="Arrow1Mend-7"
       style="overflow:visible">
      <path
         id="path4115-1"
         d="M 0,0 5,-5 -12.5,0 5,5 0,0 z"
         style="fill-rule:evenodd;stroke:#000000;stroke-width:1pt"
         transform="matrix(-0.4,0,0,-0.4,-4,0)"
         inkscape:connector-curvature="0" />
    </marker>
    <marker
       inkscape:stockid="Arrow1Mend"
       orient="auto"
       refY="0"
       refX="0"
       id="Arrow1Mend-34"
       style="overflow:visible">
      <path
         id="path4115-65"
         d="M 0,0 5,-5 -12.5,0 5,5 0,0 z"
         style="fill-rule:evenodd;stroke:#000000;stroke-width:1pt"
         transform="matrix(-0.4,0,0,-0.4,-4,0)"
         inkscape:connector-curvature="0" />
    </marker>
    <marker
       inkscape:stockid="Arrow1Mend"
       orient="auto"
       refY="0"
       refX="0"
       id="Arrow1Mend-20"
       style="overflow:visible">
      <path
         id="path4115-81"
         d="M 0,0 5,-5 -12.5,0 5,5 0,0 z"
         style="fill-rule:evenodd;stroke:#000000;stroke-width:1pt"
         transform="matrix(-0.4,0,0,-0.4,-4,0)"
         inkscape:connector-curvature="0" />
    </marker>
    <marker
       inkscape:stockid="Arrow1Mend"
       orient="auto"
       refY="0"
       refX="0"
       id="marker7119"
       style="overflow:visible">
      <path
         id="path7121"
         d="M 0,0 5,-5 -12.5,0 5,5 0,0 z"
         style="fill-rule:evenodd;stroke:#000000;stroke-width:1pt"
         transform="matrix(-0.4,0,0,-0.4,-4,0)"
         inkscape:connector-curvature="0" />
    </marker>
    <marker
       inkscape:stockid="Arrow1Mend"
       orient="auto"
       refY="0"
       refX="0"
       id="marker7123"
       style="overflow:visible">
      <path
         id="path7125"
         d="M 0,0 5,-5 -12.5,0 5,5 0,0 z"
         style="fill-rule:evenodd;stroke:#000000;stroke-width:1pt"
         transform="matrix(-0.4,0,0,-0.4,-4,0)"
         inkscape:connector-curvature="0" />
    </marker>
    <marker
       inkscape:stockid="Arrow1Mend"
       orient="auto"
       refY="0"
       refX="0"
       id="marker7127"
       style="overflow:visible">
      <path
         id="path7129"
         d="M 0,0 5,-5 -12.5,0 5,5 0,0 z"
         style="fill-rule:evenodd;stroke:#000000;stroke-width:1pt"
         transform="matrix(-0.4,0,0,-0.4,-4,0)"
         inkscape:connector-curvature="0" />
    </marker>
    <marker
       inkscape:stockid="Arrow1Mend"
       orient="auto"
       refY="0"
       refX="0"
       id="marker7131"
       style="overflow:visible">
      <path
         id="path7133"
         d="M 0,0 5,-5 -12.5,0 5,5 0,0 z"
         style="fill-rule:evenodd;stroke:#000000;stroke-width:1pt"
         transform="matrix(-0.4,0,0,-0.4,-4,0)"
         inkscape:connector-curvature="0" />
    </marker>
    <marker
       inkscape:stockid="Arrow1Mend"
       orient="auto"
       refY="0"
       refX="0"
       id="Arrow1Mend-33"
       style="overflow:visible">
      <path
         id="path4115-83"
         d="M 0,0 5,-5 -12.5,0 5,5 0,0 z"
         style="fill-rule:evenodd;stroke:#000000;stroke-width:1pt"
         transform="matrix(-0.4,0,0,-0.4,-4,0)"
         inkscape:connector-curvature="0" />
    </marker>
    <marker
       inkscape:stockid="Arrow1Mend"
       orient="auto"
       refY="0"
       refX="0"
       id="marker7272"
       style="overflow:visible">
      <path
         id="path7274"
         d="M 0,0 5,-5 -12.5,0 5,5 0,0 z"
         style="fill-rule:evenodd;stroke:#000000;stroke-width:1pt"
         transform="matrix(-0.4,0,0,-0.4,-4,0)"
         inkscape:connector-curvature="0" />
    </marker>
    <marker
       inkscape:stockid="Arrow1Mend"
       orient="auto"
       refY="0"
       refX="0"
       id="marker7276"
       style="overflow:visible">
      <path
         id="path7278"
         d="M 0,0 5,-5 -12.5,0 5,5 0,0 z"
         style="fill-rule:evenodd;stroke:#000000;stroke-width:1pt"
         transform="matrix(-0.4,0,0,-0.4,-4,0)"
         inkscape:connector-curvature="0" />
    </marker>
    <marker
       inkscape:stockid="Arrow1Mend"
       orient="auto"
       refY="0"
       refX="0"
       id="marker7280"
       style="overflow:visible">
      <path
         id="path7282"
         d="M 0,0 5,-5 -12.5,0 5,5 0,0 z"
         style="fill-rule:evenodd;stroke:#000000;stroke-width:1pt"
         transform="matrix(-0.4,0,0,-0.4,-4,0)"
         inkscape:connector-curvature="0" />
    </marker>
    <marker
       inkscape:stockid="Arrow1Mend"
       orient="auto"
       refY="0"
       refX="0"
       id="marker7284"
       style="overflow:visible">
      <path
         id="path7286"
         d="M 0,0 5,-5 -12.5,0 5,5 0,0 z"
         style="fill-rule:evenodd;stroke:#000000;stroke-width:1pt"
         transform="matrix(-0.4,0,0,-0.4,-4,0)"
         inkscape:connector-curvature="0" />
    </marker>
    <marker
       inkscape:stockid="Arrow1Mend"
       orient="auto"
       refY="0"
       refX="0"
       id="marker7288"
       style="overflow:visible">
      <path
         id="path7290"
         d="M 0,0 5,-5 -12.5,0 5,5 0,0 z"
         style="fill-rule:evenodd;stroke:#000000;stroke-width:1pt"
         transform="matrix(-0.4,0,0,-0.4,-4,0)"
         inkscape:connector-curvature="0" />
    </marker>
    <marker
       inkscape:stockid="Arrow1Mend"
       orient="auto"
       refY="0"
       refX="0"
       id="marker7292"
       style="overflow:visible">
      <path
         id="path7294"
         d="M 0,0 5,-5 -12.5,0 5,5 0,0 z"
         style="fill-rule:evenodd;stroke:#000000;stroke-width:1pt"
         transform="matrix(-0.4,0,0,-0.4,-4,0)"
         inkscape:connector-curvature="0" />
    </marker>
    <marker
       inkscape:stockid="Arrow1Mend"
       orient="auto"
       refY="0"
       refX="0"
       id="marker7296"
       style="overflow:visible">
      <path
         id="path7298"
         d="M 0,0 5,-5 -12.5,0 5,5 0,0 z"
         style="fill-rule:evenodd;stroke:#000000;stroke-width:1pt"
         transform="matrix(-0.4,0,0,-0.4,-4,0)"
         inkscape:connector-curvature="0" />
    </marker>
  </defs>
  <sodipodi:namedview
     id="base"
     pagecolor="#ffffff"
     bordercolor="#666666"
     borderopacity="1.0"
     inkscape:pageopacity="0.0"
     inkscape:pageshadow="2"
     inkscape:zoom="7"
     inkscape:cx="8.1403838"
     inkscape:cy="35.291623"
     inkscape:current-layer="layer1"
     showgrid="true"
     inkscape:grid-bbox="true"
     inkscape:document-units="px"
     inkscape:snap-global="false"
     fit-margin-top="0"
     fit-margin-left="0"
     fit-margin-right="0"
     fit-margin-bottom="0"
     inkscape:window-width="1024"
     inkscape:window-height="578"
     inkscape:window-x="0"
     inkscape:window-y="0"
     inkscape:window-maximized="1">
    <inkscape:grid
       type="xygrid"
       id="grid5058"
       empspacing="5"
       visible="true"
       enabled="true"
       snapvisiblegridlinesonly="true"
       originx="-22.696429px"
       originy="71.155274px" />
  </sodipodi:namedview>
  <metadata
     id="metadata5055">
    <rdf:RDF>
      <cc:Work
         rdf:about="">
        <dc:format>image/svg+xml</dc:format>
        <dc:type
           rdf:resource="http://purl.org/dc/dcmitype/StillImage" />
        <dc:title></dc:title>
      </cc:Work>
    </rdf:RDF>
  </metadata>
  <g
     id="layer1"
     inkscape:label="Layer 1"
     inkscape:groupmode="layer"
     transform="translate(-22.696429,-66.254184)">
    <path
       sodipodi:type="arc"
       style="fill:#ffffff;fill-opacity:1;stroke:#170218;stroke-width:0.5;stroke-miterlimit:4;stroke-opacity:1;stroke-dasharray:none;stroke-dashoffset:0;marker-mid:none;marker-end:none"
       id="path5060-7"
       sodipodi:cx="7.5"
       sodipodi:cy="5.5"
       sodipodi:rx="2.5"
       sodipodi:ry="2.5"
       d="M 10,5.5 C 10,6.8807119 8.8807119,8 7.5,8 6.1192881,8 5,6.8807119 5,5.5 5,4.1192881 6.1192881,3 7.5,3 8.8807119,3 10,4.1192881 10,5.5 z"
       transform="translate(17.946429,72.21847)" />
    <path
       transform="translate(35.946428,63.504184)"
       sodipodi:type="arc"
       style="fill:#ffffff;fill-opacity:1;stroke:#170218;stroke-width:0.5;stroke-miterlimit:4;stroke-opacity:1;stroke-dasharray:none;stroke-dashoffset:0;marker-mid:none;marker-end:none"
       id="path5060-28-0"
       sodipodi:cx="7.5"
       sodipodi:cy="5.5"
       sodipodi:rx="2.5"
       sodipodi:ry="2.5"
       d="M 10,5.5 C 10,6.8807119 8.8807119,8 7.5,8 6.1192881,8 5,6.8807119 5,5.5 5,4.1192881 6.1192881,3 7.5,3 8.8807119,3 10,4.1192881 10,5.5 z" />
    <path
       style="fill:none;stroke:#130313;stroke-width:0.5;stroke-linecap:butt;stroke-linejoin:miter;stroke-miterlimit:4;stroke-opacity:1;stroke-dasharray:none;marker-mid:none;marker-end:url(#Arrow1Mend)"
       d="M 27.803571,75.21847 40.374999,69.504184"
       id="path5151-8"
       inkscape:connector-curvature="0"
       sodipodi:nodetypes="cc" />
    <text
       xml:space="preserve"
       style="font-size:3.30840254px;font-style:normal;font-weight:normal;line-height:125%;letter-spacing:0px;word-spacing:0px;fill:#000000;fill-opacity:1;stroke:none;font-family:Sans"
       x="27.584631"
       y="70.591454"
       id="text6373-3"
       sodipodi:linespacing="125%"><tspan
         sodipodi:role="line"
         id="tspan6375-9"
         x="27.584631"
         y="70.591454">3[3]</tspan></text>
    <path
       transform="translate(52.839285,72.890625)"
       sodipodi:type="arc"
       style="fill:#ffffff;fill-opacity:1;stroke:#170218;stroke-width:0.5;stroke-miterlimit:4;stroke-opacity:1;stroke-dasharray:none;stroke-dashoffset:0;marker-mid:none;marker-end:none"
       id="path5060-0-2"
       sodipodi:cx="7.5"
       sodipodi:cy="5.5"
       sodipodi:rx="2.5"
       sodipodi:ry="2.5"
       d="M 10,5.5 C 10,6.8807119 8.8807119,8 7.5,8 6.1192881,8 5,6.8807119 5,5.5 5,4.1192881 6.1192881,3 7.5,3 8.8807119,3 10,4.1192881 10,5.5 z" />
    <path
       transform="translate(35.982142,83.176339)"
       sodipodi:type="arc"
       style="fill:#ffffff;fill-opacity:1;stroke:#170218;stroke-width:0.5;stroke-miterlimit:4;stroke-opacity:1;stroke-dasharray:none;stroke-dashoffset:0;marker-mid:none;marker-end:none"
       id="path5060-28-3-4"
       sodipodi:cx="7.5"
       sodipodi:cy="5.5"
       sodipodi:rx="2.5"
       sodipodi:ry="2.5"
       d="M 10,5.5 C 10,6.8807119 8.8807119,8 7.5,8 6.1192881,8 5,6.8807119 5,5.5 5,4.1192881 6.1192881,3 7.5,3 8.8807119,3 10,4.1192881 10,5.5 z" />
    <path
       style="fill:none;stroke:#130313;stroke-width:0.5;stroke-linecap:butt;stroke-linejoin:miter;stroke-miterlimit:4;stroke-opacity:1;stroke-dasharray:none;marker-mid:none;marker-end:url(#Arrow1Mend)"
       d="M 27.55357,80.033482 39.267857,87.60491"
       id="path5151-3-6"
       inkscape:connector-curvature="0"
       sodipodi:nodetypes="cc" />
    <text
       xml:space="preserve"
       style="font-size:3.30840254px;font-style:normal;font-weight:normal;line-height:125%;letter-spacing:0px;word-spacing:0px;fill:#000000;fill-opacity:1;stroke:none;font-family:Sans"
       x="24.906061"
       y="86.549324"
       id="text6373-6-63"
       sodipodi:linespacing="125%"><tspan
         sodipodi:role="line"
         id="tspan6375-1-8"
         x="24.906061"
         y="86.549324">4[4]</tspan></text>
    <text
       xml:space="preserve"
       style="font-size:3.30840254px;font-style:normal;font-weight:normal;line-height:125%;letter-spacing:0px;word-spacing:0px;fill:#000000;fill-opacity:1;stroke:none;font-family:Sans"
       x="24.501926"
       y="78.967415"
       id="text6373-6-0-4"
       sodipodi:linespacing="125%"><tspan
         sodipodi:role="line"
         id="tspan6375-1-6-2"
         x="24.501926"
         y="78.967415">s</tspan></text>
    <text
       xml:space="preserve"
       style="font-size:3.30840254px;font-style:normal;font-weight:normal;line-height:125%;letter-spacing:0px;word-spacing:0px;fill:#000000;fill-opacity:1;stroke:none;font-family:Sans"
       x="42.359066"
       y="69.824554"
       id="text6373-6-6-3"
       sodipodi:linespacing="125%"><tspan
         sodipodi:role="line"
         id="tspan6375-1-66-45"
         x="42.359066"
         y="69.824554">1</tspan></text>
    <text
       xml:space="preserve"
       style="font-size:3.30840254px;font-style:normal;font-weight:normal;line-height:125%;letter-spacing:0px;word-spacing:0px;fill:#000000;fill-opacity:1;stroke:none;font-family:Sans"
       x="42.574619"
       y="89.524895"
       id="text6373-6-6-7-0"
       sodipodi:linespacing="125%"><tspan
         sodipodi:role="line"
         id="tspan6375-1-66-4-6"
         x="42.574619"
         y="89.524895">2</tspan></text>
    <text
       xml:space="preserve"
       style="font-size:3.30840254px;font-style:normal;font-weight:normal;line-height:125%;letter-spacing:0px;word-spacing:0px;fill:#000000;fill-opacity:1;stroke:none;font-family:Sans"
       x="59.37199"
       y="79.237564"
       id="text6373-6-0-6-2"
       sodipodi:linespacing="125%"><tspan
         sodipodi:role="line"
         id="tspan6375-1-6-6-8"
         x="59.37199"
         y="79.237564">p</tspan></text>
    <path
       style="fill:none;stroke:#130313;stroke-width:0.5;stroke-linecap:butt;stroke-linejoin:miter;stroke-miterlimit:4;stroke-opacity:1;stroke-dasharray:none;marker-mid:none;marker-end:url(#Arrow1Mend)"
       d="M 43.120395,85.613732 42.977539,72.185161"
       id="path5151-3-9-9"
       inkscape:connector-curvature="0"
       sodipodi:nodetypes="cc" />
    <path
       style="fill:none;stroke:#130313;stroke-width:0.5;stroke-linecap:butt;stroke-linejoin:miter;stroke-miterlimit:4;stroke-opacity:1;stroke-dasharray:none;marker-mid:none;marker-end:url(#Arrow1Mend)"
       d="m 46.263253,70.042305 10.857144,6.285713"
       id="path5151-3-7-2"
       inkscape:connector-curvature="0"
       sodipodi:nodetypes="cc" />
    <path
       style="fill:none;stroke:#130313;stroke-width:0.5;stroke-linecap:butt;stroke-linejoin:miter;stroke-miterlimit:4;stroke-opacity:1;stroke-dasharray:none;marker-mid:none;marker-end:url(#Arrow1Mend)"
       d="M 46.40611,87.042304 58.120395,80.185161"
       id="path5151-3-2-4"
       inkscape:connector-curvature="0"
       sodipodi:nodetypes="cc" />
    <text
       xml:space="preserve"
       style="font-size:3.30840254px;font-style:normal;font-weight:normal;line-height:125%;letter-spacing:0px;word-spacing:0px;fill:#000000;fill-opacity:1;stroke:none;font-family:Sans"
       x="43.598621"
       y="80.225662"
       id="text6373-4-6"
       sodipodi:linespacing="125%"><tspan
         sodipodi:role="line"
         id="tspan6375-5-0"
         x="43.598621"
         y="80.225662">3</tspan></text>
    <text
       xml:space="preserve"
       style="font-size:3.30840254px;font-style:normal;font-weight:normal;line-height:125%;letter-spacing:0px;word-spacing:0px;fill:#000000;fill-opacity:1;stroke:none;font-family:Sans"
       x="49.884335"
       y="71.082802"
       id="text6373-0-3"
       sodipodi:linespacing="125%"><tspan
         sodipodi:role="line"
         id="tspan6375-3-9"
         x="49.884335"
         y="71.082802">3[3]</tspan></text>
    <text
       xml:space="preserve"
       style="font-size:3.30840254px;font-style:normal;font-weight:normal;line-height:125%;letter-spacing:0px;word-spacing:0px;fill:#000000;fill-opacity:1;stroke:none;font-family:Sans"
       x="51.312908"
       y="85.654228"
       id="text6373-9-4"
       sodipodi:linespacing="125%"><tspan
         sodipodi:role="line"
         id="tspan6375-2-5"
         x="51.312908"
         y="85.654228">5[4]</tspan></text>
    <path
       sodipodi:type="arc"
       style="fill:#ffffff;fill-opacity:1;stroke:#170218;stroke-width:0.5;stroke-miterlimit:4;stroke-opacity:1;stroke-dasharray:none;stroke-dashoffset:0;marker-mid:none;marker-end:none"
       id="path5060-02-8"
       sodipodi:cx="7.5"
       sodipodi:cy="5.5"
       sodipodi:rx="2.5"
       sodipodi:ry="2.5"
       d="M 10,5.5 C 10,6.8807119 8.8807119,8 7.5,8 6.1192881,8 5,6.8807119 5,5.5 5,4.1192881 6.1192881,3 7.5,3 8.8807119,3 10,4.1192881 10,5.5 z"
       transform="translate(17.946429,99.947411)" />
    <path
       transform="translate(35.946429,91.233122)"
       sodipodi:type="arc"
       style="fill:#ffffff;fill-opacity:1;stroke:#170218;stroke-width:0.5;stroke-miterlimit:4;stroke-opacity:1;stroke-dasharray:none;stroke-dashoffset:0;marker-mid:none;marker-end:none"
       id="path5060-28-6-5"
       sodipodi:cx="7.5"
       sodipodi:cy="5.5"
       sodipodi:rx="2.5"
       sodipodi:ry="2.5"
       d="M 10,5.5 C 10,6.8807119 8.8807119,8 7.5,8 6.1192881,8 5,6.8807119 5,5.5 5,4.1192881 6.1192881,3 7.5,3 8.8807119,3 10,4.1192881 10,5.5 z" />
    <text
       xml:space="preserve"
       style="font-size:3.30840254px;font-style:normal;font-weight:normal;line-height:125%;letter-spacing:0px;word-spacing:0px;fill:#000000;fill-opacity:1;stroke:none;font-family:Sans"
       x="28.870348"
       y="98.463257"
       id="text6373-8-8"
       sodipodi:linespacing="125%"><tspan
         sodipodi:role="line"
         id="tspan6375-0-3"
         x="28.870348"
         y="98.463257" /></text>
    <path
       transform="translate(52.839286,100.61956)"
       sodipodi:type="arc"
       style="fill:#ffffff;fill-opacity:1;stroke:#170218;stroke-width:0.5;stroke-miterlimit:4;stroke-opacity:1;stroke-dasharray:none;stroke-dashoffset:0;marker-mid:none;marker-end:none"
       id="path5060-0-6-6"
       sodipodi:cx="7.5"
       sodipodi:cy="5.5"
       sodipodi:rx="2.5"
       sodipodi:ry="2.5"
       d="M 10,5.5 C 10,6.8807119 8.8807119,8 7.5,8 6.1192881,8 5,6.8807119 5,5.5 5,4.1192881 6.1192881,3 7.5,3 8.8807119,3 10,4.1192881 10,5.5 z" />
    <path
       transform="translate(35.982143,110.90528)"
       sodipodi:type="arc"
       style="fill:#ffffff;fill-opacity:1;stroke:#170218;stroke-width:0.5;stroke-miterlimit:4;stroke-opacity:1;stroke-dasharray:none;stroke-dashoffset:0;marker-mid:none;marker-end:none"
       id="path5060-28-3-0-4"
       sodipodi:cx="7.5"
       sodipodi:cy="5.5"
       sodipodi:rx="2.5"
       sodipodi:ry="2.5"
       d="M 10,5.5 C 10,6.8807119 8.8807119,8 7.5,8 6.1192881,8 5,6.8807119 5,5.5 5,4.1192881 6.1192881,3 7.5,3 8.8807119,3 10,4.1192881 10,5.5 z" />
    <text
       xml:space="preserve"
       style="font-size:3.30840254px;font-style:normal;font-weight:normal;line-height:125%;letter-spacing:0px;word-spacing:0px;fill:#000000;fill-opacity:1;stroke:none;font-family:Sans"
       x="24.501926"
       y="106.69635"
       id="text6373-6-0-2-8"
       sodipodi:linespacing="125%"><tspan
         sodipodi:role="line"
         id="tspan6375-1-6-0-4"
         x="24.501926"
         y="106.69635">s</tspan></text>
    <text
       xml:space="preserve"
       style="font-size:3.30840254px;font-style:normal;font-weight:normal;line-height:125%;letter-spacing:0px;word-spacing:0px;fill:#000000;fill-opacity:1;stroke:none;font-family:Sans"
       x="42.35907"
       y="97.553497"
       id="text6373-6-6-5-3"
       sodipodi:linespacing="125%"><tspan
         sodipodi:role="line"
         id="tspan6375-1-66-7-9"
         x="42.35907"
         y="97.553497">1</tspan></text>
    <text
       xml:space="preserve"
       style="font-size:3.30840254px;font-style:normal;font-weight:normal;line-height:125%;letter-spacing:0px;word-spacing:0px;fill:#000000;fill-opacity:1;stroke:none;font-family:Sans"
       x="42.574623"
       y="117.25383"
       id="text6373-6-6-7-2-9"
       sodipodi:linespacing="125%"><tspan
         sodipodi:role="line"
         id="tspan6375-1-66-4-8-4"
         x="42.574623"
         y="117.25383">2</tspan></text>
    <text
       xml:space="preserve"
       style="font-size:3.30840254px;font-style:normal;font-weight:normal;line-height:125%;letter-spacing:0px;word-spacing:0px;fill:#000000;fill-opacity:1;stroke:none;font-family:Sans"
       x="59.371994"
       y="106.96651"
       id="text6373-6-0-6-3-0"
       sodipodi:linespacing="125%"><tspan
         sodipodi:role="line"
         id="tspan6375-1-6-6-5-3"
         x="59.371994"
         y="106.96651">p</tspan></text>
    <path
       style="fill:none;stroke:#130313;stroke-width:0.5;stroke-linecap:butt;stroke-linejoin:miter;stroke-miterlimit:4;stroke-opacity:1;stroke-dasharray:none;marker-mid:none;marker-end:url(#Arrow1Mend)"
       d="M 43.120396,113.34267 42.977539,99.914101"
       id="path5151-3-9-2-8"
       inkscape:connector-curvature="0"
       sodipodi:nodetypes="cc" />
    <path
       style="fill:none;stroke:#130313;stroke-width:0.5;stroke-linecap:butt;stroke-linejoin:miter;stroke-miterlimit:4;stroke-opacity:1;stroke-dasharray:none;marker-mid:none;marker-end:url(#Arrow1Mend)"
       d="M 46.40611,114.77124 58.120396,107.9141"
       id="path5151-3-2-2-27"
       inkscape:connector-curvature="0"
       sodipodi:nodetypes="cc" />
    <path
       style="fill:none;stroke:#130313;stroke-width:0.5;stroke-linecap:butt;stroke-linejoin:miter;stroke-miterlimit:4;stroke-opacity:1;stroke-dasharray:none;marker-mid:none;marker-end:url(#Arrow1Mend)"
       d="M 40.013481,97.895861 28.01348,103.03872"
       id="path5151-37-9-2"
       inkscape:connector-curvature="0"
       sodipodi:nodetypes="cc" />
    <path
       style="fill:none;stroke:#130313;stroke-width:0.5;stroke-linecap:butt;stroke-linejoin:miter;stroke-miterlimit:4;stroke-opacity:1;stroke-dasharray:none;marker-mid:none;marker-end:url(#Arrow1Mend)"
       d="M 40.316824,113.99599 28.316825,106.42456"
       id="path5151-3-98-0-4"
       inkscape:connector-curvature="0"
       sodipodi:nodetypes="cc" />
    <path
       style="fill:none;stroke:#130313;stroke-width:0.5;stroke-linecap:butt;stroke-linejoin:miter;stroke-miterlimit:4;stroke-opacity:1;stroke-dasharray:none;marker-mid:none;marker-end:url(#Arrow1Mend)"
       d="M 57.881858,103.79215 46.739001,98.220721"
       id="path5151-3-7-1-4-3"
       inkscape:connector-curvature="0"
       sodipodi:nodetypes="cc" />
    <path
       style="fill:none;stroke:#130313;stroke-width:0.5;stroke-linecap:butt;stroke-linejoin:miter;stroke-miterlimit:4;stroke-opacity:1;stroke-dasharray:none;marker-mid:none;marker-end:url(#Arrow1Mend)"
       d="m 57.025318,106.49014 -11.285714,7"
       id="path5151-3-2-2-2-7"
       inkscape:connector-curvature="0"
       sodipodi:nodetypes="cc" />
    <text
       xml:space="preserve"
       style="font-size:3.30840254px;font-style:normal;font-weight:normal;line-height:125%;letter-spacing:0px;word-spacing:0px;fill:#000000;fill-opacity:1;stroke:none;font-family:Sans"
       x="31.66847"
       y="99.775124"
       id="text6373-8-4-74"
       sodipodi:linespacing="125%"><tspan
         sodipodi:role="line"
         id="tspan6375-0-4-45"
         x="31.66847"
         y="99.775124">3</tspan></text>
    <text
       xml:space="preserve"
       style="font-size:3.30840254px;font-style:normal;font-weight:normal;line-height:125%;letter-spacing:0px;word-spacing:0px;fill:#000000;fill-opacity:1;stroke:none;font-family:Sans"
       x="34.382755"
       y="110.34655"
       id="text6373-8-4-6-7"
       sodipodi:linespacing="125%"><tspan
         sodipodi:role="line"
         id="tspan6375-0-4-6-8"
         x="34.382755"
         y="110.34655">4</tspan></text>
    <text
       xml:space="preserve"
       style="font-size:3.30840254px;font-style:normal;font-weight:normal;line-height:125%;letter-spacing:0px;word-spacing:0px;fill:#000000;fill-opacity:1;stroke:none;font-family:Sans"
       x="43.525612"
       y="107.77512"
       id="text6373-8-4-8-6"
       sodipodi:linespacing="125%"><tspan
         sodipodi:role="line"
         id="tspan6375-0-4-4-0"
         x="43.525612"
         y="107.77512">3</tspan></text>
    <text
       xml:space="preserve"
       style="font-size:3.30840254px;font-style:normal;font-weight:normal;line-height:125%;letter-spacing:0px;word-spacing:0px;fill:#000000;fill-opacity:1;stroke:none;font-family:Sans"
       x="52.382755"
       y="113.91798"
       id="text6373-8-4-5-3"
       sodipodi:linespacing="125%"><tspan
         sodipodi:role="line"
         id="tspan6375-0-4-57-5"
         x="52.382755"
         y="113.91798">3</tspan></text>
    <text
       xml:space="preserve"
       style="font-size:3.30840254px;font-style:normal;font-weight:normal;line-height:125%;letter-spacing:0px;word-spacing:0px;fill:#000000;fill-opacity:1;stroke:none;font-family:Sans"
       x="50.954185"
       y="104.2037"
       id="text6373-8-4-7-1"
       sodipodi:linespacing="125%"><tspan
         sodipodi:role="line"
         id="tspan6375-0-4-46-2"
         x="50.954185"
         y="104.2037">3</tspan></text>
    <text
       xml:space="preserve"
       style="font-size:3.30840254px;font-style:normal;font-weight:normal;line-height:125%;letter-spacing:0px;word-spacing:0px;fill:#000000;fill-opacity:1;stroke:none;font-family:Sans"
       x="49.989723"
       y="109.63065"
       id="text6373-8-4-5-3-5"
       sodipodi:linespacing="125%"><tspan
         sodipodi:role="line"
         id="tspan6375-0-4-57-5-4"
         x="49.989723"
         y="109.63065">1</tspan></text>
  </g>
</svg>
