<?xml version="1.0" encoding="UTF-8" standalone="no"?>
<!-- Created with Inkscape (http://www.inkscape.org/) -->

<svg
   xmlns:dc="http://purl.org/dc/elements/1.1/"
   xmlns:cc="http://creativecommons.org/ns#"
   xmlns:rdf="http://www.w3.org/1999/02/22-rdf-syntax-ns#"
   xmlns:svg="http://www.w3.org/2000/svg"
   xmlns="http://www.w3.org/2000/svg"
   xmlns:sodipodi="http://sodipodi.sourceforge.net/DTD/sodipodi-0.dtd"
   xmlns:inkscape="http://www.inkscape.org/namespaces/inkscape"
   width="60.829548"
   height="45.965908"
   id="svg2985"
   version="1.1"
   inkscape:version="0.48.4 r9939"
   sodipodi:docname="fig4.pdf">
  <defs
     id="defs2987" />
  <sodipodi:namedview
     id="base"
     pagecolor="#ffffff"
     bordercolor="#666666"
     borderopacity="1.0"
     inkscape:pageopacity="0.0"
     inkscape:pageshadow="2"
     inkscape:zoom="5.5"
     inkscape:cx="46.323864"
     inkscape:cy="17.77841"
     inkscape:current-layer="layer1"
     showgrid="true"
     inkscape:document-units="px"
     inkscape:grid-bbox="true"
     inkscape:window-width="1024"
     inkscape:window-height="550"
     inkscape:window-x="0"
     inkscape:window-y="0"
     inkscape:window-maximized="1"
     inkscape:snap-global="false"
     showguides="true"
     inkscape:guide-bbox="true"
     fit-margin-top="0"
     fit-margin-left="0"
     fit-margin-right="0"
     fit-margin-bottom="0">
    <inkscape:grid
       type="xygrid"
       id="grid2993"
       empspacing="5"
       visible="true"
       enabled="true"
       snapvisiblegridlinesonly="true"
       originx="14.323864px"
       originy="-14.22159px" />
  </sodipodi:namedview>
  <metadata
     id="metadata2990">
    <rdf:RDF>
      <cc:Work
         rdf:about="">
        <dc:format>image/svg+xml</dc:format>
        <dc:type
           rdf:resource="http://purl.org/dc/dcmitype/StillImage" />
        <dc:title></dc:title>
      </cc:Work>
    </rdf:RDF>
  </metadata>
  <g
     id="layer1"
     inkscape:label="Layer 1"
     inkscape:groupmode="layer"
     transform="translate(14.323864,-3.8125)">
    <path
       sodipodi:type="arc"
       style="fill:#ff0000;fill-opacity:0;stroke:#000000;stroke-width:0.40000001;stroke-miterlimit:4;stroke-opacity:1;stroke-dasharray:none;stroke-dashoffset:0"
       id="path3014"
       sodipodi:cx="7.5"
       sodipodi:cy="6.5"
       sodipodi:rx="2.5"
       sodipodi:ry="2.5"
       d="M 10,6.5 C 10,7.8807119 8.8807119,9 7.5,9 6.1192881,9 5,7.8807119 5,6.5 5,5.1192881 6.1192881,4 7.5,4 8.8807119,4 10,5.1192881 10,6.5 z" />
    <text
       xml:space="preserve"
       style="font-size:4.83404732px;font-style:normal;font-weight:normal;line-height:125%;letter-spacing:0px;word-spacing:0px;fill:#000000;fill-opacity:1;stroke:none;font-family:Sans"
       x="4.8886437"
       y="9.0803566"
       id="text3016"
       sodipodi:linespacing="125%"
       transform="scale(1.1350446,0.88102264)"><tspan
         sodipodi:role="line"
         id="tspan3018"
         x="4.8886437"
         y="9.0803566">1</tspan></text>
    <path
       transform="translate(19.772727,0.22727273)"
       sodipodi:type="arc"
       style="fill:#ff0000;fill-opacity:0;stroke:#000000;stroke-width:0.40000001;stroke-miterlimit:4;stroke-opacity:1;stroke-dasharray:none;stroke-dashoffset:0"
       id="path3014-4"
       sodipodi:cx="7.5"
       sodipodi:cy="6.5"
       sodipodi:rx="2.5"
       sodipodi:ry="2.5"
       d="M 10,6.5 C 10,7.8807119 8.8807119,9 7.5,9 6.1192881,9 5,7.8807119 5,6.5 5,5.1192881 6.1192881,4 7.5,4 8.8807119,4 10,5.1192881 10,6.5 z" />
    <text
       xml:space="preserve"
       style="font-size:4.83404732px;font-style:normal;font-weight:normal;line-height:125%;letter-spacing:0px;word-spacing:0px;fill:#000000;fill-opacity:1;stroke:none;font-family:Sans"
       x="22.308865"
       y="9.3383217"
       id="text3016-9"
       sodipodi:linespacing="125%"
       transform="scale(1.1350446,0.88102264)"><tspan
         sodipodi:role="line"
         id="tspan3018-3"
         x="22.308865"
         y="9.3383217">2</tspan></text>
    <path
       transform="translate(36.318182,17.5)"
       sodipodi:type="arc"
       style="fill:#ff0000;fill-opacity:0;stroke:#000000;stroke-width:0.40000001;stroke-miterlimit:4;stroke-opacity:1;stroke-dasharray:none;stroke-dashoffset:0"
       id="path3014-6"
       sodipodi:cx="7.5"
       sodipodi:cy="6.5"
       sodipodi:rx="2.5"
       sodipodi:ry="2.5"
       d="M 10,6.5 C 10,7.8807119 8.8807119,9 7.5,9 6.1192881,9 5,7.8807119 5,6.5 5,5.1192881 6.1192881,4 7.5,4 8.8807119,4 10,5.1192881 10,6.5 z" />
    <text
       xml:space="preserve"
       style="font-size:4.83404732px;font-style:normal;font-weight:normal;line-height:125%;letter-spacing:0px;word-spacing:0px;fill:#000000;fill-opacity:1;stroke:none;font-family:Sans"
       x="36.885784"
       y="28.943638"
       id="text3016-8"
       sodipodi:linespacing="125%"
       transform="scale(1.1350446,0.88102264)"><tspan
         sodipodi:role="line"
         id="tspan3018-6"
         x="36.885784"
         y="28.943638">4</tspan></text>
    <path
       transform="translate(25.227273,36.409091)"
       sodipodi:type="arc"
       style="fill:#ff0000;fill-opacity:0;stroke:#000000;stroke-width:0.40000001;stroke-miterlimit:4;stroke-opacity:1;stroke-dasharray:none;stroke-dashoffset:0"
       id="path3014-5"
       sodipodi:cx="7.5"
       sodipodi:cy="6.5"
       sodipodi:rx="2.5"
       sodipodi:ry="2.5"
       d="M 10,6.5 C 10,7.8807119 8.8807119,9 7.5,9 6.1192881,9 5,7.8807119 5,6.5 5,5.1192881 6.1192881,4 7.5,4 8.8807119,4 10,5.1192881 10,6.5 z" />
    <text
       xml:space="preserve"
       style="font-size:4.83404732px;font-style:normal;font-weight:normal;line-height:125%;letter-spacing:0px;word-spacing:0px;fill:#000000;fill-opacity:1;stroke:none;font-family:Sans"
       x="27.114443"
       y="50.4063"
       id="text3016-2"
       sodipodi:linespacing="125%"
       transform="scale(1.1350446,0.88102264)"><tspan
         sodipodi:role="line"
         id="tspan3018-8"
         x="27.114443"
         y="50.4063">6</tspan></text>
    <path
       transform="translate(0.13636364,40.590909)"
       sodipodi:type="arc"
       style="fill:#ff0000;fill-opacity:0;stroke:#000000;stroke-width:0.40000001;stroke-miterlimit:4;stroke-opacity:1;stroke-dasharray:none;stroke-dashoffset:0"
       id="path3014-59"
       sodipodi:cx="7.5"
       sodipodi:cy="6.5"
       sodipodi:rx="2.5"
       sodipodi:ry="2.5"
       d="M 10,6.5 C 10,7.8807119 8.8807119,9 7.5,9 6.1192881,9 5,7.8807119 5,6.5 5,5.1192881 6.1192881,4 7.5,4 8.8807119,4 10,5.1192881 10,6.5 z" />
    <text
       xml:space="preserve"
       style="font-size:4.83404732px;font-style:normal;font-weight:normal;line-height:125%;letter-spacing:0px;word-spacing:0px;fill:#000000;fill-opacity:1;stroke:none;font-family:Sans"
       x="5.0087833"
       y="55.152847"
       id="text3016-23"
       sodipodi:linespacing="125%"
       transform="scale(1.1350446,0.88102264)"><tspan
         sodipodi:role="line"
         id="tspan3018-5"
         x="5.0087833"
         y="55.152847">5</tspan></text>
    <path
       transform="translate(-19.136364,20.409091)"
       sodipodi:type="arc"
       style="fill:#ff0000;fill-opacity:0;stroke:#000000;stroke-width:0.40000001;stroke-miterlimit:4;stroke-opacity:1;stroke-dasharray:none;stroke-dashoffset:0"
       id="path3014-8"
       sodipodi:cx="7.5"
       sodipodi:cy="6.5"
       sodipodi:rx="2.5"
       sodipodi:ry="2.5"
       d="M 10,6.5 C 10,7.8807119 8.8807119,9 7.5,9 6.1192881,9 5,7.8807119 5,6.5 5,5.1192881 6.1192881,4 7.5,4 8.8807119,4 10,5.1192881 10,6.5 z" />
    <text
       xml:space="preserve"
       style="font-size:4.83404732px;font-style:normal;font-weight:normal;line-height:125%;letter-spacing:0px;word-spacing:0px;fill:#000000;fill-opacity:1;stroke:none;font-family:Sans"
       x="-11.970926"
       y="32.245586"
       id="text3016-3"
       sodipodi:linespacing="125%"
       transform="scale(1.1350446,0.88102264)"><tspan
         sodipodi:role="line"
         id="tspan3018-0"
         x="-11.970926"
         y="32.245586">3</tspan></text>
    <path
       style="fill:none;stroke:#000000;stroke-width:0.40000001;stroke-linecap:butt;stroke-linejoin:miter;stroke-miterlimit:4;stroke-opacity:1;stroke-dasharray:none"
       d="M -12.181818,24.727273 C -11.180026,15.806333 -5.5984232,4.4808732 4.9090909,5.0909136"
       id="path3088"
       inkscape:connector-curvature="0" />
    <path
       style="fill:none;stroke:#000000;stroke-width:0.40000001;stroke-linecap:butt;stroke-linejoin:miter;stroke-miterlimit:4;stroke-opacity:1;stroke-dasharray:none"
       d="m 8.7272727,5.0909091 c 4.7272723,0 5.0909093,-0.5454545 9.8181823,0 6.046236,0.5538469 6.857514,2.0038622 6.90909,3.2727273"
       id="path3090"
       inkscape:connector-curvature="0"
       sodipodi:nodetypes="ccc" />
    <path
       style="fill:none;stroke:#000000;stroke-width:0.40000001;stroke-linecap:butt;stroke-linejoin:miter;stroke-miterlimit:4;stroke-opacity:1;stroke-dasharray:none"
       d="m 29.090909,8.1818182 c 6.17695,-0.8376523 7.501136,6.5949398 9.576136,10.7697168 0.750528,1.317752 1.778476,2.533906 3.151137,3.230283"
       id="path3092"
       inkscape:connector-curvature="0" />
    <path
       style="fill:none;stroke:#000000;stroke-width:0.40000001;stroke-linecap:butt;stroke-linejoin:miter;stroke-miterlimit:4;stroke-opacity:1;stroke-dasharray:none"
       d="m 44.181818,25.818182 c 1.179157,6.651916 0.131924,13.437734 -9.044871,18.321456"
       id="path3094"
       inkscape:connector-curvature="0"
       sodipodi:nodetypes="cc" />
    <path
       style="fill:none;stroke:#000000;stroke-width:0.40000001;stroke-linecap:butt;stroke-linejoin:miter;stroke-miterlimit:4;stroke-opacity:1;stroke-dasharray:none"
       d="m 30.181818,43.636364 c -4.67069,5.264253 -13.105069,6.248744 -20.093484,4.763677 L 9.4545455,47.454545"
       id="path3096"
       inkscape:connector-curvature="0"
       sodipodi:nodetypes="ccc" />
    <path
       style="fill:none;stroke:#000000;stroke-width:0.40000001;stroke-linecap:butt;stroke-linejoin:miter;stroke-miterlimit:4;stroke-opacity:1;stroke-dasharray:none"
       d="M 6.1818182,47.454545 C -0.97467241,43.144086 -6.3884074,36.363074 -10,28.909091"
       id="path3098"
       inkscape:connector-curvature="0" />
    <path
       style="fill:none;stroke:#000000;stroke-width:0.40000001;stroke-linecap:butt;stroke-linejoin:miter;stroke-miterlimit:4;stroke-opacity:1;stroke-dasharray:none"
       d="M -9.0909091,26.181818 C 1.7094912,26.704601 12.819412,26.142958 23.01396,22.231101 29.223709,19.368957 35.503684,21.970635 41.636364,23.090903"
       id="path3100"
       inkscape:connector-curvature="0"
       sodipodi:nodetypes="ccc" />
  </g>
</svg>
