<?xml version="1.0" encoding="UTF-8" standalone="no"?>
<!-- Created with Inkscape (http://www.inkscape.org/) -->

<svg
   xmlns:dc="http://purl.org/dc/elements/1.1/"
   xmlns:cc="http://creativecommons.org/ns#"
   xmlns:rdf="http://www.w3.org/1999/02/22-rdf-syntax-ns#"
   xmlns:svg="http://www.w3.org/2000/svg"
   xmlns="http://www.w3.org/2000/svg"
   xmlns:sodipodi="http://sodipodi.sourceforge.net/DTD/sodipodi-0.dtd"
   xmlns:inkscape="http://www.inkscape.org/namespaces/inkscape"
   width="145.1375"
   height="60.313282"
   id="svg4194"
   version="1.1"
   inkscape:version="0.48.4 r9939"
   sodipodi:docname="fig7.pdf">
  <defs
     id="defs4196" />
  <sodipodi:namedview
     id="base"
     pagecolor="#ffffff"
     bordercolor="#666666"
     borderopacity="1.0"
     inkscape:pageopacity="0.0"
     inkscape:pageshadow="2"
     inkscape:zoom="5.5"
     inkscape:cx="78.033017"
     inkscape:cy="27.113281"
     inkscape:current-layer="layer1"
     showgrid="true"
     inkscape:document-units="px"
     inkscape:grid-bbox="true"
     inkscape:snap-global="true"
     fit-margin-top="0"
     fit-margin-left="0"
     fit-margin-right="0"
     fit-margin-bottom="0"
     inkscape:window-width="1024"
     inkscape:window-height="550"
     inkscape:window-x="0"
     inkscape:window-y="0"
     inkscape:window-maximized="1">
    <inkscape:grid
       type="xygrid"
       id="grid4202"
       empspacing="5"
       visible="true"
       enabled="true"
       snapvisiblegridlinesonly="true"
       originx="24.9375px"
       originy="-4.8867188px" />
  </sodipodi:namedview>
  <metadata
     id="metadata4199">
    <rdf:RDF>
      <cc:Work
         rdf:about="">
        <dc:format>image/svg+xml</dc:format>
        <dc:type
           rdf:resource="http://purl.org/dc/dcmitype/StillImage" />
        <dc:title></dc:title>
      </cc:Work>
    </rdf:RDF>
  </metadata>
  <g
     id="layer1"
     inkscape:label="Layer 1"
     inkscape:groupmode="layer"
     transform="translate(24.9375,1.2)">
    <path
       sodipodi:type="arc"
       style="fill:#ff0000;fill-opacity:0;stroke:#000000;stroke-width:0.40000001;stroke-miterlimit:4;stroke-opacity:1;stroke-dasharray:none;stroke-dashoffset:0"
       id="path4204"
       sodipodi:cx="5.2727275"
       sodipodi:cy="4.3636365"
       sodipodi:rx="0.72727275"
       sodipodi:ry="0.72727275"
       d="m 6.0000002,4.3636365 c 0,0.4016616 -0.3256111,0.7272727 -0.7272727,0.7272727 -0.4016617,0 -0.7272728,-0.3256111 -0.7272728,-0.7272727 0,-0.4016617 0.3256111,-0.7272728 0.7272728,-0.7272728 0.4016616,0 0.7272727,0.3256111 0.7272727,0.7272728 z" />
    <path
       transform="translate(5,2.5824451e-7)"
       sodipodi:type="arc"
       style="fill:#ff0000;fill-opacity:0;stroke:#000000;stroke-width:0.40000001;stroke-miterlimit:4;stroke-opacity:1;stroke-dasharray:none;stroke-dashoffset:0"
       id="path4204-4"
       sodipodi:cx="5.2727275"
       sodipodi:cy="4.3636365"
       sodipodi:rx="0.72727275"
       sodipodi:ry="0.72727275"
       d="m 6.0000002,4.3636365 c 0,0.4016616 -0.3256111,0.7272727 -0.7272727,0.7272727 -0.4016617,0 -0.7272728,-0.3256111 -0.7272728,-0.7272727 0,-0.4016617 0.3256111,-0.7272728 0.7272728,-0.7272728 0.4016616,0 0.7272727,0.3256111 0.7272727,0.7272728 z" />
    <path
       transform="translate(10,2.5824451e-7)"
       sodipodi:type="arc"
       style="fill:#ff0000;fill-opacity:0;stroke:#000000;stroke-width:0.40000001;stroke-miterlimit:4;stroke-opacity:1;stroke-dasharray:none;stroke-dashoffset:0"
       id="path4204-6"
       sodipodi:cx="5.2727275"
       sodipodi:cy="4.3636365"
       sodipodi:rx="0.72727275"
       sodipodi:ry="0.72727275"
       d="m 6.0000002,4.3636365 c 0,0.4016616 -0.3256111,0.7272727 -0.7272727,0.7272727 -0.4016617,0 -0.7272728,-0.3256111 -0.7272728,-0.7272727 0,-0.4016617 0.3256111,-0.7272728 0.7272728,-0.7272728 0.4016616,0 0.7272727,0.3256111 0.7272727,0.7272728 z" />
    <path
       transform="translate(5,5.0000003)"
       sodipodi:type="arc"
       style="fill:#ff0000;fill-opacity:0;stroke:#000000;stroke-width:0.40000001;stroke-miterlimit:4;stroke-opacity:1;stroke-dasharray:none;stroke-dashoffset:0"
       id="path4204-9"
       sodipodi:cx="5.2727275"
       sodipodi:cy="4.3636365"
       sodipodi:rx="0.72727275"
       sodipodi:ry="0.72727275"
       d="m 6.0000002,4.3636365 c 0,0.4016616 -0.3256111,0.7272727 -0.7272727,0.7272727 -0.4016617,0 -0.7272728,-0.3256111 -0.7272728,-0.7272727 0,-0.4016617 0.3256111,-0.7272728 0.7272728,-0.7272728 0.4016616,0 0.7272727,0.3256111 0.7272727,0.7272728 z" />
    <path
       transform="translate(5,15)"
       sodipodi:type="arc"
       style="fill:#ff0000;fill-opacity:0;stroke:#000000;stroke-width:0.40000001;stroke-miterlimit:4;stroke-opacity:1;stroke-dasharray:none;stroke-dashoffset:0"
       id="path4204-93"
       sodipodi:cx="5.2727275"
       sodipodi:cy="4.3636365"
       sodipodi:rx="0.72727275"
       sodipodi:ry="0.72727275"
       d="m 6.0000002,4.3636365 c 0,0.4016616 -0.3256111,0.7272727 -0.7272727,0.7272727 -0.4016617,0 -0.7272728,-0.3256111 -0.7272728,-0.7272727 0,-0.4016617 0.3256111,-0.7272728 0.7272728,-0.7272728 0.4016616,0 0.7272727,0.3256111 0.7272727,0.7272728 z" />
    <path
       transform="translate(-3.7544059e-8,25)"
       sodipodi:type="arc"
       style="fill:#ff0000;fill-opacity:0;stroke:#000000;stroke-width:0.40000001;stroke-miterlimit:4;stroke-opacity:1;stroke-dasharray:none;stroke-dashoffset:0"
       id="path4204-68"
       sodipodi:cx="5.2727275"
       sodipodi:cy="4.3636365"
       sodipodi:rx="0.72727275"
       sodipodi:ry="0.72727275"
       d="m 6.0000002,4.3636365 c 0,0.4016616 -0.3256111,0.7272727 -0.7272727,0.7272727 -0.4016617,0 -0.7272728,-0.3256111 -0.7272728,-0.7272727 0,-0.4016617 0.3256111,-0.7272728 0.7272728,-0.7272728 0.4016616,0 0.7272727,0.3256111 0.7272727,0.7272728 z" />
    <path
       transform="translate(10,25)"
       sodipodi:type="arc"
       style="fill:#ff0000;fill-opacity:0;stroke:#000000;stroke-width:0.40000001;stroke-miterlimit:4;stroke-opacity:1;stroke-dasharray:none;stroke-dashoffset:0"
       id="path4204-0"
       sodipodi:cx="5.2727275"
       sodipodi:cy="4.3636365"
       sodipodi:rx="0.72727275"
       sodipodi:ry="0.72727275"
       d="m 6.0000002,4.3636365 c 0,0.4016616 -0.3256111,0.7272727 -0.7272727,0.7272727 -0.4016617,0 -0.7272728,-0.3256111 -0.7272728,-0.7272727 0,-0.4016617 0.3256111,-0.7272728 0.7272728,-0.7272728 0.4016616,0 0.7272727,0.3256111 0.7272727,0.7272728 z" />
    <path
       transform="translate(20,5.0000003)"
       sodipodi:type="arc"
       style="fill:#ff0000;fill-opacity:0;stroke:#000000;stroke-width:0.40000001;stroke-miterlimit:4;stroke-opacity:1;stroke-dasharray:none;stroke-dashoffset:0"
       id="path4204-67"
       sodipodi:cx="5.2727275"
       sodipodi:cy="4.3636365"
       sodipodi:rx="0.72727275"
       sodipodi:ry="0.72727275"
       d="m 6.0000002,4.3636365 c 0,0.4016616 -0.3256111,0.7272727 -0.7272727,0.7272727 -0.4016617,0 -0.7272728,-0.3256111 -0.7272728,-0.7272727 0,-0.4016617 0.3256111,-0.7272728 0.7272728,-0.7272728 0.4016616,0 0.7272727,0.3256111 0.7272727,0.7272728 z" />
    <path
       transform="translate(25,5.0000003)"
       sodipodi:type="arc"
       style="fill:#ff0000;fill-opacity:0;stroke:#000000;stroke-width:0.40000001;stroke-miterlimit:4;stroke-opacity:1;stroke-dasharray:none;stroke-dashoffset:0"
       id="path4204-66"
       sodipodi:cx="5.2727275"
       sodipodi:cy="4.3636365"
       sodipodi:rx="0.72727275"
       sodipodi:ry="0.72727275"
       d="m 6.0000002,4.3636365 c 0,0.4016616 -0.3256111,0.7272727 -0.7272727,0.7272727 -0.4016617,0 -0.7272728,-0.3256111 -0.7272728,-0.7272727 0,-0.4016617 0.3256111,-0.7272728 0.7272728,-0.7272728 0.4016616,0 0.7272727,0.3256111 0.7272727,0.7272728 z" />
    <path
       transform="translate(25,2.5824451e-7)"
       sodipodi:type="arc"
       style="fill:#ff0000;fill-opacity:0;stroke:#000000;stroke-width:0.40000001;stroke-miterlimit:4;stroke-opacity:1;stroke-dasharray:none;stroke-dashoffset:0"
       id="path4204-3"
       sodipodi:cx="5.2727275"
       sodipodi:cy="4.3636365"
       sodipodi:rx="0.72727275"
       sodipodi:ry="0.72727275"
       d="m 6.0000002,4.3636365 c 0,0.4016616 -0.3256111,0.7272727 -0.7272727,0.7272727 -0.4016617,0 -0.7272728,-0.3256111 -0.7272728,-0.7272727 0,-0.4016617 0.3256111,-0.7272728 0.7272728,-0.7272728 0.4016616,0 0.7272727,0.3256111 0.7272727,0.7272728 z" />
    <path
       transform="translate(20,15)"
       sodipodi:type="arc"
       style="fill:#ff0000;fill-opacity:0;stroke:#000000;stroke-width:0.40000001;stroke-miterlimit:4;stroke-opacity:1;stroke-dasharray:none;stroke-dashoffset:0"
       id="path4204-46"
       sodipodi:cx="5.2727275"
       sodipodi:cy="4.3636365"
       sodipodi:rx="0.72727275"
       sodipodi:ry="0.72727275"
       d="m 6.0000002,4.3636365 c 0,0.4016616 -0.3256111,0.7272727 -0.7272727,0.7272727 -0.4016617,0 -0.7272728,-0.3256111 -0.7272728,-0.7272727 0,-0.4016617 0.3256111,-0.7272728 0.7272728,-0.7272728 0.4016616,0 0.7272727,0.3256111 0.7272727,0.7272728 z" />
    <path
       transform="translate(20,25)"
       sodipodi:type="arc"
       style="fill:#ff0000;fill-opacity:0;stroke:#000000;stroke-width:0.40000001;stroke-miterlimit:4;stroke-opacity:1;stroke-dasharray:none;stroke-dashoffset:0"
       id="path4204-99"
       sodipodi:cx="5.2727275"
       sodipodi:cy="4.3636365"
       sodipodi:rx="0.72727275"
       sodipodi:ry="0.72727275"
       d="m 6.0000002,4.3636365 c 0,0.4016616 -0.3256111,0.7272727 -0.7272727,0.7272727 -0.4016617,0 -0.7272728,-0.3256111 -0.7272728,-0.7272727 0,-0.4016617 0.3256111,-0.7272728 0.7272728,-0.7272728 0.4016616,0 0.7272727,0.3256111 0.7272727,0.7272728 z" />
    <path
       transform="translate(25,25)"
       sodipodi:type="arc"
       style="fill:#ff0000;fill-opacity:0;stroke:#000000;stroke-width:0.40000001;stroke-miterlimit:4;stroke-opacity:1;stroke-dasharray:none;stroke-dashoffset:0"
       id="path4204-8"
       sodipodi:cx="5.2727275"
       sodipodi:cy="4.3636365"
       sodipodi:rx="0.72727275"
       sodipodi:ry="0.72727275"
       d="m 6.0000002,4.3636365 c 0,0.4016616 -0.3256111,0.7272727 -0.7272727,0.7272727 -0.4016617,0 -0.7272728,-0.3256111 -0.7272728,-0.7272727 0,-0.4016617 0.3256111,-0.7272728 0.7272728,-0.7272728 0.4016616,0 0.7272727,0.3256111 0.7272727,0.7272728 z" />
    <path
       transform="translate(45,25)"
       sodipodi:type="arc"
       style="fill:#ff0000;fill-opacity:0;stroke:#000000;stroke-width:0.40000001;stroke-miterlimit:4;stroke-opacity:1;stroke-dasharray:none;stroke-dashoffset:0"
       id="path4204-95"
       sodipodi:cx="5.2727275"
       sodipodi:cy="4.3636365"
       sodipodi:rx="0.72727275"
       sodipodi:ry="0.72727275"
       d="m 6.0000002,4.3636365 c 0,0.4016616 -0.3256111,0.7272727 -0.7272727,0.7272727 -0.4016617,0 -0.7272728,-0.3256111 -0.7272728,-0.7272727 0,-0.4016617 0.3256111,-0.7272728 0.7272728,-0.7272728 0.4016616,0 0.7272727,0.3256111 0.7272727,0.7272728 z" />
    <path
       transform="translate(50,25)"
       sodipodi:type="arc"
       style="fill:#ff0000;fill-opacity:0;stroke:#000000;stroke-width:0.40000001;stroke-miterlimit:4;stroke-opacity:1;stroke-dasharray:none;stroke-dashoffset:0"
       id="path4204-02"
       sodipodi:cx="5.2727275"
       sodipodi:cy="4.3636365"
       sodipodi:rx="0.72727275"
       sodipodi:ry="0.72727275"
       d="m 6.0000002,4.3636365 c 0,0.4016616 -0.3256111,0.7272727 -0.7272727,0.7272727 -0.4016617,0 -0.7272728,-0.3256111 -0.7272728,-0.7272727 0,-0.4016617 0.3256111,-0.7272728 0.7272728,-0.7272728 0.4016616,0 0.7272727,0.3256111 0.7272727,0.7272728 z" />
    <path
       transform="translate(50,15)"
       sodipodi:type="arc"
       style="fill:#ff0000;fill-opacity:0;stroke:#000000;stroke-width:0.40000001;stroke-miterlimit:4;stroke-opacity:1;stroke-dasharray:none;stroke-dashoffset:0"
       id="path4204-85"
       sodipodi:cx="5.2727275"
       sodipodi:cy="4.3636365"
       sodipodi:rx="0.72727275"
       sodipodi:ry="0.72727275"
       d="m 6.0000002,4.3636365 c 0,0.4016616 -0.3256111,0.7272727 -0.7272727,0.7272727 -0.4016617,0 -0.7272728,-0.3256111 -0.7272728,-0.7272727 0,-0.4016617 0.3256111,-0.7272728 0.7272728,-0.7272728 0.4016616,0 0.7272727,0.3256111 0.7272727,0.7272728 z" />
    <path
       transform="translate(50,5.0000003)"
       sodipodi:type="arc"
       style="fill:#ff0000;fill-opacity:0;stroke:#000000;stroke-width:0.40000001;stroke-miterlimit:4;stroke-opacity:1;stroke-dasharray:none;stroke-dashoffset:0"
       id="path4204-2"
       sodipodi:cx="5.2727275"
       sodipodi:cy="4.3636365"
       sodipodi:rx="0.72727275"
       sodipodi:ry="0.72727275"
       d="m 6.0000002,4.3636365 c 0,0.4016616 -0.3256111,0.7272727 -0.7272727,0.7272727 -0.4016617,0 -0.7272728,-0.3256111 -0.7272728,-0.7272727 0,-0.4016617 0.3256111,-0.7272728 0.7272728,-0.7272728 0.4016616,0 0.7272727,0.3256111 0.7272727,0.7272728 z" />
    <path
       transform="translate(45,2.5824451e-7)"
       sodipodi:type="arc"
       style="fill:#ff0000;fill-opacity:0;stroke:#000000;stroke-width:0.40000001;stroke-miterlimit:4;stroke-opacity:1;stroke-dasharray:none;stroke-dashoffset:0"
       id="path4204-37"
       sodipodi:cx="5.2727275"
       sodipodi:cy="4.3636365"
       sodipodi:rx="0.72727275"
       sodipodi:ry="0.72727275"
       d="m 6.0000002,4.3636365 c 0,0.4016616 -0.3256111,0.7272727 -0.7272727,0.7272727 -0.4016617,0 -0.7272728,-0.3256111 -0.7272728,-0.7272727 0,-0.4016617 0.3256111,-0.7272728 0.7272728,-0.7272728 0.4016616,0 0.7272727,0.3256111 0.7272727,0.7272728 z" />
    <path
       transform="translate(50,2.5824451e-7)"
       sodipodi:type="arc"
       style="fill:#ff0000;fill-opacity:0;stroke:#000000;stroke-width:0.40000001;stroke-miterlimit:4;stroke-opacity:1;stroke-dasharray:none;stroke-dashoffset:0"
       id="path4204-5"
       sodipodi:cx="5.2727275"
       sodipodi:cy="4.3636365"
       sodipodi:rx="0.72727275"
       sodipodi:ry="0.72727275"
       d="m 6.0000002,4.3636365 c 0,0.4016616 -0.3256111,0.7272727 -0.7272727,0.7272727 -0.4016617,0 -0.7272728,-0.3256111 -0.7272728,-0.7272727 0,-0.4016617 0.3256111,-0.7272728 0.7272728,-0.7272728 0.4016616,0 0.7272727,0.3256111 0.7272727,0.7272728 z" />
    <path
       transform="translate(55,2.5824451e-7)"
       sodipodi:type="arc"
       style="fill:#ff0000;fill-opacity:0;stroke:#000000;stroke-width:0.40000001;stroke-miterlimit:4;stroke-opacity:1;stroke-dasharray:none;stroke-dashoffset:0"
       id="path4204-55"
       sodipodi:cx="5.2727275"
       sodipodi:cy="4.3636365"
       sodipodi:rx="0.72727275"
       sodipodi:ry="0.72727275"
       d="m 6.0000002,4.3636365 c 0,0.4016616 -0.3256111,0.7272727 -0.7272727,0.7272727 -0.4016617,0 -0.7272728,-0.3256111 -0.7272728,-0.7272727 0,-0.4016617 0.3256111,-0.7272728 0.7272728,-0.7272728 0.4016616,0 0.7272727,0.3256111 0.7272727,0.7272728 z" />
    <path
       transform="translate(60,25)"
       sodipodi:type="arc"
       style="fill:#ff0000;fill-opacity:0;stroke:#000000;stroke-width:0.40000001;stroke-miterlimit:4;stroke-opacity:1;stroke-dasharray:none;stroke-dashoffset:0"
       id="path4204-01"
       sodipodi:cx="5.2727275"
       sodipodi:cy="4.3636365"
       sodipodi:rx="0.72727275"
       sodipodi:ry="0.72727275"
       d="m 6.0000002,4.3636365 c 0,0.4016616 -0.3256111,0.7272727 -0.7272727,0.7272727 -0.4016617,0 -0.7272728,-0.3256111 -0.7272728,-0.7272727 0,-0.4016617 0.3256111,-0.7272728 0.7272728,-0.7272728 0.4016616,0 0.7272727,0.3256111 0.7272727,0.7272728 z" />
    <path
       transform="translate(70,25)"
       sodipodi:type="arc"
       style="fill:#ff0000;fill-opacity:0;stroke:#000000;stroke-width:0.40000001;stroke-miterlimit:4;stroke-opacity:1;stroke-dasharray:none;stroke-dashoffset:0"
       id="path4204-1"
       sodipodi:cx="5.2727275"
       sodipodi:cy="4.3636365"
       sodipodi:rx="0.72727275"
       sodipodi:ry="0.72727275"
       d="m 6.0000002,4.3636365 c 0,0.4016616 -0.3256111,0.7272727 -0.7272727,0.7272727 -0.4016617,0 -0.7272728,-0.3256111 -0.7272728,-0.7272727 0,-0.4016617 0.3256111,-0.7272728 0.7272728,-0.7272728 0.4016616,0 0.7272727,0.3256111 0.7272727,0.7272728 z" />
    <path
       transform="translate(65,20)"
       sodipodi:type="arc"
       style="fill:#ff0000;fill-opacity:0;stroke:#000000;stroke-width:0.40000001;stroke-miterlimit:4;stroke-opacity:1;stroke-dasharray:none;stroke-dashoffset:0"
       id="path4204-10"
       sodipodi:cx="5.2727275"
       sodipodi:cy="4.3636365"
       sodipodi:rx="0.72727275"
       sodipodi:ry="0.72727275"
       d="m 6.0000002,4.3636365 c 0,0.4016616 -0.3256111,0.7272727 -0.7272727,0.7272727 -0.4016617,0 -0.7272728,-0.3256111 -0.7272728,-0.7272727 0,-0.4016617 0.3256111,-0.7272728 0.7272728,-0.7272728 0.4016616,0 0.7272727,0.3256111 0.7272727,0.7272728 z" />
    <path
       transform="translate(65,10)"
       sodipodi:type="arc"
       style="fill:#ff0000;fill-opacity:0;stroke:#000000;stroke-width:0.40000001;stroke-miterlimit:4;stroke-opacity:1;stroke-dasharray:none;stroke-dashoffset:0"
       id="path4204-60"
       sodipodi:cx="5.2727275"
       sodipodi:cy="4.3636365"
       sodipodi:rx="0.72727275"
       sodipodi:ry="0.72727275"
       d="m 6.0000002,4.3636365 c 0,0.4016616 -0.3256111,0.7272727 -0.7272727,0.7272727 -0.4016617,0 -0.7272728,-0.3256111 -0.7272728,-0.7272727 0,-0.4016617 0.3256111,-0.7272728 0.7272728,-0.7272728 0.4016616,0 0.7272727,0.3256111 0.7272727,0.7272728 z" />
    <path
       transform="translate(70,10)"
       sodipodi:type="arc"
       style="fill:#ff0000;fill-opacity:0;stroke:#000000;stroke-width:0.40000001;stroke-miterlimit:4;stroke-opacity:1;stroke-dasharray:none;stroke-dashoffset:0"
       id="path4204-06"
       sodipodi:cx="5.2727275"
       sodipodi:cy="4.3636365"
       sodipodi:rx="0.72727275"
       sodipodi:ry="0.72727275"
       d="m 6.0000002,4.3636365 c 0,0.4016616 -0.3256111,0.7272727 -0.7272727,0.7272727 -0.4016617,0 -0.7272728,-0.3256111 -0.7272728,-0.7272727 0,-0.4016617 0.3256111,-0.7272728 0.7272728,-0.7272728 0.4016616,0 0.7272727,0.3256111 0.7272727,0.7272728 z" />
    <path
       transform="translate(70,5.0000003)"
       sodipodi:type="arc"
       style="fill:#ff0000;fill-opacity:0;stroke:#000000;stroke-width:0.40000001;stroke-miterlimit:4;stroke-opacity:1;stroke-dasharray:none;stroke-dashoffset:0"
       id="path4204-605"
       sodipodi:cx="5.2727275"
       sodipodi:cy="4.3636365"
       sodipodi:rx="0.72727275"
       sodipodi:ry="0.72727275"
       d="m 6.0000002,4.3636365 c 0,0.4016616 -0.3256111,0.7272727 -0.7272727,0.7272727 -0.4016617,0 -0.7272728,-0.3256111 -0.7272728,-0.7272727 0,-0.4016617 0.3256111,-0.7272728 0.7272728,-0.7272728 0.4016616,0 0.7272727,0.3256111 0.7272727,0.7272728 z" />
    <path
       transform="translate(85.272728,-0.99999974)"
       sodipodi:type="arc"
       style="fill:#ff0000;fill-opacity:0;stroke:#000000;stroke-width:0.40000001;stroke-miterlimit:4;stroke-opacity:1;stroke-dasharray:none;stroke-dashoffset:0"
       id="path4204-43"
       sodipodi:cx="5.2727275"
       sodipodi:cy="4.3636365"
       sodipodi:rx="0.72727275"
       sodipodi:ry="0.72727275"
       d="m 6.0000002,4.3636365 c 0,0.4016616 -0.3256111,0.7272727 -0.7272727,0.7272727 -0.4016617,0 -0.7272728,-0.3256111 -0.7272728,-0.7272727 0,-0.4016617 0.3256111,-0.7272728 0.7272728,-0.7272728 0.4016616,0 0.7272727,0.3256111 0.7272727,0.7272728 z" />
    <path
       transform="translate(90.272728,-0.99999974)"
       sodipodi:type="arc"
       style="fill:#ff0000;fill-opacity:0;stroke:#000000;stroke-width:0.40000001;stroke-miterlimit:4;stroke-opacity:1;stroke-dasharray:none;stroke-dashoffset:0"
       id="path4204-90"
       sodipodi:cx="5.2727275"
       sodipodi:cy="4.3636365"
       sodipodi:rx="0.72727275"
       sodipodi:ry="0.72727275"
       d="m 6.0000002,4.3636365 c 0,0.4016616 -0.3256111,0.7272727 -0.7272727,0.7272727 -0.4016617,0 -0.7272728,-0.3256111 -0.7272728,-0.7272727 0,-0.4016617 0.3256111,-0.7272728 0.7272728,-0.7272728 0.4016616,0 0.7272727,0.3256111 0.7272727,0.7272728 z" />
    <path
       transform="translate(95.272728,-0.99999974)"
       sodipodi:type="arc"
       style="fill:#ff0000;fill-opacity:0;stroke:#000000;stroke-width:0.40000001;stroke-miterlimit:4;stroke-opacity:1;stroke-dasharray:none;stroke-dashoffset:0"
       id="path4204-49"
       sodipodi:cx="5.2727275"
       sodipodi:cy="4.3636365"
       sodipodi:rx="0.72727275"
       sodipodi:ry="0.72727275"
       d="m 6.0000002,4.3636365 c 0,0.4016616 -0.3256111,0.7272727 -0.7272727,0.7272727 -0.4016617,0 -0.7272728,-0.3256111 -0.7272728,-0.7272727 0,-0.4016617 0.3256111,-0.7272728 0.7272728,-0.7272728 0.4016616,0 0.7272727,0.3256111 0.7272727,0.7272728 z" />
    <path
       transform="translate(90.272728,9)"
       sodipodi:type="arc"
       style="fill:#ff0000;fill-opacity:0;stroke:#000000;stroke-width:0.40000001;stroke-miterlimit:4;stroke-opacity:1;stroke-dasharray:none;stroke-dashoffset:0"
       id="path4204-13"
       sodipodi:cx="5.2727275"
       sodipodi:cy="4.3636365"
       sodipodi:rx="0.72727275"
       sodipodi:ry="0.72727275"
       d="m 6.0000002,4.3636365 c 0,0.4016616 -0.3256111,0.7272727 -0.7272727,0.7272727 -0.4016617,0 -0.7272728,-0.3256111 -0.7272728,-0.7272727 0,-0.4016617 0.3256111,-0.7272728 0.7272728,-0.7272728 0.4016616,0 0.7272727,0.3256111 0.7272727,0.7272728 z" />
    <path
       transform="translate(90.272728,19)"
       sodipodi:type="arc"
       style="fill:#ff0000;fill-opacity:0;stroke:#000000;stroke-width:0.40000001;stroke-miterlimit:4;stroke-opacity:1;stroke-dasharray:none;stroke-dashoffset:0"
       id="path4204-61"
       sodipodi:cx="5.2727275"
       sodipodi:cy="4.3636365"
       sodipodi:rx="0.72727275"
       sodipodi:ry="0.72727275"
       d="m 6.0000002,4.3636365 c 0,0.4016616 -0.3256111,0.7272727 -0.7272727,0.7272727 -0.4016617,0 -0.7272728,-0.3256111 -0.7272728,-0.7272727 0,-0.4016617 0.3256111,-0.7272728 0.7272728,-0.7272728 0.4016616,0 0.7272727,0.3256111 0.7272727,0.7272728 z" />
    <path
       transform="translate(85.272728,24)"
       sodipodi:type="arc"
       style="fill:#ff0000;fill-opacity:0;stroke:#000000;stroke-width:0.40000001;stroke-miterlimit:4;stroke-opacity:1;stroke-dasharray:none;stroke-dashoffset:0"
       id="path4204-7"
       sodipodi:cx="5.2727275"
       sodipodi:cy="4.3636365"
       sodipodi:rx="0.72727275"
       sodipodi:ry="0.72727275"
       d="m 6.0000002,4.3636365 c 0,0.4016616 -0.3256111,0.7272727 -0.7272727,0.7272727 -0.4016617,0 -0.7272728,-0.3256111 -0.7272728,-0.7272727 0,-0.4016617 0.3256111,-0.7272728 0.7272728,-0.7272728 0.4016616,0 0.7272727,0.3256111 0.7272727,0.7272728 z" />
    <path
       transform="translate(95.272728,24)"
       sodipodi:type="arc"
       style="fill:#ff0000;fill-opacity:0;stroke:#000000;stroke-width:0.40000001;stroke-miterlimit:4;stroke-opacity:1;stroke-dasharray:none;stroke-dashoffset:0"
       id="path4204-680"
       sodipodi:cx="5.2727275"
       sodipodi:cy="4.3636365"
       sodipodi:rx="0.72727275"
       sodipodi:ry="0.72727275"
       d="m 6.0000002,4.3636365 c 0,0.4016616 -0.3256111,0.7272727 -0.7272727,0.7272727 -0.4016617,0 -0.7272728,-0.3256111 -0.7272728,-0.7272727 0,-0.4016617 0.3256111,-0.7272728 0.7272728,-0.7272728 0.4016616,0 0.7272727,0.3256111 0.7272727,0.7272728 z" />
    <path
       transform="translate(100.27273,24)"
       sodipodi:type="arc"
       style="fill:#ff0000;fill-opacity:0;stroke:#000000;stroke-width:0.40000001;stroke-miterlimit:4;stroke-opacity:1;stroke-dasharray:none;stroke-dashoffset:0"
       id="path4204-067"
       sodipodi:cx="5.2727275"
       sodipodi:cy="4.3636365"
       sodipodi:rx="0.72727275"
       sodipodi:ry="0.72727275"
       d="m 6.0000002,4.3636365 c 0,0.4016616 -0.3256111,0.7272727 -0.7272727,0.7272727 -0.4016617,0 -0.7272728,-0.3256111 -0.7272728,-0.7272727 0,-0.4016617 0.3256111,-0.7272728 0.7272728,-0.7272728 0.4016616,0 0.7272727,0.3256111 0.7272727,0.7272728 z" />
    <path
       transform="translate(105.27273,19)"
       sodipodi:type="arc"
       style="fill:#ff0000;fill-opacity:0;stroke:#000000;stroke-width:0.40000001;stroke-miterlimit:4;stroke-opacity:1;stroke-dasharray:none;stroke-dashoffset:0"
       id="path4204-51"
       sodipodi:cx="5.2727275"
       sodipodi:cy="4.3636365"
       sodipodi:rx="0.72727275"
       sodipodi:ry="0.72727275"
       d="m 6.0000002,4.3636365 c 0,0.4016616 -0.3256111,0.7272727 -0.7272727,0.7272727 -0.4016617,0 -0.7272728,-0.3256111 -0.7272728,-0.7272727 0,-0.4016617 0.3256111,-0.7272728 0.7272728,-0.7272728 0.4016616,0 0.7272727,0.3256111 0.7272727,0.7272728 z" />
    <path
       transform="translate(110.27273,24)"
       sodipodi:type="arc"
       style="fill:#ff0000;fill-opacity:0;stroke:#000000;stroke-width:0.40000001;stroke-miterlimit:4;stroke-opacity:1;stroke-dasharray:none;stroke-dashoffset:0"
       id="path4204-78"
       sodipodi:cx="5.2727275"
       sodipodi:cy="4.3636365"
       sodipodi:rx="0.72727275"
       sodipodi:ry="0.72727275"
       d="m 6.0000002,4.3636365 c 0,0.4016616 -0.3256111,0.7272727 -0.7272727,0.7272727 -0.4016617,0 -0.7272728,-0.3256111 -0.7272728,-0.7272727 0,-0.4016617 0.3256111,-0.7272728 0.7272728,-0.7272728 0.4016616,0 0.7272727,0.3256111 0.7272727,0.7272728 z" />
    <path
       transform="translate(105.27273,9)"
       sodipodi:type="arc"
       style="fill:#ff0000;fill-opacity:0;stroke:#000000;stroke-width:0.40000001;stroke-miterlimit:4;stroke-opacity:1;stroke-dasharray:none;stroke-dashoffset:0"
       id="path4204-41"
       sodipodi:cx="5.2727275"
       sodipodi:cy="4.3636365"
       sodipodi:rx="0.72727275"
       sodipodi:ry="0.72727275"
       d="m 6.0000002,4.3636365 c 0,0.4016616 -0.3256111,0.7272727 -0.7272727,0.7272727 -0.4016617,0 -0.7272728,-0.3256111 -0.7272728,-0.7272727 0,-0.4016617 0.3256111,-0.7272728 0.7272728,-0.7272728 0.4016616,0 0.7272727,0.3256111 0.7272727,0.7272728 z" />
    <path
       transform="translate(110.27273,9)"
       sodipodi:type="arc"
       style="fill:#ff0000;fill-opacity:0;stroke:#000000;stroke-width:0.40000001;stroke-miterlimit:4;stroke-opacity:1;stroke-dasharray:none;stroke-dashoffset:0"
       id="path4204-82"
       sodipodi:cx="5.2727275"
       sodipodi:cy="4.3636365"
       sodipodi:rx="0.72727275"
       sodipodi:ry="0.72727275"
       d="m 6.0000002,4.3636365 c 0,0.4016616 -0.3256111,0.7272727 -0.7272727,0.7272727 -0.4016617,0 -0.7272728,-0.3256111 -0.7272728,-0.7272727 0,-0.4016617 0.3256111,-0.7272728 0.7272728,-0.7272728 0.4016616,0 0.7272727,0.3256111 0.7272727,0.7272728 z" />
    <path
       transform="translate(110.27273,-0.99999974)"
       sodipodi:type="arc"
       style="fill:#ff0000;fill-opacity:0;stroke:#000000;stroke-width:0.40000001;stroke-miterlimit:4;stroke-opacity:1;stroke-dasharray:none;stroke-dashoffset:0"
       id="path4204-11"
       sodipodi:cx="5.2727275"
       sodipodi:cy="4.3636365"
       sodipodi:rx="0.72727275"
       sodipodi:ry="0.72727275"
       d="m 6.0000002,4.3636365 c 0,0.4016616 -0.3256111,0.7272727 -0.7272727,0.7272727 -0.4016617,0 -0.7272728,-0.3256111 -0.7272728,-0.7272727 0,-0.4016617 0.3256111,-0.7272728 0.7272728,-0.7272728 0.4016616,0 0.7272727,0.3256111 0.7272727,0.7272728 z" />
    <path
       style="fill:none;stroke:#000000;stroke-width:1px;stroke-linecap:butt;stroke-linejoin:miter;stroke-opacity:1"
       d="m 5,4 5,5 0,-5"
       id="path4483"
       inkscape:connector-curvature="0" />
    <path
       style="fill:none;stroke:#000000;stroke-width:1px;stroke-linecap:butt;stroke-linejoin:miter;stroke-opacity:1"
       d="m 10,9 5,-5 10,5 5,0 0,-5"
       id="path4485"
       inkscape:connector-curvature="0" />
    <path
       style="fill:none;stroke:#000000;stroke-width:1px;stroke-linecap:butt;stroke-linejoin:miter;stroke-opacity:1"
       d="m 25,9 0,10 c 0.541571,1.408084 0.454545,0.759746 0.454545,1.909091 0,1.818182 0,3.636364 0,5.454545 0,0.848485 0,1.69697 0,2.545455 0,0.09508 0.0239,0.679465 0,0.727273 -0.03833,0.07666 -0.132,0.251563 -0.181818,0.181818 C 25.105633,29.58425 25.090909,29.272727 25,29"
       id="path4487"
       inkscape:connector-curvature="0" />
    <path
       style="fill:none;stroke:#000000;stroke-width:1px;stroke-linecap:butt;stroke-linejoin:miter;stroke-opacity:1"
       d="M 30,29 25,19"
       id="path4489"
       inkscape:connector-curvature="0" />
    <path
       style="fill:none;stroke:#000000;stroke-width:1px;stroke-linecap:butt;stroke-linejoin:miter;stroke-opacity:1"
       d="m 10,9 0,10"
       id="path4491"
       inkscape:connector-curvature="0" />
    <path
       style="fill:none;stroke:#000000;stroke-width:1px;stroke-linecap:butt;stroke-linejoin:miter;stroke-opacity:1"
       d="M 5,29 10,19"
       id="path4493"
       inkscape:connector-curvature="0" />
    <path
       style="fill:none;stroke:#000000;stroke-width:1px;stroke-linecap:butt;stroke-linejoin:miter;stroke-opacity:1"
       d="m 10,19 5,10"
       id="path4495"
       inkscape:connector-curvature="0" />
    <path
       style="fill:none;stroke:#000000;stroke-width:1px;stroke-linecap:butt;stroke-linejoin:miter;stroke-opacity:1"
       d="m 50,4 5,5 0,-5"
       id="path4497"
       inkscape:connector-curvature="0" />
    <path
       style="fill:none;stroke:#000000;stroke-width:1px;stroke-linecap:butt;stroke-linejoin:miter;stroke-opacity:1"
       d="m 60,4 -5,5 0,10 -5,10"
       id="path4499"
       inkscape:connector-curvature="0" />
    <path
       style="fill:none;stroke:#000000;stroke-width:1px;stroke-linecap:butt;stroke-linejoin:miter;stroke-opacity:1"
       d="m 55,19 0,10"
       id="path4501"
       inkscape:connector-curvature="0" />
    <path
       style="fill:none;stroke:#000000;stroke-width:1px;stroke-linecap:butt;stroke-linejoin:miter;stroke-opacity:1"
       d="m 75,29 -5,-5 0,-10 5,0"
       id="path4503"
       inkscape:connector-curvature="0" />
    <path
       style="fill:none;stroke:#000000;stroke-width:1px;stroke-linecap:butt;stroke-linejoin:miter;stroke-opacity:1"
       d="M 75,14 75,9"
       id="path4505"
       inkscape:connector-curvature="0" />
    <path
       style="fill:none;stroke:#000000;stroke-width:1px;stroke-linecap:butt;stroke-linejoin:miter;stroke-opacity:1"
       d="m 90.272728,3 5,10 0,-10"
       id="path4507"
       inkscape:connector-curvature="0" />
    <path
       style="fill:none;stroke:#000000;stroke-width:1px;stroke-linecap:butt;stroke-linejoin:miter;stroke-opacity:1"
       d="m 100.27273,3 -5.000002,10 0,10 -5,5"
       id="path4509"
       inkscape:connector-curvature="0" />
    <path
       style="fill:none;stroke:#000000;stroke-width:1px;stroke-linecap:butt;stroke-linejoin:miter;stroke-opacity:1"
       d="m 95.272728,23 5.000002,5 5,0 5,-5 5,5"
       id="path4511"
       inkscape:connector-curvature="0" />
    <path
       style="fill:none;stroke:#000000;stroke-width:1px;stroke-linecap:butt;stroke-linejoin:miter;stroke-opacity:1"
       d="m 110.27273,23 0,-10 -10,-10"
       id="path4513"
       inkscape:connector-curvature="0" />
    <path
       style="fill:none;stroke:#000000;stroke-width:1px;stroke-linecap:butt;stroke-linejoin:miter;stroke-opacity:1"
       d="m 115.27273,13 0,-10"
       id="path4515"
       inkscape:connector-curvature="0" />
    <text
       xml:space="preserve"
       style="font-size:8px;font-style:normal;font-weight:normal;line-height:125%;letter-spacing:0px;word-spacing:0px;fill:#000000;fill-opacity:1;stroke:none;font-family:Sans"
       x="-25"
       y="44"
       id="text4517"
       sodipodi:linespacing="125%"><tspan
         sodipodi:role="line"
         id="tspan4519"
         x="-25"
         y="44">Arbre</tspan></text>
    <text
       xml:space="preserve"
       style="font-size:8px;font-style:normal;font-weight:normal;line-height:125%;letter-spacing:0px;word-spacing:0px;fill:#000000;fill-opacity:1;stroke:none;font-family:Sans"
       x="-21.90909"
       y="59"
       id="text4521"
       sodipodi:linespacing="125%"><tspan
         sodipodi:role="line"
         id="tspan4523"
         x="-21.90909"
         y="59">Forêt</tspan></text>
    <text
       xml:space="preserve"
       style="font-size:8px;font-style:normal;font-weight:normal;line-height:125%;letter-spacing:0px;word-spacing:0px;fill:#000000;fill-opacity:1;stroke:none;font-family:Sans"
       x="8.09091"
       y="44"
       id="text4525"
       sodipodi:linespacing="125%"><tspan
         sodipodi:role="line"
         id="tspan4527"
         x="8.09091"
         y="44">oui</tspan></text>
    <text
       xml:space="preserve"
       style="font-size:8px;font-style:normal;font-weight:normal;line-height:125%;letter-spacing:0px;word-spacing:0px;fill:#000000;fill-opacity:1;stroke:none;font-family:Sans"
       x="53.090912"
       y="44"
       id="text4529"
       sodipodi:linespacing="125%"><tspan
         sodipodi:role="line"
         id="tspan4531"
         x="53.090912"
         y="44">non</tspan></text>
    <text
       xml:space="preserve"
       style="font-size:8px;font-style:normal;font-weight:normal;line-height:125%;letter-spacing:0px;word-spacing:0px;fill:#000000;fill-opacity:1;stroke:none;font-family:Sans"
       x="98.090912"
       y="44"
       id="text4529-0"
       sodipodi:linespacing="125%"><tspan
         sodipodi:role="line"
         id="tspan4531-9"
         x="98.090912"
         y="44">non</tspan></text>
    <text
       xml:space="preserve"
       style="font-size:8px;font-style:normal;font-weight:normal;line-height:125%;letter-spacing:0px;word-spacing:0px;fill:#000000;fill-opacity:1;stroke:none;font-family:Sans"
       x="98.090912"
       y="59"
       id="text4529-1"
       sodipodi:linespacing="125%"><tspan
         sodipodi:role="line"
         id="tspan4531-5"
         x="98.090912"
         y="59">non</tspan></text>
    <text
       xml:space="preserve"
       style="font-size:8px;font-style:normal;font-weight:normal;line-height:125%;letter-spacing:0px;word-spacing:0px;fill:#000000;fill-opacity:1;stroke:none;font-family:Sans"
       x="8.09091"
       y="59"
       id="text4525-4"
       sodipodi:linespacing="125%"><tspan
         sodipodi:role="line"
         id="tspan4527-6"
         x="8.09091"
         y="59">oui</tspan></text>
    <text
       xml:space="preserve"
       style="font-size:8px;font-style:normal;font-weight:normal;line-height:125%;letter-spacing:0px;word-spacing:0px;fill:#000000;fill-opacity:1;stroke:none;font-family:Sans"
       x="53.090912"
       y="59"
       id="text4525-5"
       sodipodi:linespacing="125%"><tspan
         sodipodi:role="line"
         id="tspan4527-4"
         x="53.090912"
         y="59">oui</tspan></text>
    <rect
       style="fill:#ff0000;fill-opacity:0;stroke:#000000;stroke-width:0.40000001;stroke-miterlimit:4;stroke-opacity:1;stroke-dasharray:none;stroke-dashoffset:0"
       id="rect4593"
       width="35"
       height="35"
       x="0"
       y="-1" />
    <rect
       style="fill:#ff0000;fill-opacity:0;stroke:#000000;stroke-width:0.40000001;stroke-miterlimit:4;stroke-opacity:1;stroke-dasharray:none;stroke-dashoffset:0"
       id="rect4595"
       width="35"
       height="35"
       x="45"
       y="-1" />
    <rect
       style="fill:#ff0000;fill-opacity:0;stroke:#000000;stroke-width:0.40000001;stroke-miterlimit:4;stroke-opacity:1;stroke-dasharray:none;stroke-dashoffset:0"
       id="rect4597"
       width="35"
       height="35"
       x="85"
       y="-1" />
  </g>
</svg>
