<?xml version="1.0" encoding="UTF-8" standalone="no"?>
<!-- Created with Inkscape (http://www.inkscape.org/) -->

<svg
   xmlns:dc="http://purl.org/dc/elements/1.1/"
   xmlns:cc="http://creativecommons.org/ns#"
   xmlns:rdf="http://www.w3.org/1999/02/22-rdf-syntax-ns#"
   xmlns:svg="http://www.w3.org/2000/svg"
   xmlns="http://www.w3.org/2000/svg"
   xmlns:sodipodi="http://sodipodi.sourceforge.net/DTD/sodipodi-0.dtd"
   xmlns:inkscape="http://www.inkscape.org/namespaces/inkscape"
   width="760.01971"
   height="525.39734"
   id="svg2"
   version="1.1"
   inkscape:version="0.48.4 r9939"
   sodipodi:docname="Nouveau document 1">
  <defs
     id="defs4" />
  <sodipodi:namedview
     id="base"
     pagecolor="#ffffff"
     bordercolor="#666666"
     borderopacity="1.0"
     inkscape:pageopacity="0.0"
     inkscape:pageshadow="2"
     inkscape:zoom="0.7"
     inkscape:cx="266.03243"
     inkscape:cy="298.37644"
     inkscape:document-units="px"
     inkscape:current-layer="layer1"
     showgrid="false"
     fit-margin-top="20"
     fit-margin-left="20"
     fit-margin-right="20"
     fit-margin-bottom="20"
     inkscape:window-width="1024"
     inkscape:window-height="679"
     inkscape:window-x="0"
     inkscape:window-y="38"
     inkscape:window-maximized="1" />
  <metadata
     id="metadata7">
    <rdf:RDF>
      <cc:Work
         rdf:about="">
        <dc:format>image/svg+xml</dc:format>
        <dc:type
           rdf:resource="http://purl.org/dc/dcmitype/StillImage" />
        <dc:title></dc:title>
      </cc:Work>
    </rdf:RDF>
  </metadata>
  <g
     inkscape:label="Calque 1"
     inkscape:groupmode="layer"
     id="layer1"
     transform="translate(0.90626,-43.59375)">
    <text
       xml:space="preserve"
       style="font-size:40px;font-style:normal;font-weight:normal;line-height:125%;letter-spacing:0px;word-spacing:0px;fill:#000000;fill-opacity:1;stroke:none;font-family:Sans"
       x="391.46341"
       y="113.24107"
       id="text2985"
       sodipodi:linespacing="125%"><tspan
         sodipodi:role="line"
         id="tspan2987"
         x="391.46341"
         y="113.24107">1</tspan></text>
    <text
       xml:space="preserve"
       style="font-size:40px;font-style:normal;font-weight:normal;line-height:125%;letter-spacing:0px;word-spacing:0px;fill:#000000;fill-opacity:1;stroke:none;font-family:Sans"
       x="222.248"
       y="232.17656"
       id="text2989"
       sodipodi:linespacing="125%"><tspan
         sodipodi:role="line"
         id="tspan2991"
         x="222.248"
         y="232.17656">2</tspan></text>
    <text
       xml:space="preserve"
       style="font-size:40px;font-style:normal;font-weight:normal;line-height:125%;letter-spacing:0px;word-spacing:0px;fill:#000000;fill-opacity:1;stroke:none;font-family:Sans"
       x="125.8897"
       y="389.84445"
       id="text2993"
       sodipodi:linespacing="125%"><tspan
         sodipodi:role="line"
         id="tspan2995"
         x="125.8897"
         y="389.84445">3</tspan></text>
    <text
       xml:space="preserve"
       style="font-size:40px;font-style:normal;font-weight:normal;line-height:125%;letter-spacing:0px;word-spacing:0px;fill:#000000;fill-opacity:1;stroke:none;font-family:Sans"
       x="53.596672"
       y="513.75891"
       id="text2997"
       sodipodi:linespacing="125%"><tspan
         sodipodi:role="line"
         id="tspan2999"
         x="53.596672"
         y="513.75891">4</tspan></text>
    <text
       xml:space="preserve"
       style="font-size:40px;font-style:normal;font-weight:normal;line-height:125%;letter-spacing:0px;word-spacing:0px;fill:#000000;fill-opacity:1;stroke:none;font-family:Sans"
       x="162.12907"
       y="508.00977"
       id="text3001"
       sodipodi:linespacing="125%"><tspan
         sodipodi:role="line"
         id="tspan3003"
         x="162.12907"
         y="508.00977">5</tspan></text>
    <text
       xml:space="preserve"
       style="font-size:40px;font-style:normal;font-weight:normal;line-height:125%;letter-spacing:0px;word-spacing:0px;fill:#000000;fill-opacity:1;stroke:none;font-family:Sans"
       x="312.35971"
       y="377.26425"
       id="text3005"
       sodipodi:linespacing="125%"><tspan
         sodipodi:role="line"
         id="tspan3007"
         x="312.35971"
         y="377.26425">6</tspan></text>
    <text
       xml:space="preserve"
       style="font-size:40px;font-style:normal;font-weight:normal;line-height:125%;letter-spacing:0px;word-spacing:0px;fill:#000000;fill-opacity:1;stroke:none;font-family:Sans"
       x="250.06671"
       y="508.66818"
       id="text3009"
       sodipodi:linespacing="125%"><tspan
         sodipodi:role="line"
         id="tspan3011"
         x="250.06671"
         y="508.66818">7</tspan></text>
    <text
       xml:space="preserve"
       style="font-size:40px;font-style:normal;font-weight:normal;line-height:125%;letter-spacing:0px;word-spacing:0px;fill:#000000;fill-opacity:1;stroke:none;font-family:Sans"
       x="362.44382"
       y="506.22433"
       id="text3013"
       sodipodi:linespacing="125%"><tspan
         sodipodi:role="line"
         id="tspan3015"
         x="362.44382"
         y="506.22433">8</tspan></text>
    <text
       xml:space="preserve"
       style="font-size:40px;font-style:normal;font-weight:normal;line-height:125%;letter-spacing:0px;word-spacing:0px;fill:#000000;fill-opacity:1;stroke:none;font-family:Sans"
       x="560.16821"
       y="230.06914"
       id="text3017"
       sodipodi:linespacing="125%"><tspan
         sodipodi:role="line"
         id="tspan3019"
         x="560.16821"
         y="230.06914">9</tspan></text>
    <text
       xml:space="preserve"
       style="font-size:40px;font-style:normal;font-weight:normal;line-height:125%;letter-spacing:0px;word-spacing:0px;fill:#000000;fill-opacity:1;stroke:none;font-family:Sans"
       x="463.38217"
       y="372.03"
       id="text3021"
       sodipodi:linespacing="125%"><tspan
         sodipodi:role="line"
         id="tspan3023"
         x="463.38217"
         y="372.03">10</tspan></text>
    <text
       xml:space="preserve"
       style="font-size:40px;font-style:normal;font-weight:normal;line-height:125%;letter-spacing:0px;word-spacing:0px;fill:#000000;fill-opacity:1;stroke:none;font-family:Sans"
       x="503.82013"
       y="503.39185"
       id="text3025"
       sodipodi:linespacing="125%"><tspan
         sodipodi:role="line"
         id="tspan3027"
         x="503.82013"
         y="503.39185">11</tspan></text>
    <text
       xml:space="preserve"
       style="font-size:40px;font-style:normal;font-weight:normal;line-height:125%;letter-spacing:0px;word-spacing:0px;fill:#000000;fill-opacity:1;stroke:none;font-family:Sans"
       x="641.76801"
       y="377.97195"
       id="text3029"
       sodipodi:linespacing="125%"><tspan
         sodipodi:role="line"
         id="tspan3031"
         x="641.76801"
         y="377.97195">12</tspan></text>
    <text
       xml:space="preserve"
       style="font-size:40px;font-style:normal;font-weight:normal;line-height:125%;letter-spacing:0px;word-spacing:0px;fill:#000000;fill-opacity:1;stroke:none;font-family:Sans"
       x="590.94135"
       y="505.37732"
       id="text3033"
       sodipodi:linespacing="125%"><tspan
         sodipodi:role="line"
         id="tspan3035"
         x="590.94135"
         y="505.37732">13</tspan></text>
    <text
       xml:space="preserve"
       style="font-size:40px;font-style:normal;font-weight:normal;line-height:125%;letter-spacing:0px;word-spacing:0px;fill:#000000;fill-opacity:1;stroke:none;font-family:Sans"
       x="682.80066"
       y="506.15466"
       id="text3037"
       sodipodi:linespacing="125%"><tspan
         sodipodi:role="line"
         id="tspan3039"
         x="682.80066"
         y="506.15466">14</tspan></text>
    <path
       style="fill:none;stroke:#000000;stroke-width:1px;stroke-linecap:butt;stroke-linejoin:miter;stroke-opacity:1"
       d="m 372.85714,115.21932 -120,72.85715"
       id="path3041"
       inkscape:connector-curvature="0" />
    <path
       style="fill:none;stroke:#000000;stroke-width:1px;stroke-linecap:butt;stroke-linejoin:miter;stroke-opacity:1"
       d="m 410,113.79075 135.71429,74.28572"
       id="path3043"
       inkscape:connector-curvature="0" />
    <path
       style="fill:none;stroke:#000000;stroke-width:1px;stroke-linecap:butt;stroke-linejoin:miter;stroke-opacity:1"
       d="M 222.85714,248.07647 137.14286,356.6479"
       id="path3045"
       inkscape:connector-curvature="0" />
    <path
       style="fill:none;stroke:#000000;stroke-width:1px;stroke-linecap:butt;stroke-linejoin:miter;stroke-opacity:1"
       d="m 250,248.07647 75.71429,88.57143"
       id="path3047"
       inkscape:connector-curvature="0" />
    <path
       style="fill:none;stroke:#000000;stroke-width:1px;stroke-linecap:butt;stroke-linejoin:miter;stroke-opacity:1"
       d="m 565.71429,243.79075 -70,92.85715"
       id="path3049"
       inkscape:connector-curvature="0" />
    <path
       style="fill:none;stroke:#000000;stroke-width:1px;stroke-linecap:butt;stroke-linejoin:miter;stroke-opacity:1"
       d="M 578.57143,243.79075 660,336.6479"
       id="path3051"
       inkscape:connector-curvature="0" />
    <path
       style="fill:none;stroke:#000000;stroke-width:1px;stroke-linecap:butt;stroke-linejoin:miter;stroke-opacity:1"
       d="M 131.42857,400.93361 71.428571,473.79075"
       id="path3053"
       inkscape:connector-curvature="0" />
    <path
       style="fill:none;stroke:#000000;stroke-width:1px;stroke-linecap:butt;stroke-linejoin:miter;stroke-opacity:1"
       d="m 147.14286,402.36218 28.57143,68.57143"
       id="path3055"
       inkscape:connector-curvature="0" />
    <path
       style="fill:none;stroke:#000000;stroke-width:1px;stroke-linecap:butt;stroke-linejoin:miter;stroke-opacity:1"
       d="m 318.57143,386.6479 -50,77.14285"
       id="path3057"
       inkscape:connector-curvature="0" />
    <path
       style="fill:none;stroke:#000000;stroke-width:1px;stroke-linecap:butt;stroke-linejoin:miter;stroke-opacity:1"
       d="m 331.42857,383.79075 41.42857,68.57143"
       id="path3059"
       inkscape:connector-curvature="0" />
    <path
       style="fill:none;stroke:#000000;stroke-width:1px;stroke-linecap:butt;stroke-linejoin:miter;stroke-opacity:1"
       d="m 487.14286,388.07647 38.57143,61.42857"
       id="path3061"
       inkscape:connector-curvature="0" />
    <path
       style="fill:none;stroke:#000000;stroke-width:1px;stroke-linecap:butt;stroke-linejoin:miter;stroke-opacity:1"
       d="m 665.71429,392.36218 -52.85715,72.85715"
       id="path3063"
       inkscape:connector-curvature="0" />
    <path
       style="fill:none;stroke:#000000;stroke-width:1px;stroke-linecap:butt;stroke-linejoin:miter;stroke-opacity:1"
       d="m 675.71429,386.6479 38.57142,72.85714"
       id="path3065"
       inkscape:connector-curvature="0" />
    <path
       style="fill:none;stroke:#000000;stroke-width:1px;stroke-linecap:butt;stroke-linejoin:miter;stroke-opacity:1"
       d="M 354.28571,80.933611 C 286.35081,132.09316 200.79101,167.22459 157.12383,244.41198 118.72586,327.24906 75.349051,422.42186 38.505397,505.94121 c -6.659216,43.4456 72.942823,21.14208 87.261833,-56.21481 13.42911,-21.63384 28.04554,51.92771 35.3345,66.67791 41.9453,20.90278 68.46519,-49.45504 35.54432,-77.71225 -24.48853,-31.88046 -20.17835,-73.99047 -2.71389,-107.85137 12.08226,-35.07151 64.82713,-52.74649 84.37271,-13.95774 24.52436,40.36341 6.26068,90.08421 -19.47654,125.01312 -12.03805,19.10115 -34.61998,51.51722 -10.21209,72.31824 35.21951,25.44973 54.53423,-68.10944 71.26511,-92.69206 19.90347,55.16939 47.89945,123.13506 76.57051,95.37646 8.36068,-23.7111 -1.5607,-82.01399 -7.35253,-105.9042 -18.14465,-58.94701 -59.83438,-107.99199 -109.08381,-143.81836 -27.85158,-30.48045 0.69839,-75.68837 33.37883,-88.31858 36.77768,-23.69201 86.90569,-37.34087 126.70264,-12.58956 33.06816,17.00505 59.12767,44.17992 84.99279,70.28104 -11.8735,55.0035 -74.17522,86.9827 -75.08017,145.53148 7.44882,42.42637 27.49407,102.47888 54.15244,135.28854 24.23368,26.33398 77.64201,-18.0685 64.19749,-54.36989 -10.48841,-42.68232 -45.37785,-77.83724 -42.20689,-124.14602 -0.0851,-30.98589 22.39794,-69.9644 57.38709,-65.15223 38.4726,8.81306 46.8054,54.64306 48.00522,88.06092 4.39494,36.76379 -22.95241,63.35444 -37.03898,93.93867 -28.07216,29.42834 6.87592,93.99718 32.13329,69.63458 19.68169,-15.36336 33.5924,-114.2957 51.87073,-82.90311 -3.87207,41.39587 2.83662,97.84291 37.13156,85.20005 C 758.27415,500.1967 732.81859,400.2627 709.40299,369.47624 684.68365,327.61892 660.40605,299.96283 634.53547,260.42108 602.15181,224.26213 573.54592,183.95891 545.43755,144.00905 513.64981,126.38792 497.47187,114.16811 472.05593,96.425837 445.99535,83.732919 426.35474,69.362064 398.57143,66.647896"
       id="path3067"
       inkscape:connector-curvature="0"
       sodipodi:nodetypes="cccccccccccccccccccccccccccccccc" />
    <path
       sodipodi:type="arc"
       style="fill:#ff0000;fill-opacity:1;stroke:#000000;stroke-width:0.375;stroke-linecap:round;stroke-linejoin:bevel;stroke-miterlimit:4;stroke-opacity:1;stroke-dasharray:none;stroke-dashoffset:0"
       id="path3078"
       sodipodi:cx="350.71429"
       sodipodi:cy="83.076469"
       sodipodi:rx="16.428572"
       sodipodi:ry="19.285715"
       d="m 367.14287,83.076469 c 0,10.651207 -7.35533,19.285711 -16.42858,19.285711 -9.07325,0 -16.42857,-8.634504 -16.42857,-19.285711 0,-10.651206 7.35532,-19.285715 16.42857,-19.285715 9.07325,0 16.42858,8.634509 16.42858,19.285715 z" />
    <path
       transform="translate(-149.28572,107.85714)"
       sodipodi:type="arc"
       style="fill:#ff0000;fill-opacity:1;stroke:#000000;stroke-width:0.375;stroke-linecap:round;stroke-linejoin:bevel;stroke-miterlimit:4;stroke-opacity:1;stroke-dasharray:none;stroke-dashoffset:0"
       id="path3078-5"
       sodipodi:cx="350.71429"
       sodipodi:cy="83.076469"
       sodipodi:rx="16.428572"
       sodipodi:ry="19.285715"
       d="m 367.14287,83.076469 c 0,10.651207 -7.35533,19.285711 -16.42858,19.285711 -9.07325,0 -16.42857,-8.634504 -16.42857,-19.285711 0,-10.651206 7.35532,-19.285715 16.42857,-19.285715 9.07325,0 16.42858,8.634509 16.42858,19.285715 z" />
    <path
       transform="translate(-247.85716,285)"
       sodipodi:type="arc"
       style="fill:#ff0000;fill-opacity:1;stroke:#000000;stroke-width:0.375;stroke-linecap:round;stroke-linejoin:bevel;stroke-miterlimit:4;stroke-opacity:1;stroke-dasharray:none;stroke-dashoffset:0"
       id="path3078-4"
       sodipodi:cx="350.71429"
       sodipodi:cy="83.076469"
       sodipodi:rx="16.428572"
       sodipodi:ry="19.285715"
       d="m 367.14287,83.076469 c 0,10.651207 -7.35533,19.285711 -16.42858,19.285711 -9.07325,0 -16.42857,-8.634504 -16.42857,-19.285711 0,-10.651206 7.35532,-19.285715 16.42857,-19.285715 9.07325,0 16.42858,8.634509 16.42858,19.285715 z" />
    <path
       transform="translate(-315.00001,435)"
       sodipodi:type="arc"
       style="fill:#ff0000;fill-opacity:1;stroke:#000000;stroke-width:0.375;stroke-linecap:round;stroke-linejoin:bevel;stroke-miterlimit:4;stroke-opacity:1;stroke-dasharray:none;stroke-dashoffset:0"
       id="path3078-8"
       sodipodi:cx="350.71429"
       sodipodi:cy="83.076469"
       sodipodi:rx="16.428572"
       sodipodi:ry="19.285715"
       d="m 367.14287,83.076469 c 0,10.651207 -7.35533,19.285711 -16.42858,19.285711 -9.07325,0 -16.42857,-8.634504 -16.42857,-19.285711 0,-10.651206 7.35532,-19.285715 16.42857,-19.285715 9.07325,0 16.42858,8.634509 16.42858,19.285715 z" />
    <path
       transform="translate(-173.57143,443.57143)"
       sodipodi:type="arc"
       style="fill:#ff0000;fill-opacity:1;stroke:#000000;stroke-width:0.375;stroke-linecap:round;stroke-linejoin:bevel;stroke-miterlimit:4;stroke-opacity:1;stroke-dasharray:none;stroke-dashoffset:0"
       id="path3078-0"
       sodipodi:cx="350.71429"
       sodipodi:cy="83.076469"
       sodipodi:rx="16.428572"
       sodipodi:ry="19.285715"
       d="m 367.14287,83.076469 c 0,10.651207 -7.35533,19.285711 -16.42858,19.285711 -9.07325,0 -16.42857,-8.634504 -16.42857,-19.285711 0,-10.651206 7.35532,-19.285715 16.42857,-19.285715 9.07325,0 16.42858,8.634509 16.42858,19.285715 z" />
    <path
       transform="translate(-60.714294,274.99999)"
       sodipodi:type="arc"
       style="fill:#ff0000;fill-opacity:1;stroke:#000000;stroke-width:0.375;stroke-linecap:round;stroke-linejoin:bevel;stroke-miterlimit:4;stroke-opacity:1;stroke-dasharray:none;stroke-dashoffset:0"
       id="path3078-2"
       sodipodi:cx="350.71429"
       sodipodi:cy="83.076469"
       sodipodi:rx="16.428572"
       sodipodi:ry="19.285715"
       d="m 367.14287,83.076469 c 0,10.651207 -7.35533,19.285711 -16.42858,19.285711 -9.07325,0 -16.42857,-8.634504 -16.42857,-19.285711 0,-10.651206 7.35532,-19.285715 16.42857,-19.285715 9.07325,0 16.42858,8.634509 16.42858,19.285715 z" />
    <path
       transform="translate(-100.71429,440.71428)"
       sodipodi:type="arc"
       style="fill:#ff0000;fill-opacity:1;stroke:#000000;stroke-width:0.375;stroke-linecap:round;stroke-linejoin:bevel;stroke-miterlimit:4;stroke-opacity:1;stroke-dasharray:none;stroke-dashoffset:0"
       id="path3078-41"
       sodipodi:cx="350.71429"
       sodipodi:cy="83.076469"
       sodipodi:rx="16.428572"
       sodipodi:ry="19.285715"
       d="m 367.14287,83.076469 c 0,10.651207 -7.35533,19.285711 -16.42858,19.285711 -9.07325,0 -16.42857,-8.634504 -16.42857,-19.285711 0,-10.651206 7.35532,-19.285715 16.42857,-19.285715 9.07325,0 16.42858,8.634509 16.42858,19.285715 z" />
    <path
       transform="translate(23.57142,439.28571)"
       sodipodi:type="arc"
       style="fill:#ff0000;fill-opacity:1;stroke:#000000;stroke-width:0.375;stroke-linecap:round;stroke-linejoin:bevel;stroke-miterlimit:4;stroke-opacity:1;stroke-dasharray:none;stroke-dashoffset:0"
       id="path3078-3"
       sodipodi:cx="350.71429"
       sodipodi:cy="83.076469"
       sodipodi:rx="16.428572"
       sodipodi:ry="19.285715"
       d="m 367.14287,83.076469 c 0,10.651207 -7.35533,19.285711 -16.42858,19.285711 -9.07325,0 -16.42857,-8.634504 -16.42857,-19.285711 0,-10.651206 7.35532,-19.285715 16.42857,-19.285715 9.07325,0 16.42858,8.634509 16.42858,19.285715 z" />
    <path
       transform="translate(174.99999,159.28571)"
       sodipodi:type="arc"
       style="fill:#ff0000;fill-opacity:1;stroke:#000000;stroke-width:0.375;stroke-linecap:round;stroke-linejoin:bevel;stroke-miterlimit:4;stroke-opacity:1;stroke-dasharray:none;stroke-dashoffset:0"
       id="path3078-01"
       sodipodi:cx="350.71429"
       sodipodi:cy="83.076469"
       sodipodi:rx="16.428572"
       sodipodi:ry="19.285715"
       d="m 367.14287,83.076469 c 0,10.651207 -7.35533,19.285711 -16.42858,19.285711 -9.07325,0 -16.42857,-8.634504 -16.42857,-19.285711 0,-10.651206 7.35532,-19.285715 16.42857,-19.285715 9.07325,0 16.42858,8.634509 16.42858,19.285715 z" />
    <path
       transform="translate(103.57142,273.57143)"
       sodipodi:type="arc"
       style="fill:#ff0000;fill-opacity:1;stroke:#000000;stroke-width:0.375;stroke-linecap:round;stroke-linejoin:bevel;stroke-miterlimit:4;stroke-opacity:1;stroke-dasharray:none;stroke-dashoffset:0"
       id="path3078-89"
       sodipodi:cx="350.71429"
       sodipodi:cy="83.076469"
       sodipodi:rx="16.428572"
       sodipodi:ry="19.285715"
       d="m 367.14287,83.076469 c 0,10.651207 -7.35533,19.285711 -16.42858,19.285711 -9.07325,0 -16.42857,-8.634504 -16.42857,-19.285711 0,-10.651206 7.35532,-19.285715 16.42857,-19.285715 9.07325,0 16.42858,8.634509 16.42858,19.285715 z" />
    <path
       transform="translate(174.99999,445)"
       sodipodi:type="arc"
       style="fill:#ff0000;fill-opacity:1;stroke:#000000;stroke-width:0.375;stroke-linecap:round;stroke-linejoin:bevel;stroke-miterlimit:4;stroke-opacity:1;stroke-dasharray:none;stroke-dashoffset:0"
       id="path3078-6"
       sodipodi:cx="350.71429"
       sodipodi:cy="83.076469"
       sodipodi:rx="16.428572"
       sodipodi:ry="19.285715"
       d="m 367.14287,83.076469 c 0,10.651207 -7.35533,19.285711 -16.42858,19.285711 -9.07325,0 -16.42857,-8.634504 -16.42857,-19.285711 0,-10.651206 7.35532,-19.285715 16.42857,-19.285715 9.07325,0 16.42858,8.634509 16.42858,19.285715 z" />
    <path
       transform="translate(280.71428,279.28571)"
       sodipodi:type="arc"
       style="fill:#ff0000;fill-opacity:1;stroke:#000000;stroke-width:0.375;stroke-linecap:round;stroke-linejoin:bevel;stroke-miterlimit:4;stroke-opacity:1;stroke-dasharray:none;stroke-dashoffset:0"
       id="path3078-88"
       sodipodi:cx="350.71429"
       sodipodi:cy="83.076469"
       sodipodi:rx="16.428572"
       sodipodi:ry="19.285715"
       d="m 367.14287,83.076469 c 0,10.651207 -7.35533,19.285711 -16.42858,19.285711 -9.07325,0 -16.42857,-8.634504 -16.42857,-19.285711 0,-10.651206 7.35532,-19.285715 16.42857,-19.285715 9.07325,0 16.42858,8.634509 16.42858,19.285715 z" />
    <path
       transform="translate(260.71428,439.28571)"
       sodipodi:type="arc"
       style="fill:#ff0000;fill-opacity:1;stroke:#000000;stroke-width:0.375;stroke-linecap:round;stroke-linejoin:bevel;stroke-miterlimit:4;stroke-opacity:1;stroke-dasharray:none;stroke-dashoffset:0"
       id="path3078-85"
       sodipodi:cx="350.71429"
       sodipodi:cy="83.076469"
       sodipodi:rx="16.428572"
       sodipodi:ry="19.285715"
       d="m 367.14287,83.076469 c 0,10.651207 -7.35533,19.285711 -16.42858,19.285711 -9.07325,0 -16.42857,-8.634504 -16.42857,-19.285711 0,-10.651206 7.35532,-19.285715 16.42857,-19.285715 9.07325,0 16.42858,8.634509 16.42858,19.285715 z" />
    <path
       transform="translate(356.42856,446.42857)"
       sodipodi:type="arc"
       style="fill:#ff0000;fill-opacity:1;stroke:#000000;stroke-width:0.375;stroke-linecap:round;stroke-linejoin:bevel;stroke-miterlimit:4;stroke-opacity:1;stroke-dasharray:none;stroke-dashoffset:0"
       id="path3078-50"
       sodipodi:cx="350.71429"
       sodipodi:cy="83.076469"
       sodipodi:rx="16.428572"
       sodipodi:ry="19.285715"
       d="m 367.14287,83.076469 c 0,10.651207 -7.35533,19.285711 -16.42858,19.285711 -9.07325,0 -16.42857,-8.634504 -16.42857,-19.285711 0,-10.651206 7.35532,-19.285715 16.42857,-19.285715 9.07325,0 16.42858,8.634509 16.42858,19.285715 z" />
  </g>
</svg>
